<svg width="272" height="160" viewBox="0 0 272 160" fill="none" xmlns="http://www.w3.org/2000/svg">
<g clip-path="url(#clip0_126_1407)">
<g filter="url(#filter0_f_126_1407)">
<path d="M158.085 39.1069C165.368 65.8959 165.368 94.1039 158.085 120.893L3.25674 79.9999L158.085 39.1069Z" fill="url(#paint0_linear_126_1407)"/>
</g>
<path d="M158.085 39.1069C165.368 65.8959 165.368 94.1039 158.085 120.893L3.25674 79.9999L158.085 39.1069Z" fill="url(#paint1_linear_126_1407)"/>
<g opacity="0.8" filter="url(#filter1_f_126_1407)">
<path opacity="0.8" d="M190.423 30.566C199.081 28.279 208.048 33.338 209.693 42.024C214.445 67.124 214.445 92.876 209.693 117.976C208.048 126.662 199.081 131.721 190.423 129.434L3.25674 80L190.423 30.566Z" fill="url(#paint2_linear_126_1407)"/>
</g>
</g>
<path opacity="0.8" fill-rule="evenodd" clip-rule="evenodd" d="M195 130.093C199.392 113.661 201.733 96.3918 201.733 78.5754C201.733 60.7591 199.392 43.4896 195 27.0578L202.68 25C212.084 60.0979 212.084 97.053 202.68 132.151L195 130.093Z" fill="#198CFF"/>
<g opacity="0.6" filter="url(#filter2_f_126_1407)">
<path d="M214.733 79.5754L223.774 67.5754H237.733L228.692 79.5754L237.733 91.5754H223.774L214.733 79.5754Z" fill="#198CFF"/>
</g>
<g opacity="0.6" filter="url(#filter3_f_126_1407)">
<path d="M232.733 79.5754L241.774 67.5754H255.733L246.692 79.5754L255.733 91.5754H241.774L232.733 79.5754Z" fill="#198CFF"/>
</g>
<path d="M214.733 79.5754L223.774 67.5754H237.733L228.692 79.5754L237.733 91.5754H223.774L214.733 79.5754Z" fill="#198CFF"/>
<path d="M232.733 79.5754L241.774 67.5754H255.733L246.692 79.5754L255.733 91.5754H241.774L232.733 79.5754Z" fill="#198CFF"/>
<defs>
<filter id="filter0_f_126_1407" x="-16.7433" y="19.1069" width="200.29" height="121.786" filterUnits="userSpaceOnUse" color-interpolation-filters="sRGB">
<feFlood flood-opacity="0" result="BackgroundImageFix"/>
<feBlend mode="normal" in="SourceGraphic" in2="BackgroundImageFix" result="shape"/>
<feGaussianBlur stdDeviation="10" result="effect1_foregroundBlur_126_1407"/>
</filter>
<filter id="filter1_f_126_1407" x="-20.7433" y="6.01709" width="258" height="147.966" filterUnits="userSpaceOnUse" color-interpolation-filters="sRGB">
<feFlood flood-opacity="0" result="BackgroundImageFix"/>
<feBlend mode="normal" in="SourceGraphic" in2="BackgroundImageFix" result="shape"/>
<feGaussianBlur stdDeviation="12" result="effect1_foregroundBlur_126_1407"/>
</filter>
<filter id="filter2_f_126_1407" x="204.733" y="57.5754" width="43" height="44" filterUnits="userSpaceOnUse" color-interpolation-filters="sRGB">
<feFlood flood-opacity="0" result="BackgroundImageFix"/>
<feBlend mode="normal" in="SourceGraphic" in2="BackgroundImageFix" result="shape"/>
<feGaussianBlur stdDeviation="5" result="effect1_foregroundBlur_126_1407"/>
</filter>
<filter id="filter3_f_126_1407" x="222.733" y="57.5754" width="43" height="44" filterUnits="userSpaceOnUse" color-interpolation-filters="sRGB">
<feFlood flood-opacity="0" result="BackgroundImageFix"/>
<feBlend mode="normal" in="SourceGraphic" in2="BackgroundImageFix" result="shape"/>
<feGaussianBlur stdDeviation="5" result="effect1_foregroundBlur_126_1407"/>
</filter>
<linearGradient id="paint0_linear_126_1407" x1="3.25674" y1="79.9999" x2="163.547" y2="79.9999" gradientUnits="userSpaceOnUse">
<stop stop-color="#2FDAF1"/>
<stop offset="1" stop-color="#2FDAF1" stop-opacity="0"/>
</linearGradient>
<linearGradient id="paint1_linear_126_1407" x1="3.25674" y1="79.9999" x2="163.547" y2="79.9999" gradientUnits="userSpaceOnUse">
<stop stop-color="#E14680"/>
<stop offset="1" stop-color="#E14680" stop-opacity="0"/>
</linearGradient>
<linearGradient id="paint2_linear_126_1407" x1="137.677" y1="80" x2="229.489" y2="80" gradientUnits="userSpaceOnUse">
<stop offset="0.376366" stop-color="white" stop-opacity="0"/>
<stop offset="1" stop-color="white"/>
</linearGradient>
<clipPath id="clip0_126_1407">
<rect width="241" height="131" fill="white" transform="translate(0 14)"/>
</clipPath>
</defs>
</svg>
