<svg width="33" height="33" viewBox="0 0 33 33" fill="none" xmlns="http://www.w3.org/2000/svg">
<g clip-path="url(#clip0_123_1402)">
<path d="M16.8562 32.8481C25.6928 32.8481 32.8562 25.6878 32.8562 16.8551C32.8562 8.02247 25.6928 0.862183 16.8562 0.862183C8.01964 0.862183 0.856201 8.02247 0.856201 16.8551C0.856201 25.6878 8.01964 32.8481 16.8562 32.8481Z" fill="#198CFF"/>
<path d="M20.782 1.94172C20.8635 1.63103 20.6778 1.31205 20.3642 1.24196C18.0274 0.719636 15.6029 0.728264 13.2699 1.2672C12.9568 1.33953 12.7733 1.65982 12.857 1.96992L13.2207 3.3175C13.3044 3.6276 13.6236 3.80987 13.9371 3.73972C15.8386 3.31431 17.8101 3.30729 19.7146 3.71916C20.0286 3.78708 20.3465 3.60254 20.428 3.29185L20.782 1.94172Z" fill="white"/>
<path d="M5.9559 5.95223C5.72871 5.7251 5.35944 5.72439 5.14065 5.95964C3.51016 7.71243 2.29397 9.80892 1.58196 12.0941C1.48641 12.4007 1.67044 12.7208 1.9805 12.805L3.32792 13.1713C3.63799 13.2557 3.95648 13.0723 4.05415 12.7663C4.64643 10.9107 5.63539 9.20594 6.95229 7.7704C7.16949 7.53369 7.17052 7.16627 6.94328 6.93918L5.9559 5.95223Z" fill="white"/>
<path d="M13.11 31.8088C13.0316 32.1203 13.2205 32.4374 13.5347 32.5044C15.8766 33.0037 18.3008 32.9712 20.6284 32.4093C20.9408 32.3339 21.1211 32.0118 21.0343 31.7025L20.6574 30.3586C20.5706 30.0493 20.2497 29.8702 19.9369 29.9435C18.0397 30.3876 16.0683 30.414 14.1599 30.0209C13.8451 29.9561 13.5292 30.1438 13.4507 30.4552L13.11 31.8088Z" fill="white"/>
<path d="M27.4883 28.0406C27.7095 28.2735 28.0786 28.2838 28.3034 28.0543C29.9789 26.3444 31.2491 24.2802 32.0203 22.0143C32.1237 21.7102 31.9481 21.3856 31.6403 21.2933L30.3029 20.8921C29.9951 20.7998 29.6719 20.9749 29.5664 21.2782C28.9261 23.1177 27.8932 24.7963 26.5394 26.1971C26.3162 26.4282 26.3056 26.7954 26.5268 27.0284L27.4883 28.0406Z" fill="white"/>
<path d="M31.8132 13.0577C32.1246 12.9784 32.3138 12.6614 32.2232 12.3533C31.5478 10.057 30.3654 7.94129 28.7632 6.16259C28.5482 5.92393 28.179 5.9187 27.9481 6.14215L26.9451 7.11317C26.7143 7.33662 26.7094 7.70396 26.9228 7.94413C28.2165 9.4006 29.178 11.121 29.7405 12.9858C29.8332 13.2933 30.1488 13.4817 30.4601 13.4024L31.8132 13.0577Z" fill="white"/>
<path d="M1.86809 20.5285C1.55598 20.6049 1.36387 20.9201 1.45158 21.2291C2.1052 23.5316 3.26765 25.6583 4.85302 27.452C5.06577 27.6928 5.43491 27.7014 5.66783 27.4802L6.68002 26.5186C6.91293 26.2974 6.92123 25.9301 6.71014 25.6879C5.43021 24.2193 4.48494 22.49 3.94007 20.62C3.85022 20.3116 3.5365 20.1201 3.22439 20.1966L1.86809 20.5285Z" fill="white"/>
<path d="M16.8841 28.1476C23.1099 28.1476 28.1568 23.1029 28.1568 16.8799C28.1568 10.6569 23.1099 5.61218 16.8841 5.61218C10.6584 5.61218 5.61145 10.6569 5.61145 16.8799C5.61145 23.1029 10.6584 28.1476 16.8841 28.1476Z" fill="white"/>
<path fill-rule="evenodd" clip-rule="evenodd" d="M16.8839 5.95107C10.8456 5.95107 5.95064 10.8439 5.95064 16.8795C5.95064 22.9152 10.8456 27.808 16.8839 27.808C22.9222 27.808 27.8172 22.9152 27.8172 16.8795C27.8172 10.8439 22.9222 5.95107 16.8839 5.95107ZM5.27185 16.8795C5.27185 10.4692 10.4708 5.27258 16.8839 5.27258C23.2971 5.27258 28.496 10.4692 28.496 16.8795C28.496 23.2899 23.2971 28.4865 16.8839 28.4865C10.4708 28.4865 5.27185 23.2899 5.27185 16.8795Z" fill="white"/>
<g filter="url(#filter0_d_123_1402)">
<path d="M22.3832 15.1584C22.6196 13.5669 21.4166 12.7113 19.7717 12.1405L20.3053 9.9846L19.0024 9.65754L18.4829 11.7567C18.1404 11.6707 17.7887 11.5896 17.4391 11.5092L17.9623 9.39627L16.6602 9.06921L16.1263 11.2244C15.8428 11.1594 15.5645 11.0951 15.2943 11.0274L15.2958 11.0207L13.4991 10.5688L13.1525 11.9705C13.1525 11.9705 14.1191 12.1936 14.0987 12.2075C14.6264 12.3401 14.7218 12.6919 14.7058 12.9707L14.098 15.4268C14.1343 15.4362 14.1815 15.4496 14.2334 15.4705C14.19 15.4597 14.1436 15.4477 14.0958 15.4362L13.2438 18.8768C13.1792 19.0383 13.0156 19.2805 12.6467 19.1885C12.6597 19.2076 11.6998 18.9504 11.6998 18.9504L11.053 20.4526L12.7484 20.8784C13.0638 20.958 13.3729 21.0413 13.6772 21.1198L13.138 23.3004L14.4394 23.6275L14.9733 21.4701C15.3288 21.5672 15.6739 21.6569 16.0116 21.7414L15.4795 23.8888L16.7823 24.2158L17.3215 22.0393C19.5431 22.4628 21.2136 22.292 21.9168 20.268C22.4834 18.6383 21.8886 17.6983 20.7197 17.0853C21.571 16.8875 22.2122 16.3235 22.3832 15.1584ZM19.4065 19.3631C19.0039 20.9927 16.2799 20.1117 15.3967 19.8908L16.1122 17.0019C16.9953 17.2239 19.8273 17.6635 19.4065 19.3631ZM19.8095 15.1349C19.4421 16.6173 17.1749 15.8641 16.4394 15.6795L17.0881 13.0593C17.8235 13.2439 20.1921 13.5886 19.8095 15.1349Z" fill="#198CFF"/>
</g>
</g>
<defs>
<filter id="filter0_d_123_1402" x="9.05298" y="9.06921" width="13.36" height="17.1466" filterUnits="userSpaceOnUse" color-interpolation-filters="sRGB">
<feFlood flood-opacity="0" result="BackgroundImageFix"/>
<feColorMatrix in="SourceAlpha" type="matrix" values="0 0 0 0 0 0 0 0 0 0 0 0 0 0 0 0 0 0 127 0" result="hardAlpha"/>
<feOffset dx="-1" dy="1"/>
<feGaussianBlur stdDeviation="0.5"/>
<feColorMatrix type="matrix" values="0 0 0 0 0 0 0 0 0 0 0 0 0 0 0 0 0 0 0.08 0"/>
<feBlend mode="normal" in2="BackgroundImageFix" result="effect1_dropShadow_123_1402"/>
<feBlend mode="normal" in="SourceGraphic" in2="effect1_dropShadow_123_1402" result="shape"/>
</filter>
<clipPath id="clip0_123_1402">
<rect width="32" height="32" fill="white" transform="translate(0.856445 0.856445)"/>
</clipPath>
</defs>
</svg>
