<svg width="344" height="383" viewBox="0 0 344 383" fill="none" xmlns="http://www.w3.org/2000/svg">
<path d="M184.25 0.453552V14.4536" stroke="#82E8FF"/>
<path d="M231.744 14.2062L230.062 20.4848" stroke="#82E8FF"/>
<path d="M276 32.538L272.75 38.1672" stroke="#82E8FF"/>
<path d="M314.004 61.6994L309.408 66.2956" stroke="#82E8FF"/>
<path d="M343.166 99.7036L337.537 102.954" stroke="#82E8FF"/>
<path d="M184.25 368.454V382.454" stroke="#82E8FF"/>
<path d="M138.439 362.422L136.757 368.701" stroke="#82E8FF"/>
<path d="M95.75 344.74L92.5 350.369" stroke="#82E8FF"/>
<path d="M59.0918 316.612L54.4956 321.208" stroke="#82E8FF"/>
<path d="M30.9629 279.954L25.3337 283.204" stroke="#82E8FF"/>
<path d="M13.2812 237.265L7.00273 238.947" stroke="#82E8FF"/>
<path d="M343.166 283.204L337.537 279.954" stroke="#82E8FF"/>
<path d="M314.004 321.208L309.408 316.612" stroke="#82E8FF"/>
<path d="M276 350.369L272.75 344.74" stroke="#82E8FF"/>
<path d="M231.744 368.701L230.062 362.423" stroke="#82E8FF"/>
<path d="M7.25 191.454L0.75 191.454" stroke="#82E8FF"/>
<path d="M13.2812 145.643L7.00273 143.96" stroke="#82E8FF"/>
<path d="M30.9629 102.954L25.3337 99.7036" stroke="#82E8FF"/>
<path d="M59.0918 66.2956L54.4956 61.6994" stroke="#82E8FF"/>
<path d="M95.75 38.1669L92.5 32.5378" stroke="#82E8FF"/>
<path d="M138.439 20.4846L136.757 14.206" stroke="#82E8FF"/>
</svg>
