<svg width="222" height="131" viewBox="0 0 222 131" fill="none" xmlns="http://www.w3.org/2000/svg">
<g clip-path="url(#clip0_123_1425)">
<g filter="url(#filter0_f_123_1425)">
<path d="M155.616 25.1069C162.795 51.8959 162.795 80.1039 155.616 106.893L3 65.9999L155.616 25.1069Z" fill="url(#paint0_linear_123_1425)"/>
</g>
<path d="M155.616 25.1069C162.795 51.8959 162.795 80.1039 155.616 106.893L3 65.9999L155.616 25.1069Z" fill="url(#paint1_linear_123_1425)"/>
<g opacity="0.8" filter="url(#filter1_f_123_1425)">
<path opacity="0.8" d="M187.492 16.566C196.027 14.279 204.866 19.338 206.487 28.024C211.171 53.124 211.171 78.876 206.487 103.976C204.866 112.662 196.027 117.721 187.492 115.434L3 66L187.492 16.566Z" fill="url(#paint2_linear_123_1425)"/>
</g>
</g>
<defs>
<filter id="filter0_f_123_1425" x="-17" y="5.10693" width="198" height="121.786" filterUnits="userSpaceOnUse" color-interpolation-filters="sRGB">
<feFlood flood-opacity="0" result="BackgroundImageFix"/>
<feBlend mode="normal" in="SourceGraphic" in2="BackgroundImageFix" result="shape"/>
<feGaussianBlur stdDeviation="10" result="effect1_foregroundBlur_123_1425"/>
</filter>
<filter id="filter1_f_123_1425" x="-21" y="-7.98291" width="255" height="147.966" filterUnits="userSpaceOnUse" color-interpolation-filters="sRGB">
<feFlood flood-opacity="0" result="BackgroundImageFix"/>
<feBlend mode="normal" in="SourceGraphic" in2="BackgroundImageFix" result="shape"/>
<feGaussianBlur stdDeviation="12" result="effect1_foregroundBlur_123_1425"/>
</filter>
<linearGradient id="paint0_linear_123_1425" x1="3" y1="65.9999" x2="161" y2="65.9999" gradientUnits="userSpaceOnUse">
<stop stop-color="#2FDAF1"/>
<stop offset="1" stop-color="#2FDAF1" stop-opacity="0"/>
</linearGradient>
<linearGradient id="paint1_linear_123_1425" x1="3" y1="65.9999" x2="161" y2="65.9999" gradientUnits="userSpaceOnUse">
<stop stop-color="#E14680"/>
<stop offset="1" stop-color="#E14680" stop-opacity="0"/>
</linearGradient>
<linearGradient id="paint2_linear_123_1425" x1="135.5" y1="66" x2="226" y2="66" gradientUnits="userSpaceOnUse">
<stop offset="0.376366" stop-color="white" stop-opacity="0"/>
<stop offset="1" stop-color="white"/>
</linearGradient>
<clipPath id="clip0_123_1425">
<rect width="222" height="131" fill="white"/>
</clipPath>
</defs>
</svg>
