<svg xmlns="http://www.w3.org/2000/svg" width="18" height="18" fill="none" viewBox="0 0 18 18">
  <path fill="#198CFF" d="M4.5 3.375h2.25c.622 0 1.125.503 1.125 1.125v2.25c0 .622-.503 1.125-1.125 1.125H4.5A1.125 1.125 0 0 1 3.375 6.75V4.5c0-.622.503-1.125 1.125-1.125Zm6.75 0h2.25c.622 0 1.125.503 1.125 1.125v2.25c0 .622-.503 1.125-1.125 1.125h-2.25a1.125 1.125 0 0 1-1.125-1.125V4.5c0-.622.503-1.125 1.125-1.125Zm-6.75 6.75h2.25c.622 0 1.125.503 1.125 1.125v2.25c0 .622-.503 1.125-1.125 1.125H4.5A1.125 1.125 0 0 1 3.375 13.5v-2.25c0-.622.503-1.125 1.125-1.125Zm6.75 0h2.25c.622 0 1.125.503 1.125 1.125v2.25c0 .622-.503 1.125-1.125 1.125h-2.25a1.125 1.125 0 0 1-1.125-1.125v-2.25c0-.622.503-1.125 1.125-1.125Z"/>
</svg>
