<svg width="24" height="25" viewBox="0 0 24 25" fill="none" xmlns="http://www.w3.org/2000/svg">
<rect y="0.401733" width="24" height="24" rx="12" fill="#616783" fill-opacity="0.8"/>
<path fill-rule="evenodd" clip-rule="evenodd" d="M6.70583 13.9467L4.28 13.1059C4.1669 13.0669 4.06261 13.006 3.97309 12.9267C3.88357 12.8473 3.8106 12.7511 3.75834 12.6435C3.70609 12.5359 3.67558 12.419 3.66857 12.2996C3.66156 12.1802 3.67819 12.0605 3.7175 11.9476L6.25 4.6809C6.415 4.2059 6.935 3.95506 7.41083 4.12006L12.0667 5.7334C12.5425 5.8984 12.7942 6.41673 12.6292 6.89173L12.1258 8.3334H7.6175C7.11417 8.3334 6.705 8.74173 6.705 9.24423V13.9476L6.70583 13.9467Z" fill="url(#paint0_linear_197_29193)"/>
<path fill-rule="evenodd" clip-rule="evenodd" d="M6.70667 10.8392C6.62667 10.8442 6.54583 10.8392 6.46333 10.8226C6.33917 10.7976 6.21333 10.7451 6.08833 10.6576C5.105 9.97923 6.635 7.43507 8.985 7.2034C9.31899 7.52575 9.58777 7.9094 9.77667 8.3334H7.61833C7.115 8.3334 6.70667 8.7409 6.70667 9.2434V10.8392Z" fill="url(#paint1_linear_197_29193)"/>
<path d="M7.235 5.02007C7.18194 5.02029 7.13025 5.03691 7.08699 5.06764C7.04373 5.09836 7.01102 5.14171 6.99333 5.19173C6.97611 5.24253 6.97529 5.29746 6.991 5.34876C7.0067 5.40005 7.03812 5.44511 7.08083 5.47757C7.26833 5.61923 7.54083 5.44007 7.48167 5.21173C7.46712 5.15724 7.43513 5.109 7.39059 5.07439C7.34605 5.03978 7.2914 5.0207 7.235 5.02007Z" fill="#ED4596"/>
<path fill-rule="evenodd" clip-rule="evenodd" d="M14.4125 10.1251V17.8201C14.4125 18.3226 14.0042 18.7301 13.4992 18.7301H8.57083C8.45115 18.7303 8.3326 18.7069 8.22195 18.6613C8.11131 18.6157 8.01074 18.5487 7.92599 18.4642C7.84125 18.3797 7.77399 18.2793 7.72806 18.1688C7.68214 18.0582 7.65844 17.9398 7.65833 17.8201V10.1251C7.65833 9.62257 8.06667 9.21507 8.57083 9.21507H13.5C13.6198 9.21474 13.7384 9.23803 13.8491 9.2836C13.9599 9.32918 14.0605 9.39614 14.1454 9.48067C14.2302 9.56519 14.2975 9.66561 14.3435 9.77619C14.3895 9.88676 14.4132 10.0053 14.4133 10.1251H14.4125ZM14.4125 10.1251V17.8201C14.4125 18.3226 14.0042 18.7301 13.4992 18.7301H12.6158L10.8158 11.9392C10.7853 11.8236 10.7779 11.7031 10.794 11.5846C10.8101 11.4661 10.8495 11.352 10.9098 11.2487C10.9701 11.1455 11.0502 11.0551 11.1454 10.9828C11.2407 10.9106 11.3493 10.8578 11.465 10.8276L14.4092 10.0517C14.4108 10.0759 14.4117 10.1009 14.4117 10.1251H14.4125Z" fill="url(#paint2_linear_197_29193)"/>
<path d="M8.78417 10.1101C8.73269 10.1104 8.6825 10.1262 8.64003 10.1553C8.59757 10.1844 8.56476 10.2255 8.54583 10.2734C8.52717 10.3234 8.52452 10.3779 8.53826 10.4294C8.552 10.4809 8.58144 10.5269 8.6225 10.5609C8.80167 10.7067 9.075 10.5476 9.035 10.3209C9.02417 10.2621 8.99321 10.2089 8.94745 10.1704C8.90168 10.132 8.84395 10.1106 8.78417 10.1101Z" fill="#5D4E75"/>
<path fill-rule="evenodd" clip-rule="evenodd" d="M12.03 16.5201H10.0325C9.99272 16.5222 9.95292 16.5162 9.91554 16.5024C9.87816 16.4887 9.84397 16.4674 9.81506 16.44C9.78615 16.4126 9.76312 16.3796 9.74739 16.343C9.73165 16.3064 9.72354 16.267 9.72354 16.2271C9.72354 16.1873 9.73165 16.1479 9.74739 16.1113C9.76312 16.0747 9.78615 16.0417 9.81506 16.0143C9.84397 15.9869 9.87816 15.9656 9.91554 15.9519C9.95292 15.9381 9.99272 15.9321 10.0325 15.9342H10.7417V14.5542C10.5383 14.8517 10.22 15.1176 9.7625 14.9909C9.02833 14.7876 9.19333 13.2626 10.1667 12.2601C10.3458 12.0751 10.5533 11.9076 10.7875 11.7701C10.7917 11.8259 10.8008 11.8826 10.8158 11.9392L11.5842 14.8392C11.4859 14.757 11.4 14.661 11.3292 14.5542V15.9342H11.875L12.03 16.5201Z" fill="url(#paint3_linear_197_29193)"/>
<path d="M12.4517 11.5059L17.2167 10.2501C17.4504 10.1883 17.6991 10.2218 17.9081 10.3432C18.1172 10.4646 18.2695 10.664 18.3317 10.8976L20.3025 18.3367C20.333 18.4524 20.3405 18.573 20.3243 18.6915C20.3082 18.8101 20.2689 18.9243 20.2086 19.0276C20.1483 19.1309 20.0682 19.2214 19.973 19.2937C19.8777 19.3661 19.7691 19.4189 19.6533 19.4492L14.8883 20.7042C14.6547 20.766 14.4062 20.7327 14.1971 20.6114C13.9881 20.4902 13.8357 20.291 13.7733 20.0576L11.8025 12.6176C11.7721 12.5019 11.7648 12.3815 11.7809 12.263C11.7971 12.1446 11.8365 12.0305 11.8968 11.9272C11.957 11.824 12.0371 11.7336 12.1323 11.6614C12.2275 11.5891 12.336 11.5362 12.4517 11.5059Z" fill="url(#paint4_linear_197_29193)"/>
<path d="M19.1533 18.1376C19.0999 18.1382 19.048 18.1553 19.0047 18.1866C18.9614 18.218 18.9289 18.262 18.9117 18.3126C18.8947 18.3648 18.895 18.4212 18.9126 18.4733C18.9301 18.5254 18.964 18.5704 19.0092 18.6017C19.0496 18.6289 19.0968 18.6441 19.1455 18.6456C19.1941 18.647 19.2422 18.6347 19.2842 18.6101C19.33 18.5822 19.3659 18.5407 19.3868 18.4914C19.4077 18.442 19.4126 18.3873 19.4008 18.3351C19.3875 18.2793 19.3559 18.2296 19.311 18.1938C19.2662 18.158 19.2107 18.1382 19.1533 18.1376ZM12.9517 12.3084C12.8517 12.3084 12.76 12.3684 12.7183 12.4592C12.696 12.5102 12.6909 12.5671 12.7039 12.6212C12.7168 12.6754 12.747 12.7238 12.79 12.7592C12.9683 12.9059 13.2425 12.7467 13.2033 12.5192C13.1925 12.4603 13.1614 12.407 13.1155 12.3685C13.0695 12.33 13.0116 12.3088 12.9517 12.3084Z" fill="#ED3561"/>
<path d="M15.425 12.8409C16.1849 13.7631 17.2507 14.3818 18.4283 14.5842C17.5045 15.3403 16.8838 16.4038 16.68 17.5801C15.9201 16.6579 14.8543 16.0392 13.6767 15.8367C14.6005 15.0807 15.2212 14.0172 15.425 12.8409Z" fill="url(#paint5_linear_197_29193)"/>
<defs>
<linearGradient id="paint0_linear_197_29193" x1="11.3583" y1="13.9467" x2="4.72667" y2="3.40173" gradientUnits="userSpaceOnUse">
<stop stop-color="#FDFDFE"/>
<stop offset="0.995" stop-color="#F1E6F1" stop-opacity="0.33"/>
</linearGradient>
<linearGradient id="paint1_linear_197_29193" x1="5.30833" y1="10.8417" x2="12.0492" y2="8.19423" gradientUnits="userSpaceOnUse">
<stop stop-color="#F85473"/>
<stop offset="1" stop-color="#F85473" stop-opacity="0"/>
</linearGradient>
<linearGradient id="paint2_linear_197_29193" x1="13.4217" y1="18.7301" x2="0.272499" y2="4.5284" gradientUnits="userSpaceOnUse">
<stop stop-color="#FDFDFE"/>
<stop offset="0.995" stop-color="#FBF3FB" stop-opacity="0.33"/>
</linearGradient>
<linearGradient id="paint3_linear_197_29193" x1="10.6183" y1="16.7942" x2="17.7875" y2="10.6617" gradientUnits="userSpaceOnUse">
<stop stop-color="#583B60"/>
<stop offset="0.84" stop-color="#664976" stop-opacity="0"/>
</linearGradient>
<linearGradient id="paint4_linear_197_29193" x1="24.8542" y1="20.7351" x2="14.3542" y2="12.4426" gradientUnits="userSpaceOnUse">
<stop stop-color="#EAE0F7"/>
<stop offset="1" stop-color="#F3F3F0" stop-opacity="0.95"/>
</linearGradient>
<linearGradient id="paint5_linear_197_29193" x1="13.6767" y1="16.4801" x2="20.2975" y2="13.2476" gradientUnits="userSpaceOnUse">
<stop stop-color="#F85473"/>
<stop offset="1" stop-color="#F85473" stop-opacity="0"/>
</linearGradient>
</defs>
</svg>
