<svg width="25" height="25" viewBox="0 0 25 25" fill="none" xmlns="http://www.w3.org/2000/svg">
<rect x="0.5" y="0.401733" width="24" height="24" rx="12" fill="#232442" fill-opacity="0.6"/>
<path d="M12.6658 15.3101C12.4475 15.3082 12.2293 15.2943 12.0125 15.2684V17.4234H13.3225V15.2692C13.1045 15.295 12.8853 15.3086 12.6658 15.3101Z" fill="#FFC107"/>
<path opacity="0.8" d="M17.3567 20.2517V17.6117C17.3567 17.4559 17.1675 17.3301 16.935 17.3301H8.2125C7.97917 17.3301 7.79083 17.4559 7.79083 17.6117V20.2517C7.79083 20.4076 7.98 20.5342 8.2125 20.5342H16.935C17.1683 20.5342 17.3567 20.4076 17.3567 20.2509V20.2517Z" fill="url(#paint0_linear_197_29197)"/>
<path d="M5.78167 12.9717C5.25667 12.9717 4.755 12.7276 4.38417 12.2934C4.01333 11.8601 3.80583 11.2709 3.80583 10.6567C3.80583 9.3334 4.76 8.64256 5.6825 7.9709C6.53 7.34923 7.35083 6.76006 7.35083 5.73173C7.35167 5.53506 7.30917 5.34173 7.22917 5.16923C7.15292 5.0022 7.03637 4.85674 6.89 4.7459C6.75451 4.64175 6.59127 4.57994 6.42078 4.56823C6.25028 4.55652 6.08013 4.59542 5.93167 4.68006C5.7755 4.7702 5.64519 4.89907 5.55333 5.05423C5.45583 5.21423 5.395 5.40006 5.37583 5.5959C5.35667 5.7909 5.38 5.98923 5.44417 6.1709C5.50833 6.35256 5.61083 6.51256 5.74167 6.63423C5.76459 6.65487 5.78327 6.67978 5.79667 6.70756C5.82542 6.76599 5.83251 6.83273 5.81667 6.8959C5.80916 6.92658 5.79617 6.95566 5.77833 6.98173C5.76251 7.00595 5.74181 7.02661 5.71757 7.04239C5.69332 7.05817 5.66605 7.06873 5.6375 7.0734C5.6097 7.07718 5.58141 7.07481 5.55463 7.06645C5.52785 7.0581 5.50322 7.04397 5.4825 7.02506C5.28832 6.84371 5.1408 6.61815 5.0525 6.36756C4.95854 6.10535 4.92299 5.82578 4.94833 5.5484C4.97333 5.27006 5.05833 5.0034 5.19583 4.7734C5.32576 4.55075 5.51088 4.36534 5.73333 4.23506C5.94833 4.11173 6.18667 4.05506 6.425 4.07006C6.665 4.08423 6.89667 4.17006 7.1 4.3184C7.3025 4.46756 7.47 4.67423 7.58583 4.91923C7.7025 5.16423 7.76333 5.44006 7.76333 5.7209C7.76333 7.02423 6.815 7.70506 5.89667 8.36673C5.05 8.99506 4.22083 9.58756 4.22083 10.6326C4.22083 10.9542 4.2925 11.2701 4.42917 11.5484C4.56667 11.8267 4.76417 12.0576 5.0025 12.2184C5.24 12.3792 5.50917 12.4634 5.78417 12.4626C6.05833 12.4626 6.3275 12.3767 6.565 12.2159C6.8025 12.0542 6.99917 11.8226 7.13583 11.5434C7.2725 11.2642 7.34417 10.9484 7.3425 10.6267C7.34254 10.3095 7.26985 9.99648 7.13 9.71173C6.99954 9.4433 6.80136 9.21353 6.555 9.04506C6.50587 9.00969 6.47147 8.95749 6.45833 8.8984C6.44365 8.83676 6.44981 8.772 6.47583 8.71423C6.48818 8.68804 6.50558 8.66455 6.52703 8.6451C6.54849 8.62566 6.57356 8.61063 6.60083 8.6009C6.62698 8.59239 6.65469 8.58985 6.68194 8.59346C6.7092 8.59706 6.7353 8.60672 6.75833 8.62173C7.14667 8.86923 7.45333 9.26173 7.62917 9.73756C7.80417 10.2126 7.83833 10.7442 7.72583 11.2451C7.62363 11.7286 7.37275 12.168 7.00833 12.5017C6.67357 12.8077 6.2352 12.9754 5.78167 12.9709V12.9717ZM19.3608 12.9717C18.9089 12.9756 18.4724 12.8079 18.1392 12.5026C17.7759 12.1697 17.5254 11.7319 17.4225 11.2501C17.3094 10.7495 17.3415 10.2272 17.515 9.74423C17.6883 9.2684 17.9917 8.87423 18.3775 8.62423C18.4004 8.60918 18.4263 8.59949 18.4534 8.59588C18.4806 8.59228 18.5082 8.59484 18.5342 8.6034C18.5616 8.61306 18.5868 8.62815 18.6083 8.64777C18.6298 8.66738 18.6471 8.69112 18.6592 8.71756C18.685 8.7734 18.6917 8.83923 18.6775 8.9009C18.665 8.95986 18.6316 9.01229 18.5833 9.0484C18.3369 9.21709 18.1387 9.44717 18.0083 9.7159C17.8687 10.0013 17.7963 10.3149 17.7967 10.6326C17.7958 10.9534 17.8667 11.2701 18.0033 11.5492C18.1392 11.8284 18.3367 12.0609 18.5725 12.2217C18.81 12.3834 19.0792 12.4692 19.3525 12.4692C19.6267 12.4701 19.8958 12.3859 20.1333 12.2251C20.3708 12.0642 20.5675 11.8334 20.705 11.5542C20.8434 11.2685 20.9146 10.955 20.9133 10.6376C20.9133 9.5909 20.0992 8.98173 19.2225 8.36923C18.3067 7.70756 17.36 7.01173 17.36 5.7209C17.36 5.44006 17.4217 5.16423 17.5375 4.91923C17.6533 4.67423 17.8208 4.46756 18.0233 4.31923C18.2258 4.1709 18.4567 4.0859 18.695 4.0709C18.9333 4.0559 19.1717 4.11256 19.3867 4.2359C19.6008 4.3584 19.785 4.5434 19.9225 4.77256C20.0592 5.00256 20.145 5.26923 20.17 5.54756C20.195 5.82673 20.16 6.1084 20.0675 6.36673C19.975 6.62506 19.8275 6.85173 19.64 7.02506C19.6191 7.04435 19.5943 7.05883 19.5672 7.06747C19.5401 7.07611 19.5115 7.0787 19.4833 7.07506C19.4546 7.07026 19.4272 7.05957 19.4028 7.04365C19.3784 7.02773 19.3576 7.00693 19.3417 6.98256C19.3079 6.92884 19.2931 6.86535 19.2996 6.80222C19.306 6.73909 19.3335 6.67995 19.3775 6.63423C19.5133 6.51673 19.62 6.35923 19.6892 6.1784C19.7578 5.99568 19.7856 5.80018 19.7708 5.60557C19.756 5.41097 19.6988 5.22195 19.6033 5.05173C19.5136 4.89346 19.3844 4.76111 19.2283 4.66756C19.0806 4.58007 18.9101 4.53858 18.7387 4.54837C18.5673 4.55817 18.4026 4.61881 18.2658 4.72256C18.1182 4.83341 18.0007 4.97954 17.9242 5.14756C17.8422 5.32513 17.8007 5.51867 17.8025 5.71423C17.8025 6.74423 18.6108 7.3334 19.465 7.9559C20.3867 8.61756 21.3417 9.32006 21.3417 10.6442C21.3433 10.9501 21.2925 11.2534 21.1933 11.5359C21.0942 11.8192 20.9483 12.0767 20.7642 12.2926C20.5869 12.5039 20.3675 12.6759 20.12 12.7976C19.8792 12.9142 19.6217 12.9726 19.3608 12.9717Z" fill="#FFC107"/>
<path d="M7.69666 5.5234V10.1892C7.6866 11.504 8.17732 12.7732 9.06916 13.7392C9.95277 14.6969 11.174 15.2736 12.475 15.3476C13.1444 15.373 13.812 15.2613 14.4367 15.0192C15.0635 14.7759 15.6345 14.4079 16.115 13.9376C16.5987 13.4647 16.9827 12.8997 17.2442 12.2759C17.5058 11.6509 17.6417 10.9776 17.6417 10.2976V5.53757C17.642 5.46378 17.6132 5.39283 17.5617 5.34007C17.5363 5.31425 17.5061 5.29373 17.4728 5.27971C17.4395 5.26569 17.4037 5.25845 17.3675 5.2584H7.96666C7.8964 5.25936 7.82923 5.28742 7.77916 5.33673C7.72892 5.38628 7.69917 5.45292 7.69583 5.5234H7.69666Z" fill="url(#paint1_linear_197_29197)"/>
<path opacity="0.6" d="M12.6658 14.6101C12.6409 14.61 12.6163 14.605 12.5934 14.5953C12.5705 14.5855 12.5498 14.5713 12.5325 14.5534C12.4971 14.5175 12.4773 14.4692 12.4773 14.4188C12.4773 14.3684 12.4971 14.3201 12.5325 14.2842C12.5499 14.2665 12.5706 14.2524 12.5935 14.2428C12.6164 14.2332 12.641 14.2283 12.6658 14.2284C13.174 14.2281 13.6769 14.1261 14.145 13.9284C14.6148 13.7296 15.0405 13.4395 15.3975 13.0751C15.7565 12.7087 16.0401 12.2755 16.2325 11.8001C16.4258 11.3234 16.5242 10.8134 16.5242 10.2976V8.7684C16.5248 8.71775 16.5451 8.66933 16.5808 8.6334C16.5981 8.61556 16.6189 8.60138 16.6418 8.59169C16.6647 8.58201 16.6893 8.57702 16.7142 8.57702C16.739 8.57702 16.7636 8.58201 16.7865 8.59169C16.8094 8.60138 16.8302 8.61556 16.8475 8.6334C16.8826 8.66954 16.902 8.71803 16.9017 8.7684V10.2984C16.9028 10.8637 16.7942 11.4238 16.5817 11.9476C16.3701 12.4691 16.0584 12.9442 15.6642 13.3459C15.2721 13.7453 14.8048 14.0631 14.2892 14.2809C13.7754 14.4978 13.2235 14.6097 12.6658 14.6101ZM16.7142 7.99257C16.6641 7.99234 16.6161 7.97226 16.5808 7.93674C16.5449 7.90089 16.5243 7.85249 16.5233 7.80174V6.5234C16.5243 6.47265 16.5449 6.42425 16.5808 6.3884C16.5981 6.37056 16.6189 6.35638 16.6418 6.34669C16.6647 6.33701 16.6893 6.33202 16.7142 6.33202C16.739 6.33202 16.7636 6.33701 16.7865 6.34669C16.8094 6.35638 16.8302 6.37056 16.8475 6.3884C16.8826 6.42454 16.902 6.47303 16.9017 6.5234V7.8084C16.9003 7.85768 16.88 7.90454 16.845 7.93924C16.8101 7.97355 16.7631 7.99271 16.7142 7.99257Z" fill="#B4B5D3"/>
<path d="M16.5592 19.2884V18.4926C16.5598 18.4076 16.5268 18.3259 16.4673 18.2653C16.4077 18.2046 16.3266 18.1701 16.2417 18.1692H8.90666C8.86453 18.1696 8.82287 18.1782 8.78407 18.1946C8.74527 18.211 8.71009 18.2349 8.68053 18.265C8.65097 18.295 8.62761 18.3305 8.61179 18.3696C8.59597 18.4087 8.588 18.4504 8.58833 18.4926V19.2884C8.58833 19.4667 8.72999 19.6109 8.90666 19.6109H16.2417C16.4167 19.6109 16.5592 19.4667 16.5592 19.2884Z" fill="url(#paint2_linear_197_29197)"/>
<path d="M3.85833 8.2784V8.23006C3.86004 8.24613 3.86004 8.26233 3.85833 8.2784ZM3.02833 7.18673C3.22583 7.23006 3.40666 7.33006 3.54999 7.47423C3.69249 7.61923 3.79166 7.80256 3.83583 8.00256C3.83576 8.00723 3.83709 8.01181 3.83965 8.01571C3.84221 8.0196 3.84588 8.02265 3.85018 8.02444C3.85449 8.02624 3.85923 8.0267 3.8638 8.02577C3.86838 8.02484 3.87256 8.02256 3.87583 8.01923C3.88011 8.01474 3.88249 8.00877 3.88249 8.00256C3.92499 7.80256 4.02333 7.62006 4.16499 7.4759C4.30666 7.3309 4.48666 7.2309 4.68249 7.18673C4.69083 7.18673 4.69749 7.1834 4.70249 7.1784C4.70527 7.17568 4.70747 7.17244 4.70897 7.16886C4.71047 7.16529 4.71125 7.16144 4.71125 7.15756C4.71125 7.15368 4.71047 7.14984 4.70897 7.14627C4.70747 7.14269 4.70527 7.13945 4.70249 7.13673C4.69719 7.13141 4.69 7.12842 4.68249 7.1284C4.48493 7.08458 4.30431 6.98442 4.16249 6.84006C4.01989 6.6947 3.92161 6.51173 3.87916 6.31256C3.87916 6.30636 3.87677 6.30039 3.87249 6.2959C3.87032 6.29368 3.86773 6.29192 3.86487 6.29072C3.862 6.28951 3.85893 6.28889 3.85583 6.28889C3.85272 6.28889 3.84965 6.28951 3.84679 6.29072C3.84393 6.29192 3.84133 6.29368 3.83916 6.2959C3.83488 6.30039 3.83249 6.30636 3.83249 6.31256C3.78916 6.51256 3.69083 6.6959 3.54749 6.84006C3.40579 6.98413 3.22552 7.08425 3.02833 7.1284C3.02082 7.12842 3.01363 7.13141 3.00833 7.13673C3.00556 7.13945 3.00335 7.14269 3.00185 7.14627C3.00035 7.14984 2.99957 7.15368 2.99957 7.15756C2.99957 7.16144 3.00035 7.16529 3.00185 7.16886C3.00335 7.17244 3.00556 7.17568 3.00833 7.1784C3.01333 7.1834 3.02083 7.18673 3.02833 7.18673ZM18.7467 15.5451L18.7067 15.5067L18.7433 15.5484L18.7467 15.5442V15.5451ZM16.8683 15.5451L16.905 15.5034L16.865 15.5409L16.8683 15.5442V15.5451ZM17.0725 13.8751C17.2121 14.0883 17.2865 14.3377 17.2865 14.5926C17.2865 14.8475 17.2121 15.0968 17.0725 15.3101C17.0684 15.3146 17.0661 15.3206 17.0661 15.3267C17.0661 15.3329 17.0684 15.3388 17.0725 15.3434C17.0747 15.3456 17.0773 15.3474 17.0801 15.3486C17.083 15.3498 17.0861 15.3504 17.0892 15.3504C17.0923 15.3504 17.0953 15.3498 17.0982 15.3486C17.1011 15.3474 17.1037 15.3456 17.1058 15.3434C17.3145 15.2023 17.5606 15.1269 17.8125 15.1269C18.0644 15.1269 18.3105 15.2023 18.5192 15.3434C18.5213 15.3456 18.5239 15.3474 18.5268 15.3486C18.5296 15.3498 18.5327 15.3504 18.5358 15.3504C18.5389 15.3504 18.542 15.3498 18.5449 15.3486C18.5477 15.3474 18.5503 15.3456 18.5525 15.3434C18.5566 15.3388 18.5589 15.3329 18.5589 15.3267C18.5589 15.3206 18.5566 15.3146 18.5525 15.3101C18.4129 15.0968 18.3385 14.8475 18.3385 14.5926C18.3385 14.3377 18.4129 14.0883 18.5525 13.8751C18.5566 13.8705 18.5589 13.8645 18.5589 13.8584C18.5589 13.8522 18.5566 13.8463 18.5525 13.8417C18.5503 13.8395 18.5477 13.8378 18.5449 13.8366C18.542 13.8353 18.5389 13.8347 18.5358 13.8347C18.5327 13.8347 18.5296 13.8353 18.5268 13.8366C18.5239 13.8378 18.5213 13.8395 18.5192 13.8417C18.3105 13.9827 18.0644 14.058 17.8125 14.058C17.5606 14.058 17.3145 13.9827 17.1058 13.8417C17.1037 13.8395 17.1011 13.8378 17.0982 13.8366C17.0953 13.8353 17.0923 13.8347 17.0892 13.8347C17.0861 13.8347 17.083 13.8353 17.0801 13.8366C17.0773 13.8378 17.0747 13.8395 17.0725 13.8417C17.0684 13.8463 17.0661 13.8522 17.0661 13.8584C17.0661 13.8645 17.0684 13.8705 17.0725 13.8751ZM12.385 6.82923C12.5246 7.04249 12.599 7.29184 12.599 7.54673C12.599 7.80162 12.5246 8.05097 12.385 8.26423C12.383 8.26933 12.3826 8.2749 12.3837 8.28025C12.3849 8.28559 12.3877 8.29046 12.3917 8.29423C12.3956 8.29789 12.4007 8.30024 12.406 8.30099C12.4114 8.30173 12.4168 8.30083 12.4217 8.2984C12.6296 8.15746 12.875 8.08212 13.1262 8.08212C13.3774 8.08212 13.6229 8.15746 13.8308 8.2984C13.833 8.30062 13.8356 8.30238 13.8385 8.30358C13.8413 8.30478 13.8444 8.3054 13.8475 8.3054C13.8506 8.3054 13.8537 8.30478 13.8565 8.30358C13.8594 8.30238 13.862 8.30062 13.8642 8.2984C13.8687 8.29404 13.8714 8.28805 13.8717 8.28173C13.8717 8.27553 13.8693 8.26956 13.865 8.26506C13.7268 8.05111 13.6533 7.80184 13.6533 7.54715C13.6533 7.29246 13.7268 7.04318 13.865 6.82923C13.8693 6.82474 13.8717 6.81877 13.8717 6.81256C13.8717 6.80616 13.8691 6.80001 13.8646 6.79548C13.86 6.79094 13.8539 6.7884 13.8475 6.7884C13.8444 6.78835 13.8414 6.78892 13.8385 6.79006C13.8356 6.79121 13.833 6.79291 13.8308 6.79506C13.6229 6.93611 13.3775 7.01151 13.1262 7.01151C12.875 7.01151 12.6296 6.93611 12.4217 6.79506C12.4167 6.79274 12.4112 6.79198 12.4059 6.79287C12.4005 6.79376 12.3956 6.79627 12.3917 6.80006C12.3877 6.80383 12.3849 6.8087 12.3837 6.81405C12.3826 6.81939 12.383 6.82497 12.385 6.83006V6.82923ZM7.90749 14.0209C7.96019 14.115 7.98787 14.221 7.98787 14.3288C7.98787 14.4366 7.96019 14.5427 7.90749 14.6367C7.90749 14.6601 7.90749 14.6809 7.94083 14.6701C8.03292 14.6169 8.1374 14.5889 8.24374 14.5889C8.35009 14.5889 8.45456 14.6169 8.54666 14.6701C8.57083 14.6701 8.59416 14.6701 8.57999 14.6367C8.52729 14.5427 8.49962 14.4366 8.49962 14.3288C8.49962 14.221 8.52729 14.115 8.57999 14.0209C8.58321 14.0175 8.58538 14.0133 8.58625 14.0087C8.58712 14.0041 8.58664 13.9994 8.58488 13.9951C8.58312 13.9908 8.58015 13.9871 8.57632 13.9844C8.5725 13.9817 8.56799 13.9802 8.56333 13.9801C8.56025 13.98 8.55719 13.9806 8.55433 13.9817C8.55147 13.9829 8.54886 13.9846 8.54666 13.9867C8.45459 14.04 8.35011 14.068 8.24374 14.068C8.13738 14.068 8.0329 14.04 7.94083 13.9867C7.93636 13.9779 7.92861 13.9713 7.91925 13.9681C7.90989 13.965 7.89968 13.9657 7.89083 13.9701C7.88197 13.9747 7.87527 13.9826 7.87216 13.9921C7.86905 14.0016 7.86976 14.0119 7.87416 14.0209H7.90749Z" fill="#B4B5D3"/>
<defs>
<linearGradient id="paint0_linear_197_29197" x1="14.8408" y1="17.4917" x2="14.4325" y2="20.9367" gradientUnits="userSpaceOnUse">
<stop stop-color="#F85473"/>
<stop offset="0.22" stop-color="#F2627C"/>
<stop offset="0.46" stop-color="#F58697"/>
<stop offset="0.72" stop-color="#F79CA5"/>
<stop offset="0.98" stop-color="#FABCB9"/>
<stop offset="1" stop-color="#FABEBA"/>
</linearGradient>
<linearGradient id="paint1_linear_197_29197" x1="8.98666" y1="8.52007" x2="21.9167" y2="20.0601" gradientUnits="userSpaceOnUse">
<stop stop-color="#FFD707"/>
<stop offset="1" stop-color="#F07925"/>
</linearGradient>
<linearGradient id="paint2_linear_197_29197" x1="13.4217" y1="18.3567" x2="12.195" y2="26.3092" gradientUnits="userSpaceOnUse">
<stop stop-color="#FFD707"/>
<stop offset="1" stop-color="#F07925"/>
</linearGradient>
</defs>
</svg>
