<svg width="38" height="39" viewBox="0 0 38 39" fill="none" xmlns="http://www.w3.org/2000/svg">
<rect y="0.897461" width="38" height="38" rx="19" fill="#E1E4F3"/>
<path d="M14 9.89746H11.5C10.1193 9.89746 9 11.0167 9 12.3975V14.8975C9 16.2782 10.1193 17.3975 11.5 17.3975H14C15.3807 17.3975 16.5 16.2782 16.5 14.8975V12.3975C16.5 11.0167 15.3807 9.89746 14 9.89746Z" fill="url(#paint0_linear_122_46462)"/>
<path opacity="0.8" d="M14 21.1475H11.5C10.1193 21.1475 9 22.2667 9 23.6475V26.1475C9 27.5282 10.1193 28.6475 11.5 28.6475H14C15.3807 28.6475 16.5 27.5282 16.5 26.1475V23.6475C16.5 22.2667 15.3807 21.1475 14 21.1475Z" fill="url(#paint1_linear_122_46462)"/>
<path d="M26.5 9.89746H24C22.6193 9.89746 21.5 11.0167 21.5 12.3975V14.8975C21.5 16.2782 22.6193 17.3975 24 17.3975H26.5C27.8807 17.3975 29 16.2782 29 14.8975V12.3975C29 11.0167 27.8807 9.89746 26.5 9.89746Z" fill="url(#paint2_linear_122_46462)"/>
<path d="M26.5 21.1475H24C22.6193 21.1475 21.5 22.2667 21.5 23.6475V26.1475C21.5 27.5282 22.6193 28.6475 24 28.6475H26.5C27.8807 28.6475 29 27.5282 29 26.1475V23.6475C29 22.2667 27.8807 21.1475 26.5 21.1475Z" fill="url(#paint3_linear_122_46462)"/>
<defs>
<linearGradient id="paint0_linear_122_46462" x1="4.625" y1="12.3975" x2="9.75" y2="21.6512" gradientUnits="userSpaceOnUse">
<stop offset="0.092" stop-color="#E6728A"/>
<stop offset="0.98" stop-color="#EE7B93" stop-opacity="0.05"/>
</linearGradient>
<linearGradient id="paint1_linear_122_46462" x1="9" y1="21.1475" x2="16.3913" y2="38.1025" gradientUnits="userSpaceOnUse">
<stop stop-color="#FFCB45"/>
<stop offset="1" stop-color="#FFCB45" stop-opacity="0"/>
</linearGradient>
<linearGradient id="paint2_linear_122_46462" x1="21.5" y1="8.82621" x2="28.96" y2="17.5912" gradientUnits="userSpaceOnUse">
<stop stop-color="#4167EE"/>
<stop offset="1" stop-color="#456FFF" stop-opacity="0"/>
</linearGradient>
<linearGradient id="paint3_linear_122_46462" x1="20.4288" y1="19.005" x2="29" y2="31.7725" gradientUnits="userSpaceOnUse">
<stop stop-color="#5DBF88"/>
<stop offset="1" stop-color="#3ECA7B" stop-opacity="0"/>
</linearGradient>
</defs>
</svg>
