<svg width="38" height="39" viewBox="0 0 38 39" fill="none" xmlns="http://www.w3.org/2000/svg">
<rect y="0.897461" width="38" height="38" rx="19" fill="#E1E4F3"/>
<g clip-path="url(#clip0_122_46501)">
<path opacity="0.55" fill-rule="evenodd" clip-rule="evenodd" d="M9.60126 11.1375H24.0375C25.5225 11.1375 26.725 12.3687 26.725 13.8875V31.7925C26.725 33.2587 25.5225 34.4462 24.0375 34.4462H9.60001C8.11501 34.4462 6.91251 33.2587 6.91251 31.7925V13.8887C6.91251 12.3687 8.11501 11.1375 9.60001 11.1375H9.60126Z" fill="url(#paint0_linear_122_46501)"/>
<path opacity="0.8" d="M31.895 28.5462H28.8912V22.8387H31.895C33 22.8387 33.8925 23.7312 33.8925 24.8362V26.5487C33.8925 27.6537 33 28.5462 31.895 28.5462Z" fill="url(#paint1_linear_122_46501)"/>
<path opacity="0.85" d="M31.6488 25.5024C31.4722 25.5021 31.3029 25.4318 31.178 25.3069C31.0531 25.182 30.9828 25.0128 30.9825 24.8362V15.6599C30.9825 15.2924 31.2825 14.9937 31.6488 14.9937C32.015 14.9937 32.3138 15.2937 32.3138 15.6599V24.8362C32.3146 24.9238 32.298 25.0107 32.2649 25.0918C32.2318 25.1729 32.1828 25.2467 32.1209 25.3087C32.059 25.3707 31.9854 25.4198 31.9043 25.453C31.8233 25.4863 31.7364 25.5031 31.6488 25.5024Z" fill="url(#paint2_linear_122_46501)"/>
<path opacity="0.8" d="M27.54 15.1337H6.2475C5.1425 15.1337 4.25 16.0249 4.25 17.1312V29.7749C4.25 30.8799 5.1425 31.7724 6.2475 31.7724H27.54C28.645 31.7724 29.5375 30.8799 29.5375 29.7749V17.1312C29.5375 16.0249 28.645 15.1337 27.54 15.1337Z" fill="url(#paint3_linear_122_46501)"/>
<path d="M10.9562 28.4524H8.05874C7.82568 28.4524 7.60217 28.3598 7.43737 28.195C7.27258 28.0302 7.17999 27.8067 7.17999 27.5737V19.3424C7.17999 18.8549 7.57374 18.4624 8.05874 18.4624H10.9562C11.4425 18.4624 11.835 18.8562 11.835 19.3424V27.5799C11.8337 27.812 11.7405 28.0341 11.5758 28.1976C11.4111 28.3611 11.1883 28.4527 10.9562 28.4524Z" fill="url(#paint4_linear_122_46501)"/>
<path d="M18.0162 28.4524H15.1187C14.8857 28.4524 14.6622 28.3598 14.4974 28.195C14.3326 28.0302 14.24 27.8067 14.24 27.5737V19.3424C14.24 18.8549 14.6325 18.4624 15.1187 18.4624H18.0162C18.5012 18.4624 18.895 18.8562 18.895 19.3424V27.5799C18.8927 27.8119 18.799 28.0336 18.6342 28.197C18.4695 28.3603 18.247 28.4521 18.015 28.4524H18.0162Z" fill="url(#paint5_linear_122_46501)"/>
<path d="M24.675 28.4524H21.7787C21.6632 28.4526 21.5488 28.43 21.4421 28.3859C21.3353 28.3418 21.2383 28.2771 21.1566 28.1955C21.0748 28.1139 21.01 28.0169 20.9658 27.9102C20.9215 27.8035 20.8987 27.6892 20.8987 27.5737V19.3424C20.8987 18.8549 21.2925 18.4624 21.7787 18.4624H24.675C25.1625 18.4624 25.555 18.8562 25.555 19.3424V27.5799C25.5537 27.8122 25.4603 28.0345 25.2953 28.198C25.1304 28.3616 24.9073 28.4531 24.675 28.4524Z" fill="url(#paint6_linear_122_46501)"/>
<path d="M9.3125 25.9025C9.14164 25.9018 8.97746 25.836 8.85343 25.7185C8.7294 25.601 8.65486 25.4406 8.645 25.27C8.6125 24.5638 8.85125 23.8513 9.11125 23.285H8.445C8.26862 23.2844 8.09967 23.2139 7.97506 23.0891C7.85046 22.9642 7.78033 22.7951 7.78 22.6188C7.78 22.2525 8.08 21.9525 8.445 21.9525H10.2575C10.5037 21.9525 10.7362 22.0925 10.85 22.3125C10.9049 22.4216 10.9294 22.5434 10.9211 22.6653C10.9127 22.7871 10.8718 22.9044 10.8025 23.005C10.5637 23.345 9.95125 24.4038 9.98375 25.21C9.98828 25.2972 9.97546 25.3843 9.94603 25.4665C9.9166 25.5486 9.87114 25.6241 9.81229 25.6885C9.75345 25.7529 9.68239 25.805 9.60324 25.8418C9.5241 25.8785 9.43844 25.8992 9.35125 25.9025H9.31125H9.3125Z" fill="url(#paint7_linear_122_46501)"/>
<path d="M16.4637 25.9025C16.2931 25.9015 16.1292 25.8356 16.0055 25.7181C15.8817 25.6006 15.8073 25.4404 15.7975 25.27C15.765 24.57 16.005 23.8513 16.2637 23.285H15.6C15.4234 23.2847 15.2541 23.2144 15.1293 23.0895C15.0044 22.9646 14.9341 22.7954 14.9337 22.6188C14.9337 22.2525 15.2337 21.9525 15.6 21.9525H17.4112C17.6575 21.9525 17.89 22.0925 18.0037 22.3125C18.0588 22.4215 18.0836 22.5433 18.0754 22.6651C18.0673 22.7869 18.0266 22.9043 17.9575 23.005C17.7175 23.345 17.0975 24.4038 17.1375 25.21C17.142 25.2972 17.1292 25.3843 17.0998 25.4665C17.0703 25.5486 17.0249 25.6241 16.966 25.6885C16.9072 25.7529 16.8361 25.805 16.757 25.8418C16.6778 25.8785 16.5922 25.8992 16.505 25.9025H16.465H16.4637Z" fill="url(#paint8_linear_122_46501)"/>
<path d="M23.03 25.9025C22.8594 25.9015 22.6955 25.8356 22.5717 25.7181C22.448 25.6006 22.3736 25.4404 22.3637 25.27C22.3312 24.5638 22.5712 23.8513 22.83 23.285H22.165C21.9884 23.2847 21.8191 23.2144 21.6943 23.0895C21.5694 22.9646 21.4991 22.7954 21.4987 22.6188C21.4987 22.2525 21.7987 21.9525 22.165 21.9525H23.9688C24.215 21.9525 24.4488 22.0925 24.5625 22.3125C24.6174 22.4216 24.6419 22.5434 24.6336 22.6653C24.6252 22.7871 24.5843 22.9044 24.515 23.005C24.2763 23.345 23.6625 24.4038 23.6962 25.21C23.7008 25.2972 23.688 25.3843 23.6585 25.4665C23.6291 25.5486 23.5836 25.6241 23.5248 25.6885C23.4659 25.7529 23.3949 25.805 23.3157 25.8418C23.2366 25.8785 23.1509 25.8992 23.0638 25.9025H23.03Z" fill="url(#paint9_linear_122_46501)"/>
<path opacity="0.9" d="M17.8437 7.7525L19.1625 10.21L21.9062 10.71C22.0247 10.7317 22.1351 10.7851 22.2257 10.8645C22.3162 10.9439 22.3835 11.0464 22.4205 11.1611C22.4574 11.2757 22.4626 11.3982 22.4354 11.5156C22.4083 11.6329 22.3498 11.7407 22.2662 11.8275L20.3337 13.8475L20.7075 16.61C20.7235 16.7296 20.7069 16.8514 20.6595 16.9624C20.612 17.0734 20.5355 17.1695 20.4379 17.2406C20.3403 17.3117 20.2253 17.3551 20.1051 17.3662C19.9849 17.3773 19.864 17.3557 19.755 17.3038L17.2437 16.0912L14.7337 17.3038C14.6249 17.3556 14.5041 17.3772 14.384 17.3661C14.2639 17.355 14.149 17.3118 14.0515 17.2408C13.954 17.1699 13.8774 17.074 13.8298 16.9632C13.7822 16.8524 13.7655 16.7308 13.7812 16.6112L14.1537 13.8475L12.2225 11.8288C12.1394 11.7417 12.0814 11.6338 12.0545 11.5165C12.0277 11.3992 12.0329 11.2769 12.0698 11.1623C12.1067 11.0478 12.1737 10.9453 12.264 10.8657C12.3542 10.7861 12.4643 10.7323 12.5825 10.71L15.3262 10.21L16.645 7.75375C16.9175 7.28 17.59 7.28 17.8437 7.75375V7.7525Z" fill="url(#paint10_linear_122_46501)"/>
<path opacity="0.75" d="M31.6488 16.0249C32.2491 16.0249 32.8249 15.7864 33.2495 15.3619C33.674 14.9374 33.9125 14.3616 33.9125 13.7612C33.9125 13.1608 33.674 12.585 33.2495 12.1605C32.8249 11.7359 32.2491 11.4974 31.6488 11.4974C31.0484 11.4974 30.4726 11.7359 30.048 12.1605C29.6235 12.585 29.385 13.1608 29.385 13.7612C29.385 14.3616 29.6235 14.9374 30.048 15.3619C30.4726 15.7864 31.0484 16.0249 31.6488 16.0249Z" fill="url(#paint11_linear_122_46501)"/>
<path opacity="0.9" d="M11.56 5.56624L12.3013 6.24749L13.2963 6.09249C13.485 6.06249 13.6338 6.25499 13.5525 6.42999L13.1325 7.34874L13.5888 8.24749C13.6084 8.28652 13.6171 8.33013 13.614 8.37372C13.6109 8.41731 13.5961 8.45924 13.5711 8.4951C13.5462 8.53096 13.512 8.5594 13.4722 8.57742C13.4324 8.59545 13.3884 8.60238 13.345 8.59749L12.345 8.48124L11.6325 9.19249C11.6016 9.22312 11.5629 9.24482 11.5207 9.25527C11.4784 9.26572 11.4341 9.26454 11.3924 9.25185C11.3508 9.23917 11.3134 9.21545 11.2841 9.18321C11.2548 9.15097 11.2349 9.11142 11.2263 9.06874L11.025 8.08124L10.1263 7.62374C10.0874 7.60402 10.0545 7.57412 10.0313 7.53723C10.008 7.50034 9.99517 7.45783 9.99415 7.41423C9.99312 7.37063 10.0039 7.32756 10.0254 7.28962C10.0469 7.25167 10.0783 7.22027 10.1163 7.19874L10.9925 6.70249L11.1513 5.70749C11.1589 5.66407 11.1781 5.62349 11.2067 5.58996C11.2354 5.55643 11.2724 5.53115 11.3141 5.51675C11.3558 5.50234 11.4006 5.49934 11.4438 5.50804C11.487 5.51674 11.5271 5.53683 11.56 5.56624Z" fill="url(#paint12_linear_122_46501)"/>
<path opacity="0.9" d="M25.2125 7.67372L25.1288 8.36122L25.6138 8.85372C25.6346 8.87508 25.6493 8.90171 25.6563 8.93076C25.6632 8.95981 25.6621 8.9902 25.6531 9.01868C25.6441 9.04717 25.6276 9.07268 25.6053 9.0925C25.5829 9.11232 25.5556 9.12571 25.5263 9.13122L24.8463 9.26497L24.5275 9.87747C24.5136 9.90403 24.4928 9.92633 24.4672 9.94201C24.4417 9.95769 24.4123 9.96617 24.3824 9.96656C24.3524 9.96694 24.3229 9.95921 24.2969 9.94419C24.271 9.92917 24.2496 9.90741 24.235 9.88122L23.9 9.27747L23.2188 9.16497C23.1891 9.15997 23.1614 9.14704 23.1385 9.12754C23.1157 9.10805 23.0985 9.08272 23.0889 9.05425C23.0793 9.02579 23.0776 8.99525 23.0839 8.96588C23.0903 8.93651 23.1045 8.90942 23.125 8.88747L23.595 8.38122L23.4925 7.69622C23.4884 7.66681 23.4922 7.63682 23.5035 7.60937C23.5149 7.58192 23.5334 7.55802 23.5571 7.54016C23.5809 7.52229 23.609 7.51111 23.6385 7.50778C23.668 7.50445 23.6979 7.50909 23.725 7.52122L24.3525 7.81247L24.97 7.50247C25.0938 7.44622 25.23 7.54247 25.2138 7.67372H25.2125Z" fill="url(#paint13_linear_122_46501)"/>
</g>
<defs>
<linearGradient id="paint0_linear_122_46501" x1="32.685" y1="42.3975" x2="11.4863" y2="3.02995" gradientUnits="userSpaceOnUse">
<stop stop-color="#A776BB" stop-opacity="0"/>
<stop offset="1" stop-color="#794496"/>
</linearGradient>
<linearGradient id="paint1_linear_122_46501" x1="29.1437" y1="24.3387" x2="34.1187" y2="25.8825" gradientUnits="userSpaceOnUse">
<stop stop-color="#F85473"/>
<stop offset="0.22" stop-color="#F2627C"/>
<stop offset="0.46" stop-color="#F58697"/>
<stop offset="0.72" stop-color="#F79CA5"/>
<stop offset="0.98" stop-color="#FABCB9"/>
<stop offset="1" stop-color="#FABEBA"/>
</linearGradient>
<linearGradient id="paint2_linear_122_46501" x1="31.7488" y1="25.3287" x2="26.5288" y2="16.2549" gradientUnits="userSpaceOnUse">
<stop stop-color="#D3B3DB"/>
<stop offset="0.32" stop-color="#A776BB"/>
<stop offset="0.599" stop-color="#9059AC"/>
<stop offset="0.84" stop-color="#794496"/>
</linearGradient>
<linearGradient id="paint3_linear_122_46501" x1="2.2525" y1="15.1337" x2="23.5263" y2="35.9249" gradientUnits="userSpaceOnUse">
<stop stop-color="#F2627C"/>
<stop offset="0.297" stop-color="#F58697"/>
<stop offset="0.625" stop-color="#F79CA5"/>
<stop offset="1" stop-color="#FABCB9"/>
</linearGradient>
<linearGradient id="paint4_linear_122_46501" x1="6.91374" y1="18.4624" x2="14.9387" y2="32.7812" gradientUnits="userSpaceOnUse">
<stop stop-color="white"/>
<stop offset="1" stop-color="white" stop-opacity="0"/>
</linearGradient>
<linearGradient id="paint5_linear_122_46501" x1="13.9737" y1="18.4624" x2="21.9987" y2="32.7812" gradientUnits="userSpaceOnUse">
<stop stop-color="white"/>
<stop offset="1" stop-color="white" stop-opacity="0"/>
</linearGradient>
<linearGradient id="paint6_linear_122_46501" x1="20.6325" y1="18.4624" x2="28.6575" y2="32.7812" gradientUnits="userSpaceOnUse">
<stop stop-color="white"/>
<stop offset="1" stop-color="white" stop-opacity="0"/>
</linearGradient>
<linearGradient id="paint7_linear_122_46501" x1="9.35125" y1="21.9525" x2="9.35125" y2="25.9025" gradientUnits="userSpaceOnUse">
<stop stop-color="#D8338C"/>
<stop offset="1" stop-color="#D8338C" stop-opacity="0"/>
</linearGradient>
<linearGradient id="paint8_linear_122_46501" x1="16.5037" y1="21.9525" x2="16.5037" y2="25.9025" gradientUnits="userSpaceOnUse">
<stop stop-color="#D8338C"/>
<stop offset="1" stop-color="#D8338C" stop-opacity="0"/>
</linearGradient>
<linearGradient id="paint9_linear_122_46501" x1="23.0675" y1="21.9525" x2="23.0675" y2="25.9025" gradientUnits="userSpaceOnUse">
<stop stop-color="#D8338C"/>
<stop offset="1" stop-color="#D8338C" stop-opacity="0"/>
</linearGradient>
<linearGradient id="paint10_linear_122_46501" x1="15.9725" y1="9.3975" x2="35.2912" y2="26.3313" gradientUnits="userSpaceOnUse">
<stop stop-color="#FFE600"/>
<stop offset="1" stop-color="#FF6B00"/>
</linearGradient>
<linearGradient id="paint11_linear_122_46501" x1="33.1088" y1="8.47119" x2="34.6913" y2="15.7887" gradientUnits="userSpaceOnUse">
<stop offset="0.271" stop-color="#26BE6C"/>
<stop offset="0.771" stop-color="#77EA77"/>
<stop offset="1" stop-color="#6CEC80"/>
</linearGradient>
<linearGradient id="paint12_linear_122_46501" x1="9.9675" y1="5.32749" x2="13.925" y2="8.57874" gradientUnits="userSpaceOnUse">
<stop stop-color="#FFCB00"/>
<stop offset="1" stop-color="#FB8342" stop-opacity="0"/>
</linearGradient>
<linearGradient id="paint13_linear_122_46501" x1="24.71" y1="6.69122" x2="24.4763" y2="10.1975" gradientUnits="userSpaceOnUse">
<stop stop-color="#FFCB00"/>
<stop offset="1" stop-color="#FB8342" stop-opacity="0"/>
</linearGradient>
<clipPath id="clip0_122_46501">
<rect width="30" height="30" fill="white" transform="translate(4 4.89746)"/>
</clipPath>
</defs>
</svg>
