<svg width="53" height="25" viewBox="0 0 53 25" fill="none" xmlns="http://www.w3.org/2000/svg">
<rect width="52.2021" height="24" transform="translate(0.797852 0.5)" fill="white"/>
<g clip-path="url(#clip0_227_25866)">
<path opacity="0.5" d="M18.1491 8.04717C18.508 7.61503 18.6846 7.06012 18.6415 6.5C18.0913 6.55669 17.5818 6.81557 17.2116 7.22649C17.0326 7.42639 16.8949 7.65972 16.8064 7.91305C16.718 8.16638 16.6805 8.43471 16.6961 8.70259C16.9736 8.72221 17.2517 8.6726 17.5053 8.5582C17.7589 8.4438 17.9801 8.2682 18.1491 8.04717ZM18.642 8.8436C17.8445 8.79622 17.1659 9.28919 16.7903 9.28919C16.4146 9.28919 15.8297 8.86898 15.1963 8.86898C14.7869 8.88092 14.3877 8.99955 14.0381 9.21314C13.6886 9.42672 13.4009 9.72785 13.2035 10.0867C12.3575 11.5628 12.9689 13.7434 13.8127 14.9375C14.2109 15.5241 14.7039 16.1784 15.3356 16.157C15.9448 16.1333 16.1817 15.7588 16.9053 15.7588C17.629 15.7588 17.8428 16.157 18.4988 16.1333C19.1548 16.1096 19.5772 15.5467 19.9749 14.9375C20.2651 14.5227 20.4867 14.0639 20.6314 13.5787C20.2716 13.4249 19.9613 13.1748 19.7348 12.8558C19.5082 12.5368 19.3742 12.1614 19.3474 11.7711C19.3207 11.3807 19.4023 10.9906 19.5833 10.6437C19.7643 10.2968 20.0376 10.0067 20.3731 9.80529C20.181 9.51952 19.9239 9.28335 19.6229 9.11618C19.3219 8.94901 18.9856 8.85559 18.6415 8.8436H18.642ZM25.5312 7.18024C25.9196 7.15947 26.308 7.22021 26.6715 7.35858C27.035 7.49694 27.3655 7.70984 27.6418 7.98361C27.918 8.25737 28.1339 8.58592 28.2756 8.94814C28.4172 9.31035 28.4815 9.6982 28.4643 10.0867C28.4802 10.4798 28.4138 10.8718 28.2692 11.2376C28.1247 11.6034 27.9052 11.935 27.6249 12.2109C27.3446 12.4869 27.0096 12.7012 26.6416 12.84C26.2736 12.9788 25.8805 13.0391 25.4878 13.0169H23.5859V16.0408H22.2034V7.18024H25.5312ZM23.5859 11.8674H25.1556C26.3514 11.8674 27.031 11.2109 27.031 10.1093C27.031 8.98122 26.3508 8.35119 25.1556 8.35119H23.5633V11.8663H23.5859V11.8674ZM28.8134 14.2364C28.8134 13.1083 29.6809 12.4083 31.2269 12.3147L33.0076 12.2211V11.7275C33.0076 11.0011 32.5158 10.5792 31.7188 10.5792C31.4166 10.5406 31.1108 10.6149 30.86 10.7879C30.6093 10.9609 30.4312 11.2204 30.36 11.5166H29.0943C29.1642 10.3445 30.1728 9.47758 31.7662 9.47758C33.3359 9.47758 34.3444 10.2977 34.3444 11.6102V16.0628H33.0793V15.008H33.0556C32.8529 15.369 32.5564 15.6685 32.1975 15.8748C31.8385 16.0812 31.4305 16.1866 31.0166 16.1801C29.704 16.1801 28.814 15.3825 28.814 14.2347L28.8134 14.2364ZM33.0088 13.6498V13.1343L31.4153 13.2279C30.6178 13.2753 30.1744 13.6261 30.1744 14.1868C30.1744 14.7474 30.6437 15.1242 31.3465 15.1242C31.5534 15.1397 31.7612 15.1136 31.9577 15.0473C32.1543 14.981 32.3355 14.8758 32.4906 14.7382C32.6457 14.6005 32.7716 14.4331 32.8608 14.2458C32.95 14.0586 33.0007 13.8553 33.0099 13.6481L33.0088 13.6498ZM35.5148 18.4526V17.3747C35.6545 17.3944 35.7957 17.4024 35.9367 17.3984C36.2078 17.4178 36.4763 17.3347 36.689 17.1654C36.9017 16.9962 37.0431 16.7532 37.0851 16.4847C37.0851 16.461 37.2024 16.0865 37.2024 16.0865L34.8599 9.61746H36.2898L37.9306 14.8913H37.9543L39.5951 9.61746H41.0001L38.5871 16.4373C38.0231 18.007 37.3914 18.5 36.0563 18.5C35.9615 18.4763 35.6332 18.4763 35.5148 18.4526Z" fill="#131625"/>
</g>
<defs>
<clipPath id="clip0_227_25866">
<rect width="28.2021" height="12" fill="white" transform="translate(12.7979 6.5)"/>
</clipPath>
</defs>
</svg>
