<svg xmlns="http://www.w3.org/2000/svg" width="17" height="16" fill="none" viewBox="0 0 17 16">
  <path fill="#55657E" fill-rule="evenodd" d="M15.637 8.001a6.7 6.7 0 1 0-13.4 0 6.7 6.7 0 0 0 13.4 0Zm-6.7 8a8 8 0 1 0 0-16 8 8 0 0 0 0 16Z" clip-rule="evenodd"/>
  <path fill="#55657E" d="m9.25 4.137 3.56 3.787a.478.478 0 0 1 .127.33.478.478 0 0 1-.127.329l-.263.279a.42.42 0 0 1-.618 0l-2.99-3.18-2.993 3.183a.422.422 0 0 1-.619 0l-.262-.279a.478.478 0 0 1-.128-.329c0-.125.046-.242.128-.33l3.563-3.79a.422.422 0 0 1 .622 0Z"/>
  <path fill="#55657E" fill-rule="evenodd" d="M8.937 11.996a.7.7 0 0 1-.7-.7V5.001a.7.7 0 1 1 1.4 0v6.295a.7.7 0 0 1-.7.7Z" clip-rule="evenodd"/>
</svg>
