<svg xmlns="http://www.w3.org/2000/svg" width="17" height="16" fill="none" viewBox="0 0 17 16">
  <path fill="#161A2A" fill-rule="evenodd" d="M2.238 8a6.7 6.7 0 1 0 13.4 0 6.7 6.7 0 0 0-13.4 0Zm6.7-8a8 8 0 1 0 0 16 8 8 0 0 0 0-16Z" clip-rule="evenodd"/>
  <path fill="#161A2A" d="m8.625 11.865-3.56-3.787a.478.478 0 0 1-.127-.33.48.48 0 0 1 .127-.329l.263-.279a.42.42 0 0 1 .618 0l2.99 3.18 2.993-3.183a.422.422 0 0 1 .619 0l.262.279a.478.478 0 0 1 .128.329.478.478 0 0 1-.128.33l-3.563 3.79a.422.422 0 0 1-.622 0Z"/>
  <path fill="#161A2A" fill-rule="evenodd" d="M8.938 4.006a.7.7 0 0 1 .7.7V11a.7.7 0 1 1-1.4 0V4.706a.7.7 0 0 1 .7-.7Z" clip-rule="evenodd"/>
</svg>
