<svg xmlns="http://www.w3.org/2000/svg" width="12" height="12" fill="currentColor" viewBox="0 0 12 12">
  <path fill="#fff" d="M.676 6.151a5.247 5.247 0 0 1 1.397-3.586c.448-.491 1.016-.88 1.705-1.166.69-.293 1.452-.44 2.288-.44.66 0 1.276.099 1.848.297.572.19 1.056.447 1.452.77a5.26 5.26 0 0 1 1.023 1.111c.286.41.495.836.627 1.276.14.44.21.876.21 1.309 0 .975-.199 1.716-.595 2.222-.388.506-.913.759-1.573.759-.425 0-.788-.095-1.089-.286a1.54 1.54 0 0 1-.627-.847c-.359.601-.913.902-1.66.902-.624 0-1.141-.216-1.552-.649-.403-.44-.605-.986-.605-1.639 0-.66.202-1.21.605-1.65.411-.44.928-.66 1.551-.66.345 0 .657.08.935.242.28.154.488.345.627.572v-.704h.858v2.882c0 .711.323 1.067.968 1.067.411 0 .719-.202.924-.605.206-.403.308-.939.308-1.606 0-.462-.091-.917-.275-1.364a4.07 4.07 0 0 0-.792-1.243c-.344-.381-.792-.69-1.342-.924a4.606 4.606 0 0 0-1.826-.352c-.916 0-1.72.205-2.409.616-.689.403-1.206.928-1.55 1.573A4.513 4.513 0 0 0 1.6 6.151c0 .895.217 1.676.65 2.343a4.052 4.052 0 0 0 1.726 1.474c.72.33 1.522.495 2.41.495a7.22 7.22 0 0 0 2.42-.396v.88c-.741.264-1.555.396-2.443.396a6.809 6.809 0 0 1-2.167-.341 5.8 5.8 0 0 1-1.804-.979 4.47 4.47 0 0 1-1.254-1.639C.83 7.717.676 6.972.676 6.151Zm6.567-.374c-.08-.3-.249-.557-.506-.77-.256-.213-.572-.319-.946-.319-.388 0-.718.14-.99.418-.264.271-.396.627-.396 1.067 0 .44.132.8.396 1.078.272.271.602.407.99.407.374 0 .69-.106.946-.319.257-.213.426-.47.506-.77v-.792Z"/>
</svg>
