<svg width="32" height="32" viewBox="0 0 32 32" fill="none" xmlns="http://www.w3.org/2000/svg">
<g clip-path="url(#clip0_233_519)">
<path d="M31.523 19.8703C29.3858 28.4418 20.7034 33.6583 12.13 31.5208C3.56006 29.3838 -1.65699 20.7018 0.481234 12.1308C2.61746 3.55831 11.2999 -1.65869 19.8708 0.47831C28.4437 2.61531 33.6603 11.2983 31.523 19.8703Z" fill="#6E7CCA"/>
<path d="M3.39202 12.857L3.39221 12.8562C5.12777 5.89157 12.1819 1.65306 19.145 3.38919L19.1452 3.38923C26.1102 5.12542 30.3486 12.18 28.6122 19.1445C26.8758 26.1081 19.8218 30.3467 12.8557 28.6099C5.89338 26.8737 1.65494 19.82 3.39202 12.857Z" stroke="white" stroke-opacity="0.24" stroke-width="6"/>
<g style="mix-blend-mode:screen" opacity="0.3">
<path d="M31.0456 10.5636L0.206381 18.5651C-0.132191 16.4857 -0.062985 14.305 0.479281 12.1313C2.61551 3.5588 11.2979 -1.6582 19.8688 0.478798C25.2388 1.81738 29.2918 5.72434 31.0456 10.5636Z" fill="white"/>
</g>
<g filter="url(#filter0_di_233_519)">
<path d="M28.6109 19.1449C26.8744 26.1091 19.8199 30.3475 12.854 28.6108C5.89096 26.8745 1.65211 19.8204 3.38942 12.8566C5.1251 5.89149 12.1796 1.65272 19.1434 3.38902C26.1089 5.12531 30.3474 12.1802 28.6109 19.1449Z" fill="#6E7CCA"/>
</g>
<g filter="url(#filter1_d_233_519)">
<path d="M16.0112 19.4962L16.1385 19.6233L21.9703 16.1762L16.1385 6.5L16.0112 6.93295V19.4962Z" fill="#FFFDFE"/>
<path d="M16.1387 19.6234V6.5L10.307 16.1762L16.1387 19.6234Z" fill="#B0E7FF"/>
<path d="M16.0668 25.2904L16.1386 25.5L21.9738 17.2822L16.1387 20.7276L16.0669 20.8151L16.0668 25.2904Z" fill="#FFFDFF"/>
<path d="M10.307 17.2822L16.1387 25.5001V20.7276L10.307 17.2822Z" fill="#B0E7FF"/>
<path d="M16.1386 13.5259V19.6236L21.9702 16.1765L16.1386 13.5259Z" fill="#FFFDFF"/>
<path d="M16.1386 13.5259L10.307 16.1765L16.1386 19.6236V13.5259Z" fill="#C8F7F7"/>
</g>
</g>
<defs>
<filter id="filter0_di_233_519" x="2" y="3" width="27" height="28" filterUnits="userSpaceOnUse" color-interpolation-filters="sRGB">
<feFlood flood-opacity="0" result="BackgroundImageFix"/>
<feColorMatrix in="SourceAlpha" type="matrix" values="0 0 0 0 0 0 0 0 0 0 0 0 0 0 0 0 0 0 127 0" result="hardAlpha"/>
<feOffset dx="-1" dy="1"/>
<feColorMatrix type="matrix" values="0 0 0 0 1 0 0 0 0 1 0 0 0 0 1 0 0 0 0.32 0"/>
<feBlend mode="normal" in2="BackgroundImageFix" result="effect1_dropShadow_233_519"/>
<feBlend mode="normal" in="SourceGraphic" in2="effect1_dropShadow_233_519" result="shape"/>
<feColorMatrix in="SourceAlpha" type="matrix" values="0 0 0 0 0 0 0 0 0 0 0 0 0 0 0 0 0 0 127 0" result="hardAlpha"/>
<feOffset dx="-1" dy="2"/>
<feGaussianBlur stdDeviation="1"/>
<feComposite in2="hardAlpha" operator="arithmetic" k2="-1" k3="1"/>
<feColorMatrix type="matrix" values="0 0 0 0 0 0 0 0 0 0 0 0 0 0 0 0 0 0 0.16 0"/>
<feBlend mode="normal" in2="shape" result="effect2_innerShadow_233_519"/>
</filter>
<filter id="filter1_d_233_519" x="8.30701" y="6.5" width="13.6668" height="21" filterUnits="userSpaceOnUse" color-interpolation-filters="sRGB">
<feFlood flood-opacity="0" result="BackgroundImageFix"/>
<feColorMatrix in="SourceAlpha" type="matrix" values="0 0 0 0 0 0 0 0 0 0 0 0 0 0 0 0 0 0 127 0" result="hardAlpha"/>
<feOffset dx="-1" dy="1"/>
<feGaussianBlur stdDeviation="0.5"/>
<feColorMatrix type="matrix" values="0 0 0 0 0 0 0 0 0 0 0 0 0 0 0 0 0 0 0.08 0"/>
<feBlend mode="normal" in2="BackgroundImageFix" result="effect1_dropShadow_233_519"/>
<feBlend mode="normal" in="SourceGraphic" in2="effect1_dropShadow_233_519" result="shape"/>
</filter>
<clipPath id="clip0_233_519">
<rect width="32" height="32" fill="white"/>
</clipPath>
</defs>
</svg>
