<svg width="101" height="77" viewBox="0 0 101 77" fill="none" xmlns="http://www.w3.org/2000/svg">
<path d="M27.9144 37.6203C29.037 36.5568 29.0334 34.725 27.9144 33.6644V33.3046C29.0776 32.2398 29.0852 30.3559 27.9144 29.2848V28.9132C29.0067 27.8783 29.0328 26.1162 28.0026 25.0448H29.5832H72.7341C71.7038 26.1162 71.7299 27.8784 72.8223 28.9132V29.2848C71.6515 30.3559 71.659 32.2398 72.8223 33.3046V33.6644C71.7032 34.725 71.6996 36.5568 72.8223 37.6203V38.1345C71.8487 39.1738 71.8552 40.8274 72.8223 41.862V42.2944C71.5382 43.3807 71.5571 45.385 72.8223 46.4549V46.6888H29.5832H27.9144V46.4549C29.1795 45.385 29.1984 43.3807 27.9144 42.2944V41.862C28.8814 40.8274 28.8879 39.1738 27.9144 38.1345V37.6203Z" fill="url(#paint0_linear_0_19173)" fill-opacity="0.2"/>
<path d="M27.9144 37.6203C29.037 36.5568 29.0334 34.725 27.9144 33.6644V33.3046C29.0776 32.2398 29.0852 30.3559 27.9144 29.2848V28.9132C29.0067 27.8783 29.0328 26.1162 28.0026 25.0448H29.5832H72.7341C71.7038 26.1162 71.7299 27.8784 72.8223 28.9132V29.2848C71.6515 30.3559 71.659 32.2398 72.8223 33.3046V33.6644C71.7032 34.725 71.6996 36.5568 72.8223 37.6203V38.1345C71.8487 39.1738 71.8552 40.8274 72.8223 41.862V42.2944C71.5382 43.3807 71.5571 45.385 72.8223 46.4549V46.6888H29.5832H27.9144V46.4549C29.1795 45.385 29.1984 43.3807 27.9144 42.2944V41.862C28.8814 40.8274 28.8879 39.1738 27.9144 38.1345V37.6203Z" fill="#FDF521" fill-opacity="0.12"/>
<path d="M27.9144 37.6203C29.037 36.5568 29.0334 34.725 27.9144 33.6644V33.3046C29.0776 32.2398 29.0852 30.3559 27.9144 29.2848V28.9132C29.0067 27.8783 29.0328 26.1162 28.0026 25.0448H29.5832H72.7341C71.7038 26.1162 71.7299 27.8784 72.8223 28.9132V29.2848C71.6515 30.3559 71.659 32.2398 72.8223 33.3046V33.6644C71.7032 34.725 71.6996 36.5568 72.8223 37.6203V38.1345C71.8487 39.1738 71.8552 40.8274 72.8223 41.862V42.2944C71.5382 43.3807 71.5571 45.385 72.8223 46.4549V46.6888H29.5832H27.9144V46.4549C29.1795 45.385 29.1984 43.3807 27.9144 42.2944V41.862C28.8814 40.8274 28.8879 39.1738 27.9144 38.1345V37.6203Z" stroke="#E99709" stroke-width="2.35606"/>
<path d="M27.9144 37.6203C29.037 36.5568 29.0334 34.725 27.9144 33.6644V33.3046C29.0776 32.2398 29.0852 30.3559 27.9144 29.2848V28.9132C29.0067 27.8783 29.0328 26.1162 28.0026 25.0448H29.5832H72.7341C71.7038 26.1162 71.7299 27.8784 72.8223 28.9132V29.2848C71.6515 30.3559 71.659 32.2398 72.8223 33.3046V33.6644C71.7032 34.725 71.6996 36.5568 72.8223 37.6203V38.1345C71.8487 39.1738 71.8552 40.8274 72.8223 41.862V42.2944C71.5382 43.3807 71.5571 45.385 72.8223 46.4549V46.6888H29.5832H27.9144V46.4549C29.1795 45.385 29.1984 43.3807 27.9144 42.2944V41.862C28.8814 40.8274 28.8879 39.1738 27.9144 38.1345V37.6203Z" stroke="url(#paint1_linear_0_19173)" stroke-width="2.35606"/>
<path d="M27.9144 37.6203C29.037 36.5568 29.0334 34.725 27.9144 33.6644V33.3046C29.0776 32.2398 29.0852 30.3559 27.9144 29.2848V28.9132C29.0067 27.8783 29.0328 26.1162 28.0026 25.0448H29.5832H72.7341C71.7038 26.1162 71.7299 27.8784 72.8223 28.9132V29.2848C71.6515 30.3559 71.659 32.2398 72.8223 33.3046V33.6644C71.7032 34.725 71.6996 36.5568 72.8223 37.6203V38.1345C71.8487 39.1738 71.8552 40.8274 72.8223 41.862V42.2944C71.5382 43.3807 71.5571 45.385 72.8223 46.4549V46.6888H29.5832H27.9144V46.4549C29.1795 45.385 29.1984 43.3807 27.9144 42.2944V41.862C28.8814 40.8274 28.8879 39.1738 27.9144 38.1345V37.6203Z" stroke="url(#paint2_linear_0_19173)" stroke-opacity="0.2" stroke-width="2.35606"/>
<g filter="url(#filter0_d_0_19173)">
<path d="M40.0589 36.1827C40.3639 36.2826 40.6057 36.4509 40.7845 36.6875C40.9633 36.9189 41.0527 37.2081 41.0527 37.5552C41.0527 38.0337 40.8687 38.4044 40.5006 38.6674C40.1325 38.925 39.5961 39.0539 38.8915 39.0539H36.1465V33.5324H38.7337C39.3858 33.5324 39.888 33.6612 40.2403 33.9189C40.5926 34.1713 40.7688 34.521 40.7688 34.968C40.7688 35.2414 40.7057 35.4833 40.5795 35.6936C40.4532 35.904 40.2797 36.067 40.0589 36.1827ZM37.1719 34.3369V35.8593H38.6233C38.9808 35.8593 39.2543 35.7962 39.4436 35.67C39.6382 35.5385 39.7355 35.3492 39.7355 35.102C39.7355 34.8496 39.6382 34.6603 39.4436 34.5341C39.2543 34.4027 38.9808 34.3369 38.6233 34.3369H37.1719ZM38.8284 38.2493C39.6224 38.2493 40.0194 37.9837 40.0194 37.4526C40.0194 36.9215 39.6224 36.656 38.8284 36.656H37.1719V38.2493H38.8284Z" fill="#E99709"/>
<path d="M44.7264 39.1327C44.1638 39.1327 43.6563 39.0118 43.2041 38.7699C42.7518 38.5227 42.3969 38.1836 42.1392 37.7524C41.8815 37.3159 41.7527 36.8295 41.7527 36.2931C41.7527 35.7567 41.8815 35.273 42.1392 34.8418C42.3969 34.4053 42.7518 34.0661 43.2041 33.8242C43.6563 33.5771 44.1638 33.4535 44.7264 33.4535C45.2891 33.4535 45.7965 33.5771 46.2488 33.8242C46.701 34.0661 47.056 34.4027 47.3136 34.8339C47.5713 35.2651 47.7001 35.7515 47.7001 36.2931C47.7001 36.8347 47.5713 37.3212 47.3136 37.7524C47.056 38.1836 46.701 38.5227 46.2488 38.7699C45.7965 39.0118 45.2891 39.1327 44.7264 39.1327ZM44.7264 38.2335C45.0945 38.2335 45.4258 38.152 45.7203 37.989C46.0148 37.8207 46.2461 37.5893 46.4144 37.2949C46.5827 36.9951 46.6668 36.6612 46.6668 36.2931C46.6668 35.925 46.5827 35.5937 46.4144 35.2992C46.2461 34.9995 46.0148 34.7681 45.7203 34.6051C45.4258 34.4368 45.0945 34.3527 44.7264 34.3527C44.3583 34.3527 44.027 34.4368 43.7326 34.6051C43.4381 34.7681 43.2067 34.9995 43.0384 35.2992C42.8701 35.5937 42.786 35.925 42.786 36.2931C42.786 36.6612 42.8701 36.9951 43.0384 37.2949C43.2067 37.5893 43.4381 37.8207 43.7326 37.989C44.027 38.152 44.3583 38.2335 44.7264 38.2335Z" fill="#E99709"/>
<path d="M53.6933 33.5324V39.0539H52.8493L49.8046 35.315V39.0539H48.7871V33.5324H49.6311L52.6758 37.2712V33.5324H53.6933Z" fill="#E99709"/>
<path d="M57.5471 39.1327C56.7846 39.1327 56.1903 38.9198 55.7644 38.4938C55.3385 38.0626 55.1255 37.4474 55.1255 36.6481V33.5324H56.1509V36.6086C56.1509 37.6919 56.6189 38.2335 57.5549 38.2335C58.4857 38.2335 58.9511 37.6919 58.9511 36.6086V33.5324H59.9607V36.6481C59.9607 37.4474 59.7478 38.0626 59.3218 38.4938C58.9011 38.9198 58.3096 39.1327 57.5471 39.1327Z" fill="#E99709"/>
<path d="M63.1085 39.1327C62.6825 39.1327 62.2697 39.0723 61.8701 38.9513C61.4757 38.8304 61.1628 38.67 60.9314 38.4702L61.2864 37.6735C61.5125 37.8523 61.7886 37.9995 62.1146 38.1152C62.4459 38.2256 62.7772 38.2808 63.1085 38.2808C63.5186 38.2808 63.8236 38.2151 64.0235 38.0837C64.2286 37.9522 64.3311 37.7787 64.3311 37.5631C64.3311 37.4053 64.2733 37.2765 64.1576 37.1766C64.0471 37.0714 63.9052 36.9899 63.7316 36.932C63.5581 36.8742 63.3214 36.8085 63.0217 36.7348C62.601 36.6349 62.2592 36.535 61.9963 36.4351C61.7386 36.3352 61.5151 36.1801 61.3258 35.9697C61.1418 35.7541 61.0498 35.4649 61.0498 35.102C61.0498 34.7971 61.1313 34.521 61.2943 34.2738C61.4625 34.0214 61.7123 33.8216 62.0436 33.6744C62.3802 33.5271 62.7903 33.4535 63.2741 33.4535C63.6107 33.4535 63.942 33.4956 64.268 33.5797C64.594 33.6638 64.8754 33.7848 65.112 33.9425L64.7886 34.7392C64.5467 34.5972 64.2943 34.4894 64.0314 34.4158C63.7684 34.3422 63.5134 34.3054 63.2662 34.3054C62.8613 34.3054 62.559 34.3737 62.3591 34.5105C62.1646 34.6472 62.0673 34.8286 62.0673 35.0547C62.0673 35.2125 62.1225 35.3413 62.2329 35.4412C62.3486 35.5411 62.4932 35.62 62.6668 35.6779C62.8403 35.7357 63.0769 35.8014 63.3767 35.8751C63.7868 35.9697 64.1234 36.0696 64.3863 36.1748C64.6492 36.2747 64.8727 36.4298 65.0568 36.6402C65.2461 36.8505 65.3407 37.1345 65.3407 37.4921C65.3407 37.7971 65.2566 38.0731 65.0883 38.3203C64.9253 38.5674 64.6755 38.7646 64.339 38.9119C64.0024 39.0591 63.5923 39.1327 63.1085 39.1327Z" fill="#E99709"/>
</g>
<g opacity="0.5" filter="url(#filter1_f_0_19173)">
<path d="M38.1087 35.5327C38.4137 35.6326 38.6555 35.8008 38.8343 36.0375C39.0131 36.2689 39.1025 36.5581 39.1025 36.9051C39.1025 37.3837 38.9185 37.7544 38.5504 38.0173C38.1823 38.275 37.6459 38.4038 36.9413 38.4038H34.1963V32.8823H36.7835C37.4356 32.8823 37.9378 33.0112 38.2901 33.2688C38.6424 33.5213 38.8186 33.871 38.8186 34.3179C38.8186 34.5914 38.7555 34.8333 38.6293 35.0436C38.5031 35.254 38.3295 35.417 38.1087 35.5327ZM35.2217 33.6869V35.2093H36.6731C37.0307 35.2093 37.3041 35.1462 37.4934 35.0199C37.688 34.8885 37.7853 34.6992 37.7853 34.452C37.7853 34.1996 37.688 34.0103 37.4934 33.8841C37.3041 33.7526 37.0307 33.6869 36.6731 33.6869H35.2217ZM36.8782 37.5993C37.6722 37.5993 38.0692 37.3337 38.0692 36.8026C38.0692 36.2715 37.6722 36.0059 36.8782 36.0059H35.2217V37.5993H36.8782Z" fill="#E99709"/>
<path d="M42.7762 38.4827C42.2136 38.4827 41.7061 38.3618 41.2539 38.1199C40.8016 37.8727 40.4467 37.5335 40.189 37.1023C39.9313 36.6659 39.8025 36.1795 39.8025 35.6431C39.8025 35.1067 39.9313 34.6229 40.189 34.1917C40.4467 33.7553 40.8016 33.4161 41.2539 33.1742C41.7061 32.927 42.2136 32.8035 42.7762 32.8035C43.3389 32.8035 43.8463 32.927 44.2986 33.1742C44.7508 33.4161 45.1058 33.7526 45.3634 34.1838C45.6211 34.615 45.7499 35.1015 45.7499 35.6431C45.7499 36.1847 45.6211 36.6711 45.3634 37.1023C45.1058 37.5335 44.7508 37.8727 44.2986 38.1199C43.8463 38.3618 43.3389 38.4827 42.7762 38.4827ZM42.7762 37.5835C43.1443 37.5835 43.4756 37.502 43.7701 37.339C44.0646 37.1707 44.2959 36.9393 44.4642 36.6448C44.6325 36.3451 44.7166 36.0112 44.7166 35.6431C44.7166 35.275 44.6325 34.9437 44.4642 34.6492C44.2959 34.3495 44.0646 34.1181 43.7701 33.9551C43.4756 33.7868 43.1443 33.7027 42.7762 33.7027C42.4081 33.7027 42.0768 33.7868 41.7824 33.9551C41.4879 34.1181 41.2565 34.3495 41.0882 34.6492C40.92 34.9437 40.8358 35.275 40.8358 35.6431C40.8358 36.0112 40.92 36.3451 41.0882 36.6448C41.2565 36.9393 41.4879 37.1707 41.7824 37.339C42.0768 37.502 42.4081 37.5835 42.7762 37.5835Z" fill="#E99709"/>
<path d="M51.7431 32.8823V38.4038H50.8991L47.8544 34.665V38.4038H46.8369V32.8823H47.6809L50.7256 36.6212V32.8823H51.7431Z" fill="#E99709"/>
<path d="M55.5969 38.4827C54.8344 38.4827 54.2402 38.2697 53.8142 37.8438C53.3883 37.4126 53.1753 36.7973 53.1753 35.998V32.8823H54.2007V35.9586C54.2007 37.0419 54.6687 37.5835 55.6048 37.5835C56.5355 37.5835 57.0009 37.0419 57.0009 35.9586V32.8823H58.0105V35.998C58.0105 36.7973 57.7976 37.4126 57.3716 37.8438C56.9509 38.2697 56.3594 38.4827 55.5969 38.4827Z" fill="#E99709"/>
<path d="M61.1583 38.4827C60.7323 38.4827 60.3195 38.4222 59.9199 38.3013C59.5255 38.1803 59.2126 38.02 58.9812 37.8201L59.3362 37.0235C59.5623 37.2023 59.8384 37.3495 60.1644 37.4652C60.4957 37.5756 60.827 37.6308 61.1583 37.6308C61.5685 37.6308 61.8734 37.5651 62.0733 37.4336C62.2784 37.3022 62.3809 37.1286 62.3809 36.913C62.3809 36.7553 62.3231 36.6264 62.2074 36.5265C62.0969 36.4214 61.955 36.3398 61.7814 36.282C61.6079 36.2242 61.3713 36.1584 61.0715 36.0848C60.6508 35.9849 60.309 35.885 60.0461 35.7851C59.7884 35.6852 59.5649 35.53 59.3756 35.3197C59.1916 35.1041 59.0996 34.8149 59.0996 34.452C59.0996 34.147 59.1811 33.871 59.3441 33.6238C59.5124 33.3714 59.7621 33.1716 60.0934 33.0243C60.43 32.8771 60.8401 32.8035 61.3239 32.8035C61.6605 32.8035 61.9918 32.8455 62.3178 32.9297C62.6438 33.0138 62.9252 33.1348 63.1618 33.2925L62.8384 34.0892C62.5965 33.9472 62.3441 33.8394 62.0812 33.7658C61.8182 33.6922 61.5632 33.6554 61.316 33.6554C60.9111 33.6554 60.6088 33.7237 60.4089 33.8604C60.2144 33.9972 60.1171 34.1786 60.1171 34.4047C60.1171 34.5625 60.1723 34.6913 60.2827 34.7912C60.3984 34.8911 60.543 34.97 60.7166 35.0278C60.8901 35.0857 61.1267 35.1514 61.4265 35.225C61.8366 35.3197 62.1732 35.4196 62.4361 35.5248C62.699 35.6247 62.9225 35.7798 63.1066 35.9902C63.2959 36.2005 63.3905 36.4845 63.3905 36.842C63.3905 37.147 63.3064 37.4231 63.1381 37.6703C62.9751 37.9174 62.7253 38.1146 62.3888 38.2619C62.0522 38.4091 61.6421 38.4827 61.1583 38.4827Z" fill="#E99709"/>
</g>
<g opacity="0.5" filter="url(#filter2_f_0_19173)">
<path d="M40.4241 36.6613C40.7291 36.7612 40.971 36.9295 41.1498 37.1661C41.3286 37.3975 41.418 37.6867 41.418 38.0338C41.418 38.5123 41.2339 38.8831 40.8658 39.146C40.4977 39.4037 39.9613 39.5325 39.2567 39.5325H36.5117V34.011H39.0989C39.751 34.011 40.2532 34.1398 40.6055 34.3975C40.9578 34.6499 41.134 34.9996 41.134 35.4466C41.134 35.72 41.0709 35.9619 40.9447 36.1723C40.8185 36.3826 40.6449 36.5456 40.4241 36.6613ZM37.5371 34.8156V36.3379H38.9885C39.3461 36.3379 39.6195 36.2748 39.8088 36.1486C40.0034 36.0171 40.1007 35.8278 40.1007 35.5807C40.1007 35.3283 40.0034 35.139 39.8088 35.0128C39.6195 34.8813 39.3461 34.8156 38.9885 34.8156H37.5371ZM39.1936 38.7279C39.9876 38.7279 40.3846 38.4624 40.3846 37.9313C40.3846 37.4001 39.9876 37.1346 39.1936 37.1346H37.5371V38.7279H39.1936Z" fill="url(#paint3_linear_0_19173)"/>
<path d="M45.0917 39.6114C44.529 39.6114 44.0215 39.4904 43.5693 39.2485C43.1171 39.0014 42.7621 38.6622 42.5044 38.231C42.2468 37.7945 42.1179 37.3081 42.1179 36.7718C42.1179 36.2354 42.2468 35.7516 42.5044 35.3204C42.7621 34.8839 43.1171 34.5448 43.5693 34.3029C44.0215 34.0557 44.529 33.9321 45.0917 33.9321C45.6543 33.9321 46.1618 34.0557 46.614 34.3029C47.0662 34.5448 47.4212 34.8813 47.6789 35.3125C47.9365 35.7437 48.0654 36.2301 48.0654 36.7718C48.0654 37.3134 47.9365 37.7998 47.6789 38.231C47.4212 38.6622 47.0662 39.0014 46.614 39.2485C46.1618 39.4904 45.6543 39.6114 45.0917 39.6114ZM45.0917 38.7122C45.4598 38.7122 45.791 38.6307 46.0855 38.4676C46.38 38.2994 46.6114 38.068 46.7797 37.7735C46.9479 37.4738 47.0321 37.1399 47.0321 36.7718C47.0321 36.4037 46.9479 36.0724 46.7797 35.7779C46.6114 35.4781 46.38 35.2468 46.0855 35.0838C45.791 34.9155 45.4598 34.8313 45.0917 34.8313C44.7236 34.8313 44.3923 34.9155 44.0978 35.0838C43.8033 35.2468 43.5719 35.4781 43.4037 35.7779C43.2354 36.0724 43.1512 36.4037 43.1512 36.7718C43.1512 37.1399 43.2354 37.4738 43.4037 37.7735C43.5719 38.068 43.8033 38.2994 44.0978 38.4676C44.3923 38.6307 44.7236 38.7122 45.0917 38.7122Z" fill="url(#paint4_linear_0_19173)"/>
<path d="M54.0585 34.011V39.5325H53.2145L50.1698 35.7937V39.5325H49.1523V34.011H49.9963L53.041 37.7498V34.011H54.0585Z" fill="url(#paint5_linear_0_19173)"/>
<path d="M57.9123 39.6114C57.1498 39.6114 56.5556 39.3984 56.1296 38.9725C55.7037 38.5413 55.4907 37.926 55.4907 37.1267V34.011H56.5161V37.0873C56.5161 38.1705 56.9842 38.7122 57.9202 38.7122C58.8509 38.7122 59.3163 38.1705 59.3163 37.0873V34.011H60.326V37.1267C60.326 37.926 60.113 38.5413 59.6871 38.9725C59.2664 39.3984 58.6748 39.6114 57.9123 39.6114Z" fill="url(#paint6_linear_0_19173)"/>
<path d="M63.4737 39.6114C63.0478 39.6114 62.635 39.5509 62.2353 39.43C61.8409 39.309 61.528 39.1486 61.2967 38.9488L61.6516 38.1521C61.8777 38.3309 62.1538 38.4782 62.4798 38.5938C62.8111 38.7043 63.1424 38.7595 63.4737 38.7595C63.8839 38.7595 64.1889 38.6938 64.3887 38.5623C64.5938 38.4308 64.6963 38.2573 64.6963 38.0417C64.6963 37.8839 64.6385 37.7551 64.5228 37.6552C64.4124 37.55 64.2704 37.4685 64.0969 37.4107C63.9233 37.3528 63.6867 37.2871 63.3869 37.2135C62.9663 37.1136 62.6245 37.0136 62.3615 36.9137C62.1039 36.8138 61.8804 36.6587 61.6911 36.4483C61.507 36.2327 61.415 35.9435 61.415 35.5807C61.415 35.2757 61.4965 34.9996 61.6595 34.7525C61.8278 34.5001 62.0776 34.3002 62.4089 34.153C62.7454 34.0057 63.1556 33.9321 63.6394 33.9321C63.9759 33.9321 64.3072 33.9742 64.6332 34.0583C64.9593 34.1425 65.2406 34.2634 65.4772 34.4212L65.1538 35.2178C64.9119 35.0759 64.6595 34.9681 64.3966 34.8944C64.1337 34.8208 63.8786 34.784 63.6315 34.784C63.2266 34.784 62.9242 34.8524 62.7244 34.9891C62.5298 35.1258 62.4325 35.3072 62.4325 35.5334C62.4325 35.6911 62.4877 35.82 62.5982 35.9199C62.7139 36.0198 62.8585 36.0987 63.032 36.1565C63.2055 36.2143 63.4422 36.2801 63.7419 36.3537C64.1521 36.4483 64.4886 36.5483 64.7515 36.6534C65.0145 36.7533 65.238 36.9085 65.422 37.1188C65.6113 37.3292 65.706 37.6131 65.706 37.9707C65.706 38.2757 65.6218 38.5518 65.4536 38.7989C65.2905 39.0461 65.0408 39.2433 64.7042 39.3905C64.3677 39.5378 63.9575 39.6114 63.4737 39.6114Z" fill="url(#paint7_linear_0_19173)"/>
</g>
<defs>
<filter id="filter0_d_0_19173" x="0.80563" y="0.468693" width="99.876" height="76.361" filterUnits="userSpaceOnUse" color-interpolation-filters="sRGB">
<feFlood flood-opacity="0" result="BackgroundImageFix"/>
<feColorMatrix in="SourceAlpha" type="matrix" values="0 0 0 0 0 0 0 0 0 0 0 0 0 0 0 0 0 0 127 0" result="hardAlpha"/>
<feOffset dy="2.35606"/>
<feGaussianBlur stdDeviation="17.6704"/>
<feComposite in2="hardAlpha" operator="out"/>
<feColorMatrix type="matrix" values="0 0 0 0 0.0180907 0 0 0 0 0.169455 0 0 0 0 0.320819 0 0 0 0.6 0"/>
<feBlend mode="normal" in2="BackgroundImageFix" result="effect1_dropShadow_0_19173"/>
<feBlend mode="normal" in="SourceGraphic" in2="effect1_dropShadow_0_19173" result="shape"/>
</filter>
<filter id="filter1_f_0_19173" x="24.1963" y="22.8035" width="49.1943" height="25.6793" filterUnits="userSpaceOnUse" color-interpolation-filters="sRGB">
<feFlood flood-opacity="0" result="BackgroundImageFix"/>
<feBlend mode="normal" in="SourceGraphic" in2="BackgroundImageFix" result="shape"/>
<feGaussianBlur stdDeviation="5" result="effect1_foregroundBlur_0_19173"/>
</filter>
<filter id="filter2_f_0_19173" x="34.5117" y="31.9321" width="33.1943" height="9.67926" filterUnits="userSpaceOnUse" color-interpolation-filters="sRGB">
<feFlood flood-opacity="0" result="BackgroundImageFix"/>
<feBlend mode="normal" in="SourceGraphic" in2="BackgroundImageFix" result="shape"/>
<feGaussianBlur stdDeviation="1" result="effect1_foregroundBlur_0_19173"/>
</filter>
<linearGradient id="paint0_linear_0_19173" x1="24.1214" y1="53.2311" x2="67.2579" y2="27.5714" gradientUnits="userSpaceOnUse">
<stop stop-color="white"/>
<stop offset="0.231591" stop-color="white" stop-opacity="0"/>
<stop offset="0.401458" stop-color="white" stop-opacity="0"/>
<stop offset="0.483895" stop-color="white" stop-opacity="0.34"/>
<stop offset="0.580826" stop-color="white" stop-opacity="0"/>
<stop offset="0.74373" stop-color="white" stop-opacity="0"/>
<stop offset="0.843136" stop-color="white" stop-opacity="0.15"/>
<stop offset="0.957127" stop-color="white" stop-opacity="0"/>
</linearGradient>
<linearGradient id="paint1_linear_0_19173" x1="61.4998" y1="60.4037" x2="37.3555" y2="21.106" gradientUnits="userSpaceOnUse">
<stop stop-color="#E3CC50"/>
<stop offset="1" stop-color="#E3CC50" stop-opacity="0"/>
</linearGradient>
<linearGradient id="paint2_linear_0_19173" x1="50.3683" y1="23.8668" x2="29.3747" y2="46.9677" gradientUnits="userSpaceOnUse">
<stop stop-color="white" stop-opacity="0"/>
<stop offset="1" stop-color="white" stop-opacity="0.51"/>
</linearGradient>
<linearGradient id="paint3_linear_0_19173" x1="63.6214" y1="49.3922" x2="47.7609" y2="35.047" gradientUnits="userSpaceOnUse">
<stop stop-color="#F7CD80"/>
<stop offset="1" stop-color="#F7CD80" stop-opacity="0"/>
</linearGradient>
<linearGradient id="paint4_linear_0_19173" x1="63.6214" y1="49.3922" x2="47.7609" y2="35.047" gradientUnits="userSpaceOnUse">
<stop stop-color="#F7CD80"/>
<stop offset="1" stop-color="#F7CD80" stop-opacity="0"/>
</linearGradient>
<linearGradient id="paint5_linear_0_19173" x1="63.6214" y1="49.3922" x2="47.7609" y2="35.047" gradientUnits="userSpaceOnUse">
<stop stop-color="#F7CD80"/>
<stop offset="1" stop-color="#F7CD80" stop-opacity="0"/>
</linearGradient>
<linearGradient id="paint6_linear_0_19173" x1="63.6214" y1="49.3922" x2="47.7609" y2="35.047" gradientUnits="userSpaceOnUse">
<stop stop-color="#F7CD80"/>
<stop offset="1" stop-color="#F7CD80" stop-opacity="0"/>
</linearGradient>
<linearGradient id="paint7_linear_0_19173" x1="63.6214" y1="49.3922" x2="47.7609" y2="35.047" gradientUnits="userSpaceOnUse">
<stop stop-color="#F7CD80"/>
<stop offset="1" stop-color="#F7CD80" stop-opacity="0"/>
</linearGradient>
</defs>
</svg>
