<svg xmlns="http://www.w3.org/2000/svg" width="25" height="25" fill="none" viewBox="0 0 25 25">
  <path fill="#CC978B" fill-rule="evenodd" d="M7.874 4.083a.476.476 0 0 0-.197.187l-.07.124.012 1.962.012 1.962.08.329c.45 1.818 1.763 3.129 3.557 3.552.415.098 1.197.133 1.634.075 2.149-.29 3.823-2.028 4.054-4.206.024-.23.033-.899.027-2.037-.01-1.654-.012-1.696-.075-1.78a.891.891 0 0 0-.15-.15c-.086-.065-.098-.065-4.421-.073C8.04 4.02 8 4.021 7.874 4.083Zm4.549.812a.534.534 0 0 1 .187.108c.044.042.24.399.437.792l.356.715.798.117c.847.123.934.15 1.04.32.067.108.08.349.026.46-.02.037-.295.32-.613.63l-.579.563.13.75c.156.89.155 1.002-.008 1.165-.094.094-.137.113-.28.125-.168.014-.183.008-.893-.367l-.723-.38-.724.38c-.711.374-.727.38-.894.367-.143-.012-.187-.031-.28-.126-.164-.162-.165-.274-.01-1.164l.132-.75-.579-.563c-.318-.31-.595-.596-.615-.636a.568.568 0 0 1 .02-.443c.105-.178.19-.205 1.042-.328.438-.064.8-.118.801-.12.003-.003.167-.328.364-.724.198-.395.395-.75.437-.79a.562.562 0 0 1 .29-.129.646.646 0 0 1 .138.028Zm-7.91.197c-.221.148-.219.127-.207 1.663l.01 1.376.085.274c.247.801.757 1.41 1.47 1.758.384.186.702.264 1.172.287l.386.02-.154-.31a6.72 6.72 0 0 1-.21-.46.544.544 0 0 0-.088-.168 1.656 1.656 0 0 0-.253-.061c-.503-.095-1.042-.497-1.268-.945-.198-.393-.22-.561-.22-1.619V5.96l.71-.009.712-.008.008-.461.009-.461H5.647c-1.016 0-1.029 0-1.134.07Zm13.413.397v.47h1.438v.948c0 .835-.007.976-.06 1.184a1.69 1.69 0 0 1-.499.87c-.324.32-.633.473-1.101.545-.101.015-.12.033-.17.165a6.4 6.4 0 0 1-.206.452 3.785 3.785 0 0 0-.152.325c0 .043.772-.018 1.016-.08.951-.243 1.703-.978 2.007-1.963l.085-.274.01-1.376c.011-1.536.014-1.515-.208-1.663-.105-.07-.117-.071-1.133-.071h-1.027v.468Zm-5.853 1.36c-.158.317-.235.438-.306.481-.055.033-.244.08-.445.11l-.458.071-.107.02.347.332c.423.406.423.406.325.987a8.768 8.768 0 0 0-.068.442c0 .02.173-.057.384-.17.527-.284.586-.284 1.11 0 .21.113.383.19.383.17 0-.02-.03-.219-.068-.442-.097-.577-.097-.577.32-.979.188-.18.336-.334.329-.341a5.008 5.008 0 0 0-.446-.076c-.238-.034-.475-.086-.526-.115-.071-.04-.147-.157-.313-.482a4.314 4.314 0 0 0-.235-.43c-.009 0-.11.19-.226.423Zm-1.024 7.092v.832h2.439v-.813c0-.767-.003-.812-.058-.812-.031 0-.197.02-.367.046-.526.08-1.489.047-1.934-.064l-.08-.02v.831ZM9.222 15.78c-.171.134-.172.145-.172 1.79v1.518h-.303c-.239 0-.33.013-.432.062a.494.494 0 0 0-.265.407c0 .143.113.325.25.402l.118.067 3.903-.001h3.903l.122-.07a.542.542 0 0 0 .18-.18.457.457 0 0 0-.18-.616c-.105-.06-.168-.07-.457-.07l-.336-.001-.008-1.56c-.009-1.53-.01-1.563-.075-1.65a.503.503 0 0 0-.14-.127c-.058-.03-.751-.038-3.048-.039H9.307l-.086.068Zm5.016 1.362c.156.078.25.235.25.414 0 .18-.094.336-.25.414-.1.05-.259.055-1.937.055-1.679 0-1.838-.005-1.938-.055a.467.467 0 0 1 0-.828c.1-.05.26-.055 1.938-.055s1.837.005 1.937.055Z" clip-rule="evenodd"/>
</svg>
