<svg width="44" height="38" viewBox="0 0 44 38" fill="none" xmlns="http://www.w3.org/2000/svg">
<g style="mix-blend-mode:multiply" filter="url(#filter0_f_227_25570)">
<ellipse cx="22" cy="30.25" rx="16" ry="1.25" fill="black" fill-opacity="0.24"/>
</g>
<g style="mix-blend-mode:multiply" filter="url(#filter1_f_227_25570)">
<ellipse cx="22" cy="30.25" rx="12" ry="1.25" fill="black" fill-opacity="0.32"/>
</g>
<g style="mix-blend-mode:multiply" filter="url(#filter2_f_227_25570)">
<ellipse cx="22" cy="30.5" rx="8" ry="1" fill="black" fill-opacity="0.6"/>
</g>
<g clip-path="url(#clip0_227_25570)">
<path d="M37.523 19.8708C35.3858 28.4423 26.7034 33.6588 18.13 31.5213C9.56006 29.3843 4.34301 20.7023 6.48123 12.1313C8.61746 3.5588 17.2999 -1.6582 25.8708 0.478798C34.4437 2.6158 39.6603 11.2988 37.523 19.8708Z" fill="#F7931A"/>
<path d="M9.39202 12.8575L9.39221 12.8567C11.1278 5.89206 18.1819 1.65355 25.145 3.38968L25.1452 3.38972C32.1102 5.12591 36.3486 12.1805 34.6122 19.145C32.8759 26.1085 25.8219 30.3472 18.8557 28.6104C11.8934 26.8742 7.65494 19.8205 9.39202 12.8575ZM25.8708 0.478926L25.8708 0.478798L25.8708 0.478926Z" stroke="white" stroke-opacity="0.24" stroke-width="6"/>
<g style="mix-blend-mode:screen" opacity="0.3">
<path d="M37.0456 10.5636L6.20638 18.5651C5.86781 16.4857 5.93702 14.305 6.47928 12.1313C8.61551 3.5588 17.2979 -1.6582 25.8688 0.478798C31.2388 1.81738 35.2918 5.72434 37.0456 10.5636Z" fill="white"/>
</g>
<g filter="url(#filter3_di_227_25570)">
<path d="M34.6109 19.1449C32.8744 26.1091 25.8199 30.3475 18.854 28.6108C11.891 26.8745 7.65211 19.8204 9.38942 12.8566C11.1251 5.89149 18.1796 1.65272 25.1434 3.38902C32.1089 5.12531 36.3474 12.1802 34.6109 19.1449Z" fill="#F7931A"/>
</g>
<g filter="url(#filter4_d_227_25570)">
<path d="M28.4647 14.2363C28.7456 12.345 27.316 11.3282 25.3611 10.6499L25.9953 8.08783L24.447 7.69916L23.8296 10.1937C23.4226 10.0916 23.0046 9.99519 22.5892 9.89969L23.2109 7.38867L21.6636 7L21.029 9.56121C20.6921 9.48392 20.3614 9.40752 20.0403 9.32712L20.0421 9.31913L17.9069 8.7821L17.495 10.4478C17.495 10.4478 18.6438 10.713 18.6195 10.7294C19.2466 10.8871 19.3599 11.3051 19.341 11.6365L18.6186 14.5553C18.6619 14.5664 18.7179 14.5824 18.7796 14.6072C18.728 14.5944 18.6729 14.5801 18.616 14.5664L17.6035 18.6552C17.5268 18.847 17.3323 19.1349 16.894 19.0256C16.9094 19.0483 15.7686 18.7427 15.7686 18.7427L15 20.5279L17.0148 21.0338C17.3896 21.1284 17.757 21.2275 18.1186 21.3208L17.4778 23.9122L19.0243 24.3008L19.6589 21.737C20.0814 21.8525 20.4915 21.9591 20.8927 22.0594L20.2604 24.6113L21.8086 25L22.4494 22.4135C25.0895 22.9167 27.0748 22.7137 27.9104 20.3084C28.5838 18.3718 27.8769 17.2546 26.4878 16.5261C27.4994 16.2912 28.2614 15.6209 28.4647 14.2363ZM24.9272 19.2331C24.4488 21.1697 21.2116 20.1228 20.162 19.8603L21.0122 16.4271C22.0618 16.6909 25.4273 17.2133 24.9272 19.2331ZM25.4061 14.2084C24.9696 15.97 22.2752 15.075 21.4012 14.8555L22.172 11.7418C23.046 11.9612 25.8608 12.3707 25.4061 14.2084Z" fill="white"/>
</g>
</g>
<defs>
<filter id="filter0_f_227_25570" x="0" y="23" width="44" height="14.5" filterUnits="userSpaceOnUse" color-interpolation-filters="sRGB">
<feFlood flood-opacity="0" result="BackgroundImageFix"/>
<feBlend mode="normal" in="SourceGraphic" in2="BackgroundImageFix" result="shape"/>
<feGaussianBlur stdDeviation="3" result="effect1_foregroundBlur_227_25570"/>
</filter>
<filter id="filter1_f_227_25570" x="4" y="23" width="36" height="14.5" filterUnits="userSpaceOnUse" color-interpolation-filters="sRGB">
<feFlood flood-opacity="0" result="BackgroundImageFix"/>
<feBlend mode="normal" in="SourceGraphic" in2="BackgroundImageFix" result="shape"/>
<feGaussianBlur stdDeviation="3" result="effect1_foregroundBlur_227_25570"/>
</filter>
<filter id="filter2_f_227_25570" x="8" y="23.5" width="28" height="14" filterUnits="userSpaceOnUse" color-interpolation-filters="sRGB">
<feFlood flood-opacity="0" result="BackgroundImageFix"/>
<feBlend mode="normal" in="SourceGraphic" in2="BackgroundImageFix" result="shape"/>
<feGaussianBlur stdDeviation="3" result="effect1_foregroundBlur_227_25570"/>
</filter>
<filter id="filter3_di_227_25570" x="8" y="3" width="27" height="28" filterUnits="userSpaceOnUse" color-interpolation-filters="sRGB">
<feFlood flood-opacity="0" result="BackgroundImageFix"/>
<feColorMatrix in="SourceAlpha" type="matrix" values="0 0 0 0 0 0 0 0 0 0 0 0 0 0 0 0 0 0 127 0" result="hardAlpha"/>
<feOffset dx="-1" dy="1"/>
<feColorMatrix type="matrix" values="0 0 0 0 1 0 0 0 0 1 0 0 0 0 1 0 0 0 0.32 0"/>
<feBlend mode="normal" in2="BackgroundImageFix" result="effect1_dropShadow_227_25570"/>
<feBlend mode="normal" in="SourceGraphic" in2="effect1_dropShadow_227_25570" result="shape"/>
<feColorMatrix in="SourceAlpha" type="matrix" values="0 0 0 0 0 0 0 0 0 0 0 0 0 0 0 0 0 0 127 0" result="hardAlpha"/>
<feOffset dx="-1" dy="2"/>
<feGaussianBlur stdDeviation="1"/>
<feComposite in2="hardAlpha" operator="arithmetic" k2="-1" k3="1"/>
<feColorMatrix type="matrix" values="0 0 0 0 0 0 0 0 0 0 0 0 0 0 0 0 0 0 0.16 0"/>
<feBlend mode="normal" in2="shape" result="effect2_innerShadow_227_25570"/>
</filter>
<filter id="filter4_d_227_25570" x="13" y="7" width="15.5" height="20" filterUnits="userSpaceOnUse" color-interpolation-filters="sRGB">
<feFlood flood-opacity="0" result="BackgroundImageFix"/>
<feColorMatrix in="SourceAlpha" type="matrix" values="0 0 0 0 0 0 0 0 0 0 0 0 0 0 0 0 0 0 127 0" result="hardAlpha"/>
<feOffset dx="-1" dy="1"/>
<feGaussianBlur stdDeviation="0.5"/>
<feColorMatrix type="matrix" values="0 0 0 0 0 0 0 0 0 0 0 0 0 0 0 0 0 0 0.08 0"/>
<feBlend mode="normal" in2="BackgroundImageFix" result="effect1_dropShadow_227_25570"/>
<feBlend mode="normal" in="SourceGraphic" in2="effect1_dropShadow_227_25570" result="shape"/>
</filter>
<clipPath id="clip0_227_25570">
<rect width="32" height="32" fill="white" transform="translate(6)"/>
</clipPath>
</defs>
</svg>
