<svg xmlns="http://www.w3.org/2000/svg" width="13" height="13" fill="none" viewBox="0 0 13 13">
  <g clip-path="url(#a)">
    <path fill="#F7931A" d="M12.348 7.868A6 6 0 1 1 .707 4.964a6 6 0 0 1 11.641 2.904Z"/>
    <path stroke="#fff" stroke-opacity=".24" stroke-width="1.622" d="M1.495 5.162a5.188 5.188 0 1 1 10.066 2.51 5.188 5.188 0 0 1-10.066-2.51Z"/>
    <path fill="#fff" d="m12.17 4.377-11.565 3a5.998 5.998 0 0 1 11.565-3Z" opacity=".3" style="mix-blend-mode:screen"/>
    <g filter="url(#b)">
      <path fill="#F7931A" d="M11.257 7.595a4.874 4.874 0 1 1-9.46-2.359 4.874 4.874 0 0 1 9.46 2.36Z"/>
    </g>
    <g filter="url(#c)">
      <path fill="#fff" d="M8.952 5.755c.105-.71-.431-1.09-1.164-1.345l.238-.961-.581-.146-.232.936a15.812 15.812 0 0 0-.465-.11l.233-.942-.58-.146-.238.96a19.28 19.28 0 0 1-.37-.087V3.91l-.8-.202-.155.625s.43.1.422.106c.235.059.277.215.27.34l-.27 1.094a.38.38 0 0 1 .06.02l-.062-.016-.38 1.534c-.028.072-.101.18-.265.139.005.008-.422-.106-.422-.106l-.289.669.756.19c.14.035.278.072.414.107l-.24.972.58.146.237-.962c.159.044.313.084.463.121l-.237.957.58.146.24-.97c.99.189 1.735.113 2.049-.79.252-.726-.013-1.145-.534-1.418.38-.088.665-.34.742-.858ZM7.625 7.628c-.18.727-1.393.334-1.787.236l.319-1.288c.394.1 1.656.295 1.468 1.052Zm.18-1.884c-.164.66-1.174.325-1.502.243l.289-1.168c.328.082 1.383.236 1.213.925Z"/>
    </g>
  </g>
  <defs>
    <filter id="b" width="10.02" height="10.291" x="1.382" y="1.541" color-interpolation-filters="sRGB" filterUnits="userSpaceOnUse">
      <feFlood flood-opacity="0" result="BackgroundImageFix"/>
      <feColorMatrix in="SourceAlpha" result="hardAlpha" values="0 0 0 0 0 0 0 0 0 0 0 0 0 0 0 0 0 0 127 0"/>
      <feOffset dx="-.27" dy=".27"/>
      <feColorMatrix values="0 0 0 0 1 0 0 0 0 1 0 0 0 0 1 0 0 0 0.32 0"/>
      <feBlend in2="BackgroundImageFix" result="effect1_dropShadow_191_36541"/>
      <feBlend in="SourceGraphic" in2="effect1_dropShadow_191_36541" result="shape"/>
      <feColorMatrix in="SourceAlpha" result="hardAlpha" values="0 0 0 0 0 0 0 0 0 0 0 0 0 0 0 0 0 0 127 0"/>
      <feOffset dx="-.27" dy=".541"/>
      <feGaussianBlur stdDeviation=".27"/>
      <feComposite in2="hardAlpha" k2="-1" k3="1" operator="arithmetic"/>
      <feColorMatrix values="0 0 0 0 0 0 0 0 0 0 0 0 0 0 0 0 0 0 0.16 0"/>
      <feBlend in2="shape" result="effect2_innerShadow_191_36541"/>
    </filter>
    <filter id="c" width="5.603" height="7.291" x="3.362" y="3.041" color-interpolation-filters="sRGB" filterUnits="userSpaceOnUse">
      <feFlood flood-opacity="0" result="BackgroundImageFix"/>
      <feColorMatrix in="SourceAlpha" result="hardAlpha" values="0 0 0 0 0 0 0 0 0 0 0 0 0 0 0 0 0 0 127 0"/>
      <feOffset dx="-.27" dy=".27"/>
      <feGaussianBlur stdDeviation=".135"/>
      <feColorMatrix values="0 0 0 0 0 0 0 0 0 0 0 0 0 0 0 0 0 0 0.08 0"/>
      <feBlend in2="BackgroundImageFix" result="effect1_dropShadow_191_36541"/>
      <feBlend in="SourceGraphic" in2="effect1_dropShadow_191_36541" result="shape"/>
    </filter>
    <clipPath id="a">
      <path fill="#fff" d="M0 0h12v12H0z" transform="translate(.527 .416)"/>
    </clipPath>
  </defs>
</svg>
