<svg xmlns="http://www.w3.org/2000/svg" width="13" height="13" fill="none" viewBox="0 0 13 13">
  <path fill="#fff" fill-rule="evenodd" d="M3.16 3.12a5.824 5.824 0 0 0-.733.246c-.123.054-.138.065-.171.13-.036.068-.036.072-.011.156.036.123.214.573.27.683.203.4.59.714 1.043.846.304.088.58.091.888.01.209-.054.49-.158.498-.184.01-.032-.446-.283-.737-.405a5.167 5.167 0 0 0-.368-.133c-.218-.069-.26-.098-.287-.194A.266.266 0 0 1 3.6 4.05c.084-.09.2-.088.485.008.309.103.654.26.93.424a.956.956 0 0 0 .152.079c.022 0 .016-.02-.074-.251-.138-.355-.251-.533-.474-.742a1.705 1.705 0 0 0-.682-.403 2.26 2.26 0 0 0-.777-.046Zm5.07.477c-.351.064-.783.19-1.106.323-.935.385-1.603.973-2.158 1.9a.961.961 0 0 0-.08.152c0 .01.019.018.043.018.023 0 .122.015.218.034.146.028.18.03.2.013a3.49 3.49 0 0 0 .186-.241 7.97 7.97 0 0 1 .271-.355c.144-.173.451-.47.607-.587.12-.09.547-.356.557-.347a1.74 1.74 0 0 1-.034.19c-.06.288-.078.483-.069.781.008.263.057.627.09.659.008.008.066-.005.144-.033a2.59 2.59 0 0 1 .213-.066c.045-.01.082-.028.082-.038 0-.01-.012-.064-.025-.12a2.752 2.752 0 0 1-.033-.418c-.01-.361.008-.51.098-.823.083-.288.117-.363.18-.394.076-.037.29-.097.519-.146.41-.087.393-.081.458-.15.06-.063.06-.068.054-.158-.005-.07-.016-.102-.045-.134-.078-.085-.161-.098-.37-.06ZM4.187 6.455a2.34 2.34 0 0 0-1.176.55 2.37 2.37 0 0 0-.77 1.369c-.032.192-.022.686.018.866.102.47.385.951.738 1.259.3.26.719.47 1.078.538.297.057.772.042 1.037-.03.26-.073.593-.218.697-.304l.052-.044-.107-.133c-.316-.392-.548-.914-.603-1.36-.025-.2-.021-.683.007-.855.051-.313.161-.635.308-.9a4.25 4.25 0 0 1 .34-.496c.028-.037.046-.072.04-.079-.07-.066-.648-.333-.671-.31a3.54 3.54 0 0 0-.072.242 2.06 2.06 0 0 1-.086.27c-.056.085-.22.117-.299.058-.125-.093-.137-.17-.069-.439.042-.164.047-.202.03-.213-.034-.021-.352-.014-.492.011Zm3.45-.016c-.074.02-.074.019-.033.1.022.043.068.122.102.175.08.122.092.184.055.267-.044.097-.104.14-.197.14a.329.329 0 0 1-.124-.024c-.063-.033-.153-.157-.258-.357l-.089-.168-.175.088a2.16 2.16 0 0 0-.616.432c-.352.344-.57.739-.675 1.221-.045.208-.04.69.008.91A2.36 2.36 0 0 0 6.87 10.83c.296.148.578.225.885.24.725.038 1.314-.187 1.81-.69a2.31 2.31 0 0 0 .55-.895c.093-.283.109-.39.108-.748 0-.351-.018-.462-.12-.753-.27-.773-.975-1.377-1.766-1.513-.146-.025-.64-.047-.7-.032Z" clip-rule="evenodd"/>
</svg>
