<svg xmlns="http://www.w3.org/2000/svg" width="24" height="24" fill="none" viewBox="0 0 24 24">
  <path stroke="#fff" stroke-linecap="round" stroke-linejoin="round" stroke-width="1.5" d="M20 12v8m-5.3-5.33V20M4 17v3m5.3-6.4V20m6.64-11.491a1.75 1.75 0 1 1-2.475 2.474 1.75 1.75 0 0 1 2.474-2.474m5.403-4.503a1.75 1.75 0 1 1-2.475 2.475 1.75 1.75 0 0 1 2.475-2.475M5.132 9.403a1.75 1.75 0 1 1-2.474 2.475 1.75 1.75 0 0 1 2.474-2.475M10.537 4.9a1.75 1.75 0 1 1-2.475 2.475A1.75 1.75 0 0 1 10.537 4.9m8.233 1.46-2.73 2.27m-2.8.15-2.49-1.67M5.24 9.53l2.72-2.27"/>
</svg>
