<svg width="16" height="15" viewBox="0 0 16 15" fill="none" xmlns="http://www.w3.org/2000/svg">
<path fill-rule="evenodd" clip-rule="evenodd" d="M0.842773 2.68273C0.842773 1.26906 1.98878 0.123047 3.40246 0.123047H12.9513C14.365 0.123047 15.511 1.26906 15.511 2.68273V10.1361C15.511 11.5498 14.365 12.6958 12.9513 12.6958H10.3196C9.81623 12.6958 9.33716 12.9122 9.00448 13.29L8.38405 13.9945C8.23317 14.1659 7.98854 14.1659 7.83766 13.9945L7.21722 13.29C6.88455 12.9122 6.40548 12.6958 5.90211 12.6958H3.40246C1.98878 12.6958 0.842773 11.5498 0.842773 10.1361V2.68273ZM5.73205 6.76054C5.73205 7.33919 5.26296 7.80827 4.68432 7.80827C4.10567 7.80827 3.63659 7.33919 3.63659 6.76054C3.63659 6.1819 4.10567 5.71281 4.68432 5.71281C5.26296 5.71281 5.73205 6.1819 5.73205 6.76054ZM8.17686 7.80827C8.7555 7.80827 9.22458 7.33919 9.22458 6.76054C9.22458 6.1819 8.7555 5.71281 8.17686 5.71281C7.59821 5.71281 7.12913 6.1819 7.12913 6.76054C7.12913 7.33919 7.59821 7.80827 8.17686 7.80827ZM12.7171 6.76054C12.7171 7.33919 12.248 7.80827 11.6694 7.80827C11.0908 7.80827 10.6217 7.33919 10.6217 6.76054C10.6217 6.1819 11.0908 5.71281 11.6694 5.71281C12.248 5.71281 12.7171 6.1819 12.7171 6.76054Z" fill="white"/>
<path fill-rule="evenodd" clip-rule="evenodd" d="M0.842773 2.68273C0.842773 1.26906 1.98878 0.123047 3.40246 0.123047H12.9513C14.365 0.123047 15.511 1.26906 15.511 2.68273V10.1361C15.511 11.5498 14.365 12.6958 12.9513 12.6958H10.3196C9.81623 12.6958 9.33716 12.9122 9.00448 13.29L8.38405 13.9945C8.23317 14.1659 7.98854 14.1659 7.83766 13.9945L7.21722 13.29C6.88455 12.9122 6.40548 12.6958 5.90211 12.6958H3.40246C1.98878 12.6958 0.842773 11.5498 0.842773 10.1361V2.68273ZM5.73205 6.76054C5.73205 7.33919 5.26296 7.80827 4.68432 7.80827C4.10567 7.80827 3.63659 7.33919 3.63659 6.76054C3.63659 6.1819 4.10567 5.71281 4.68432 5.71281C5.26296 5.71281 5.73205 6.1819 5.73205 6.76054ZM8.17686 7.80827C8.7555 7.80827 9.22458 7.33919 9.22458 6.76054C9.22458 6.1819 8.7555 5.71281 8.17686 5.71281C7.59821 5.71281 7.12913 6.1819 7.12913 6.76054C7.12913 7.33919 7.59821 7.80827 8.17686 7.80827ZM12.7171 6.76054C12.7171 7.33919 12.248 7.80827 11.6694 7.80827C11.0908 7.80827 10.6217 7.33919 10.6217 6.76054C10.6217 6.1819 11.0908 5.71281 11.6694 5.71281C12.248 5.71281 12.7171 6.1819 12.7171 6.76054Z" fill="white"/>
</svg>
