<svg xmlns="http://www.w3.org/2000/svg" width="31" height="31" fill="none" viewBox="0 0 31 31">
  <path fill="#21A8F7" d="M15.203 25.752A10.283 10.283 0 0 1 4.891 15.438 10.283 10.283 0 0 1 15.203 5.126 10.283 10.283 0 0 1 25.516 15.44a10.283 10.283 0 0 1-10.313 10.313Zm0-17.813c-4.125 0-7.5 3.375-7.5 7.5s3.375 7.5 7.5 7.5 7.5-3.375 7.5-7.5-3.375-7.5-7.5-7.5Zm3.469 10.969a.906.906 0 0 0 0-1.313L16.14 14.97v-3.28c0-.563-.375-.938-.938-.938-.562 0-.937.376-.937.938v3.656a.85.85 0 0 0 .28.656l2.813 2.907c.188.187.47.281.657.281.28 0 .468-.094.656-.281Z"/>
</svg>
