<svg width="16" height="16" viewBox="0 0 16 16" fill="none" xmlns="http://www.w3.org/2000/svg">
<path d="M3 5.5H5.5V2.725C5.5022 2.13557 5.73732 1.57091 6.15411 1.15411C6.57091 0.737319 7.13557 0.502195 7.725 0.5H13.275C13.8644 0.502195 14.4291 0.737319 14.8459 1.15411C15.2627 1.57091 15.4978 2.13557 15.5 2.725V8.275C15.4978 8.86443 15.2627 9.42909 14.8459 9.84589C14.4291 10.2627 13.8644 10.4978 13.275 10.5H10.5V13C10.5 13.663 10.2366 14.2989 9.76777 14.7678C9.29893 15.2366 8.66304 15.5 8 15.5H3C2.33696 15.5 1.70107 15.2366 1.23223 14.7678C0.763392 14.2989 0.5 13.663 0.5 13V8C0.5 7.33696 0.763392 6.70107 1.23223 6.23223C1.70107 5.76339 2.33696 5.5 3 5.5ZM10.5 8V8.83333H13.275C13.4231 8.83333 13.5651 8.77451 13.6698 8.6698C13.7745 8.56509 13.8333 8.42308 13.8333 8.275V2.725C13.8333 2.57692 13.7745 2.43491 13.6698 2.3302C13.5651 2.22549 13.4231 2.16667 13.275 2.16667H7.725C7.57692 2.16667 7.43491 2.22549 7.3302 2.3302C7.22549 2.43491 7.16667 2.57692 7.16667 2.725V5.5H8C8.66304 5.5 9.29893 5.76339 9.76777 6.23223C10.2366 6.70107 10.5 7.33696 10.5 8Z" fill="#6F778D"/>
</svg>
