<svg xmlns="http://www.w3.org/2000/svg" width="31" height="25" fill="none" viewBox="0 0 31 25">
  <path fill="#F19F15" d="M16.93 5.98a3.171 3.171 0 0 0 1.55-2.726A3.176 3.176 0 0 0 15.303.081a3.176 3.176 0 0 0-3.179 3.173 3.17 3.17 0 0 0 1.484 2.685 1.447 1.447 0 0 0-.035.39c.182 3.966-2.828 5.048-4.526 5.07-3.384 0-4.58-2.268-4.86-4.2a2.372 2.372 0 0 0 .785-1.766 2.382 2.382 0 0 0-2.384-2.38 2.382 2.382 0 0 0-2.384 2.38c0 1.147.813 2.104 1.895 2.33l2.849 15.344c.105.564.597.974 1.172.974h18.198c.576 0 1.069-.41 1.173-.976l2.818-15.342a2.382 2.382 0 0 0 1.895-2.33 2.382 2.382 0 0 0-2.384-2.38 2.382 2.382 0 0 0-2.384 2.38c0 .71.311 1.347.805 1.783-.282 1.93-1.469 4.183-4.806 4.183-1.681-.022-4.66-1.105-4.479-5.073a1.458 1.458 0 0 0-.025-.345Z"/>
</svg>
