<svg xmlns="http://www.w3.org/2000/svg" width="11" height="10" fill="none" viewBox="0 0 11 10">
  <mask id="a" width="12" height="10" x="-.276" y=".091" fill="#000" maskUnits="userSpaceOnUse">
    <path fill="#fff" d="M-.276.091h12v10h-12z"/>
    <path fill-rule="evenodd" d="M6.145 3.652a.84.84 0 1 0-.879-.01.389.389 0 0 0-.009.103c.048 1.05-.747 1.336-1.196 1.342-.894 0-1.21-.6-1.285-1.11a.628.628 0 0 0-.422-1.098.63.63 0 0 0-.129 1.247l.753 4.06c.027.15.157.258.31.258h4.809a.315.315 0 0 0 .31-.259l.744-4.06a.63.63 0 1 0-.546-.144c-.075.51-.39 1.106-1.27 1.106-.444-.006-1.232-.293-1.184-1.343a.387.387 0 0 0-.006-.092Z" clip-rule="evenodd"/>
  </mask>
  <path fill="#F7CD80" fill-rule="evenodd" d="M6.145 3.652a.84.84 0 1 0-.879-.01.389.389 0 0 0-.009.103c.048 1.05-.747 1.336-1.196 1.342-.894 0-1.21-.6-1.285-1.11a.628.628 0 0 0-.422-1.098.63.63 0 0 0-.129 1.247l.753 4.06c.027.15.157.258.31.258h4.809a.315.315 0 0 0 .31-.259l.744-4.06a.63.63 0 1 0-.546-.144c-.075.51-.39 1.106-1.27 1.106-.444-.006-1.232-.293-1.184-1.343a.387.387 0 0 0-.006-.092Z" clip-rule="evenodd"/>
  <path fill="#292653" d="m6.145 3.652-.61-1.018-.714.427.158.817 1.166-.226Zm-.879-.01 1.158.26.183-.817-.707-.447-.634 1.004Zm-.009.103 1.186-.055-1.186.054ZM4.061 5.087v1.186h.015L4.06 5.087Zm-1.285-1.11-.796-.88-.47.424.092.627 1.174-.172Zm-.551.149 1.167-.216-.145-.784-.78-.162-.242 1.162Zm.753 4.06-1.167.216 1.167-.216Zm5.429 0L7.239 7.97l1.168.214Zm.744-4.06L8.91 2.964l-.781.163-.144.785 1.167.214Zm-.546-.145 1.174.173.094-.636-.482-.426-.786.89Zm-1.27 1.106L7.32 6.273h.015V5.087ZM6.15 3.744 4.966 3.69l1.185.054Zm-.784-.813c0-.128.07-.238.168-.297l1.22 2.036c.588-.352.987-.999.987-1.74H5.367Zm.347.347a.347.347 0 0 1-.347-.347H7.74c0-1.12-.908-2.027-2.027-2.027v2.374Zm.347-.347a.347.347 0 0 1-.347.347V.904c-1.12 0-2.027.907-2.027 2.027H6.06Zm-.16-.293c.094.06.16.168.16.293H3.688c0 .723.38 1.357.946 1.714L5.9 2.638Zm-1.792.744c-.03.134-.043.274-.036.417l2.37-.109a.799.799 0 0 1-.018.211l-2.316-.519Zm-.036.417c.004.108-.014.14-.01.13a.118.118 0 0 1 .031-.04c.01-.008.007-.003-.013.003a.184.184 0 0 1-.026.007h-.008l.03 2.374a2.49 2.49 0 0 0 1.52-.547c.56-.458.887-1.163.847-2.036l-2.371.11Zm-.011.1c-.09 0-.121-.014-.117-.012a.114.114 0 0 1 .034.025c.01.01.007.011-.002-.009a.415.415 0 0 1-.025-.098l-2.349.343c.06.408.227.941.643 1.386.448.478 1.076.74 1.816.74V3.9Zm-.488.957c.365-.33.598-.813.598-1.347H1.797a.56.56 0 0 1 .183-.413l1.593 1.76Zm.598-1.347a1.817 1.817 0 0 0-1.817-1.817v2.374a.557.557 0 0 1-.557-.557H4.17ZM2.354 1.692A1.817 1.817 0 0 0 .537 3.51H2.91a.557.557 0 0 1-.556.557V1.692ZM.537 3.51c0 .878.62 1.608 1.447 1.779l.482-2.324a.557.557 0 0 1 .444.545H.537Zm.521.833.753 4.06 2.334-.432-.753-4.06-2.334.432Zm.753 4.06A1.502 1.502 0 0 0 3.287 9.63V7.257c.42 0 .78.3.858.713l-2.334.432ZM3.287 9.63h4.81V7.257h-4.81V9.63Zm4.81 0c.725 0 1.346-.517 1.477-1.23L7.24 7.97a.872.872 0 0 1 .858-.714V9.63ZM9.574 8.4l.745-4.06-2.335-.428-.745 4.06 2.335.427Zm-.18-3.112a1.817 1.817 0 0 0 1.445-1.779H8.465c0-.27.191-.492.444-.545l.485 2.324Zm1.445-1.779a1.817 1.817 0 0 0-1.817-1.817v2.374a.557.557 0 0 1-.557-.557h2.374ZM9.022 1.692A1.817 1.817 0 0 0 7.205 3.51H9.58c0 .307-.25.557-.557.557V1.692ZM7.205 3.51c0 .542.24 1.03.614 1.361L9.39 3.092c.114.1.188.25.188.417H7.205Zm.226.3a.425.425 0 0 1-.026.1c-.008.02-.012.018-.001.007a.132.132 0 0 1 .038-.027c.006-.003-.022.01-.107.01v2.374c.736 0 1.361-.262 1.806-.739.413-.443.578-.974.638-1.38l-2.348-.346Zm-.081.09h-.004a.157.157 0 0 1-.023-.006c-.017-.005-.018-.009-.008 0a.124.124 0 0 1 .031.04c.004.01-.014-.025-.01-.135l-2.37-.108c-.04.868.28 1.572.836 2.032.501.414 1.09.546 1.518.551L7.35 3.9Zm-.013-.101a1.574 1.574 0 0 0-.027-.372l-2.33.452a.8.8 0 0 1-.014-.188l2.37.108Z" mask="url(#a)"/>
  <path fill="#F6C062" d="M5.257 3.744c-.009-.199.137-.383.337-.383h.221c.2 0 .346.184.336.383-.048 1.05.74 1.337 1.184 1.342.894 0 1.204-.612 1.273-1.127.026-.19.216-.34.398-.277a.262.262 0 0 1 .173.295l-.772 4.208a.315.315 0 0 1-.31.259h-4.81a.315.315 0 0 1-.31-.258l-.779-4.205a.265.265 0 0 1 .176-.3c.183-.062.374.09.4.281.072.514.385 1.124 1.287 1.124.449-.005 1.244-.292 1.196-1.342Z"/>
  <circle cx="2.354" cy="3.509" r=".63" fill="#F7CD80"/>
  <circle cx="9.022" cy="3.509" r=".63" fill="#F7CD80"/>
  <circle cx="5.714" cy="2.931" r=".84" fill="#F7CD80"/>
</svg>
