<svg xmlns="http://www.w3.org/2000/svg" width="47" height="39" fill="none" viewBox="0 0 47 39">
  <path fill="#fff" d="M26.191 10.022a4.933 4.933 0 0 0 2.413-4.242A4.94 4.94 0 0 0 23.659.844a4.94 4.94 0 0 0-4.944 4.936 4.93 4.93 0 0 0 2.307 4.177c-.044.196-.063.4-.054.606.283 6.17-4.4 7.854-7.041 7.887-5.263 0-7.123-3.527-7.56-6.533a3.69 3.69 0 0 0 1.222-2.748A3.705 3.705 0 0 0 3.88 5.467 3.706 3.706 0 0 0 .172 9.169a3.705 3.705 0 0 0 2.948 3.625l4.431 23.87c.163.877.93 1.514 1.823 1.514h28.31c.894 0 1.661-.639 1.823-1.518l4.384-23.866a3.705 3.705 0 0 0 2.948-3.625 3.706 3.706 0 0 0-3.709-3.702 3.706 3.706 0 0 0-3.709 3.702 3.69 3.69 0 0 0 1.254 2.775c-.44 3-2.286 6.506-7.477 6.506-2.615-.033-7.25-1.718-6.967-7.891a2.278 2.278 0 0 0-.04-.537Z"/>
</svg>
