<svg width="16" height="16" viewBox="0 0 16 16" fill="none" xmlns="http://www.w3.org/2000/svg">
<g clip-path="url(#clip0_317_1850)">
<path d="M15.7615 9.9354C14.6929 14.2211 10.3517 16.8294 6.06499 15.7606C1.78003 14.6921 -0.828497 10.3511 0.240617 6.06565C1.30873 1.7794 5.64994 -0.829101 9.9354 0.239399C14.2219 1.3079 16.8301 5.6494 15.7615 9.9354Z" fill="#586178"/>
<path d="M3.1516 6.79105L3.15141 6.79181C2.48344 9.46933 4.11335 12.1821 6.79072 12.8498L3.1516 6.79105ZM3.1516 6.79105C3.81904 4.11266 6.53193 2.48265 9.20962 3.15028L9.20978 3.15032M3.1516 6.79105L9.20978 3.15032M9.20978 3.15032C11.8883 3.81801 13.5185 6.5311 12.8506 9.2096M9.20978 3.15032L12.8506 9.2096M12.8506 9.2096C12.183 11.8874 9.47024 13.5177 6.79084 12.8498L12.8506 9.2096Z" stroke="white" stroke-opacity="0.24" stroke-width="6"/>
<g style="mix-blend-mode:screen" opacity="0.3">
<path d="M15.5228 5.2818L0.103191 9.28255C-0.0660954 8.24287 -0.0314925 7.15248 0.239641 6.06565C1.30775 1.7794 5.64897 -0.829101 9.93442 0.239399C12.6194 0.908691 14.6459 2.86217 15.5228 5.2818Z" fill="white"/>
</g>
<g filter="url(#filter0_di_317_1850)">
<path d="M14.3054 9.57243C13.4372 13.0546 9.90996 15.1737 6.42701 14.3054C2.94548 13.4372 0.826053 9.91022 1.69471 6.42829C2.56255 2.94575 6.08979 0.826362 9.57172 1.69451C13.0545 2.56266 15.1737 6.09009 14.3054 9.57243Z" fill="#586178"/>
</g>
<g filter="url(#filter1_d_317_1850)">
<path d="M10.5197 4.3022L10.6334 4.25C10.8162 4.41778 10.9803 4.60285 11.1231 4.80229C11.1806 4.88667 11.2336 4.97379 11.2816 5.06329C11.3278 5.15308 11.3722 5.24469 11.4106 5.33787C11.4862 5.52444 11.5435 5.71717 11.5818 5.91365C11.6009 6.01178 11.6155 6.11071 11.6249 6.21041C11.6299 6.26026 11.6329 6.31037 11.6351 6.36075C11.6365 6.38137 11.6365 6.40199 11.6365 6.42261L11.6467 6.42991C11.6757 6.45106 11.7034 6.4722 11.731 6.49412C11.7859 6.53771 11.8384 6.58339 11.8895 6.63037C11.9913 6.72455 12.0856 6.82565 12.1718 6.93287C12.2582 7.04122 12.3352 7.156 12.4021 7.27609C12.4691 7.39716 12.5246 7.52364 12.5678 7.65403L12.5819 7.69631L12.5722 7.73886C12.5532 7.8229 12.5316 7.90642 12.5092 7.98968C12.4869 8.07294 12.4593 8.1549 12.4316 8.23659C12.4031 8.3182 12.3722 8.3992 12.3388 8.47959C12.3245 8.51404 12.3093 8.54849 12.2938 8.58269C12.415 8.66324 12.5294 8.75251 12.636 8.84969C12.6727 8.88232 12.7089 8.91599 12.7426 8.95201C12.7507 8.96065 12.7588 8.96923 12.767 8.97781C12.7927 9.00498 12.8184 9.03208 12.8423 9.06085C12.9072 9.13541 12.9669 9.21388 13.021 9.29575C13.1304 9.45869 13.2174 9.6341 13.2801 9.81776C13.3115 9.90967 13.3367 10.0034 13.3554 10.0983C13.3646 10.1464 13.3723 10.1944 13.3778 10.2432C13.3806 10.2677 13.3831 10.2915 13.3847 10.3176L13.3867 10.3557V10.5413L13.2522 10.5616C13.0999 10.5846 12.9496 10.6177 12.8023 10.6605C12.6526 10.7038 12.506 10.7561 12.3634 10.8172C12.2189 10.8794 12.0784 10.9499 11.9428 11.028C11.8053 11.1059 11.6739 11.1931 11.5498 11.289C11.6542 11.1714 11.7677 11.0611 11.8892 10.9591C12.0117 10.8551 12.1408 10.7582 12.2759 10.6692C12.4109 10.5783 12.5521 10.4958 12.6984 10.4223C12.8032 10.3702 12.9107 10.3231 13.0204 10.2813V10.2787C13.0157 10.2388 13.0094 10.1986 13.0017 10.1586C12.9859 10.0782 12.9646 9.99888 12.9379 9.92112C12.8845 9.76492 12.8103 9.61581 12.7169 9.47741C12.6707 9.40766 12.6197 9.34087 12.5642 9.27748C12.5371 9.24512 12.5084 9.2138 12.4783 9.18404L12.4642 9.17003C12.4388 9.14485 12.4134 9.11959 12.3863 9.09582C12.2597 8.98076 12.1209 8.87826 11.9721 8.78992L11.834 8.70797L11.9083 8.56781C11.9155 8.5545 11.9251 8.5357 11.9331 8.51874L11.9585 8.46654C11.9748 8.43052 11.9911 8.39424 12.0063 8.35744C12.0367 8.28383 12.0663 8.20919 12.0919 8.1335C12.1176 8.0578 12.1425 7.98159 12.1637 7.90486C12.1817 7.84247 12.1969 7.77957 12.2118 7.71667C12.1772 7.62031 12.1348 7.5266 12.085 7.43635C12.0268 7.33307 11.9599 7.23436 11.8851 7.14115C11.8097 7.04697 11.7271 6.95816 11.6379 6.87545C11.5934 6.83499 11.5473 6.79428 11.4998 6.75669C11.4761 6.73755 11.452 6.71928 11.4277 6.70188L11.3916 6.67578L11.3736 6.66378L11.3584 6.65386L11.2739 6.59905L11.2767 6.50039V6.37484C11.2747 6.33073 11.272 6.28662 11.2675 6.24225C11.2593 6.15351 11.246 6.06477 11.2289 5.97681C11.194 5.80137 11.1422 5.62934 11.0739 5.46289C11.04 5.37989 11.0013 5.29741 10.9593 5.21911C10.9166 5.13994 10.87 5.06303 10.8196 4.98838C10.7412 4.87357 10.6529 4.76505 10.5556 4.66395C10.4722 4.70502 10.3908 4.74982 10.3114 4.79837C10.1962 4.86959 10.0856 4.94716 9.98001 5.03067C9.87369 5.11475 9.77227 5.20424 9.67622 5.29872C9.62954 5.34596 9.58287 5.39425 9.53813 5.44384C9.51548 5.46863 9.49366 5.49265 9.4724 5.51875L9.44119 5.55633L9.41357 5.59183L9.34315 5.68501C9.34315 5.68501 8.39917 5.51666 7.62118 5.68657C8.10891 5.30472 9.19235 5.30681 9.19235 5.30681L9.1965 5.3019C9.21916 5.27506 9.24212 5.24787 9.26526 5.22329C9.31498 5.16796 9.36607 5.11575 9.41882 5.06355C9.5236 4.96018 9.63423 4.86224 9.75023 4.77018C9.86725 4.67783 9.99 4.59215 10.1178 4.51362C10.2466 4.4347 10.3808 4.36406 10.5197 4.3022Z" fill="white"/>
<path d="M10.4851 5.16309C10.4851 5.16309 10.1758 5.24139 9.94238 5.6389C10.1876 5.44106 10.3404 5.40791 10.3404 5.40791C10.4848 5.59699 10.5704 5.82047 10.5875 6.05311C10.4413 6.00487 10.2858 5.98706 10.1316 6.00091C10.413 6.09329 10.6773 6.22671 10.9151 6.39634C10.8891 5.62689 10.4851 5.16309 10.4851 5.16309Z" fill="white"/>
<path d="M6.84043 6.19617C6.24923 5.52918 5.56464 5.29395 5.56464 5.29395C5.56464 5.29395 4.91452 5.73087 5.07912 6.73862C5.1965 6.16649 5.54421 5.8833 5.54421 5.8833C5.54421 5.8833 5.8401 6.09079 6.03627 6.5105C5.19112 6.93892 4.80968 7.47984 4.80968 7.47984C4.95978 7.4347 5.11903 7.4237 5.27448 7.44774C5.27448 7.44774 4.3584 8.3195 3.90271 9.50707C3.90271 9.50707 4.86527 9.39635 5.75465 9.8219C5.77671 9.83248 5.79863 9.84333 5.82041 9.85443C5.87437 9.88201 5.92796 9.91164 5.98094 9.94347L5.9808 9.94231L5.98133 9.94262C5.92404 9.48455 5.99106 9.09919 6.13436 8.78517C6.57156 7.82841 7.71696 7.5344 8.20969 7.8643L8.20916 7.86283L8.21008 7.86345C8.19045 7.81072 8.16044 7.75109 8.11715 7.69168C8.04088 7.58656 7.9229 7.48219 7.7471 7.41799C7.5615 7.34993 7.31159 7.32657 6.97845 7.39436C7.71807 6.6725 9.1812 6.98597 9.93072 7.86058L9.93118 7.85937L9.93138 7.8596C9.98395 7.72288 10.0188 7.58064 10.0352 7.43599C10.0352 7.43599 10.041 7.43884 10.0513 7.4444C10.2818 7.5706 10.4666 7.75979 10.5813 7.98725C10.5814 7.98718 10.5815 7.98711 10.5815 7.98704C10.5816 7.98728 10.5817 7.98752 10.5818 7.98776C10.5818 7.98737 10.5819 7.98698 10.5819 7.98659C10.751 7.79409 10.8008 7.51525 10.8045 7.49279C10.8049 7.49229 10.8051 7.49199 10.8052 7.49189C10.8348 7.53179 10.8625 7.57286 10.8882 7.61499C10.8942 7.62491 10.9003 7.6354 10.9066 7.64646L10.9038 7.64745C10.9723 7.76893 11.0273 7.89682 11.0679 8.02904L11.0707 8.02535L11.0717 8.02847C11.1498 7.92791 11.2552 7.84918 11.3767 7.80061C11.3869 7.79653 11.3972 7.79268 11.4076 7.78906C11.5197 7.75198 11.6394 7.74004 11.7573 7.75412L11.7561 7.75209L11.7583 7.75238L11.7578 7.75203L11.7622 7.75259C11.7622 7.75259 11.76 7.7487 11.7556 7.74129C11.7522 7.7355 11.7474 7.72755 11.7412 7.71763L11.7242 7.68647C11.7288 7.69514 11.7347 7.70588 11.7404 7.71624L11.7406 7.71655L11.7409 7.71709C11.704 7.65771 11.6183 7.52864 11.4785 7.36655C11.1191 6.94475 10.3994 6.29969 9.23267 6.08336C8.95434 6.02866 8.65049 5.99707 8.31989 5.99707C7.75324 5.99707 7.2616 6.07545 6.84043 6.19617Z" fill="white"/>
<path d="M11.2151 8.34559C11.3482 8.05849 11.5979 8.04883 11.5979 8.04883C11.5783 8.22741 11.5208 8.40042 11.4288 8.55753C11.3731 8.47426 11.3004 8.40223 11.2151 8.34559Z" fill="white"/>
<path d="M10.1561 9.78636C9.81832 9.32806 9.41904 8.78628 8.62563 8.64922C9.42241 8.4673 9.85738 8.79173 9.85738 8.79173C9.84453 8.66001 9.80347 8.53213 9.73669 8.41588C10.6787 8.62599 11.0693 9.20933 11.0693 9.20933C11.0693 9.20933 11.2681 9.05273 11.3471 8.88438C11.9666 9.05482 12.2032 9.40822 12.2032 9.40822C12.2032 9.40822 11.9781 9.4291 11.8019 9.52411C11.6128 9.38473 11.1709 9.36489 11.1709 9.36489C11.1709 9.36489 11.1289 9.60371 11.1458 9.7872C11.1626 9.97069 11.3982 10.2393 11.723 10.1983C11.723 10.1983 11.5404 10.4763 11.0364 10.4763C10.6645 10.4763 10.4306 10.1589 10.1561 9.78636Z" fill="white"/>
<path d="M8.57212 9.38403C8.40365 9.20524 8.43928 9.03193 8.43928 9.03193C8.43928 9.03193 8.52213 8.95102 8.76738 8.95102C9.12157 8.95102 9.45168 9.3558 9.75796 9.73136C9.90257 9.90868 10.0419 10.0795 10.1759 10.1981C9.98609 10.1354 9.74832 10.1518 9.50563 10.1685C8.9827 10.2045 8.43696 10.2421 8.29926 9.49339C8.48485 9.80216 8.74308 9.80425 8.74308 9.80425C8.70612 9.72446 8.69303 9.63662 8.70524 9.55029C8.8657 9.7129 9.1891 9.71864 9.1891 9.71864C8.85603 9.4913 8.71491 9.09222 8.71491 9.09222C8.59284 9.20916 8.57212 9.38403 8.57212 9.38403Z" fill="white"/>
<path fill-rule="evenodd" clip-rule="evenodd" d="M9.19174 10.4262C8.09063 10.5471 7.61477 8.96931 8.4317 8.72762C7.09224 8.71614 7.25243 9.9439 7.25243 9.9439C7.25243 9.9439 7.30186 9.69578 7.53465 9.57585C7.52322 9.6129 7.32958 10.2746 7.85497 10.9463L7.85549 10.9465L7.85643 10.9477C8.1895 11.0808 8.56667 11.0365 8.95339 10.9911C9.1522 10.9677 9.35354 10.9441 9.55271 10.9441C9.75568 10.9427 9.95319 10.9966 10.1226 11.0972C10.1812 11.1322 10.2364 11.1727 10.2873 11.2186L10.2871 11.2177L10.2887 11.2192C10.269 11.1293 10.2268 11.0452 10.1657 10.9738C10.1047 10.9025 10.0266 10.846 9.93781 10.809C10.2991 10.809 10.6528 10.9067 10.9573 11.0904L10.9561 11.0891L10.9593 11.091C10.766 10.6142 10.2929 10.3054 9.19174 10.4262ZM7.53577 9.57755L7.53539 9.57547L7.53661 9.57484L7.53577 9.57755Z" fill="white"/>
<path d="M8.92033 8.14395C8.92033 8.14395 8.69718 7.90252 8.49916 7.47447C9.17662 7.63603 9.44368 8.07139 9.44368 8.07139C9.19485 8.17997 8.92033 8.14395 8.92033 8.14395Z" fill="white"/>
<path d="M11.8152 10.0246C11.9547 9.90329 12.0692 9.7586 12.1529 9.59786C12.0597 9.61428 11.9693 9.64274 11.8842 9.68242C11.8359 9.7906 11.8124 9.90721 11.8152 10.0246Z" fill="white"/>
<path d="M7.05367 11.4502C6.89618 11.3185 6.73075 11.1957 6.55821 11.0821C6.21106 10.854 5.84016 10.6601 5.45129 10.5032C5.06031 10.3455 4.65471 10.2224 4.2397 10.1355C3.89393 10.0632 3.54326 10.0136 3.19023 9.98722C3.22226 9.86281 3.25909 9.73927 3.3007 9.61659C3.42634 9.24886 3.59066 8.89395 3.79119 8.55718C3.84118 8.47313 3.89365 8.39013 3.94833 8.30922C3.97595 8.26876 4.00357 8.22857 4.03119 8.18916L4.07565 8.12965C4.08974 8.11112 4.10575 8.09076 4.11791 8.07562L4.36453 7.77416L3.96325 7.80235L3.7818 7.81488L3.78539 7.81018C3.85615 7.72139 3.93203 7.63634 4.01268 7.55544C4.09388 7.47322 4.17839 7.39361 4.26787 7.31662C4.31206 7.27825 4.35708 7.2404 4.40264 7.2036C4.44821 7.1668 4.49544 7.12948 4.54073 7.09711L4.61226 7.04491L4.61033 6.95904V6.88074C4.61033 6.85464 4.61033 6.82645 4.61282 6.79931C4.61502 6.74476 4.61862 6.69021 4.62331 6.63513C4.63242 6.52551 4.64623 6.41615 4.66391 6.30783C4.69841 6.09172 4.75256 5.87883 4.82575 5.6715C4.89675 5.46779 4.99415 5.27317 5.11573 5.09207C5.21694 4.94192 5.34109 4.80673 5.48415 4.69091C5.6042 4.73667 5.72231 4.78644 5.83849 4.8402C5.98463 4.90803 6.12696 4.98295 6.26491 5.06467C6.40214 5.14607 6.53436 5.23479 6.66095 5.33037C6.72391 5.37813 6.78522 5.42746 6.84377 5.47888C6.87305 5.50498 6.90177 5.53108 6.92939 5.55718L6.96971 5.59686L6.98877 5.61643L7.00313 5.63392L7.07908 5.71509C6.44774 4.68021 5.42201 4.30566 5.42201 4.30566L5.34441 4.36126C5.1345 4.51163 4.95465 4.69618 4.81332 4.90624C4.6755 5.11082 4.56511 5.33079 4.48467 5.5611C4.40486 5.78697 4.34572 6.01889 4.30792 6.25433C4.2895 6.37126 4.27496 6.48871 4.26428 6.60668C4.25931 6.66567 4.25553 6.72483 4.25296 6.78417C4.25158 6.81392 4.25075 6.84368 4.25019 6.87369V6.881L4.24091 6.88819C4.2164 6.90715 4.19205 6.926 4.169 6.94547C4.12039 6.98514 4.07234 7.02534 4.02511 7.06658C3.93066 7.14853 3.83915 7.23414 3.75059 7.3234C3.66079 7.41349 3.57633 7.5082 3.49761 7.60712C3.41531 7.70992 3.34381 7.82007 3.28413 7.93598L3.15184 8.19882L3.61941 8.16593C3.5708 8.23953 3.52357 8.31392 3.47856 8.38935C3.26587 8.7466 3.09165 9.12311 2.95851 9.51324C2.89227 9.7088 2.83696 9.90753 2.79281 10.1086L2.75 10.3119H2.96652C3.37589 10.3048 3.78518 10.3295 4.19026 10.3858C4.59716 10.4424 4.9976 10.5346 5.38639 10.6614C5.7774 10.789 6.15365 10.9538 6.50932 11.1534C6.68784 11.2537 6.86009 11.3637 7.02522 11.4828C7.19185 11.6008 7.34779 11.7318 7.49141 11.8743C7.35834 11.7216 7.21191 11.5797 7.05367 11.4502Z" fill="white"/>
</g>
</g>
<defs>
<filter id="filter0_di_317_1850" x="0.5" y="1.5" width="14" height="15" filterUnits="userSpaceOnUse" color-interpolation-filters="sRGB">
<feFlood flood-opacity="0" result="BackgroundImageFix"/>
<feColorMatrix in="SourceAlpha" type="matrix" values="0 0 0 0 0 0 0 0 0 0 0 0 0 0 0 0 0 0 127 0" result="hardAlpha"/>
<feOffset dx="-1" dy="1"/>
<feColorMatrix type="matrix" values="0 0 0 0 1 0 0 0 0 1 0 0 0 0 1 0 0 0 0.32 0"/>
<feBlend mode="normal" in2="BackgroundImageFix" result="effect1_dropShadow_317_1850"/>
<feBlend mode="normal" in="SourceGraphic" in2="effect1_dropShadow_317_1850" result="shape"/>
<feColorMatrix in="SourceAlpha" type="matrix" values="0 0 0 0 0 0 0 0 0 0 0 0 0 0 0 0 0 0 127 0" result="hardAlpha"/>
<feOffset dx="-1" dy="2"/>
<feGaussianBlur stdDeviation="1"/>
<feComposite in2="hardAlpha" operator="arithmetic" k2="-1" k3="1"/>
<feColorMatrix type="matrix" values="0 0 0 0 0 0 0 0 0 0 0 0 0 0 0 0 0 0 0.16 0"/>
<feBlend mode="normal" in2="shape" result="effect2_innerShadow_317_1850"/>
</filter>
<filter id="filter1_d_317_1850" x="0.75" y="4.25" width="12.6367" height="9.62427" filterUnits="userSpaceOnUse" color-interpolation-filters="sRGB">
<feFlood flood-opacity="0" result="BackgroundImageFix"/>
<feColorMatrix in="SourceAlpha" type="matrix" values="0 0 0 0 0 0 0 0 0 0 0 0 0 0 0 0 0 0 127 0" result="hardAlpha"/>
<feOffset dx="-1" dy="1"/>
<feGaussianBlur stdDeviation="0.5"/>
<feColorMatrix type="matrix" values="0 0 0 0 0 0 0 0 0 0 0 0 0 0 0 0 0 0 0.08 0"/>
<feBlend mode="normal" in2="BackgroundImageFix" result="effect1_dropShadow_317_1850"/>
<feBlend mode="normal" in="SourceGraphic" in2="effect1_dropShadow_317_1850" result="shape"/>
</filter>
<clipPath id="clip0_317_1850">
<rect width="16" height="16" fill="white"/>
</clipPath>
</defs>
</svg>
