<svg width="17" height="16" viewBox="0 0 17 16" fill="none" xmlns="http://www.w3.org/2000/svg">
<path fill-rule="evenodd" clip-rule="evenodd" d="M5.69332 3.39603C5.64423 3.4249 5.14584 3.97477 4.39016 4.8338L3.1665 6.22484L4.73024 6.23019C5.96421 6.23444 6.29912 6.23003 6.31828 6.20928C6.34587 6.17943 8.06331 3.37376 8.06331 3.35853C8.06331 3.35309 7.54796 3.34878 6.91806 3.34897L5.77281 3.34932L5.69332 3.39603ZM8.84966 3.37478C8.89971 3.46293 10.6282 6.16888 10.6535 6.19869C10.6825 6.23296 10.7849 6.2353 12.2501 6.2353C13.1112 6.2353 13.8157 6.23045 13.8157 6.22453C13.8157 6.21861 13.2511 5.58436 12.5609 4.81508C11.7295 3.88831 11.282 3.40496 11.2347 3.38252C11.1715 3.35254 11.0289 3.34863 9.99905 3.34863C9.07369 3.34863 8.83786 3.35399 8.84966 3.37478ZM7.75153 5.08628C7.37079 5.70834 7.05926 6.22135 7.05926 6.2263C7.05926 6.23124 7.70012 6.2353 8.48341 6.2353C9.55892 6.2353 9.90557 6.22932 9.89944 6.21091C9.88465 6.16654 8.47151 3.95649 8.45751 3.95586C8.44998 3.95552 8.1323 4.4642 7.75153 5.08628ZM3.17203 6.88076C3.18219 6.90693 7.96531 12.6575 7.97163 12.6511C7.97458 12.6482 7.58948 11.3446 7.11588 9.75431L6.2548 6.86283H4.70991C3.86024 6.86283 3.16818 6.87091 3.17203 6.88076ZM6.9199 6.89291C6.92624 6.90946 7.28195 8.10021 7.71032 9.53902C8.13872 10.9778 8.49458 12.1549 8.50112 12.1547C8.50769 12.1545 8.86072 10.9755 9.28565 9.53474C9.7106 8.09396 10.0622 6.90337 10.0671 6.88898C10.0741 6.86821 9.7499 6.86283 8.49213 6.86283C7.12326 6.86283 6.90992 6.86691 6.9199 6.89291ZM10.7339 6.87852C10.7169 6.90689 9.02422 12.6418 9.03085 12.6484C9.03788 12.6555 13.8217 6.90984 13.8332 6.88059C13.8417 6.85873 10.747 6.85664 10.7339 6.87852Z" fill="#55657E"/>
</svg>
