<svg xmlns="http://www.w3.org/2000/svg" width="20" height="18" fill="none" viewBox="0 0 20 18">
  <path fill="#fff" fill-rule="evenodd" d="M5.088.943c-.085.05-.958 1.013-2.28 2.516L.667 5.894l2.736.01c2.16.007 2.746-.001 2.78-.038C6.23 5.814 9.235.904 9.235.878c0-.01-.902-.017-2.004-.017H5.228l-.14.082Zm5.524-.037c.088.154 3.113 4.89 3.157 4.942.05.06.23.064 2.794.064 1.507 0 2.74-.008 2.74-.019 0-.01-.989-1.12-2.196-2.466C15.652 1.805 14.869.959 14.786.92c-.11-.053-.36-.06-2.162-.06-1.62 0-2.033.01-2.012.046ZM8.69 3.901a168.211 168.211 0 0 0-1.21 1.995c0 .009 1.121.016 2.492.016 1.882 0 2.489-.01 2.478-.043-.026-.077-2.499-3.945-2.523-3.946-.013 0-.57.89-1.236 1.978ZM.676 7.041c.018.046 8.388 10.11 8.4 10.099a606.05 606.05 0 0 0-1.498-5.07L6.07 7.01H3.367c-1.486 0-2.698.014-2.69.032Zm6.559.022c.011.029.634 2.113 1.383 4.63.75 2.518 1.373 4.578 1.384 4.578.012 0 .63-2.064 1.373-4.585l1.367-4.63c.013-.036-.555-.046-2.756-.046-2.395 0-2.769.007-2.751.053Zm6.674-.025c-.03.05-2.992 10.085-2.98 10.097.012.012 8.384-10.043 8.404-10.094.015-.038-5.4-.042-5.424-.003Z" clip-rule="evenodd"/>
</svg>
