<svg xmlns="http://www.w3.org/2000/svg" width="16" height="17" fill="none" viewBox="0 0 16 17">
  <path fill="#55657E" fill-rule="evenodd" d="M5.193 4.305c-.049.03-.547.579-1.303 1.438L2.666 7.134l1.564.005c1.234.005 1.57 0 1.588-.02.028-.03 1.745-2.836 1.745-2.851 0-.006-.515-.01-1.145-.01H5.273l-.08.047Zm3.157-.021c.05.088 1.778 2.794 1.803 2.824.03.034.132.036 1.597.036.861 0 1.566-.004 1.566-.01s-.565-.64-1.255-1.41c-.832-.927-1.279-1.41-1.326-1.432-.063-.03-.206-.034-1.236-.034-.925 0-1.161.005-1.15.026ZM7.252 5.995c-.381.623-.693 1.136-.693 1.14 0 .005.641.01 1.424.01 1.076 0 1.423-.006 1.416-.025a104.265 104.265 0 0 0-1.441-2.255c-.008 0-.326.508-.706 1.13ZM2.672 7.79c.01.026 4.793 5.777 4.8 5.77a346.02 346.02 0 0 0-.856-2.896l-.861-2.892H4.21c-.85 0-1.542.008-1.538.018Zm3.748.012c.006.017.362 1.207.79 2.646.429 1.439.785 2.616.791 2.616.007 0 .36-1.18.785-2.62l.781-2.646c.007-.02-.317-.026-1.575-.026-1.369 0-1.582.004-1.572.03Zm3.814-.014c-.017.028-1.71 5.763-1.703 5.77.007.007 4.79-5.739 4.802-5.768.009-.022-3.086-.024-3.1-.002Z" clip-rule="evenodd"/>
</svg>
