<svg width="6" height="8" viewBox="0 0 6 8" fill="none" xmlns="http://www.w3.org/2000/svg">
<path d="M5.67973 5.4008C5.67973 5.91298 5.51259 6.33007 5.1783 6.6521C4.84401 6.97412 4.38397 7.18267 3.79819 7.27775V8H2.45949V7.29155C1.99639 7.22714 1.61303 7.0922 1.30941 6.88672C1.00885 6.68123 0.788034 6.43588 0.646957 6.15066C0.508947 5.86237 0.439941 5.55875 0.439941 5.23979H1.89825C1.89825 5.50355 1.99946 5.71516 2.20187 5.87464C2.40736 6.03105 2.69411 6.10926 3.06214 6.10926C3.46083 6.10926 3.75066 6.05099 3.9316 5.93444C4.11255 5.8179 4.20302 5.63849 4.20302 5.3962C4.20302 5.25513 4.15549 5.13705 4.06041 5.04198C3.96841 4.9469 3.83346 4.86717 3.65558 4.80276C3.4777 4.73529 3.24155 4.66782 2.94713 4.60035C2.50243 4.493 2.11293 4.36879 1.77864 4.22772C1.44742 4.08664 1.1668 3.88422 0.936779 3.62047C0.709828 3.35672 0.596353 3.01936 0.596353 2.6084C0.596353 2.11769 0.754298 1.71286 1.07019 1.3939C1.38608 1.07188 1.84918 0.872532 2.45949 0.79586V0H3.79819V0.832662C4.34717 0.940004 4.7612 1.15929 5.04029 1.49051C5.32244 1.81867 5.46352 2.2327 5.46352 2.7326H4.00521C4.00521 2.53326 3.92394 2.36764 3.76139 2.23577C3.60191 2.10082 3.34583 2.03335 2.99313 2.03335C2.36749 2.03335 2.05466 2.2281 2.05466 2.6176C2.05466 2.74947 2.1022 2.86295 2.19727 2.95802C2.29235 3.05003 2.44109 3.1313 2.64351 3.20184C2.84592 3.26931 3.11581 3.33525 3.45317 3.39966C4.14935 3.54073 4.69373 3.76768 5.08629 4.08051C5.48192 4.39026 5.67973 4.83036 5.67973 5.4008Z" fill="#586178"/>
</svg>
