<svg width="36" height="36" viewBox="0 0 36 36" fill="none" xmlns="http://www.w3.org/2000/svg">
<path d="M4.5 27.7005C4.5 27.7901 4.53556 27.8759 4.59885 27.9392L8.06078 31.4011C8.12408 31.4644 8.20992 31.5 8.29944 31.5H14.6642C14.9648 31.5 15.1154 31.1365 14.9028 30.9239L5.07615 21.0972C4.86353 20.8846 4.5 21.0352 4.5 21.3358V27.7005Z" fill="white"/>
<path d="M25.2995 31.3812C25.3637 31.4566 25.4576 31.5 25.5565 31.5H29.9874C30.1554 31.5 30.2977 31.3765 30.3215 31.2102L31.4717 23.1585C31.4892 23.0365 31.4389 22.9149 31.3405 22.8409L7.17397 4.67605C7.03961 4.57505 6.8514 4.58834 6.73254 4.70719L4.72019 6.71954C4.59581 6.84392 4.58782 7.04296 4.70181 7.17692L19.0243 24.0072C19.0583 24.0471 19.101 24.0785 19.1493 24.0991L21.4308 25.0693C21.5285 25.1109 21.6011 25.1961 21.6264 25.2992L22.2192 27.7066C22.2318 27.7575 22.256 27.8047 22.2898 27.8446L25.2995 31.3812Z" fill="white"/>
<path d="M21.3358 4.5C21.0352 4.5 20.8846 4.86353 21.0972 5.07615L30.9239 14.9028C31.1365 15.1154 31.5 14.9648 31.5 14.6642V8.29944C31.5 8.20992 31.4644 8.12408 31.4011 8.06078L27.9392 4.59885C27.8759 4.53556 27.7901 4.5 27.7005 4.5H21.3358Z" fill="white"/>
</svg>
