<svg xmlns="http://www.w3.org/2000/svg" width="11" height="12" fill="currentColor" viewBox="0 0 11 12">
  <path fill="#fff" fill-rule="evenodd" d="M5.936 5.199a1.501 1.501 0 0 1 2.91-.516.43.43 0 0 1-.805.295H8.04a.644.644 0 0 0-1.247.22.429.429 0 0 1-.857.001ZM2.532 4.75Zm-.426-.088a1.501 1.501 0 0 1 2.901.537.429.429 0 0 1-.857 0 .644.644 0 0 0-1.243-.23.428.428 0 1 1-.8-.307m.246.554.09-.233-.09.233Z" clip-rule="evenodd"/>
  <path fill="#fff" fill-rule="evenodd" d="M.222 6.09A5.255 5.255 0 0 1 5.472.84a5.256 5.256 0 0 1 5.25 5.25 5.255 5.255 0 0 1-5.25 5.25 5.255 5.255 0 0 1-5.25-5.25Zm5.25-4.392a4.398 4.398 0 0 0-4.393 4.393 4.398 4.398 0 0 0 4.393 4.393A4.398 4.398 0 0 0 9.865 6.09a4.398 4.398 0 0 0-4.393-4.393Z" clip-rule="evenodd"/>
  <path fill="#fff" fill-rule="evenodd" d="M7.969 7.383Zm-4.502-.497.002.002.018.016a2.333 2.333 0 0 0 .448.286c.328.161.837.329 1.537.329 1.297 0 1.936-.572 1.991-.621.005-.004.005-.005.002 0l.006-.007a.513.513 0 0 1 .63-.075h.001a.445.445 0 0 1 .093.696c-.084.087-.95.929-2.723.929-1.78 0-2.646-.849-2.723-.928a.445.445 0 0 1 .091-.696h.002a.513.513 0 0 1 .625.069Z" clip-rule="evenodd"/>
</svg>
