<svg xmlns="http://www.w3.org/2000/svg" width="45" height="39" fill="none" viewBox="0 0 45 39">
  <g filter="url(#a)" style="mix-blend-mode:multiply">
    <ellipse cx="22.5" cy="30.975" fill="#000" fill-opacity=".24" rx="16" ry="1.25"/>
  </g>
  <g filter="url(#b)" style="mix-blend-mode:multiply">
    <ellipse cx="22.5" cy="30.975" fill="#000" fill-opacity=".32" rx="12" ry="1.25"/>
  </g>
  <g filter="url(#c)" style="mix-blend-mode:multiply">
    <ellipse cx="22.5" cy="31.225" fill="#000" fill-opacity=".6" rx="8" ry="1"/>
  </g>
  <g clip-path="url(#d)">
    <path fill="#6E7CCA" d="M38.023 20.595c-2.137 8.572-10.82 13.788-19.393 11.65-8.57-2.136-13.787-10.818-11.649-19.39C9.117 4.284 17.8-.933 26.371 1.204c8.573 2.137 13.79 10.82 11.652 19.392Z"/>
    <path stroke="#fff" stroke-opacity=".24" stroke-width="6" d="M9.892 13.582c1.736-6.966 8.79-11.204 15.753-9.468 6.965 1.736 11.204 8.79 9.467 15.755-1.736 6.964-8.79 11.203-15.756 9.466-6.963-1.736-11.201-8.79-9.464-15.753Z"/>
    <path fill="#fff" d="M37.546 11.288 6.706 19.29a15.94 15.94 0 0 1 .273-6.434C9.116 4.283 17.798-.934 26.37 1.203c5.37 1.339 9.423 5.246 11.177 10.085Z" opacity=".3" style="mix-blend-mode:screen"/>
    <g filter="url(#e)">
      <path fill="#6E7CCA" d="M35.11 19.87c-1.736 6.964-8.79 11.202-15.756 9.465-6.963-1.736-11.202-8.79-9.465-15.754 1.736-6.965 8.79-11.204 15.754-9.467 6.966 1.736 11.204 8.79 9.468 15.755Z"/>
    </g>
    <g filter="url(#f)">
      <path fill="#FFFDFE" d="m22.511 20.22.128.128L28.47 16.9l-5.83-9.675-.128.433V20.22Z"/>
      <path fill="#B0E7FF" d="M22.639 20.348V7.225L16.807 16.9l5.832 3.447Z"/>
      <path fill="#FFFDFF" d="m22.567 26.015.072.21 5.835-8.218-5.835 3.445-.072.088v4.475Z"/>
      <path fill="#B0E7FF" d="m16.807 18.007 5.832 8.217v-4.772l-5.832-3.445Z"/>
      <path fill="#FFFDFF" d="M22.639 14.25v6.098l5.831-3.447-5.831-2.65Z"/>
      <path fill="#C8F7F7" d="m22.639 14.25-5.832 2.65 5.832 3.448V14.25Z"/>
    </g>
  </g>
  <defs>
    <filter id="a" width="44" height="14.5" x=".5" y="23.725" color-interpolation-filters="sRGB" filterUnits="userSpaceOnUse">
      <feFlood flood-opacity="0" result="BackgroundImageFix"/>
      <feBlend in="SourceGraphic" in2="BackgroundImageFix" result="shape"/>
      <feGaussianBlur result="effect1_foregroundBlur_201_86043" stdDeviation="3"/>
    </filter>
    <filter id="b" width="36" height="14.5" x="4.5" y="23.725" color-interpolation-filters="sRGB" filterUnits="userSpaceOnUse">
      <feFlood flood-opacity="0" result="BackgroundImageFix"/>
      <feBlend in="SourceGraphic" in2="BackgroundImageFix" result="shape"/>
      <feGaussianBlur result="effect1_foregroundBlur_201_86043" stdDeviation="3"/>
    </filter>
    <filter id="c" width="28" height="14" x="8.5" y="24.225" color-interpolation-filters="sRGB" filterUnits="userSpaceOnUse">
      <feFlood flood-opacity="0" result="BackgroundImageFix"/>
      <feBlend in="SourceGraphic" in2="BackgroundImageFix" result="shape"/>
      <feGaussianBlur result="effect1_foregroundBlur_201_86043" stdDeviation="3"/>
    </filter>
    <filter id="e" width="27" height="28" x="8.5" y="3.725" color-interpolation-filters="sRGB" filterUnits="userSpaceOnUse">
      <feFlood flood-opacity="0" result="BackgroundImageFix"/>
      <feColorMatrix in="SourceAlpha" result="hardAlpha" values="0 0 0 0 0 0 0 0 0 0 0 0 0 0 0 0 0 0 127 0"/>
      <feOffset dx="-1" dy="1"/>
      <feColorMatrix values="0 0 0 0 1 0 0 0 0 1 0 0 0 0 1 0 0 0 0.32 0"/>
      <feBlend in2="BackgroundImageFix" result="effect1_dropShadow_201_86043"/>
      <feBlend in="SourceGraphic" in2="effect1_dropShadow_201_86043" result="shape"/>
      <feColorMatrix in="SourceAlpha" result="hardAlpha" values="0 0 0 0 0 0 0 0 0 0 0 0 0 0 0 0 0 0 127 0"/>
      <feOffset dx="-1" dy="2"/>
      <feGaussianBlur stdDeviation="1"/>
      <feComposite in2="hardAlpha" k2="-1" k3="1" operator="arithmetic"/>
      <feColorMatrix values="0 0 0 0 0 0 0 0 0 0 0 0 0 0 0 0 0 0 0.16 0"/>
      <feBlend in2="shape" result="effect2_innerShadow_201_86043"/>
    </filter>
    <filter id="f" width="13.667" height="21" x="14.807" y="7.225" color-interpolation-filters="sRGB" filterUnits="userSpaceOnUse">
      <feFlood flood-opacity="0" result="BackgroundImageFix"/>
      <feColorMatrix in="SourceAlpha" result="hardAlpha" values="0 0 0 0 0 0 0 0 0 0 0 0 0 0 0 0 0 0 127 0"/>
      <feOffset dx="-1" dy="1"/>
      <feGaussianBlur stdDeviation=".5"/>
      <feColorMatrix values="0 0 0 0 0 0 0 0 0 0 0 0 0 0 0 0 0 0 0.08 0"/>
      <feBlend in2="BackgroundImageFix" result="effect1_dropShadow_201_86043"/>
      <feBlend in="SourceGraphic" in2="effect1_dropShadow_201_86043" result="shape"/>
    </filter>
    <clipPath id="d">
      <path fill="#fff" d="M0 0h32v32H0z" transform="translate(6.5 .725)"/>
    </clipPath>
  </defs>
</svg>
