<svg width="8" height="8" viewBox="0 0 8 8" fill="none" xmlns="http://www.w3.org/2000/svg">
<path d="M0.799805 2.86644H1.47095C1.5696 2.33093 1.78803 1.86589 2.12624 1.4713C2.46798 1.0732 2.89251 0.768451 3.39983 0.557067C3.90716 0.345682 4.45852 0.23999 5.05392 0.23999C5.34281 0.23999 5.64755 0.271698 5.96815 0.335113C6.29228 0.395005 6.58293 0.481321 6.84011 0.594059L6.6393 1.60342C6.39621 1.50477 6.16897 1.43079 5.95758 1.38147C5.7462 1.32862 5.52953 1.3022 5.30758 1.3022C4.95175 1.3022 4.6241 1.36737 4.32464 1.49773C4.02518 1.62808 3.77328 1.81128 3.56894 2.04733C3.3646 2.28337 3.22192 2.55641 3.14089 2.86644H5.77791V3.70141L0.799805 3.69613V2.86644ZM5.05392 7.75999C4.46556 7.75999 3.91949 7.65782 3.41569 7.45348C2.91541 7.24562 2.4944 6.94792 2.15266 6.56038C1.81093 6.17285 1.58721 5.71485 1.48152 5.18639H0.799805V4.36199H5.77791V5.19167L3.15146 5.18639C3.23601 5.48937 3.38574 5.75536 3.60065 5.98436C3.81556 6.21336 4.07098 6.38951 4.36692 6.51282C4.66638 6.63261 4.97993 6.6925 5.30758 6.6925C5.52953 6.6925 5.76381 6.66431 6.01043 6.60794C6.25704 6.54805 6.46491 6.48111 6.63401 6.40713L6.84011 7.41121C6.23062 7.64373 5.63522 7.75999 5.05392 7.75999Z" fill="#586178"/>
</svg>
