<svg width="22" height="22" viewBox="0 0 22 22" fill="none" xmlns="http://www.w3.org/2000/svg">
<path d="M20.3731 1.62578C20.1668 1.41956 19.8871 1.30371 19.5954 1.30371C19.3037 1.30371 19.024 1.41956 18.8177 1.62578L1.628 18.8177C1.52294 18.9191 1.43914 19.0405 1.38149 19.1747C1.32384 19.3089 1.29349 19.4533 1.29222 19.5993C1.29096 19.7454 1.31879 19.8902 1.3741 20.0254C1.42941 20.1606 1.51108 20.2834 1.61437 20.3867C1.71765 20.49 1.84046 20.5717 1.97565 20.627C2.11084 20.6823 2.25568 20.7101 2.40174 20.7089C2.5478 20.7076 2.69214 20.6772 2.82634 20.6196C2.96055 20.5619 3.08193 20.4781 3.1834 20.3731L20.372 3.18118C20.5782 2.9749 20.6941 2.69516 20.6941 2.40348C20.6941 2.1118 20.5782 1.83206 20.372 1.62578H20.3731ZM3.4188 14.8478L6.2348 12.0318C6.15451 11.6936 6.11281 11.3475 6.1105 11C6.1105 8.38308 8.2995 6.26008 11 6.26008C11.3146 6.26008 11.6204 6.29528 11.9185 6.35028L13.2418 5.02808C12.5008 4.90532 11.7511 4.84278 11 4.84108C3.784 4.83998 0 10.1541 0 11C0 11.4653 1.1627 13.299 3.4188 14.8467V14.8478ZM18.5845 7.15548L15.7663 9.97147C15.8422 10.3037 15.8884 10.6458 15.8884 11C15.8884 13.6169 13.7005 15.7377 11 15.7377C10.6876 15.7377 10.384 15.7025 10.0881 15.6486L8.7637 16.9719C9.4699 17.0863 10.2113 17.1589 11 17.1589C18.216 17.1589 22 11.8426 22 11C22 10.5336 20.8384 8.70098 18.5845 7.15548Z" fill="#6F778D"/>
</svg>
