<svg xmlns="http://www.w3.org/2000/svg" width="16" height="17" fill="none" viewBox="0 0 16 17">
  <path fill="#55657E" fill-rule="evenodd" d="M7.325 3.614a5.345 5.345 0 0 0-2.816 1.26l-.046.05.556.556.556.556.094-.075a3.827 3.827 0 0 1 1.83-.779l.189-.026V3.58l-.068.002c-.037.002-.17.016-.295.032Zm.987.752v.79l.193.026a3.831 3.831 0 0 1 1.826.779l.094.075.556-.556.557-.556-.047-.05a6.475 6.475 0 0 0-.535-.413c-.702-.475-1.597-.788-2.493-.871l-.15-.014v.79ZM3.948 5.437a5.341 5.341 0 0 0-1.172 2.376c-.039.19-.105.66-.105.747 0 .035.047.037.788.037h.788l.026-.193c.09-.659.38-1.332.802-1.858l.051-.064-.557-.556-.556-.557-.065.068Zm7.482.49-.554.557.129.17c.37.49.622 1.09.714 1.702l.036.24h.787c.74 0 .787-.001.787-.036 0-.088-.066-.557-.104-.743a5.364 5.364 0 0 0-.645-1.651c-.13-.218-.455-.665-.545-.748l-.05-.047-.555.557Zm-3.7-.147a3.176 3.176 0 0 0-2.347 1.4 3.364 3.364 0 0 0-.477 1.187 4 4 0 0 0 0 1.082 3.158 3.158 0 0 0 2.11 2.435c1.057.351 2.167.13 3.039-.607.52-.44.911-1.128 1.039-1.828.05-.27.05-.812 0-1.082A3.163 3.163 0 0 0 7.73 5.78Zm-.198 1.586c.125.039.231.092.348.174l.119.084.142-.098c.199-.135.41-.199.658-.199.332 0 .58.104.815.341a1.1 1.1 0 0 1 .343.838c0 .568-.296 1.168-.83 1.678-.292.28-.815.642-1.03.715-.127.043-.203.02-.471-.149-.872-.546-1.411-1.195-1.55-1.866-.184-.896.423-1.645 1.258-1.553.075.008.163.024.198.035Zm-.458.588a.568.568 0 0 0-.332.269c-.073.134-.095.37-.054.558.062.277.257.591.55.882.18.18.549.473.69.55.07.036.075.036.14 0 .123-.066.435-.298.59-.438.212-.193.411-.448.52-.668.243-.494.203-.902-.106-1.093a.541.541 0 0 0-.735.195c-.112.211-.255.303-.407.26-.101-.027-.174-.091-.23-.202-.126-.245-.38-.373-.626-.313ZM2.67 9.258c0 .02.015.153.032.294a5.32 5.32 0 0 0 .817 2.26c.111.174.376.523.446.588l.05.046.555-.556.556-.556-.075-.094a3.831 3.831 0 0 1-.779-1.826l-.026-.193H3.46c-.741 0-.788.002-.788.037Zm9.065.083a3.879 3.879 0 0 1-.787 1.9l-.076.093.556.556.556.556.05-.046c.09-.084.415-.53.545-.748.392-.66.63-1.358.719-2.118a8.23 8.23 0 0 0 .03-.287c0-.02-.17-.026-.79-.026h-.789l-.014.12Zm-6.72 3-.557.557.085.077c.047.043.172.141.277.22.798.59 1.694.93 2.726 1.034l.141.014v-1.584l-.12-.014a3.918 3.918 0 0 1-1.2-.352 4.96 4.96 0 0 1-.731-.459l-.064-.051-.557.558Zm5.316-.483a3.882 3.882 0 0 1-1.9.787l-.12.014v.79c0 .737.003.789.037.789.089 0 .43-.046.64-.085a5.307 5.307 0 0 0 1.754-.664c.218-.13.665-.455.748-.546l.047-.05-.557-.555-.556-.556-.094.076Z" clip-rule="evenodd"/>
</svg>
