<svg width="11" height="14" viewBox="0 0 11 14" fill="none" xmlns="http://www.w3.org/2000/svg">
<path fill-rule="evenodd" clip-rule="evenodd" d="M6.42374 0.655509C6.24606 0.774935 6.09462 0.880307 6.08722 0.889703C6.07982 0.899098 6.00236 0.954881 5.91508 1.01368C5.8278 1.07248 5.72482 1.15203 5.68624 1.19047C5.64767 1.22892 5.59541 1.27186 5.5701 1.28591C5.50853 1.32013 5.15112 1.64481 4.93165 1.86586C4.29783 2.50432 3.92978 3.00574 3.60026 3.67973C3.42413 4.03994 3.36811 4.17178 3.36811 4.22594C3.36811 4.25276 3.35809 4.28622 3.34587 4.30028C3.33365 4.31433 3.30802 4.38037 3.28896 4.447C3.2699 4.51363 3.24346 4.59238 3.23024 4.62199C3.1992 4.69148 3.105 5.13467 3.07113 5.37053C3.05665 5.47127 3.04426 5.75295 3.04356 5.99646C3.04208 6.522 3.03269 6.53272 2.79163 6.28442C2.62385 6.11158 2.5394 5.97665 2.42511 5.69887C2.36363 5.54934 2.32235 5.24421 2.31953 4.91813L2.31697 4.62199L2.26393 4.6893C2.15525 4.82724 1.59126 5.68395 1.59126 5.71106C1.59126 5.72657 1.57915 5.73925 1.56434 5.73925C1.54953 5.73925 1.53742 5.75344 1.53742 5.77078C1.53742 5.78811 1.52049 5.82144 1.49981 5.84481C1.40669 5.95002 0.891294 6.97881 0.891294 7.05947C0.891294 7.07409 0.877294 7.11318 0.860172 7.1463C0.794806 7.27272 0.783606 7.30123 0.783606 7.3411C0.783606 7.36372 0.77273 7.40327 0.759457 7.42898C0.702625 7.53895 0.566131 8.06145 0.490562 8.45836C0.327307 9.31596 0.442614 10.4257 0.759834 11.0492C0.772919 11.0749 0.783606 11.1143 0.783606 11.1367C0.783606 11.1591 0.795721 11.1775 0.810528 11.1775C0.825335 11.1775 0.83745 11.2017 0.83745 11.2313C0.83745 11.2609 0.849565 11.2852 0.864372 11.2852C0.879179 11.2852 0.891294 11.3094 0.891294 11.339C0.891294 11.3686 0.900447 11.3928 0.911647 11.3928C0.922846 11.3928 0.949149 11.4322 0.970121 11.4803C1.00663 11.5641 1.36437 12.1187 1.3999 12.1467C1.4093 12.1541 1.47135 12.2265 1.5378 12.3076C1.70802 12.5155 2.29172 13.0889 2.3331 13.0889C2.35202 13.0889 2.37154 13.0995 2.37649 13.1124C2.39049 13.1492 2.72726 13.412 2.76029 13.412C2.77653 13.412 2.80493 13.4362 2.82342 13.4658C2.84192 13.4954 2.8682 13.5197 2.88184 13.5197C2.89547 13.5197 2.98116 13.5692 3.07224 13.6297C3.24526 13.7446 3.28839 13.7492 3.2416 13.6475C3.18595 13.5266 3.06158 13.0585 2.96447 12.6043C2.94382 12.5078 2.93752 12.3017 2.9464 12.0121C2.96083 11.5408 2.98172 11.348 3.02098 11.3238C3.03422 11.3156 3.04505 11.2873 3.04505 11.2608C3.04505 11.2343 3.0619 11.1775 3.08249 11.1345C3.10309 11.0915 3.14183 11.0079 3.16859 10.9486C3.19535 10.8894 3.22391 10.8349 3.2321 10.8275C3.24028 10.8201 3.29386 10.7444 3.3512 10.6592C3.49066 10.4521 3.53543 10.4559 3.59603 10.6797C3.62212 10.7761 3.65421 10.8617 3.66732 10.8698C3.68043 10.8779 3.69117 10.908 3.69117 10.9368C3.69117 10.9655 3.70032 10.989 3.71152 10.989C3.72272 10.989 3.74892 11.0275 3.76976 11.0746C3.85475 11.2666 4.13754 11.5412 4.40113 11.6877L4.50534 11.7456L4.49045 11.6702C4.48227 11.6287 4.45589 11.4918 4.43182 11.3659C4.40775 11.2401 4.37827 11.1053 4.36629 11.0664C4.33248 10.9567 4.33081 10.1488 4.364 9.96001C4.38037 9.86705 4.40649 9.71831 4.42205 9.62946C4.45311 9.45226 4.48994 9.30882 4.52575 9.22563C4.53848 9.19602 4.56287 9.12333 4.57994 9.0641C4.63317 8.87945 4.89838 8.33452 4.97669 8.24899C4.99519 8.22877 5.01034 8.20182 5.01034 8.18914C5.01034 8.17646 5.02798 8.14844 5.04954 8.12687C5.07108 8.10533 5.11047 8.05136 5.13704 8.00696C5.26995 7.7848 5.79067 7.26543 6.08722 7.05923C6.13904 7.02321 6.1875 6.98708 6.19491 6.97895C6.23287 6.93733 6.38697 6.86903 6.41034 6.88346C6.44388 6.90421 6.44485 6.98285 6.41254 7.06389C6.399 7.09789 6.37281 7.24986 6.35437 7.4016C6.3097 7.76895 6.34664 8.06511 6.49616 8.53913C6.56732 8.7646 6.79403 9.19306 6.89504 9.29294C6.90252 9.30034 6.94422 9.35486 6.9877 9.41409C7.03115 9.47332 7.09167 9.54759 7.12215 9.57915C7.15263 9.6107 7.21988 9.6955 7.27162 9.7676C7.32334 9.8397 7.37317 9.90474 7.38232 9.91214C7.41223 9.93635 7.66328 10.3277 7.69314 10.3967C7.70916 10.4338 7.73519 10.4943 7.75102 10.5313C7.91837 10.9231 7.98306 11.3463 7.95883 11.8909C7.94892 12.113 7.92962 12.3063 7.91592 12.3203C7.90221 12.3344 7.89099 12.3759 7.89099 12.4126C7.89099 12.4493 7.87941 12.5166 7.86525 12.562C7.67755 13.1653 7.58701 13.3937 7.44039 13.6341C7.4065 13.6896 7.38615 13.7351 7.39517 13.7351C7.40416 13.7351 7.48002 13.697 7.56375 13.6504C7.64748 13.6039 7.76144 13.541 7.81695 13.5108C7.87249 13.4806 7.91791 13.446 7.91791 13.4339C7.91791 13.4219 7.93121 13.412 7.94747 13.412C7.98066 13.412 8.36556 13.1483 8.51019 13.0265C9.01506 12.6012 9.56014 12.051 9.56014 11.9666C9.56014 11.9472 9.57148 11.9313 9.58534 11.9313C9.59921 11.9313 9.63779 11.8828 9.67106 11.8236C9.70436 11.7644 9.74146 11.7159 9.75355 11.7159C9.76564 11.7159 9.77552 11.7044 9.77552 11.6903C9.77552 11.6763 9.81388 11.6079 9.86075 11.5384C9.97587 11.3679 10.2601 10.8062 10.2601 10.7493C10.2601 10.7242 10.2701 10.6922 10.2823 10.6781C10.2946 10.664 10.3202 10.598 10.3393 10.5313C10.3583 10.4647 10.3833 10.386 10.3947 10.3564C10.4879 10.1149 10.5832 9.47851 10.5832 9.09727C10.5832 8.87576 10.5176 8.24008 10.4769 8.06799C10.4629 8.00877 10.4319 7.865 10.4079 7.74851C10.3839 7.63202 10.3545 7.51693 10.3424 7.49275C10.3304 7.46858 10.3061 7.40033 10.2884 7.3411C10.2555 7.23078 10.1691 6.99007 10.1193 6.86997C10.1039 6.83295 10.0825 6.77844 10.0716 6.74882C9.99146 6.53022 9.59503 5.74722 9.53322 5.68541C9.52582 5.678 9.49553 5.6244 9.46592 5.56628C9.4363 5.50818 9.34846 5.36447 9.27073 5.24696C9.19301 5.12944 9.12939 5.02442 9.12939 5.01354C9.12939 5.00267 9.10516 4.97184 9.07555 4.94505C9.04593 4.91827 9.02171 4.8861 9.02171 4.87358C9.02171 4.86106 9.00291 4.82961 8.97995 4.80371C8.95696 4.77782 8.89428 4.69024 8.84066 4.60912C8.78703 4.52801 8.72263 4.43962 8.69754 4.4127C8.67245 4.38578 8.6294 4.32189 8.60186 4.27077C8.57432 4.21962 8.54244 4.17778 8.531 4.17778C8.50362 4.17778 8.50456 4.18728 8.5408 4.27699C8.55763 4.31866 8.58237 4.40729 8.59575 4.47392C8.61731 4.58139 8.63298 4.66717 8.68666 4.97198C8.6945 5.0164 8.70807 5.28292 8.71684 5.56426C8.73413 6.11941 8.69129 6.6039 8.58915 7.00907C8.56053 7.12258 8.53711 7.24114 8.53711 7.27251C8.53711 7.30387 8.51754 7.35941 8.49363 7.39589C8.46973 7.43239 8.45804 7.46225 8.46765 7.46225C8.47729 7.46225 8.4715 7.48777 8.45481 7.51898C8.3906 7.63891 8.36449 7.52665 8.37114 7.15933C8.37553 6.91603 8.36384 6.7342 8.33442 6.58729C8.31067 6.46883 8.28466 6.33242 8.27662 6.28418C8.26854 6.23591 8.25117 6.18976 8.23801 6.18163C8.22482 6.17347 8.21405 6.13796 8.21405 6.1027C8.21405 6.06743 8.20193 6.03108 8.18713 6.02193C8.17232 6.01278 8.1602 5.98039 8.1602 5.94997C8.1602 5.91955 8.13694 5.8506 8.10854 5.79675C8.08014 5.74291 8.04083 5.65951 8.02121 5.61137C8.00158 5.56323 7.97638 5.52388 7.96518 5.52388C7.95398 5.52388 7.94472 5.50874 7.94461 5.49022C7.94426 5.4402 7.51465 4.83236 7.36684 4.67279C7.30557 4.60662 7.16116 4.42414 7.03904 4.25855C6.96808 4.1623 6.90357 4.0775 6.89571 4.07009C6.83099 4.00914 6.62657 3.57589 6.57181 3.38358C6.55493 3.32436 6.53062 3.25167 6.51775 3.22205C6.50491 3.19244 6.48706 3.11975 6.47813 3.06052C6.37106 2.35167 6.41074 1.67981 6.60057 0.987537C6.6168 0.928309 6.63653 0.846385 6.64445 0.805491C6.65234 0.764597 6.66951 0.724483 6.6826 0.716406C6.69571 0.708303 6.70642 0.67282 6.70642 0.637552C6.70642 0.602285 6.71708 0.566828 6.73009 0.558806C6.75916 0.540849 6.78902 0.4351 6.76447 0.437038C6.75475 0.437792 6.60143 0.536111 6.42374 0.655509Z" fill="#EBB838"/>
</svg>
