<svg xmlns="http://www.w3.org/2000/svg" width="16" height="17" fill="none" viewBox="0 0 16 17">
  <path fill="#55657E" fill-rule="evenodd" d="M7.7 4.535c-.42.076-.762.264-1.059.58a1.84 1.84 0 0 0 .05 2.556 1.85 1.85 0 0 0 2.362.218c.155-.105.362-.314.473-.476a1.84 1.84 0 0 0-.168-2.298c-.365-.39-.774-.576-1.296-.591-.143-.004-.306 0-.361.01ZM4.393 6.289a1.423 1.423 0 0 0-.929.804A1.4 1.4 0 0 0 3.667 8.5c.27.33.65.51 1.076.509.353 0 .66-.12.92-.358a1.32 1.32 0 0 0 .458-1.016c0-.39-.13-.704-.406-.98a1.286 1.286 0 0 0-.63-.366 1.51 1.51 0 0 0-.692 0Zm6.513 0a1.3 1.3 0 0 0-.621.364c-.276.277-.406.59-.406.98 0 .4.149.734.455 1.016.256.237.568.358.922.359a1.36 1.36 0 0 0 1.077-.509c.317-.387.398-.953.2-1.407a1.398 1.398 0 0 0-1.627-.803Zm-4.17 2.347a1.426 1.426 0 0 0-.763.427 1.479 1.479 0 0 0-.392.625l-.055.16-.005 1.753c-.006 1.724-.005 1.755.036 1.821a.395.395 0 0 0 .11.11c.067.04.11.041 2.333.041 2.223 0 2.266 0 2.333-.041a.395.395 0 0 0 .11-.11c.04-.066.041-.097.036-1.821l-.006-1.753-.054-.16a1.48 1.48 0 0 0-.393-.625 1.476 1.476 0 0 0-.624-.392l-.16-.055-1.19-.004c-.941-.003-1.216.002-1.315.024Zm-2.74.785c-.6.078-1.091.503-1.28 1.106-.05.155-.05.16-.05 1.241v1.085l.049.12c.098.243.3.444.541.542.117.046.141.048.907.054l.787.007-.024-.07c-.033-.091-.048-3.254-.017-3.554a2.581 2.581 0 0 1 .1-.506l.01-.047-.445.002c-.246.002-.506.01-.579.02Zm6.994.025.045.172c.019.069.044.22.056.334.03.3.015 3.463-.017 3.555l-.024.069.787-.007c.765-.006.79-.008.906-.054a.994.994 0 0 0 .542-.542l.048-.12v-1.085c0-1.08 0-1.086-.049-1.241a1.552 1.552 0 0 0-.984-1.034c-.212-.072-.424-.094-.905-.094h-.415l.01.047Z" clip-rule="evenodd"/>
</svg>
