<svg width="32" height="33" viewBox="0 0 32 33" fill="none" xmlns="http://www.w3.org/2000/svg">
<g clip-path="url(#clip0_227_12749)">
<path d="M16 0.133789C20.2435 0.133789 24.3131 1.8195 27.3137 4.82008C30.3143 7.82066 32 11.8903 32 16.1338C32 20.3773 30.3143 24.4469 27.3137 27.4475C24.3131 30.4481 20.2435 32.1338 16 32.1338C11.7565 32.1338 7.68687 30.4481 4.68629 27.4475C1.68571 24.4469 0 20.3773 0 16.1338C0 11.8903 1.68571 7.82066 4.68629 4.82008C7.68687 1.8195 11.7565 0.133789 16 0.133789V0.133789Z" fill="#F3F8FA"/>
<path d="M13.4002 10.6338L18.9002 10.7338L23.5002 16.9338L24.6002 20.6338L23.4002 24.3338L19.6002 23.5338L17.6002 25.7338H15.0002L12.4002 23.7338L8.4002 24.7338L7.2002 20.7338L8.4002 16.8338L13.4002 10.6338Z" fill="#F6851B"/>
<path d="M13.4998 10.6338L7.7998 8.63379L6.7998 11.4338L7.3998 14.1338L7.0998 14.5338L7.5998 15.0338L7.2998 15.3338L7.6998 15.8338L7.4998 16.1338L8.2998 17.0338L11.8998 15.9338L14.6998 13.7338L13.4998 10.6338Z" fill="#E2761B"/>
<path d="M7.7998 8.63379L6.7998 11.4338L7.3998 14.1338L7.0998 14.5338L7.5998 15.0338L7.2998 15.3338L7.6998 15.8338L7.4998 16.1338L8.2998 17.0338L11.8998 15.9338L14.6998 13.7338L7.7998 8.63379Z" fill="#763D16"/>
<path d="M17.3002 13.7339L17.2002 17.9339V22.6339L17.6002 20.0339L19.6002 19.3339L21.0002 17.7339L19.7002 15.7339L17.3002 13.7339Z" fill="#E4761B"/>
<path d="M19.5002 19.134V21.134L21.1002 17.834L19.5002 19.134ZM17.2002 17.934V22.634L17.7002 19.134L17.2002 17.934Z" fill="#E4751F"/>
<path d="M17.2002 17.9339L21.1002 17.7339L19.5002 19.3339L17.5002 20.0339L17.2002 17.9339Z" fill="#CD6116"/>
<path d="M17.5996 20.0339L18.0996 18.7339L19.4996 19.3339L17.5996 20.0339Z" fill="#233447"/>
<path d="M19.4002 21.0338L24.6002 20.6338L23.4002 24.4338L19.6002 23.5338L17.7002 22.9338L19.4002 21.0338Z" fill="#E4761B"/>
<path d="M19.4004 21.034L19.6004 23.534L21.5004 20.834L19.4004 21.034Z" fill="#CD6116"/>
<path d="M18.1998 10.7339L24.1998 8.73389L24.9998 11.4339L24.2998 14.2339L24.6998 14.5339L24.1998 14.9339L24.4998 15.3339L24.0998 15.8339L24.2998 16.0339L23.5998 17.0339L19.7998 15.8339L17.2998 13.7339L18.1998 10.7339Z" fill="#E2761B"/>
<path d="M24.2998 8.83398L24.9998 11.434L24.2998 14.234L24.6998 14.534L24.1998 14.934L24.4998 15.334L24.0998 15.834L24.2998 16.034L23.5998 17.034L19.7998 15.834L17.2998 13.734L24.2998 8.83398Z" fill="#763D16"/>
<path d="M14.8 13.7339V17.9339L15 22.5339L14.4 20.0339L12.4 19.3339L11 17.7339L12.3 15.7339L14.8 13.7339Z" fill="#E4761B"/>
<path d="M12.5 19.1339L12.6 21.0339L11 17.7339L12.5 19.1339Z" fill="#E4751F"/>
<path d="M14.8 17.9339L11 17.7339L12.5 19.3339L14.5 20.0339L14.8 17.9339Z" fill="#CD6116"/>
<path d="M14.4 20.0339L13.9 18.7339L12.5 19.3339L14.4 20.0339Z" fill="#233447"/>
<path d="M12.5996 21.034L7.09961 20.834L8.29961 24.734L12.3996 23.534L14.2996 22.934L12.5996 21.034Z" fill="#E4761B"/>
<path d="M12.6 21.0336L12.4 23.5336L10.5 20.9336L12.6 21.0336Z" fill="#CD6116"/>
<path d="M12.2998 23.634L14.7998 22.834H17.5998L19.5998 23.534L17.5998 25.234H14.4998L12.2998 23.634Z" fill="#D7C1B3"/>
<path d="M12.2002 23.6337L14.7002 24.8337V24.4337H17.7002V24.8337L19.7002 23.5337L17.7002 25.7337H14.7002L12.2002 23.6337Z" fill="#C1AE9F"/>
<path d="M15.2002 22.6337L17.2002 22.5337L17.6002 22.8337L17.7002 24.4337H14.7002L14.8002 22.8337L15.2002 22.6337Z" fill="#233447"/>
</g>
<defs>
<clipPath id="clip0_227_12749">
<rect width="32" height="32" fill="white" transform="translate(0 0.133789)"/>
</clipPath>
</defs>
</svg>
