<svg width="18" height="19" viewBox="0 0 18 19" fill="none" xmlns="http://www.w3.org/2000/svg">
<path d="M7.125 14.9102H14.25C14.8467 14.9102 15.419 14.6731 15.841 14.2511C16.2629 13.8292 16.5 13.2569 16.5 12.6602V9.28516H7.92L9.21 10.5752C9.26526 10.6267 9.30959 10.6888 9.34034 10.7578C9.37108 10.8268 9.38761 10.9012 9.38894 10.9768C9.39028 11.0523 9.37638 11.1273 9.34809 11.1974C9.3198 11.2674 9.27769 11.331 9.22428 11.3844C9.17086 11.4378 9.10724 11.48 9.0372 11.5082C8.96716 11.5365 8.89214 11.5504 8.81661 11.5491C8.74108 11.5478 8.6666 11.5312 8.5976 11.5005C8.5286 11.4697 8.4665 11.4254 8.415 11.3702L7.125 10.0802V14.9102ZM6 8.16016V7.41016C6 7.26182 5.95601 7.11682 5.8736 6.99348C5.79119 6.87014 5.67406 6.77401 5.53701 6.71725C5.39997 6.66048 5.24917 6.64563 5.10368 6.67457C4.9582 6.70351 4.82456 6.77494 4.71967 6.87983C4.61478 6.98472 4.54335 7.11835 4.51441 7.26384C4.48547 7.40932 4.50032 7.56012 4.55709 7.69717C4.61386 7.83421 4.70999 7.95135 4.83332 8.03376C4.95666 8.11617 5.10166 8.16016 5.25 8.16016H6ZM7.125 7.41016V8.16016H7.875C8.02334 8.16016 8.16834 8.11617 8.29168 8.03376C8.41501 7.95135 8.51114 7.83421 8.56791 7.69717C8.62468 7.56012 8.63953 7.40932 8.61059 7.26384C8.58165 7.11835 8.51022 6.98472 8.40533 6.87983C8.30044 6.77494 8.1668 6.70351 8.02132 6.67457C7.87583 6.64563 7.72503 6.66048 7.58799 6.71725C7.45094 6.77401 7.33381 6.87014 7.2514 6.99348C7.16899 7.11682 7.125 7.26182 7.125 7.41016ZM7.125 5.69116V3.66016H14.25C14.8467 3.66016 15.419 3.89721 15.841 4.31917C16.2629 4.74112 16.5 5.31342 16.5 5.91016V8.16016H9.594C9.745 7.81469 9.78835 7.43172 9.71838 7.06124C9.64841 6.69076 9.46837 6.34998 9.20177 6.08338C8.93517 5.81678 8.59439 5.63675 8.22392 5.56678C7.85344 5.49681 7.47047 5.54015 7.125 5.69116ZM6 3.66016V5.69116C5.65453 5.54015 5.27156 5.49681 4.90108 5.56678C4.53061 5.63675 4.18983 5.81678 3.92323 6.08338C3.65663 6.34998 3.47659 6.69076 3.40662 7.06124C3.33665 7.43172 3.38 7.81469 3.531 8.16016H1.5V5.91016C1.5 5.31342 1.73705 4.74112 2.15901 4.31917C2.58097 3.89721 3.15326 3.66016 3.75 3.66016H6ZM6 10.0802V14.9102H3.75C3.15326 14.9102 2.58097 14.6731 2.15901 14.2511C1.73705 13.8292 1.5 13.2569 1.5 12.6602V9.28516H5.205L3.915 10.5752C3.85973 10.6267 3.81541 10.6888 3.78466 10.7578C3.75392 10.8268 3.73739 10.9012 3.73606 10.9768C3.73472 11.0523 3.74862 11.1273 3.77691 11.1974C3.8052 11.2674 3.84731 11.331 3.90072 11.3844C3.95414 11.4378 4.01776 11.48 4.0878 11.5082C4.15784 11.5365 4.23286 11.5504 4.30839 11.5491C4.38392 11.5478 4.4584 11.5312 4.5274 11.5005C4.5964 11.4697 4.6585 11.4254 4.71 11.3702L6 10.0802Z" fill="white"/>
</svg>
