<svg width="32" height="33" viewBox="0 0 32 33" fill="none" xmlns="http://www.w3.org/2000/svg">
<g clip-path="url(#clip0_227_12744)">
<path d="M16 0.133789C20.2435 0.133789 24.3131 1.8195 27.3137 4.82008C30.3143 7.82066 32 11.8903 32 16.1338C32 20.3773 30.3143 24.4469 27.3137 27.4475C24.3131 30.4481 20.2435 32.1338 16 32.1338C11.7565 32.1338 7.68687 30.4481 4.68629 27.4475C1.68571 24.4469 0 20.3773 0 16.1338C0 11.8903 1.68571 7.82066 4.68629 4.82008C7.68687 1.8195 11.7565 0.133789 16 0.133789V0.133789Z" fill="#FA455E"/>
<path d="M19.5002 12.4337C19.0002 11.9337 18.4002 11.5337 17.7002 11.4337C17.0551 11.2266 16.3735 11.1585 15.7002 11.2337C14.8002 11.2337 14.0002 11.6337 13.4002 12.2337C12.7792 12.6994 12.2752 13.3034 11.9281 13.9976C11.5809 14.6919 11.4002 15.4575 11.4002 16.2337C11.4227 17.3691 11.8311 18.463 12.5581 19.3354C13.2851 20.2079 14.2875 20.8068 15.4002 21.0337C15.9301 21.1196 16.4703 21.1196 17.0002 21.0337C17.8002 21.0337 18.6002 20.7337 19.2002 20.3337C19.7002 19.9337 20.2002 19.4337 20.4002 18.9337L20.7002 18.0337V17.8337H16.3002V14.6337H23.8002L24.0002 14.7337L24.1002 15.7337V16.9337C24.1002 17.4337 24.1002 17.9337 23.9002 18.5337V18.4337C23.6661 19.5266 23.1874 20.5523 22.5002 21.4337C21.7436 22.4978 20.7045 23.3291 19.5002 23.8337H19.4002C18.8002 24.0337 18.2002 24.2337 17.5002 24.2337C16.8687 24.3023 16.2317 24.3023 15.6002 24.2337C14.8002 24.2337 14.1002 24.1337 13.4002 23.8337C12.5002 23.4337 11.8002 23.0337 11.1002 22.4337C10.1002 21.6337 9.2002 20.4337 8.7002 19.2337L8.2002 17.3337V15.9337V15.8337C8.2002 14.9337 8.4002 14.1337 8.6002 13.3337C8.9002 12.6337 9.3002 11.9337 9.8002 11.3337C10.8002 9.9337 12.3002 8.8337 14.1002 8.3337L15.6002 8.0337C16.0332 8.0083 16.4672 8.0083 16.9002 8.0337C18.6837 8.12359 20.3805 8.83059 21.7002 10.0337L21.6002 10.3337L19.6002 12.3337H19.5002V12.4337Z" fill="white"/>
</g>
<defs>
<clipPath id="clip0_227_12744">
<rect width="32" height="32" fill="white" transform="translate(0 0.133789)"/>
</clipPath>
</defs>
</svg>
