<svg width="17" height="17" viewBox="0 0 17 17" fill="none" xmlns="http://www.w3.org/2000/svg">
<path d="M15.4199 4.87047C15.2105 4.38552 14.9085 3.94608 14.5309 3.57672C14.1529 3.20626 13.7074 2.91186 13.2184 2.70953C12.7113 2.4989 12.1674 2.39108 11.6184 2.39234C10.848 2.39234 10.0965 2.60328 9.44336 3.00172C9.28711 3.09703 9.13867 3.20172 8.99805 3.31578C8.85742 3.20172 8.70898 3.09703 8.55273 3.00172C7.89961 2.60328 7.14805 2.39234 6.37773 2.39234C5.82305 2.39234 5.28555 2.49859 4.77773 2.70953C4.28711 2.91266 3.84492 3.20484 3.46523 3.57672C3.0871 3.94566 2.78504 4.38521 2.57617 4.87047C2.35898 5.37515 2.24805 5.91109 2.24805 6.46265C2.24805 6.98296 2.3543 7.52515 2.56523 8.07671C2.7418 8.53765 2.99492 9.01577 3.31836 9.49858C3.83086 10.2626 4.53555 11.0595 5.41055 11.8673C6.86055 13.2064 8.29648 14.1314 8.35742 14.1689L8.72773 14.4064C8.8918 14.5111 9.10273 14.5111 9.2668 14.4064L9.63711 14.1689C9.69805 14.1298 11.1324 13.2064 12.584 11.8673C13.459 11.0595 14.1637 10.2626 14.6762 9.49858C14.9996 9.01577 15.2543 8.53765 15.4293 8.07671C15.6402 7.52515 15.7465 6.98296 15.7465 6.46265C15.748 5.91109 15.6371 5.37515 15.4199 4.87047Z" fill="#C22E1F"/>
</svg>
