<svg width="11" height="12" viewBox="0 0 11 12" fill="none" xmlns="http://www.w3.org/2000/svg">
<path fill-rule="evenodd" clip-rule="evenodd" d="M4.06554 0.656504C4.0197 0.677713 3.95691 0.722048 3.92601 0.755007C3.80228 0.886949 3.80511 0.851781 3.80511 2.2571V3.54436L4.69056 4.42962L5.576 5.31488L6.46144 4.42962L7.34689 3.54436V2.2571C7.34689 0.851781 7.34972 0.886949 7.22599 0.755007C7.19509 0.722048 7.1323 0.677713 7.08646 0.656504C7.00792 0.620128 6.92121 0.61792 5.576 0.61792C4.23079 0.61792 4.14408 0.620128 4.06554 0.656504ZM0.502926 4.21911C0.457091 4.24032 0.394297 4.28466 0.3634 4.31762C0.238813 4.45048 0.242459 4.401 0.242959 5.95504C0.243397 7.29527 0.245647 7.38246 0.282002 7.46097C0.303211 7.5068 0.347546 7.56959 0.380505 7.60049C0.512447 7.72422 0.477279 7.72139 1.88259 7.72139H3.16986L4.05512 6.83595L4.94038 5.9505L4.05512 5.06506L3.16986 4.17961L1.87805 4.18007C0.665139 4.18051 0.581178 4.18288 0.502926 4.21911ZM7.09688 5.06506L6.21162 5.9505L7.09688 6.83595L7.98214 7.72139L9.27395 7.72093C10.4869 7.72049 10.5708 7.71812 10.6491 7.68189C10.6949 7.66068 10.7577 7.61635 10.7886 7.58339C10.9131 7.45061 10.9095 7.49938 10.9095 5.9505C10.9095 4.40162 10.9131 4.45039 10.7886 4.31762C10.7577 4.28466 10.6949 4.24032 10.6491 4.21911C10.5708 4.18288 10.4869 4.18051 9.27395 4.18007L7.98214 4.17961L7.09688 5.06506ZM4.68526 7.47667L3.80511 8.35701L3.80557 9.64862C3.80601 10.8614 3.80838 10.9453 3.84461 11.0236C3.86582 11.0694 3.91016 11.1322 3.94312 11.1631C4.07581 11.2875 4.02866 11.284 5.55971 11.2839C6.47357 11.2838 6.98886 11.2762 7.04015 11.2619C7.14257 11.2335 7.26032 11.1288 7.30803 11.0238C7.34341 10.9459 7.34601 10.8529 7.34643 9.64845L7.34689 8.35664L6.46657 7.47651C5.98239 6.99243 5.58154 6.59636 5.57581 6.59636C5.57008 6.59636 5.16934 6.99249 4.68526 7.47667Z" fill="#55657E"/>
</svg>
