<svg xmlns="http://www.w3.org/2000/svg" width="16" height="17" fill="none" viewBox="0 0 16 17">
  <path fill="#55657E" fill-rule="evenodd" d="M2.802 5.264c-.127.084-.135.125-.135.664 0 .54.01.597.133.672.063.038.212.04 5.2.04s5.137-.002 5.2-.04c.122-.075.133-.132.133-.669s-.011-.594-.134-.669c-.062-.038-.211-.04-5.2-.04-5.077.001-5.135.001-5.197.042Zm.434 2.034c-.022.056.014.94.048 1.185a4.762 4.762 0 0 0 1.34 2.72 4.757 4.757 0 0 0 2.895 1.376 5.94 5.94 0 0 0 1.272-.044 4.746 4.746 0 0 0 3.448-2.573c.22-.45.339-.813.431-1.323.035-.19.046-.355.054-.807l.01-.568H11.19c-.85 0-1.544.006-1.544.014 0 .007.052.066.115.131a2.44 2.44 0 0 1 .645 2.077 2.44 2.44 0 0 1-2.994 1.966 2.458 2.458 0 0 1-1.83-2.071c-.058-.46.031-.972.24-1.388.091-.18.29-.458.416-.582a.744.744 0 0 0 .116-.13c0-.01-.699-.017-1.553-.017-1.405 0-1.554.004-1.565.034ZM7.8 7.285a1.831 1.831 0 0 0-1.542 1.302c-.051.169-.057.22-.057.5s.006.332.056.496c.244.802.932 1.317 1.753 1.313a1.748 1.748 0 0 0 1.306-.567c.356-.38.515-.81.49-1.324a1.515 1.515 0 0 0-.162-.675A1.814 1.814 0 0 0 7.8 7.285Zm.366.751c.302.048.629.277.768.538.367.689-.074 1.5-.857 1.577-.496.05-1.012-.34-1.117-.84-.1-.481.14-.966.583-1.178a.953.953 0 0 1 .623-.097Zm-.296.633c-.193.069-.291.197-.303.395-.006.104.001.144.041.22a.437.437 0 0 0 .829-.186.436.436 0 0 0-.324-.436c-.113-.028-.146-.028-.243.007Z" clip-rule="evenodd"/>
</svg>
