<svg xmlns="http://www.w3.org/2000/svg" width="8" height="10" fill="none" viewBox="0 0 8 10">
  <path fill="#fff" fill-rule="evenodd" d="M4 0a2.5 2.5 0 0 1 2.498 2.392L6.5 2.5V4A1.5 1.5 0 0 1 8 5.5v3A1.5 1.5 0 0 1 6.5 10h-5A1.5 1.5 0 0 1 0 8.5v-3A1.5 1.5 0 0 1 1.5 4V2.5A2.5 2.5 0 0 1 4 0Zm2.5 5h-5a.5.5 0 0 0-.5.5v3a.5.5 0 0 0 .5.5h5a.5.5 0 0 0 .5-.5v-3a.5.5 0 0 0-.5-.5ZM4.088 1.003 4 1a1.5 1.5 0 0 0-1.497 1.412L2.5 2.5V4h3V2.5a1.5 1.5 0 0 0-1.412-1.497L4 1l.088.003Z" clip-rule="evenodd"/>
</svg>
