<svg width="11" height="9" viewBox="0 0 11 9" fill="none" xmlns="http://www.w3.org/2000/svg">
<path fill-rule="evenodd" clip-rule="evenodd" d="M4.92578 8.5C4.92578 8.22386 4.70192 8 4.42578 8H1.92578V1H4.42578C4.70192 1 4.92578 0.776142 4.92578 0.5C4.92578 0.223857 4.70192 0 4.42578 0H1.92578C1.3735 0 0.925781 0.447715 0.925781 1V8C0.925781 8.55229 1.3735 9 1.92578 9H4.42578C4.70192 9 4.92578 8.77614 4.92578 8.5Z" fill="#FF4F0F"/>
<path d="M10.3878 4.69139C10.364 4.74902 10.3289 4.8031 10.2826 4.85027L10.279 4.85391L8.27933 6.85355C8.08407 7.04882 7.76749 7.04882 7.57223 6.85355C7.37697 6.65829 7.37697 6.34171 7.57223 6.14645L8.71867 5H3.92578C3.64964 5 3.42578 4.77614 3.42578 4.5C3.42578 4.22386 3.64964 4 3.92578 4H8.71867L7.57223 2.85355C7.37697 2.65829 7.37697 2.34171 7.57223 2.14645C7.76749 1.95118 8.08407 1.95118 8.27933 2.14645L10.2793 4.14645C10.3766 4.2437 10.4254 4.37104 10.4258 4.4985L10.4258 4.5L10.4258 4.5015C10.4256 4.56875 10.4121 4.63287 10.3878 4.69139Z" fill="#FF4F0F"/>
</svg>
