<svg width="32" height="32" viewBox="0 0 32 32" fill="none" xmlns="http://www.w3.org/2000/svg">
<path d="M15.9554 0.0891113C7.13092 0.0891113 0 7.22003 0 16.0445C0 24.8691 7.13092 32 15.9554 32C24.7799 32 31.9109 24.8691 31.9109 16.0445C32 7.22003 24.7799 0.0891113 15.9554 0.0891113ZM24.4234 25.8496C21.3036 28.8802 16.1337 29.2367 12.5682 26.6518C9.62674 24.6016 8.11142 20.947 8.64624 17.3816C8.20056 17.025 7.93315 16.8468 7.93315 16.8468C7.48746 16.4902 6.5961 15.5989 6.68524 14.7966C6.50696 15.2423 5.6156 15.9554 4.99164 16.1337C4.90251 16.4902 4.99164 17.2033 5.16992 17.4707C5.25905 17.649 5.25905 18.0055 4.99164 17.9164C4.36769 17.9164 4.81337 16.7576 4.18941 16.4011C3.47632 17.025 3.92201 18.0055 3.29805 18.0947C2.9415 18.0947 2.9415 17.7381 3.11978 17.4707C3.20891 17.2925 3.56546 16.6685 3.47632 16.2228C3.03064 16.2228 2.76323 16.4902 2.40669 16.6685C2.05014 16.8468 1.51532 16.5794 1.87187 16.1337C2.13928 15.8663 2.85237 16.1337 3.47632 15.688C3.20891 15.4206 2.85237 15.3315 2.67409 15.3315C2.58496 15.3315 2.49582 15.3315 2.40669 15.2423C2.13928 14.9749 2.31755 14.5292 2.67409 14.5292C3.11978 14.6184 3.29805 15.1532 3.92201 15.1532C4.01114 14.6184 3.56546 14.0835 3.6546 13.727C3.74373 13.4596 4.01114 13.4596 4.18941 13.6379C4.36769 13.8161 4.27855 14.1727 4.36769 14.3509L4.45682 14.6184C4.99164 12.7465 7.5766 11.2312 9.27019 13.3704C9.44847 12.7465 10.2507 10.8746 12.39 9.53758C14.351 8.37881 16.2228 8.46794 16.8468 8.46794C16.8468 8.46794 16.5794 6.15039 18.1838 5.70471C17.8273 5.61557 17.649 5.52644 17.3816 5.4373C16.9359 5.16989 17.1142 4.63507 17.649 4.72421C18.0056 4.81334 18.0947 5.25903 18.4513 5.34816C18.5404 5.16989 18.7187 4.90248 18.4513 4.36766C18.3621 4.10025 18.5404 3.83284 18.8078 3.83284C18.9861 3.74371 19.3426 4.01112 19.2535 4.18939C19.2535 4.27853 19.2535 4.36766 19.1643 4.4568C19.0752 4.72421 18.9861 5.08075 19.0752 5.34816C19.3426 5.16989 19.61 4.81335 19.8774 4.36766C19.9666 4.18939 20.0557 4.18939 20.1448 4.18939C20.4123 4.10025 20.5905 4.4568 20.5014 4.72421C20.4123 4.90248 20.3231 4.90248 20.1448 5.08075C19.8774 5.25903 19.61 5.4373 19.4318 5.70471C19.7883 6.06126 20.1448 5.97212 20.5014 5.97212C20.7688 5.97212 20.9471 5.88298 21.1253 6.06126C21.2145 6.15039 21.2145 6.23953 21.2145 6.32867C21.1253 6.50694 20.9471 6.59607 20.7688 6.50694C20.6797 6.50694 19.8774 6.15039 19.4318 6.32867C19.5209 6.86348 20.6797 7.13089 20.4123 7.57658C20.1448 7.93312 19.6992 6.95262 19.1643 6.68521C19.1643 6.68521 18.273 7.3983 19.2535 8.91362C19.6992 8.73535 21.1253 8.02226 22.9081 8.46794C23.3538 8.55708 24.7799 8.91362 25.6713 10.2507C26.6518 11.8551 26.8301 14.8858 25.493 14.9749C22.5515 15.1532 20.7688 14.6184 19.6992 13.3704C19.6992 13.727 19.3426 14.2618 19.1643 14.7075C19.2535 15.2423 19.6992 15.5989 20.1448 15.688C20.234 15.4206 20.1448 15.1532 20.1448 14.8858C20.1448 14.3509 20.7688 14.2618 20.8579 14.7966C20.9471 15.1532 20.5905 15.4206 20.6797 15.7771C20.9471 15.7771 21.2145 15.7771 21.571 15.3315C21.7493 15.1532 22.1058 15.1532 22.195 15.3315C22.2841 15.4206 22.2841 15.8663 22.1058 15.9554C22.0167 15.9554 21.9276 16.0445 21.8384 16.0445C21.571 16.0445 21.2145 16.1337 21.0362 16.4011C21.3036 16.5794 21.7493 16.6685 22.2841 16.6685C22.4624 16.6685 22.5515 16.7576 22.5515 16.8468C22.7298 17.1142 22.5515 17.3816 22.2841 17.3816C22.1058 17.3816 22.0167 17.2925 21.8384 17.2033C21.571 17.025 21.3036 16.8468 20.9471 16.8468C20.7688 17.7381 21.4819 18.0055 21.3928 18.4512C21.3928 18.6295 21.3036 18.6295 21.1253 18.6295C20.9471 18.6295 20.7688 18.5404 20.7688 18.273C20.7688 18.1838 20.6797 17.2925 20.3231 17.025C19.8774 17.3816 20.1448 18.5404 19.61 18.4512C19.1643 18.3621 19.8774 17.5599 19.8774 16.9359C18.7187 16.7576 17.3816 15.8663 16.6685 14.4401C16.4902 14.4401 16.2228 14.3509 15.9554 14.4401C15.5989 14.5292 15.4206 14.6184 15.2423 14.7966C15.0641 14.8858 14.8858 15.064 14.7075 15.3315C14.5292 15.5989 14.4401 15.8663 14.351 16.0445C16.4011 16.1337 17.4708 17.649 17.5599 19.0752C17.9164 19.3426 18.4513 19.1643 18.8078 19.0752C19.0752 19.0752 19.1643 19.3426 18.9861 19.5209C18.8078 19.61 18.7187 19.5209 18.5404 19.5209C18.4513 19.5209 18.3621 19.5209 18.273 19.5209C18.0947 19.5209 17.9164 19.5209 17.8273 19.61C18.4513 20.234 19.2535 19.9665 19.5209 20.3231C19.6992 20.5905 19.2535 20.8579 19.0752 20.6796C18.7187 20.4122 18.3621 20.1448 17.8273 20.0557C17.9164 20.7688 18.7187 21.3036 18.7187 21.6601C18.6295 22.0167 18.0947 21.8384 18.0947 21.4819C17.9164 20.8579 17.7382 20.6796 17.4708 20.234C17.0251 20.8579 17.4708 21.8384 16.9359 21.8384C16.6685 21.7493 16.6685 21.4819 16.7577 21.3036C16.8468 21.0362 16.9359 20.6796 16.8468 20.4122C16.6685 20.4122 16.4011 20.5014 16.1337 20.7688C16.1337 20.8579 16.0446 20.8579 15.9554 20.8579C15.688 20.8579 15.5989 20.6796 15.7772 20.4122C16.0446 20.234 16.4902 20.234 16.6685 19.8774C16.2228 19.61 15.5989 19.1643 15.3315 18.4512C14.6184 18.8969 13.3705 18.8078 12.3008 18.6295C12.0334 22.9081 15.8663 26.7409 20.5905 25.493C22.5515 24.9582 24.3343 23.6211 25.2256 21.8384C25.6713 21.0362 25.9387 20.234 26.117 19.3426C26.2953 18.8969 26.2953 16.7576 26.9192 17.8273C27.7214 20.4122 26.4735 23.8886 24.4234 25.8496Z" fill="white"/>
<path d="M22.4625 13.8162C23.0865 13.9945 23.7104 13.8162 23.7996 13.4596C23.8887 13.014 23.5322 12.5683 22.9082 12.39C22.2843 12.2117 21.6603 12.39 21.5712 12.7466C21.482 13.1031 21.8386 13.6379 22.4625 13.8162Z" fill="white"/>
</svg>
