<svg width="197" height="37" viewBox="0 0 197 37" fill="none" xmlns="http://www.w3.org/2000/svg">
<g clip-path="url(#clip0_219_16664)">
<path d="M17.9 1C8 1 0 9 0 18.9C0 28.8 8 36.8 17.9 36.8C27.8 36.8 35.8 28.8 35.8 18.9C35.9 9 27.8 1 17.9 1ZM27.4 29.9C23.9 33.3 18.1 33.7 14.1 30.8C10.8 28.5 9.1 24.4 9.7 20.4C9.2 20 8.9 19.8 8.9 19.8C8.4 19.4 7.4 18.4 7.5 17.5C7.3 18 6.3 18.8 5.6 19C5.5 19.4 5.6 20.2 5.8 20.5C5.9 20.7 5.9 21.1 5.6 21C4.9 21 5.4 19.7 4.7 19.3C3.9 20 4.4 21.1 3.7 21.2C3.3 21.2 3.3 20.8 3.5 20.5C3.6 20.3 4 19.6 3.9 19.1C3.4 19.1 3.1 19.4 2.7 19.6C2.3 19.8 1.7 19.5 2.1 19C2.4 18.7 3.2 19 3.9 18.5C3.6 18.2 3.2 18.1 3 18.1C2.9 18.1 2.8 18.1 2.7 18C2.4 17.7 2.6 17.2 3 17.2C3.5 17.3 3.7 17.9 4.4 17.9C4.5 17.3 4 16.7 4.1 16.3C4.2 16 4.5 16 4.7 16.2C4.9 16.4 4.8 16.8 4.9 17L5 17.3C5.6 15.2 8.5 13.5 10.4 15.9C10.6 15.2 11.5 13.1 13.9 11.6C16.1 10.3 18.2 10.4 18.9 10.4C18.9 10.4 18.6 7.8 20.4 7.3C20 7.2 19.8 7.1 19.5 7C19 6.7 19.2 6.1 19.8 6.2C20.2 6.3 20.3 6.8 20.7 6.9C20.8 6.7 21 6.4 20.7 5.8C20.6 5.5 20.8 5.2 21.1 5.2C21.3 5.1 21.7 5.4 21.6 5.6C21.6 5.7 21.6 5.8 21.5 5.9C21.4 6.2 21.3 6.6 21.4 6.9C21.7 6.7 22 6.3 22.3 5.8C22.4 5.6 22.5 5.6 22.6 5.6C22.9 5.5 23.1 5.9 23 6.2C22.9 6.4 22.8 6.4 22.6 6.6C22.3 6.8 22 7 21.8 7.3C22.2 7.7 22.6 7.6 23 7.6C23.3 7.6 23.5 7.5 23.7 7.7C23.8 7.8 23.8 7.9 23.8 8C23.7 8.2 23.5 8.3 23.3 8.2C23.2 8.2 22.3 7.8 21.8 8C21.9 8.6 23.2 8.9 22.9 9.4C22.6 9.8 22.1 8.7 21.5 8.4C21.5 8.4 20.5 9.2 21.6 10.9C22.1 10.7 23.7 9.9 25.7 10.4C26.2 10.5 27.8 10.9 28.8 12.4C29.9 14.2 30.1 17.6 28.6 17.7C25.3 17.9 23.3 17.3 22.1 15.9C22.1 16.3 21.7 16.9 21.5 17.4C21.6 18 22.1 18.4 22.6 18.5C22.7 18.2 22.6 17.9 22.6 17.6C22.6 17 23.3 16.9 23.4 17.5C23.5 17.9 23.1 18.2 23.2 18.6C23.5 18.6 23.8 18.6 24.2 18.1C24.4 17.9 24.8 17.9 24.9 18.1C25 18.2 25 18.7 24.8 18.8C24.7 18.8 24.6 18.9 24.5 18.9C24.2 18.9 23.8 19 23.6 19.3C23.9 19.5 24.4 19.6 25 19.6C25.2 19.6 25.3 19.7 25.3 19.8C25.5 20.1 25.3 20.4 25 20.4C24.8 20.4 24.7 20.3 24.5 20.2C24.2 20 23.9 19.8 23.5 19.8C23.3 20.8 24.1 21.1 24 21.6C24 21.8 23.9 21.8 23.7 21.8C23.5 21.8 23.3 21.7 23.3 21.4C23.3 21.3 23.2 20.3 22.8 20C22.3 20.4 22.6 21.7 22 21.6C21.5 21.5 22.3 20.6 22.3 19.9C21 19.7 19.5 18.7 18.7 17.1C18.5 17.1 18.2 17 17.9 17.1C17.5 17.2 17.3 17.3 17.1 17.5C16.9 17.6 16.7 17.8 16.5 18.1C16.3 18.4 16.2 18.7 16.1 18.9C18.4 19 19.6 20.7 19.7 22.3C20.1 22.6 20.7 22.4 21.1 22.3C21.4 22.3 21.5 22.6 21.3 22.8C21.1 22.9 21 22.8 20.8 22.8C20.7 22.8 20.6 22.8 20.5 22.8C20.3 22.8 20.1 22.8 20 22.9C20.7 23.6 21.6 23.3 21.9 23.7C22.1 24 21.6 24.3 21.4 24.1C21 23.8 20.6 23.5 20 23.4C20.1 24.2 21 24.8 21 25.2C20.9 25.6 20.3 25.4 20.3 25C20.1 24.3 19.9 24.1 19.6 23.6C19.1 24.3 19.6 25.4 19 25.4C18.7 25.3 18.7 25 18.8 24.8C18.9 24.5 19 24.1 18.9 23.8C18.7 23.8 18.4 23.9 18.1 24.2C18.1 24.3 18 24.3 17.9 24.3C17.6 24.3 17.5 24.1 17.7 23.8C18 23.6 18.5 23.6 18.7 23.2C18.2 22.9 17.5 22.4 17.2 21.6C16.4 22.1 15 22 13.8 21.8C13.5 26.6 17.8 30.9 23.1 29.5C25.3 28.9 27.3 27.4 28.3 25.4C28.8 24.5 29.1 23.6 29.3 22.6C29.5 22.1 29.5 19.7 30.2 20.9C31.1 23.8 29.7 27.7 27.4 29.9Z" fill="white"/>
<path d="M25.1998 16.4C25.8998 16.6 26.5998 16.4 26.6998 16C26.7998 15.5 26.3998 15 25.6998 14.8C24.9998 14.6 24.2998 14.8 24.1998 15.2C24.0998 15.6 24.4998 16.2 25.1998 16.4Z" fill="white"/>
<path d="M63 22.7V18.3H67.1V25.4C64 26.7 62.3 27 59.6 27C54.4 27 50.5 24.4 50.5 18.6C50.5 12.8 54.4 10.2 59.6 10.2C61.8 10.2 64 10.6 65.5 11.1L64.3 14.9C63.2 14.6 61.3 14.2 59.5 14.2C56.2 14.2 54.5 15.7 54.5 18.6C54.5 21.6 56.2 23.1 59.5 23.1C60.9 23 62 22.9 63 22.7Z" fill="white"/>
<path d="M81.5999 22.2H73.1999C73.4999 22.9 74.1999 23.5 75.9999 23.5C77.5999 23.5 79.3999 23.3 80.3999 23L80.9999 26.4C79.6999 26.9 77.8999 27.1 75.9999 27.1C71.7999 27.1 68.8999 24.6 68.8999 20.9C68.8999 17.2 71.6999 14.7 75.7999 14.7C78.8999 14.7 81.6999 16.7 81.6999 20.5C81.6999 21.3 81.5999 22.2 81.5999 22.2ZM73.2999 19.3L77.5999 19.2C77.5999 18.8 77.3999 17.8 75.8999 17.8C74.3999 17.8 73.6999 18.5 73.2999 19.3Z" fill="white"/>
<path d="M93.8 22.2L95.1 25.8C93.9 26.5 92.1 27 90.2 27C85.9 27 83 24.5 83 20.8C83 17.1 85.9 14.6 90.2 14.6C92 14.6 93.9 15.2 94.9 15.7L93.6 19.4C92.7 19 91.4 18.6 90.2 18.6C87.3 18.6 87.2 20 87.2 20.9C87.2 21.8 87.4 23.1 90.2 23.1C91.8 23 92.9 22.6 93.8 22.2Z" fill="white"/>
<path d="M97 10.3L101.1 10V18.8L104.1 15L109.6 14.7L105.5 19.8L110 26.9H105.1L102.7 23.2L101.1 25.3V26.9H97V10.3Z" fill="white"/>
<path d="M109.9 20.8C109.9 17.1 112.8 14.6 117.1 14.6C121.4 14.6 124.3 17.1 124.3 20.8C124.3 24.5 121.4 27 117.1 27C112.8 27 109.9 24.5 109.9 20.8ZM114.1 20.8C114.1 21.5 114.1 23.1 117.1 23.1C120.1 23.1 120.1 21.5 120.1 20.8C120.1 20.1 120 18.5 117.1 18.5C114.2 18.5 114.1 20.1 114.1 20.8Z" fill="white"/>
<path d="M138.1 22.7V18.3H142.2V25.4C139.1 26.7 137.4 27 134.7 27C129.5 27 125.6 24.4 125.6 18.6C125.6 12.8 129.5 10.2 134.7 10.2C136.9 10.2 139.1 10.6 140.6 11.1L139.4 14.9C138.3 14.6 136.4 14.2 134.6 14.2C131.3 14.2 129.6 15.7 129.6 18.6C129.6 21.6 131.3 23.1 134.6 23.1C136 23 137.1 22.9 138.1 22.7Z" fill="white"/>
<path d="M154.3 26.2C153.3 26.7 152 27 150.8 27C146.6 27 144 24.5 144 20.8C144 17.1 146.5 14.6 150.7 14.6C151.9 14.6 153.1 15 154.2 15.5L154.6 14.8L157.6 15V27H154.7L154.3 26.2ZM153.4 22.7V18.9C152.6 18.7 151.7 18.5 151 18.5C148.6 18.5 148.2 19.9 148.2 20.8C148.2 21.7 148.6 23 151 23C151.9 23 152.7 22.9 153.4 22.7Z" fill="white"/>
<path d="M160.4 14.9L163.3 14.7L163.8 15.5C164.9 15 166.3 14.6 167.6 14.6C169.5 14.6 171 15.1 171.9 16.1C173.1 15.5 175.1 14.6 176.9 14.6C180.7 14.6 182.6 16.6 182.6 20.2V26.9H178.5V20.1C178.5 19.3 178.5 18.5 176.7 18.5C175.7 18.5 174.3 18.8 173.3 19.1C173.3 19.4 173.4 19.7 173.4 20.1V26.9H169V20.1C169 19.3 169 18.5 167.2 18.5C166.4 18.5 165.4 18.7 164.5 18.9V26.9H160.4V14.9Z" fill="white"/>
<path d="M196.9 22.2H188.5C188.8 22.9 189.5 23.5 191.3 23.5C192.9 23.5 194.7 23.3 195.7 23L196.3 26.4C195 26.9 193.2 27.1 191.3 27.1C187.1 27.1 184.2 24.6 184.2 20.9C184.2 17.2 187 14.7 191.1 14.7C194.2 14.7 197 16.7 197 20.5C197 21.3 196.9 22.2 196.9 22.2ZM188.6 19.3L192.9 19.2C192.9 18.8 192.7 17.8 191.2 17.8C189.6 17.8 188.9 18.5 188.6 19.3Z" fill="white"/>
</g>
<defs>
<clipPath id="clip0_219_16664">
<rect width="197" height="35.9" fill="white" transform="translate(0 0.900002)"/>
</clipPath>
</defs>
</svg>
