<svg width="197" height="36" viewBox="0 0 197 36" fill="none" xmlns="http://www.w3.org/2000/svg">
<g clip-path="url(#clip0_219_16637)">
<path d="M17.9 0C8 0 0 8 0 17.9C0 27.8 8 35.8 17.9 35.8C27.8 35.8 35.8 27.8 35.8 17.9C35.9 8 27.8 0 17.9 0ZM27.4 28.9C23.9 32.3 18.1 32.7 14.1 29.8C10.8 27.5 9.1 23.4 9.7 19.4C9.2 19 8.9 18.8 8.9 18.8C8.4 18.4 7.4 17.4 7.5 16.5C7.3 17 6.3 17.8 5.6 18C5.5 18.4 5.6 19.2 5.8 19.5C5.9 19.7 5.9 20.1 5.6 20C4.9 20 5.4 18.7 4.7 18.3C3.9 19 4.4 20.1 3.7 20.2C3.3 20.2 3.3 19.8 3.5 19.5C3.6 19.3 4 18.6 3.9 18.1C3.4 18.1 3.1 18.4 2.7 18.6C2.3 18.8 1.7 18.5 2.1 18C2.4 17.7 3.2 18 3.9 17.5C3.6 17.2 3.2 17.1 3 17.1C2.9 17.1 2.8 17.1 2.7 17C2.4 16.7 2.6 16.2 3 16.2C3.5 16.3 3.7 16.9 4.4 16.9C4.5 16.3 4 15.7 4.1 15.3C4.2 15 4.5 15 4.7 15.2C4.9 15.4 4.8 15.8 4.9 16L5 16.3C5.6 14.2 8.5 12.5 10.4 14.9C10.6 14.2 11.5 12.1 13.9 10.6C16.1 9.3 18.2 9.4 18.9 9.4C18.9 9.4 18.6 6.8 20.4 6.3C20 6.2 19.8 6.1 19.5 6C19 5.7 19.2 5.1 19.8 5.2C20.2 5.3 20.3 5.8 20.7 5.9C20.8 5.7 21 5.4 20.7 4.8C20.6 4.5 20.8 4.2 21.1 4.2C21.3 4.1 21.7 4.4 21.6 4.6C21.6 4.7 21.6 4.8 21.5 4.9C21.4 5.2 21.3 5.6 21.4 5.9C21.7 5.7 22 5.3 22.3 4.8C22.4 4.6 22.5 4.6 22.6 4.6C22.9 4.5 23.1 4.9 23 5.2C22.9 5.4 22.8 5.4 22.6 5.6C22.3 5.8 22 6 21.8 6.3C22.2 6.7 22.6 6.6 23 6.6C23.3 6.6 23.5 6.5 23.7 6.7C23.8 6.8 23.8 6.9 23.8 7C23.7 7.2 23.5 7.3 23.3 7.2C23.2 7.2 22.3 6.8 21.8 7C21.9 7.6 23.2 7.9 22.9 8.4C22.6 8.8 22.1 7.7 21.5 7.4C21.5 7.4 20.5 8.2 21.6 9.9C22.1 9.7 23.7 8.9 25.7 9.4C26.2 9.5 27.8 9.9 28.8 11.4C29.9 13.2 30.1 16.6 28.6 16.7C25.3 16.9 23.3 16.3 22.1 14.9C22.1 15.3 21.7 15.9 21.5 16.4C21.6 17 22.1 17.4 22.6 17.5C22.7 17.2 22.6 16.9 22.6 16.6C22.6 16 23.3 15.9 23.4 16.5C23.5 16.9 23.1 17.2 23.2 17.6C23.5 17.6 23.8 17.6 24.2 17.1C24.4 16.9 24.8 16.9 24.9 17.1C25 17.2 25 17.7 24.8 17.8C24.7 17.8 24.6 17.9 24.5 17.9C24.2 17.9 23.8 18 23.6 18.3C23.9 18.5 24.4 18.6 25 18.6C25.2 18.6 25.3 18.7 25.3 18.8C25.5 19.1 25.3 19.4 25 19.4C24.8 19.4 24.7 19.3 24.5 19.2C24.2 19 23.9 18.8 23.5 18.8C23.3 19.8 24.1 20.1 24 20.6C24 20.8 23.9 20.8 23.7 20.8C23.5 20.8 23.3 20.7 23.3 20.4C23.3 20.3 23.2 19.3 22.8 19C22.3 19.4 22.6 20.7 22 20.6C21.5 20.5 22.3 19.6 22.3 18.9C21 18.7 19.5 17.7 18.7 16.1C18.5 16.1 18.2 16 17.9 16.1C17.5 16.2 17.3 16.3 17.1 16.5C16.9 16.6 16.7 16.8 16.5 17.1C16.3 17.4 16.2 17.7 16.1 17.9C18.4 18 19.6 19.7 19.7 21.3C20.1 21.6 20.7 21.4 21.1 21.3C21.4 21.3 21.5 21.6 21.3 21.8C21.1 21.9 21 21.8 20.8 21.8C20.7 21.8 20.6 21.8 20.5 21.8C20.3 21.8 20.1 21.8 20 21.9C20.7 22.6 21.6 22.3 21.9 22.7C22.1 23 21.6 23.3 21.4 23.1C21 22.8 20.6 22.5 20 22.4C20.1 23.2 21 23.8 21 24.2C20.9 24.6 20.3 24.4 20.3 24C20.1 23.3 19.9 23.1 19.6 22.6C19.1 23.3 19.6 24.4 19 24.4C18.7 24.3 18.7 24 18.8 23.8C18.9 23.5 19 23.1 18.9 22.8C18.7 22.8 18.4 22.9 18.1 23.2C18.1 23.3 18 23.3 17.9 23.3C17.6 23.3 17.5 23.1 17.7 22.8C18 22.6 18.5 22.6 18.7 22.2C18.2 21.9 17.5 21.4 17.2 20.6C16.4 21.1 15 21 13.8 20.8C13.5 25.6 17.8 29.9 23.1 28.5C25.3 27.9 27.3 26.4 28.3 24.4C28.8 23.5 29.1 22.6 29.3 21.6C29.5 21.1 29.5 18.7 30.2 19.9C31.1 22.8 29.7 26.7 27.4 28.9Z" fill="url(#paint0_linear_219_16637)"/>
<path d="M25.1998 15.4C25.8998 15.6 26.5998 15.4 26.6998 15C26.7998 14.5 26.3998 14 25.6998 13.8C24.9998 13.6 24.2998 13.8 24.1998 14.2C24.0998 14.6 24.4998 15.2 25.1998 15.4Z" fill="url(#paint1_linear_219_16637)"/>
<path d="M63 21.7V17.3H67.1V24.4C64 25.7 62.3 26 59.6 26C54.4 26 50.5 23.4 50.5 17.6C50.5 11.8 54.4 9.2 59.6 9.2C61.8 9.2 64 9.6 65.5 10.1L64.3 13.9C63.2 13.6 61.3 13.2 59.5 13.2C56.2 13.2 54.5 14.7 54.5 17.6C54.5 20.6 56.2 22.1 59.5 22.1C60.9 22 62 21.9 63 21.7Z" fill="#36224A"/>
<path d="M81.5999 21.2H73.1999C73.4999 21.9 74.1999 22.5 75.9999 22.5C77.5999 22.5 79.3999 22.3 80.3999 22L80.9999 25.4C79.6999 25.9 77.8999 26.1 75.9999 26.1C71.7999 26.1 68.8999 23.6 68.8999 19.9C68.8999 16.2 71.6999 13.7 75.7999 13.7C78.8999 13.7 81.6999 15.7 81.6999 19.5C81.6999 20.3 81.5999 21.2 81.5999 21.2ZM73.2999 18.3L77.5999 18.2C77.5999 17.8 77.3999 16.8 75.8999 16.8C74.3999 16.8 73.6999 17.5 73.2999 18.3Z" fill="#36224A"/>
<path d="M93.8 21.2L95.1 24.8C93.9 25.5 92.1 26 90.2 26C85.9 26 83 23.5 83 19.8C83 16.1 85.9 13.6 90.2 13.6C92 13.6 93.9 14.2 94.9 14.7L93.6 18.4C92.7 18 91.4 17.6 90.2 17.6C87.3 17.6 87.2 19 87.2 19.9C87.2 20.8 87.4 22.1 90.2 22.1C91.8 22 92.9 21.6 93.8 21.2Z" fill="#36224A"/>
<path d="M97 9.3L101.1 9V17.8L104.1 14L109.6 13.7L105.5 18.8L110 25.9H105.1L102.7 22.2L101.1 24.3V25.9H97V9.3Z" fill="#36224A"/>
<path d="M109.9 19.8C109.9 16.1 112.8 13.6 117.1 13.6C121.4 13.6 124.3 16.1 124.3 19.8C124.3 23.5 121.4 26 117.1 26C112.8 26 109.9 23.5 109.9 19.8ZM114.1 19.8C114.1 20.5 114.1 22.1 117.1 22.1C120.1 22.1 120.1 20.5 120.1 19.8C120.1 19.1 120 17.5 117.1 17.5C114.2 17.5 114.1 19.1 114.1 19.8Z" fill="#36224A"/>
<path d="M138.1 21.7V17.3H142.2V24.4C139.1 25.7 137.4 26 134.7 26C129.5 26 125.6 23.4 125.6 17.6C125.6 11.8 129.5 9.2 134.7 9.2C136.9 9.2 139.1 9.6 140.6 10.1L139.4 13.9C138.3 13.6 136.4 13.2 134.6 13.2C131.3 13.2 129.6 14.7 129.6 17.6C129.6 20.6 131.3 22.1 134.6 22.1C136 22 137.1 21.9 138.1 21.7Z" fill="#36224A"/>
<path d="M154.3 25.2C153.3 25.7 152 26 150.8 26C146.6 26 144 23.5 144 19.8C144 16.1 146.5 13.6 150.7 13.6C151.9 13.6 153.1 14 154.2 14.5L154.6 13.8L157.6 14V26H154.7L154.3 25.2ZM153.4 21.7V17.9C152.6 17.7 151.7 17.5 151 17.5C148.6 17.5 148.2 18.9 148.2 19.8C148.2 20.7 148.6 22 151 22C151.9 22 152.7 21.9 153.4 21.7Z" fill="#36224A"/>
<path d="M160.4 13.9L163.3 13.7L163.8 14.5C164.9 14 166.3 13.6 167.6 13.6C169.5 13.6 171 14.1 171.9 15.1C173.1 14.5 175.1 13.6 176.9 13.6C180.7 13.6 182.6 15.6 182.6 19.2V25.9H178.5V19.1C178.5 18.3 178.5 17.5 176.7 17.5C175.7 17.5 174.3 17.8 173.3 18.1C173.3 18.4 173.4 18.7 173.4 19.1V25.9H169V19.1C169 18.3 169 17.5 167.2 17.5C166.4 17.5 165.4 17.7 164.5 17.9V25.9H160.4V13.9Z" fill="#36224A"/>
<path d="M196.9 21.2H188.5C188.8 21.9 189.5 22.5 191.3 22.5C192.9 22.5 194.7 22.3 195.7 22L196.3 25.4C195 25.9 193.2 26.1 191.3 26.1C187.1 26.1 184.2 23.6 184.2 19.9C184.2 16.2 187 13.7 191.1 13.7C194.2 13.7 197 15.7 197 19.5C197 20.3 196.9 21.2 196.9 21.2ZM188.6 18.3L192.9 18.2C192.9 17.8 192.7 16.8 191.2 16.8C189.6 16.8 188.9 17.5 188.6 18.3Z" fill="#36224A"/>
</g>
<defs>
<linearGradient id="paint0_linear_219_16637" x1="7.0347" y1="32.1703" x2="28.824" y2="3.6885" gradientUnits="userSpaceOnUse">
<stop stop-color="#9D1A4A"/>
<stop offset="1" stop-color="#334D93"/>
</linearGradient>
<linearGradient id="paint1_linear_219_16637" x1="24.2106" y1="14.5727" x2="26.7846" y2="14.5727" gradientUnits="userSpaceOnUse">
<stop stop-color="#9D1A4A"/>
<stop offset="1" stop-color="#67224C"/>
</linearGradient>
<clipPath id="clip0_219_16637">
<rect width="197" height="35.9" fill="white"/>
</clipPath>
</defs>
</svg>
