<svg xmlns="http://www.w3.org/2000/svg" width="16" height="17" fill="none" viewBox="0 0 16 17">
  <path fill="#55657E" fill-rule="evenodd" d="M7.493 3.592a5.368 5.368 0 0 0-4.02 2.495c-1.26 2.005-1.023 4.667.572 6.401.886.964 1.983 1.538 3.302 1.725a8.265 8.265 0 0 0 1.325 0 5.335 5.335 0 0 0 3.28-1.711c.727-.789 1.193-1.799 1.355-2.934a8.263 8.263 0 0 0 0-1.315 5.405 5.405 0 0 0-.854-2.293 5.037 5.037 0 0 0-.658-.802 5.294 5.294 0 0 0-3.05-1.538 8.131 8.131 0 0 0-1.252-.028Zm1.204 1.811a3.597 3.597 0 0 1 2.704 2.404c.135.423.159.587.159 1.103s-.024.68-.159 1.104a3.579 3.579 0 0 1-2.333 2.305c-.416.129-.56.148-1.075.148-.513-.001-.696-.029-1.114-.168a3.588 3.588 0 0 1-2.393-2.752 4.933 4.933 0 0 1 0-1.273A3.592 3.592 0 0 1 7.13 5.446c.329-.084.508-.102.935-.095.314.005.459.017.631.052ZM7.514 6a2.971 2.971 0 0 0-1.649.89 2.954 2.954 0 0 0-.744 1.394 3.638 3.638 0 0 0-.028 1.089 2.92 2.92 0 0 0 .883 1.668c.402.383.89.64 1.444.762.252.055.915.055 1.167 0a2.901 2.901 0 0 0 1.494-.814c.426-.43.687-.908.815-1.495.055-.252.055-.915 0-1.167a2.906 2.906 0 0 0-.825-1.503 2.848 2.848 0 0 0-1.441-.797c-.24-.056-.873-.071-1.116-.027Zm.704 1.042c.492.105.844.577.801 1.076a1.053 1.053 0 0 1-.167.484l-.073.108.104.116a1.179 1.179 0 0 1-.054 1.639c-.152.15-.327.247-.545.303a1.13 1.13 0 0 1-.823-.1 1.218 1.218 0 0 1-.646-1.048c0-.264.128-.592.311-.796l.106-.118L7.16 8.6a.995.995 0 0 1 .147-1.295.978.978 0 0 1 .911-.263Zm-.346.626a.377.377 0 0 0-.225.21c-.174.376.314.734.615.452a.465.465 0 0 0 .137-.296.414.414 0 0 0-.286-.375.321.321 0 0 0-.241.01Zm-.055 1.428a.6.6 0 0 0-.376.524c0 .227.182.468.404.532a.557.557 0 0 0 .665-.29.454.454 0 0 0 .046-.242c0-.121-.01-.176-.046-.243a.56.56 0 0 0-.693-.281Z" clip-rule="evenodd"/>
</svg>
