<svg width="24" height="19" viewBox="0 0 24 19" fill="none" xmlns="http://www.w3.org/2000/svg">
<g clip-path="url(#clip0_227_25858)">
<path d="M5.0026 18.4602V17.2639C5.01109 17.1622 4.99726 17.0598 4.96209 16.964C4.92691 16.8681 4.87123 16.7811 4.79894 16.709C4.72665 16.6369 4.63949 16.5815 4.54355 16.5466C4.44761 16.5117 4.3452 16.4981 4.24348 16.5069C4.11113 16.5018 3.97962 16.5302 3.86117 16.5894C3.74272 16.6487 3.64116 16.7369 3.5659 16.8459C3.50069 16.7366 3.40676 16.6471 3.29431 16.5874C3.18187 16.5276 3.0552 16.4998 2.92806 16.5069C2.81895 16.5023 2.71046 16.5255 2.61278 16.5743C2.51511 16.6231 2.43145 16.696 2.36969 16.7861V16.5466H1.97284V18.4602H2.39136V17.4038C2.39136 17.0648 2.57095 16.9053 2.84962 16.9053C3.12829 16.9053 3.26814 17.0849 3.26814 17.4038V18.4602H3.68666V17.4038C3.6782 17.3398 3.6839 17.2747 3.70336 17.2131C3.72281 17.1515 3.75555 17.095 3.79925 17.0474C3.84296 16.9999 3.89657 16.9625 3.95629 16.9379C4.01602 16.9134 4.08041 16.9022 4.14492 16.9053C4.4241 16.9053 4.56344 17.0849 4.56344 17.4038V18.4602H5.0026ZM11.202 16.5466H10.5244V15.9686H10.1059V16.5466H9.72708V16.9244H10.1059V17.8017C10.1059 18.2403 10.2855 18.4994 10.7638 18.4994C10.9446 18.4955 11.1217 18.4476 11.2799 18.36L11.1602 17.9988C11.052 18.0664 10.9265 18.101 10.7989 18.0984C10.5997 18.0984 10.5197 17.9787 10.5197 17.7795V16.9244H11.1973L11.202 16.5466ZM14.7302 16.5069C14.6298 16.5046 14.5305 16.5293 14.4429 16.5784C14.3552 16.6275 14.2823 16.6992 14.2317 16.7861V16.5466H13.8132V18.4602H14.2317V17.3837C14.2317 17.0648 14.3711 16.8852 14.6306 16.8852C14.7179 16.8887 14.8044 16.902 14.8887 16.9249L15.0084 16.526C14.9294 16.5265 14.8102 16.5069 14.7302 16.5069ZM9.38803 16.7061C9.1547 16.5635 8.884 16.4941 8.61086 16.5069C8.13247 16.5069 7.81355 16.7463 7.81355 17.1262C7.81355 17.4451 8.053 17.6247 8.47152 17.6845L8.67072 17.7047C8.89004 17.7444 9.00977 17.8043 9.00977 17.9039C9.00977 18.0432 8.85031 18.1433 8.57112 18.1433C8.343 18.1446 8.1201 18.075 7.93328 17.9441L7.73408 18.263C7.97534 18.4252 8.26086 18.5089 8.55151 18.5025C9.10988 18.5025 9.4288 18.2445 9.4288 17.8832C9.4288 17.5442 9.17078 17.3672 8.77083 17.3052L8.57164 17.2851C8.39205 17.265 8.25271 17.2252 8.25271 17.1055C8.25271 16.9662 8.39205 16.8862 8.61395 16.8862C8.82254 16.8953 9.02665 16.9497 9.21206 17.0457L9.38803 16.7061ZM20.491 16.5069C20.3905 16.5046 20.2913 16.5293 20.2036 16.5784C20.1159 16.6275 20.043 16.6992 19.9925 16.7861V16.5466H19.5739V18.4602H19.9925V17.3837C19.9925 17.0648 20.1318 16.8852 20.3914 16.8852C20.4786 16.8887 20.5651 16.902 20.6494 16.9249L20.7691 16.526C20.6902 16.5265 20.5709 16.5069 20.491 16.5069ZM15.1488 17.5034C15.143 17.6375 15.1655 17.7714 15.2148 17.8962C15.2641 18.0211 15.3392 18.1342 15.4351 18.2281C15.5309 18.3221 15.6455 18.3949 15.7713 18.4417C15.8971 18.4885 16.0314 18.5083 16.1654 18.4999C16.4106 18.5132 16.652 18.435 16.843 18.2806L16.6438 17.9415C16.5026 18.0559 16.3269 18.1192 16.1453 18.1211C16.0653 18.1229 15.9859 18.1078 15.9122 18.0767C15.8385 18.0457 15.7722 17.9994 15.7176 17.9409C15.663 17.8825 15.6214 17.8131 15.5955 17.7374C15.5696 17.6618 15.56 17.5815 15.5673 17.5018C15.563 17.4229 15.5748 17.3438 15.6018 17.2695C15.6288 17.1952 15.6705 17.1271 15.7245 17.0692C15.7785 17.0114 15.8436 16.9651 15.9159 16.933C15.9882 16.9009 16.0662 16.8838 16.1453 16.8826C16.3269 16.8845 16.5026 16.9478 16.6438 17.0622L16.843 16.7231C16.652 16.5687 16.4106 16.4905 16.1654 16.5038C16.0311 16.4953 15.8966 16.5152 15.7705 16.5622C15.6445 16.6092 15.5298 16.6823 15.4339 16.7766C15.3379 16.8709 15.263 16.9844 15.2138 17.1096C15.1647 17.2348 15.1425 17.369 15.1488 17.5034ZM19.0357 17.5034V16.5466H18.6172V16.7861C18.5468 16.6954 18.4559 16.6227 18.3519 16.5742C18.2478 16.5256 18.1338 16.5026 18.0191 16.5069C17.7615 16.517 17.5179 16.6265 17.3392 16.8123C17.1606 16.9981 17.0608 17.2459 17.0608 17.5037C17.0608 17.7614 17.1606 18.0092 17.3392 18.195C17.5179 18.3808 17.7615 18.4903 18.0191 18.5004C18.1344 18.5094 18.25 18.4884 18.3548 18.4395C18.4596 18.3905 18.55 18.3154 18.6172 18.2212V18.4607H19.0357V17.5034ZM17.4808 17.5034C17.475 17.4239 17.4856 17.3441 17.512 17.269C17.5384 17.1938 17.5801 17.1249 17.6343 17.0665C17.6885 17.0082 17.7542 16.9616 17.8273 16.9298C17.9003 16.898 17.9791 16.8815 18.0588 16.8815C18.1385 16.8815 18.2173 16.898 18.2903 16.9298C18.3634 16.9616 18.429 17.0082 18.4833 17.0665C18.5375 17.1249 18.5791 17.1938 18.6056 17.269C18.632 17.3441 18.6426 17.4239 18.6368 17.5034C18.641 17.5824 18.6293 17.6614 18.6023 17.7357C18.5752 17.8101 18.5335 17.8782 18.4795 17.936C18.4256 17.9938 18.3605 18.0402 18.2882 18.0722C18.2159 18.1043 18.1379 18.1215 18.0588 18.1227C17.9792 18.1231 17.9005 18.1071 17.8274 18.0755C17.7544 18.044 17.6887 17.9977 17.6344 17.9395C17.5802 17.8813 17.5385 17.8126 17.5122 17.7375C17.4858 17.6624 17.4753 17.5827 17.4813 17.5034H17.4808ZM12.4751 16.5069C12.2143 16.5148 11.967 16.6247 11.7863 16.8129C11.6056 17.0011 11.5059 17.2526 11.5085 17.5135C11.5111 17.7744 11.6159 18.0239 11.8004 18.2084C11.9849 18.3929 12.2343 18.4977 12.4952 18.5004C12.7763 18.5066 13.0508 18.4154 13.2724 18.2424L13.0732 17.9436C12.913 18.0677 12.7174 18.1375 12.5148 18.1428C12.3782 18.1544 12.2424 18.1134 12.135 18.0282C12.0276 17.9431 11.9567 17.8201 11.9368 17.6845H13.3519V17.5251C13.3736 17.3987 13.3672 17.2691 13.3331 17.1456C13.2989 17.022 13.2379 16.9075 13.1544 16.8102C13.0709 16.7129 12.9669 16.6353 12.85 16.5829C12.733 16.5305 12.6058 16.5045 12.4777 16.5069H12.4751ZM12.4751 16.8857C12.5367 16.8838 12.5981 16.8943 12.6557 16.9164C12.7132 16.9385 12.7658 16.9719 12.8103 17.0145C12.8549 17.0572 12.8905 17.1083 12.915 17.1648C12.9396 17.2214 12.9527 17.2823 12.9535 17.3439H11.9595C11.9708 17.2157 12.0308 17.0967 12.1272 17.0113C12.2236 16.926 12.349 16.8808 12.4777 16.8852L12.4751 16.8857ZM22.8803 17.5049V15.7891H22.4618V16.7856C22.3914 16.6949 22.3005 16.6222 22.1965 16.5737C22.0925 16.5251 21.9784 16.5021 21.8637 16.5064C21.6061 16.5165 21.3625 16.626 21.1838 16.8118C21.0052 16.9976 20.9054 17.2454 20.9054 17.5031C20.9054 17.7609 21.0052 18.0086 21.1838 18.1945C21.3625 18.3803 21.6061 18.4897 21.8637 18.4999C21.979 18.5089 22.0946 18.4879 22.1994 18.439C22.3042 18.39 22.3946 18.3149 22.4618 18.2207V18.4602H22.8803V17.5034V17.5049ZM21.3254 17.5049C21.3196 17.4255 21.3302 17.3457 21.3566 17.2705C21.383 17.1953 21.4247 17.1264 21.4789 17.0681C21.5332 17.0097 21.5988 16.9632 21.6719 16.9313C21.7449 16.8995 21.8237 16.8831 21.9034 16.8831C21.9831 16.8831 22.0619 16.8995 22.1349 16.9313C22.208 16.9632 22.2737 17.0097 22.3279 17.0681C22.3821 17.1264 22.4238 17.1953 22.4502 17.2705C22.4766 17.3457 22.4872 17.4255 22.4814 17.5049C22.4856 17.5839 22.4739 17.6629 22.4469 17.7373C22.4199 17.8116 22.3781 17.8797 22.3242 17.9376C22.2702 17.9954 22.2051 18.0417 22.1328 18.0738C22.0605 18.1059 21.9825 18.123 21.9034 18.1242C21.8239 18.1244 21.7452 18.1081 21.6723 18.0763C21.5994 18.0446 21.5338 17.9981 21.4798 17.9398C21.4257 17.8815 21.3843 17.8126 21.3582 17.7375C21.3321 17.6624 21.3218 17.5827 21.328 17.5034L21.3254 17.5049ZM7.33207 17.5049V16.5466H6.91355V16.7861C6.8432 16.6954 6.75226 16.6227 6.64824 16.5742C6.54423 16.5256 6.43015 16.5026 6.31544 16.5069C6.05788 16.517 5.81425 16.6265 5.63561 16.8123C5.45697 16.9981 5.3572 17.2459 5.3572 17.5037C5.3572 17.7614 5.45697 18.0092 5.63561 18.195C5.81425 18.3808 6.05788 18.4903 6.31544 18.5004C6.43075 18.5094 6.54641 18.4884 6.65121 18.4395C6.756 18.3905 6.84638 18.3154 6.91355 18.2212V18.4607H7.33207V17.5034V17.5049ZM5.79732 17.5049C5.7915 17.4255 5.80213 17.3457 5.82854 17.2705C5.85495 17.1953 5.89657 17.1264 5.95081 17.0681C6.00505 17.0097 6.07074 16.9632 6.14378 16.9313C6.21682 16.8995 6.29563 16.8831 6.37531 16.8831C6.45498 16.8831 6.53379 16.8995 6.60683 16.9313C6.67987 16.9632 6.74556 17.0097 6.7998 17.0681C6.85404 17.1264 6.89566 17.1953 6.92207 17.2705C6.94848 17.3457 6.95911 17.4255 6.95329 17.5049C6.95753 17.5839 6.94579 17.6629 6.91878 17.7373C6.89176 17.8116 6.85002 17.8797 6.79605 17.9376C6.74209 17.9954 6.67701 18.0417 6.60471 18.0738C6.53241 18.1059 6.45439 18.123 6.37531 18.1242C6.29579 18.1244 6.2171 18.1081 6.14419 18.0763C6.07128 18.0446 6.00573 17.9981 5.95168 17.9398C5.89762 17.8815 5.85623 17.8126 5.83011 17.7375C5.80399 17.6624 5.7937 17.5827 5.7999 17.5034L5.79732 17.5049Z" fill="#3F4456"/>
<path d="M9.25018 2.03467H15.529V13.3172H9.25018V2.03467Z" fill="#FF5F00"/>
<path d="M9.6487 7.67644C9.64887 6.591 9.89463 5.51967 10.3676 4.54268C10.8405 3.56569 11.5284 2.70837 12.3797 2.03493C11.4801 1.32937 10.425 0.849026 9.30215 0.633946C8.17933 0.418866 7.02136 0.475276 5.92476 0.798475C4.82816 1.12167 3.82469 1.7023 2.99799 2.49196C2.17129 3.28161 1.54531 4.25743 1.17222 5.33807C0.799122 6.41872 0.689725 7.57289 0.853144 8.70438C1.01656 9.83588 1.44806 10.9119 2.11168 11.8428C2.7753 12.7738 3.65181 13.5326 4.66816 14.056C5.68451 14.5795 6.81126 14.8525 7.95449 14.8522C9.56026 14.8534 11.1194 14.3126 12.3797 13.3174C11.5285 12.6441 10.8406 11.7868 10.3677 10.8099C9.89475 9.83303 9.64895 8.7618 9.6487 7.67644Z" fill="#EB001B"/>
<path d="M24.0001 7.67607C24.0014 9.02201 23.6238 10.3411 22.9105 11.4825C22.1971 12.6238 21.1768 13.5413 19.9664 14.1299C18.756 14.7185 17.4043 14.9544 16.066 14.8106C14.7278 14.6669 13.457 14.1493 12.3992 13.3171C13.2526 12.6444 13.942 11.7866 14.4153 10.8085C14.8887 9.83039 15.1336 8.75753 15.1317 7.67092C15.1297 6.5843 14.881 5.51232 14.4041 4.53591C13.9273 3.55951 13.2348 2.70419 12.3791 2.03455C13.4384 1.2024 14.7104 0.684872 16.0497 0.541058C17.3891 0.397245 18.742 0.632939 19.9538 1.22123C21.1656 1.80952 22.1876 2.72671 22.9031 3.86807C23.6186 5.00944 23.9987 6.32898 24.0001 7.67607Z" fill="#F79E1B"/>
</g>
<defs>
<clipPath id="clip0_227_25858">
<rect width="23.2225" height="18" fill="white" transform="translate(0.777527 0.5)"/>
</clipPath>
</defs>
</svg>
