<svg width="64" height="78" viewBox="0 0 64 78" fill="none" xmlns="http://www.w3.org/2000/svg">
<path d="M17.6753 0.439209H46.3331V77.9134L32.0042 70.5816L17.6753 77.9134V0.439209Z" fill="#55657E"/>
<g filter="url(#filter0_d_299_1091)">
<path d="M32.0046 0.439209L58.8571 15.9425V46.9491L32.0046 62.4524L5.15214 46.9491V15.9425L32.0046 0.439209Z" fill="#6F778D"/>
</g>
<path d="M11.7087 19.7275L32.0053 8.00919L52.302 19.7275V43.164L32.0053 54.8823L11.7087 43.164V19.7275Z" fill="#55657E" stroke="white" stroke-width="2"/>
<path d="M11.7087 19.7275L32.0053 8.00919L52.302 19.7275V43.164L32.0053 54.8823L11.7087 43.164V19.7275Z" fill="#55657E" stroke="white" stroke-width="2"/>
<path d="M53.3023 19.1501L32.0056 6.85449L10.709 19.1501V43.7414L53.3023 19.1501Z" fill="white" fill-opacity="0.1"/>
<path d="M21.2179 22.8681L22.8859 21.6501L24.5659 22.8681L23.9119 20.9601L25.4599 19.9221H23.5759L22.8859 17.8761L22.2079 19.9221H20.3119L21.8599 20.9601L21.2179 22.8681ZM29.4208 22.7661H28.7128L27.0208 18.5661H27.7588L29.0668 21.9741L30.3748 18.5661H31.1128L29.4208 22.7661ZM31.678 18.5661H32.362V22.7661H31.678V18.5661ZM33.383 18.5661H34.883C36.079 18.5661 36.677 19.0261 36.677 19.9461C36.677 20.8661 36.079 21.3261 34.883 21.3261H34.067V22.7661H33.383V18.5661ZM35.693 20.5401C35.885 20.4281 35.981 20.2301 35.981 19.9461C35.981 19.6621 35.885 19.4661 35.693 19.3581C35.505 19.2461 35.247 19.1901 34.919 19.1901H34.067V20.7021H34.919C35.247 20.7021 35.505 20.6481 35.693 20.5401ZM39.3175 22.8681L40.9855 21.6501L42.6655 22.8681L42.0115 20.9601L43.5595 19.9221H41.6755L40.9855 17.8761L40.3075 19.9221H38.4115L39.9595 20.9601L39.3175 22.8681Z" fill="white" fill-opacity="0.44"/>
<path d="M27.1119 39.7243C26.1759 38.5243 25.7079 36.9883 25.7079 35.1163C25.7079 33.2443 26.1759 31.7143 27.1119 30.5263C28.0599 29.3263 29.4819 28.7263 31.3779 28.7263C33.2739 28.7263 34.6899 29.3263 35.6259 30.5263C36.5739 31.7143 37.0479 33.2443 37.0479 35.1163C37.0479 36.9883 36.5739 38.5243 35.6259 39.7243C34.6899 40.9123 33.2739 41.5063 31.3779 41.5063C29.4819 41.5063 28.0599 40.9123 27.1119 39.7243ZM31.3779 38.6263C32.9379 38.6263 33.7179 37.4563 33.7179 35.1163C33.7179 32.7763 32.9379 31.6063 31.3779 31.6063C29.8179 31.6063 29.0379 32.7763 29.0379 35.1163C29.0379 37.4563 29.8179 38.6263 31.3779 38.6263Z" fill="white" fill-opacity="0.44"/>
<defs>
<filter id="filter0_d_299_1091" x="1.1521" y="0.439209" width="61.7051" height="70.0132" filterUnits="userSpaceOnUse" color-interpolation-filters="sRGB">
<feFlood flood-opacity="0" result="BackgroundImageFix"/>
<feColorMatrix in="SourceAlpha" type="matrix" values="0 0 0 0 0 0 0 0 0 0 0 0 0 0 0 0 0 0 127 0" result="hardAlpha"/>
<feOffset dy="4"/>
<feGaussianBlur stdDeviation="2"/>
<feComposite in2="hardAlpha" operator="out"/>
<feColorMatrix type="matrix" values="0 0 0 0 0 0 0 0 0 0 0 0 0 0 0 0 0 0 0.15 0"/>
<feBlend mode="normal" in2="BackgroundImageFix" result="effect1_dropShadow_299_1091"/>
<feBlend mode="normal" in="SourceGraphic" in2="effect1_dropShadow_299_1091" result="shape"/>
</filter>
</defs>
</svg>
