<svg width="41" height="59" viewBox="0 0 41 59" fill="none" xmlns="http://www.w3.org/2000/svg">
<path d="M8.29102 13.6826H32.7761L34.9145 56.198L21.7776 48.8663L11.6965 58.3365L8.29102 13.6826Z" fill="#55657E"/>
<g filter="url(#filter0_d_299_1115)">
<path d="M20.4349 1.39886C21.0537 1.04161 21.816 1.04161 22.4348 1.39886L37.43 10.0564C38.0488 10.4136 38.43 11.0738 38.43 11.7883V29.1033C38.43 29.8178 38.0488 30.4781 37.43 30.8353L22.4348 39.4928C21.816 39.85 21.0537 39.85 20.4349 39.4928L5.43967 30.8353C4.82089 30.4781 4.4397 29.8178 4.4397 29.1033V11.7883C4.4397 11.0738 4.82089 10.4136 5.43967 10.0564L20.4349 1.39886Z" fill="#6F778D"/>
</g>
<path d="M20.7516 6.00703C21.1745 5.76284 21.6956 5.76284 22.1186 6.00703L33.5975 12.6344C34.0204 12.8786 34.281 13.3298 34.281 13.8182V27.0729C34.281 27.5613 34.0204 28.0126 33.5975 28.2568L22.1186 34.8841C21.6956 35.1283 21.1745 35.1283 20.7516 34.8841L9.27269 28.2568L8.95623 28.8049L9.27269 28.2568C8.84973 28.0126 8.58918 27.5613 8.58918 27.0729V13.8182C8.58918 13.3299 8.84973 12.8786 9.27269 12.6344L20.7516 6.00703Z" fill="#55657E" stroke="white" stroke-width="1.26581"/>
<path d="M20.7516 6.00703C21.1745 5.76284 21.6956 5.76284 22.1186 6.00703L33.5975 12.6344C34.0204 12.8786 34.281 13.3298 34.281 13.8182V27.0729C34.281 27.5613 34.0204 28.0126 33.5975 28.2568L22.1186 34.8841C21.6956 35.1283 21.1745 35.1283 20.7516 34.8841L9.27269 28.2568L8.95623 28.8049L9.27269 28.2568C8.84973 28.0126 8.58918 27.5613 8.58918 27.0729V13.8182C8.58918 13.3299 8.84973 12.8786 9.27269 12.6344L20.7516 6.00703Z" fill="#55657E" stroke="white" stroke-width="1.26581"/>
<path d="M31.9147 10.9316L22.4358 5.45892C21.817 5.10167 21.0546 5.10167 20.4359 5.45892L8.95699 12.0863C8.33821 12.4435 7.95703 13.1037 7.95703 13.8182V24.7636C7.95703 26.3031 9.62363 27.2653 10.9569 26.4956L31.9147 14.3956C33.248 13.6258 33.248 11.7014 31.9147 10.9316Z" fill="white" fill-opacity="0.1"/>
<defs>
<filter id="filter0_d_299_1115" x="1.90807" y="1.13086" width="39.0535" height="43.6931" filterUnits="userSpaceOnUse" color-interpolation-filters="sRGB">
<feFlood flood-opacity="0" result="BackgroundImageFix"/>
<feColorMatrix in="SourceAlpha" type="matrix" values="0 0 0 0 0 0 0 0 0 0 0 0 0 0 0 0 0 0 127 0" result="hardAlpha"/>
<feOffset dy="2.53163"/>
<feGaussianBlur stdDeviation="1.26581"/>
<feComposite in2="hardAlpha" operator="out"/>
<feColorMatrix type="matrix" values="0 0 0 0 0 0 0 0 0 0 0 0 0 0 0 0 0 0 0.15 0"/>
<feBlend mode="normal" in2="BackgroundImageFix" result="effect1_dropShadow_299_1115"/>
<feBlend mode="normal" in="SourceGraphic" in2="effect1_dropShadow_299_1115" result="shape"/>
</filter>
</defs>
</svg>
