<svg width="17" height="17" viewBox="0 0 17 17" fill="none" xmlns="http://www.w3.org/2000/svg">
<path fill-rule="evenodd" clip-rule="evenodd" d="M8.69879 4.06474C8.2791 4.14104 7.93607 4.32886 7.63966 4.64473C6.96432 5.36443 6.98591 6.48781 7.68878 7.20114C8.31306 7.83473 9.30375 7.92624 10.0512 7.4194C10.2067 7.31399 10.4136 7.10539 10.5241 6.94259C11.0128 6.22296 10.9433 5.27001 10.3566 4.64473C9.99155 4.25572 9.58244 4.06921 9.06075 4.05399C8.91724 4.04982 8.75436 4.05464 8.69879 4.06474ZM5.39142 5.81898C4.98385 5.92575 4.62354 6.2377 4.46225 6.62343C4.26835 7.08706 4.34861 7.6434 4.66506 8.02917C4.93611 8.35961 5.3145 8.53831 5.74177 8.53767C6.09473 8.53712 6.40189 8.41787 6.66215 8.18034C6.9685 7.90074 7.11946 7.56521 7.11946 7.16392C7.11946 6.77385 6.98918 6.45963 6.71294 6.18336C6.51975 5.99017 6.33298 5.88171 6.08392 5.818C5.87542 5.76469 5.59713 5.76506 5.39142 5.81898ZM11.9041 5.81898C11.662 5.88242 11.4738 5.99286 11.2833 6.18336C11.0071 6.45963 10.8768 6.77385 10.8768 7.16392C10.8768 7.56391 11.0261 7.897 11.3319 8.17926C11.5885 8.41614 11.9 8.53712 12.2545 8.53767C12.6818 8.53831 13.0601 8.35961 13.3312 8.02917C13.6484 7.64246 13.7293 7.07627 13.5322 6.62224C13.2574 5.98915 12.5628 5.64642 11.9041 5.81898ZM7.73524 8.16642C7.41835 8.23844 7.20913 8.35527 6.97144 8.59294C6.77362 8.79079 6.66685 8.96081 6.57917 9.21758L6.52455 9.37762L6.51901 11.131C6.51359 12.8546 6.51419 12.8856 6.55536 12.9525C6.57838 12.9899 6.62783 13.0392 6.66526 13.062C6.73204 13.1027 6.77491 13.1035 8.99813 13.1035C11.2213 13.1035 11.2642 13.1027 11.331 13.062C11.3684 13.0392 11.4179 12.9899 11.4409 12.9525C11.4821 12.8856 11.4827 12.8546 11.4772 11.131L11.4717 9.37762L11.4171 9.21758C11.3294 8.96081 11.2226 8.79079 11.0248 8.59294C10.8269 8.39501 10.6567 8.28818 10.4002 8.2008L10.2401 8.1463L9.05031 8.14212C8.10887 8.13885 7.83433 8.14392 7.73524 8.16642ZM4.99356 8.95129C4.39487 9.02896 3.90307 9.45375 3.71372 10.0568C3.66502 10.2119 3.66479 10.2177 3.66479 11.298V12.3835L3.71318 12.5033C3.81116 12.7459 4.0125 12.9472 4.2547 13.0446C4.3713 13.0916 4.39556 13.093 5.16138 13.0994L5.94825 13.1059L5.92396 13.037C5.89156 12.9449 5.8767 9.78231 5.90726 9.48199C5.91895 9.36718 5.94398 9.21689 5.96289 9.14801C5.98182 9.07912 6.00194 9.00164 6.00764 8.97579L6.018 8.92883L5.572 8.93148C5.32669 8.93294 5.06639 8.94185 4.99356 8.95129ZM11.9886 8.97579C11.9943 9.00164 12.0144 9.07912 12.0334 9.14801C12.0523 9.21689 12.0773 9.36718 12.089 9.48199C12.1196 9.78231 12.1047 12.9449 12.0723 13.037L12.048 13.1059L12.8349 13.0994C13.6007 13.093 13.625 13.0916 13.7416 13.0446C13.9838 12.9472 14.1851 12.7459 14.2831 12.5033L14.3315 12.3835V11.298C14.3315 10.2177 14.3312 10.2119 14.2825 10.0568C14.1252 9.55561 13.7711 9.1836 13.2984 9.02284C13.0868 8.95087 12.8747 8.92883 12.3935 8.92883H11.9783L11.9886 8.97579Z" fill="white"/>
</svg>
