<svg width="13" height="13" viewBox="0 0 13 13" fill="none" xmlns="http://www.w3.org/2000/svg">
<path fill-rule="evenodd" clip-rule="evenodd" d="M6.44029 3.15836C6.12552 3.21558 5.86825 3.35645 5.64595 3.59335C5.13944 4.13312 5.15563 4.97566 5.68278 5.51066C6.15099 5.98585 6.89401 6.05449 7.4546 5.67435C7.57121 5.59529 7.72637 5.43884 7.80928 5.31675C8.17581 4.77702 8.12371 4.06231 7.68364 3.59335C7.40986 3.30159 7.10303 3.16171 6.71176 3.1503C6.60413 3.14717 6.48197 3.15078 6.44029 3.15836ZM3.95976 4.47404C3.65409 4.55412 3.38386 4.78807 3.26288 5.07737C3.11746 5.4251 3.17766 5.84235 3.41499 6.13168C3.61828 6.37951 3.90207 6.51354 4.22252 6.51305C4.48724 6.51265 4.71762 6.42321 4.91281 6.24506C5.14257 6.03535 5.25579 5.78371 5.25579 5.48274C5.25579 5.19019 5.15809 4.95452 4.9509 4.74732C4.80601 4.60243 4.66594 4.52108 4.47914 4.4733C4.32277 4.43332 4.11405 4.4336 3.95976 4.47404ZM8.8443 4.47404C8.6627 4.52162 8.52158 4.60445 8.37869 4.74732C8.1715 4.95452 8.0738 5.19019 8.0738 5.48274C8.0738 5.78274 8.18577 6.03255 8.41512 6.24425C8.6076 6.42191 8.84117 6.51265 9.10706 6.51305C9.42752 6.51354 9.71131 6.37951 9.9146 6.13168C10.1525 5.84165 10.2132 5.41701 10.0654 5.07648C9.85927 4.60166 9.33827 4.34461 8.8443 4.47404ZM5.71763 6.23462C5.47997 6.28863 5.32305 6.37625 5.14478 6.55451C4.99641 6.70289 4.91633 6.83041 4.85058 7.02299L4.80961 7.14302L4.80546 8.45809C4.80139 9.75075 4.80184 9.77403 4.83272 9.82418C4.84998 9.85225 4.88707 9.88919 4.91514 9.9063C4.96523 9.93685 4.99738 9.93743 6.66479 9.93743C8.33221 9.93743 8.36436 9.93685 8.41445 9.9063C8.44252 9.88919 8.4796 9.85225 8.49687 9.82418C8.52775 9.77403 8.5282 9.75075 8.52413 8.45809L8.51998 7.14302L8.47901 7.02299C8.41326 6.83041 8.33318 6.70289 8.18481 6.55451C8.03635 6.40606 7.90872 6.32594 7.71633 6.2604L7.5963 6.21953L6.70393 6.2164C5.99785 6.21394 5.79195 6.21774 5.71763 6.23462ZM3.66137 6.82327C3.21235 6.88152 2.8435 7.20011 2.70149 7.65237C2.66497 7.76869 2.66479 7.77309 2.66479 8.58333V9.39742L2.70108 9.48728C2.77457 9.66925 2.92557 9.82018 3.10722 9.89328C3.19467 9.92847 3.21287 9.92958 3.78724 9.93436L4.37739 9.93926L4.35917 9.88752C4.33487 9.81848 4.32372 7.44653 4.34664 7.22129C4.35541 7.13519 4.37418 7.02247 4.38836 6.97081C4.40256 6.91914 4.41766 6.86103 4.42193 6.84165L4.4297 6.80642L4.0952 6.80841C3.91121 6.80951 3.71599 6.81619 3.66137 6.82327ZM8.90766 6.84165C8.91193 6.86103 8.92703 6.91914 8.94123 6.97081C8.95541 7.02247 8.97418 7.13519 8.98295 7.22129C9.00587 7.44653 8.99472 9.81848 8.97042 9.88752L8.9522 9.93926L9.54235 9.93436C10.1167 9.92958 10.1349 9.92847 10.2224 9.89328C10.404 9.82018 10.555 9.66925 10.6285 9.48728L10.6648 9.39742V8.58333C10.6648 7.77309 10.6646 7.76869 10.6281 7.65237C10.5101 7.27651 10.2445 6.9975 9.89003 6.87694C9.73132 6.82295 9.57221 6.80642 9.21133 6.80642H8.8999L8.90766 6.84165Z" fill="#55657E"/>
</svg>
