<svg xmlns="http://www.w3.org/2000/svg" width="16" height="17" fill="none" viewBox="0 0 16 17">
  <path fill="#198CFF" d="M2.648 8.477a2.373 2.373 0 0 1 2.37-2.37h1.975c.025 0 2.586-.035 5.023-2.078a.79.79 0 0 1 1.298.604v7.687a.782.782 0 0 1-.455.716.785.785 0 0 1-.843-.11c-1.87-1.57-3.814-1.954-4.628-2.048v1.733a.788.788 0 0 1-.351.657l-.543.362a.79.79 0 0 1-1.205-.465l-.585-2.34a2.374 2.374 0 0 1-2.056-2.348Zm3.408 4.496.542-.362v-1.764H5.524l.532 2.126Zm-1.038-2.916h1.58v-3.16h-1.58a1.58 1.58 0 0 0 0 3.16Z"/>
</svg>
