<svg width="38" height="39" viewBox="0 0 38 39" fill="none" xmlns="http://www.w3.org/2000/svg">
<rect y="0.111328" width="38" height="38" rx="19" fill="#E1E4F3"/>
<path opacity="0.9" d="M19 24.9525V16.7487C19 16.0587 18.5387 15.5 17.97 15.5H17.6512C17.0825 15.5 16.6212 16.0587 16.6212 16.75V24.9537C16.6212 25.6437 17.0837 26.2037 17.6512 26.2037H17.97C18.5387 26.2037 19 25.6437 19 24.9537V24.9525Z" fill="#A9E3E3"/>
<path opacity="0.75" d="M25.9575 20.5601H23.67C22.8637 20.5601 22.2112 21.2801 22.2112 22.1688C22.2112 23.0576 22.8637 23.7788 23.6687 23.7788H25.9562C26.7625 23.7788 27.415 23.0576 27.415 22.1688C27.415 21.2813 26.7625 20.5601 25.9575 20.5601Z" fill="url(#paint0_linear_122_46661)"/>
<path opacity="0.85" d="M28.04 23.8238H9.95999C9.04124 23.8238 8.29749 24.415 8.29749 25.145V28.4475C8.29749 29.1775 9.04124 29.7688 9.95999 29.7688H28.04C28.9587 29.7688 29.7025 29.1775 29.7025 28.4475V25.145C29.7025 24.415 28.9587 23.8225 28.04 23.8225V23.8238Z" fill="url(#paint1_linear_122_46661)"/>
<path opacity="0.85" d="M17.6225 18.1189C18.3882 18.1348 19.1494 17.9978 19.8614 17.7158C20.5735 17.4338 21.2221 17.0126 21.7692 16.4767C22.3164 15.9408 22.7511 15.3011 23.0478 14.5951C23.3446 13.8891 23.4974 13.131 23.4974 12.3651C23.4974 11.5993 23.3446 10.8411 23.0478 10.1351C22.7511 9.42907 22.3164 8.78939 21.7692 8.25352C21.2221 7.71765 20.5735 7.29639 19.8614 7.0144C19.1494 6.73242 18.3882 6.5954 17.6225 6.61136C16.8568 6.5954 16.0956 6.73242 15.3836 7.0144C14.6715 7.29639 14.0229 7.71765 13.4758 8.25352C12.9286 8.78939 12.4939 9.42907 12.1972 10.1351C11.9004 10.8411 11.7476 11.5993 11.7476 12.3651C11.7476 13.131 11.9004 13.8891 12.1972 14.5951C12.4939 15.3011 12.9286 15.9408 13.4758 16.4767C14.0229 17.0126 14.6715 17.4338 15.3836 17.7158C16.0956 17.9978 16.8568 18.1348 17.6225 18.1189Z" fill="url(#paint2_linear_122_46661)"/>
<path d="M20.0525 11.1125C20.2105 11.1177 20.3678 11.0911 20.5153 11.0343C20.6627 10.9775 20.7973 10.8916 20.9109 10.7818C21.0245 10.6719 21.1148 10.5403 21.1766 10.3949C21.2383 10.2494 21.2702 10.093 21.2703 9.93499C21.2703 9.77696 21.2387 9.62054 21.1771 9.475C21.1155 9.32947 21.0253 9.19781 20.9118 9.08784C20.7983 8.97787 20.6639 8.89185 20.5165 8.83488C20.3691 8.77791 20.2117 8.75116 20.0538 8.75622C19.7479 8.76618 19.458 8.89467 19.2452 9.11452C19.0324 9.33438 18.9134 9.62837 18.9134 9.93435C18.9134 10.2403 19.0324 10.5343 19.2452 10.7542C19.458 10.974 19.7479 11.1025 20.0538 11.1125H20.0525Z" fill="white"/>
<defs>
<linearGradient id="paint0_linear_122_46661" x1="21.4237" y1="21.8088" x2="27.1712" y2="22.2538" gradientUnits="userSpaceOnUse">
<stop stop-color="#FF5A39"/>
<stop offset="0.17" stop-color="#FF5F3A"/>
<stop offset="0.35" stop-color="#FD6C3D"/>
<stop offset="0.55" stop-color="#FB8342"/>
<stop offset="0.75" stop-color="#F7A249"/>
<stop offset="0.96" stop-color="#F3CA52"/>
<stop offset="1" stop-color="#F2D254"/>
</linearGradient>
<linearGradient id="paint1_linear_122_46661" x1="7.29624" y1="26.5363" x2="30.6925" y2="26.5363" gradientUnits="userSpaceOnUse">
<stop stop-color="#F3748C"/>
<stop offset="0.22" stop-color="#F3798F"/>
<stop offset="0.46" stop-color="#F58697"/>
<stop offset="0.72" stop-color="#F79CA5"/>
<stop offset="0.98" stop-color="#FABCB9"/>
<stop offset="1" stop-color="#FABEBA"/>
</linearGradient>
<linearGradient id="paint2_linear_122_46661" x1="17.6225" y1="6.61136" x2="17.6225" y2="18.1251" gradientUnits="userSpaceOnUse">
<stop stop-color="#D3B3DB"/>
<stop offset="0.32" stop-color="#BA95C9"/>
<stop offset="0.64" stop-color="#A67DBB"/>
<stop offset="0.84" stop-color="#9F74B6"/>
</linearGradient>
</defs>
</svg>
