<svg xmlns="http://www.w3.org/2000/svg" width="18" height="18" fill="none" viewBox="0 0 18 18">
  <path fill="#4CD06E" fill-rule="evenodd" d="M15.929 9.225a6.7 6.7 0 1 0-13.4 0 6.7 6.7 0 0 0 13.4 0Zm-6.7 8a8 8 0 1 0 0-16 8 8 0 0 0 0 16Z" clip-rule="evenodd"/>
  <path fill="#4CD06E" d="M8.828 10.421c0-.36.08-.657.24-.89.167-.241.407-.502.721-.782.24-.214.417-.397.53-.55a.875.875 0 0 0 .181-.541.817.817 0 0 0-.34-.681c-.227-.174-.531-.26-.912-.26-.72 0-1.265.256-1.632.77l-.971-.63a2.774 2.774 0 0 1 1.111-.902c.454-.213.988-.32 1.603-.32.747 0 1.341.163 1.782.49.447.32.671.765.671 1.332 0 .274-.047.514-.14.721a1.97 1.97 0 0 1-.32.531c-.127.14-.294.304-.501.49a4.113 4.113 0 0 0-.571.602c-.12.173-.18.38-.18.62H8.828Zm.64 2.394a.807.807 0 0 1-.58-.22.781.781 0 0 1-.22-.561c0-.22.073-.404.22-.551a.807.807 0 0 1 .58-.22.76.76 0 0 1 .562.22.73.73 0 0 1 .23.55.767.767 0 0 1-.23.562.76.76 0 0 1-.561.22Z"/>
</svg>
