<svg xmlns="http://www.w3.org/2000/svg" width="16" height="17" fill="none" viewBox="0 0 16 17">
  <path fill="#55657E" fill-rule="evenodd" d="M6.49 3.615a.537.537 0 0 0-.14.098c-.124.132-.121.097-.121 1.502v1.288l.885.885.886.885.885-.885.886-.885V5.215c0-1.405.002-1.37-.121-1.502a.537.537 0 0 0-.14-.098c-.078-.037-.165-.039-1.51-.039-1.346 0-1.432.002-1.51.039ZM2.926 7.177a.537.537 0 0 0-.14.099c-.125.133-.12.083-.12 1.637 0 1.34.002 1.428.039 1.506a.536.536 0 0 0 .098.14c.132.123.097.12 1.502.12h1.288l.885-.885.885-.885-.885-.886-.885-.885H4.302c-1.213 0-1.297.003-1.375.04Zm6.594.846-.886.886.886.885.885.886h1.292c1.213-.001 1.296-.004 1.375-.04a.535.535 0 0 0 .14-.098c.124-.133.12-.084.12-1.633 0-1.55.004-1.5-.12-1.633a.536.536 0 0 0-.14-.099c-.079-.036-.162-.038-1.375-.039h-1.292l-.885.885Zm-2.412 2.412-.88.88v1.292c0 1.213.003 1.297.04 1.375a.536.536 0 0 0 .098.14c.132.124.085.12 1.616.12.914 0 1.43-.008 1.48-.022a.475.475 0 0 0 .269-.238c.035-.078.038-.17.038-1.375v-1.292l-.88-.88c-.484-.484-.885-.88-.89-.88-.006 0-.407.396-.891.88Z" clip-rule="evenodd"/>
</svg>
