<svg xmlns="http://www.w3.org/2000/svg" width="13" height="13" fill="none" viewBox="0 0 13 13">
  <path fill="#fff" d="M9.41 8.35c-.38 0-.72.15-.98.385L4.867 6.66c.025-.115.045-.23.045-.35 0-.12-.02-.235-.045-.35L8.39 3.905a1.498 1.498 0 0 0 2.52-1.095c0-.83-.67-1.5-1.5-1.5s-1.5.67-1.5 1.5c0 .12.02.235.045.35L4.43 5.215A1.498 1.498 0 0 0 1.91 6.31a1.498 1.498 0 0 0 2.52 1.095l3.56 2.08a1.41 1.41 0 0 0-.04.325c0 .805.655 1.46 1.46 1.46.805 0 1.46-.655 1.46-1.46 0-.805-.655-1.46-1.46-1.46Z"/>
</svg>
