<svg xmlns="http://www.w3.org/2000/svg" width="16" height="17" fill="none" viewBox="0 0 16 17">
  <path fill="#55657E" fill-rule="evenodd" d="M7.698 3.602a2.498 2.498 0 0 0-1.401.68 2.514 2.514 0 0 0-.435.572l-.05.1H4.348c-1.423 0-1.465 0-1.53.041-.142.086-.151.126-.151.62v.443h10.666v-.439c0-.472-.005-.502-.114-.603l-.056-.052-1.484-.006-1.484-.005-.086-.151a2.453 2.453 0 0 0-2.411-1.2ZM2.666 7.068v.385h10.667v-.77H2.667v.385Zm0 3.458v2.365H5.75V8.162H2.666v2.364Zm3.709 0v2.365h3.208V8.162H6.375v2.364Zm3.833 0v2.365h3.125V8.162h-3.125v2.364ZM4.995 9.408c.088.063.13.146.13.257 0 .072-.025.13-.135.31-.36.591-.569 1.118-.612 1.546a.707.707 0 0 1-.054.235.328.328 0 0 1-.422.094c-.125-.076-.159-.194-.13-.448.039-.35.172-.755.394-1.205.058-.115.105-.213.105-.216 0-.004-.172-.007-.381-.007-.354 0-.388-.003-.474-.047a.295.295 0 0 1 0-.532c.093-.047.1-.047.803-.041.703.006.708.006.776.054Zm3.754-.012a.27.27 0 0 1 .16.287c-.006.069-.045.154-.148.322-.35.575-.55 1.076-.594 1.493-.01.1-.034.21-.052.246-.106.205-.427.193-.538-.02-.109-.208.066-.912.384-1.547l.102-.203h-.37c-.416 0-.501-.016-.576-.105a.307.307 0 0 1-.01-.405c.086-.109.118-.113.862-.114.674 0 .69 0 .78.046Zm3.805.007c.102.076.144.15.143.255 0 .084-.02.131-.153.348-.33.54-.538 1.06-.593 1.48-.033.254-.053.303-.155.367-.055.034-.093.04-.183.034a.278.278 0 0 1-.25-.167c-.113-.216.101-1.033.427-1.635l.06-.11h-.382c-.405 0-.464-.011-.556-.1a.289.289 0 0 1-.022-.403c.102-.12.114-.122.895-.117.682.004.714.006.77.048Zm-9.887 4.343c0 .287.022.363.127.439l.07.05h10.271l.065-.047c.11-.078.133-.157.133-.44v-.253H2.667v.25Z" clip-rule="evenodd"/>
</svg>
