<svg xmlns="http://www.w3.org/2000/svg" width="48" height="48" fill="none" viewBox="0 0 48 48">
  <path fill="#fff" fill-rule="evenodd" d="M22.684.68c-2.255.288-4.503 1.379-6.13 2.974-.739.726-1.512 1.744-1.9 2.505l-.222.433H8.03c-6.227 0-6.41.006-6.698.182-.617.376-.66.55-.66 2.712v1.937h46.667V9.504c0-2.065-.025-2.194-.5-2.639l-.244-.227-6.493-.025-6.492-.025-.377-.658C31.137 2.262 26.883.146 22.683.68ZM.672 15.844v1.686h46.667v-3.372H.672v1.686Zm0 15.13V41.32h13.49V20.628H.671v10.346Zm16.224 0V41.32h14.036V20.628H16.896v10.346Zm16.77 0V41.32H47.34V20.628H33.666v10.346ZM10.86 26.083c.384.273.568.638.568 1.123 0 .317-.108.565-.59 1.355-1.577 2.589-2.49 4.891-2.679 6.764-.047.469-.143.892-.233 1.03-.373.57-1.263.768-1.847.412-.546-.333-.696-.848-.572-1.96.172-1.532.753-3.306 1.728-5.271.25-.506.456-.933.456-.948 0-.016-.75-.029-1.667-.029-1.547 0-1.696-.014-2.073-.205a1.292 1.292 0 0 1 .003-2.327c.407-.207.437-.208 3.51-.183 3.078.026 3.1.028 3.396.239Zm16.424-.053c.518.266.759.694.703 1.253-.03.302-.202.675-.652 1.413-1.532 2.513-2.404 4.707-2.595 6.532-.046.434-.15.918-.23 1.075-.464.896-1.869.843-2.356-.09-.474-.907.292-3.987 1.683-6.765l.444-.889h-1.618c-1.82 0-2.191-.069-2.521-.461-.457-.544-.472-1.22-.039-1.772.374-.476.512-.494 3.77-.498 2.947-.003 3.02.001 3.411.202Zm16.648.028c.447.334.628.657.627 1.118-.001.369-.092.574-.67 1.52-1.448 2.368-2.357 4.636-2.595 6.478-.143 1.11-.235 1.326-.682 1.604-.238.149-.406.18-.798.147-.532-.044-.85-.255-1.096-.728-.491-.943.445-4.521 1.87-7.153l.263-.485h-1.672c-1.772 0-2.029-.045-2.433-.43a1.265 1.265 0 0 1-.094-1.767c.445-.529.498-.536 3.913-.513 2.987.02 3.126.03 3.367.21ZM.671 45.06c0 1.256.098 1.59.56 1.92l.307.218h44.935l.285-.203c.476-.34.58-.685.58-1.93v-1.102H.673v1.096Z" clip-rule="evenodd"/>
</svg>
