<svg xmlns="http://www.w3.org/2000/svg" width="9" height="9" fill="none" viewBox="0 0 9 9">
  <path fill="#6F778D" fill-rule="evenodd" d="M2.367 1.172v.204H1.06l-.08.04a.353.353 0 0 0-.186.221C.762 1.744.764 2.82.796 3.01c.067.39.231.715.497.981.266.268.56.429.93.51.072.016.134.032.138.036.004.004.014.097.023.208.045.6.28 1.115.702 1.537.19.19.354.311.585.432.151.079.397.173.52.2.028.006.05.02.05.03 0 .01-.06.198-.133.42l-.134.4-.503.005-.504.005-.077.04c-.13.067-.157.118-.34.649-.093.265-.168.488-.168.495 0 .015 4.782.015 4.782 0 0-.007-.075-.23-.167-.495-.184-.531-.211-.582-.34-.649l-.078-.04-.504-.005-.503-.004-.134-.402a9.07 9.07 0 0 1-.134-.42c0-.01.023-.023.051-.029a2.71 2.71 0 0 0 .52-.2c.231-.12.394-.241.585-.432.422-.422.657-.937.702-1.537a1.75 1.75 0 0 1 .023-.208c.004-.004.066-.02.137-.036a1.95 1.95 0 0 0 .716-.317c.138-.101.336-.31.431-.456a1.76 1.76 0 0 0 .28-.718c.033-.191.035-1.266.003-1.373a.353.353 0 0 0-.186-.222l-.08-.04H7.179V.97H2.367v.203Zm0 1.774c0 .425-.006.773-.012.773a1.085 1.085 0 0 1-.743-.727c-.026-.078-.032-.15-.038-.456l-.008-.364h.8v.774Zm5.605-.41c-.007.338-.01.372-.048.488a1.04 1.04 0 0 1-.694.69l-.05.01V2.171h.8l-.008.364Zm-3.137.172.176.39.125.277.413.004.414.004-.29.387a4.71 4.71 0 0 0-.29.41c0 .014.042.194.094.401a7.4 7.4 0 0 1 .09.38 9.676 9.676 0 0 1-.4-.214l-.394-.218-.395.218a9.68 9.68 0 0 1-.399.214 7.38 7.38 0 0 1 .09-.38c.052-.207.095-.387.095-.4a4.59 4.59 0 0 0-.29-.411l-.29-.387.413-.004.413-.004.125-.277.176-.39a.435.435 0 0 1 .062-.114c.006 0 .034.051.062.114Z" clip-rule="evenodd"/>
</svg>
