<svg xmlns="http://www.w3.org/2000/svg" width="35" height="35" fill="none" viewBox="0 0 35 35">
  <rect width="34" height="34" x=".8" y=".31" fill="#262B3D" rx="17"/>
  <path fill="#55657E" fill-rule="evenodd" d="m17.327 23.666-3.679 2.021c-.497.273-1.111.074-1.373-.446a1.104 1.104 0 0 1-.102-.674l.703-4.28a1.092 1.092 0 0 0-.292-.94l-2.977-3.033a1.096 1.096 0 0 1-.018-1.502c.156-.167.36-.276.582-.31l4.113-.624c.33-.05.617-.268.765-.581l1.84-3.895c.248-.526.858-.742 1.361-.482.2.103.363.272.462.482l1.84 3.895c.147.313.433.53.765.581l4.113.625c.555.084.94.623.86 1.204a1.08 1.08 0 0 1-.297.607l-2.976 3.032c-.24.244-.349.596-.293.94l.703 4.281c.095.579-.277 1.128-.83 1.227a.978.978 0 0 1-.645-.107l-3.679-2.02a.978.978 0 0 0-.946 0Z" clip-rule="evenodd"/>
</svg>
