<svg width="20" height="21" viewBox="0 0 20 21" fill="none" xmlns="http://www.w3.org/2000/svg">
<g clip-path="url(#clip0_1_9512)">
<path d="M19.7017 13.0416C18.3659 18.3988 12.9394 21.6591 7.58099 20.3232C2.22479 18.9876 -1.03586 13.5613 0.300527 8.20443C1.63567 2.84662 7.06218 -0.414008 12.419 0.921617C17.7771 2.25724 21.0374 7.68412 19.7017 13.0416Z" fill="#26A17B"/>
<path d="M3.21132 8.93059L3.21151 8.92983C4.14598 5.17988 7.94417 2.89774 11.6932 3.8325L11.6934 3.83254C15.4435 4.76736 17.7257 8.56585 16.7908 12.3159C15.8559 16.065 12.0579 18.3474 8.30685 17.4123C4.55816 16.4775 2.27606 12.6795 3.21132 8.93059Z" stroke="white" stroke-opacity="0.24" stroke-width="6"/>
<g style="mix-blend-mode:screen" opacity="0.3">
<path d="M19.4035 7.2248L0.128988 12.2258C-0.0826192 10.9261 -0.0393656 9.56315 0.299551 8.20462C1.63469 2.84681 7.06121 -0.413818 12.418 0.921807C15.7742 1.75842 18.3074 4.20027 19.4035 7.2248Z" fill="white"/>
</g>
<g filter="url(#filter0_di_1_9512)">
<path d="M17.8818 12.5881C16.7965 16.9407 12.3874 19.5897 8.03376 18.5043C3.68185 17.4191 1.03257 13.0103 2.11839 8.65788C3.20319 4.3047 7.61223 1.65547 11.9646 2.74066C16.3181 3.82584 18.9671 8.23513 17.8818 12.5881Z" fill="#26A17B"/>
</g>
<g filter="url(#filter1_d_1_9512)">
<path d="M15 10.6211C15 9.99059 13.2843 9.4645 11.0042 9.34313L11.004 8.33845H13.8509V6.24756H6.06634V8.33845H8.91301V9.34804C6.67449 9.47774 5 9.99834 5 10.6211C5 11.244 6.67449 11.7647 8.91301 11.8942V15.5019H11.004V11.8991C13.2843 11.778 15 11.2517 15 10.6211ZM9.99998 11.2423C7.55266 11.2423 5.56867 10.8635 5.56867 10.396C5.56867 10.0002 6.9913 9.66781 8.91301 9.57534V9.81362L8.91323 10.7901C9.25969 10.8095 9.62382 10.8197 9.99998 10.8197C10.3464 10.8197 10.6827 10.8109 11.0043 10.7948V9.57171C12.9676 9.65852 14.4314 9.99435 14.4314 10.396C14.4313 10.8635 12.4473 11.2423 9.99998 11.2423Z" fill="white"/>
</g>
</g>
<defs>
<filter id="filter0_di_1_9512" x="0.875" y="2.49752" width="17.25" height="18.25" filterUnits="userSpaceOnUse" color-interpolation-filters="sRGB">
<feFlood flood-opacity="0" result="BackgroundImageFix"/>
<feColorMatrix in="SourceAlpha" type="matrix" values="0 0 0 0 0 0 0 0 0 0 0 0 0 0 0 0 0 0 127 0" result="hardAlpha"/>
<feOffset dx="-1" dy="1"/>
<feColorMatrix type="matrix" values="0 0 0 0 1 0 0 0 0 1 0 0 0 0 1 0 0 0 0.32 0"/>
<feBlend mode="normal" in2="BackgroundImageFix" result="effect1_dropShadow_1_9512"/>
<feBlend mode="normal" in="SourceGraphic" in2="effect1_dropShadow_1_9512" result="shape"/>
<feColorMatrix in="SourceAlpha" type="matrix" values="0 0 0 0 0 0 0 0 0 0 0 0 0 0 0 0 0 0 127 0" result="hardAlpha"/>
<feOffset dx="-1" dy="2"/>
<feGaussianBlur stdDeviation="1"/>
<feComposite in2="hardAlpha" operator="arithmetic" k2="-1" k3="1"/>
<feColorMatrix type="matrix" values="0 0 0 0 0 0 0 0 0 0 0 0 0 0 0 0 0 0 0.16 0"/>
<feBlend mode="normal" in2="shape" result="effect2_innerShadow_1_9512"/>
</filter>
<filter id="filter1_d_1_9512" x="3" y="6.24756" width="12" height="11.2544" filterUnits="userSpaceOnUse" color-interpolation-filters="sRGB">
<feFlood flood-opacity="0" result="BackgroundImageFix"/>
<feColorMatrix in="SourceAlpha" type="matrix" values="0 0 0 0 0 0 0 0 0 0 0 0 0 0 0 0 0 0 127 0" result="hardAlpha"/>
<feOffset dx="-1" dy="1"/>
<feGaussianBlur stdDeviation="0.5"/>
<feColorMatrix type="matrix" values="0 0 0 0 0 0 0 0 0 0 0 0 0 0 0 0 0 0 0.08 0"/>
<feBlend mode="normal" in2="BackgroundImageFix" result="effect1_dropShadow_1_9512"/>
<feBlend mode="normal" in="SourceGraphic" in2="effect1_dropShadow_1_9512" result="shape"/>
</filter>
<clipPath id="clip0_1_9512">
<rect width="20" height="20" fill="white" transform="translate(0 0.622559)"/>
</clipPath>
</defs>
</svg>
