<svg xmlns="http://www.w3.org/2000/svg" width="16" height="16" fill="none" viewBox="0 0 16 16">
  <path fill="#C53BC4" fill-rule="evenodd" d="M5.997.672v.672h1.344v.665l.128-.02a6.954 6.954 0 0 1 1.058-.001l.158.02v-.664h1.313V0h-4v.672ZM12.015 2l-.468.47.264.265.265.266-.296.296-.297.297-.485-.243a6.649 6.649 0 0 0-4.903-.455c-.909.26-1.677.67-2.416 1.29-1.01.845-1.796 2.108-2.135 3.434-.167.652-.188.843-.187 1.71.002.76.007.84.086 1.22.046.223.125.54.174.703.925 3.047 3.952 5.062 7.068 4.706 1.35-.154 2.447-.61 3.49-1.449a6.312 6.312 0 0 0 1.387-1.58 7.182 7.182 0 0 0 1.022-2.614c.079-.424.078-1.764-.002-2.173-.189-.967-.516-1.785-1.005-2.517a5.983 5.983 0 0 0-.794-.976l-.236-.242.233-.235.233-.235.267.266.267.266.468-.47.468-.468-1-1-1-1-.468.468ZM7.998 6.94v2.344h4.681l-.013.21a4.9 4.9 0 0 1-.497 1.92 5.052 5.052 0 0 1-1.296 1.558 4.713 4.713 0 0 1-5.454.202c-1.31-.865-2.076-2.3-2.078-3.898-.004-2.502 1.906-4.514 4.422-4.66.086-.006.174-.012.196-.015.03-.005.039.48.039 2.338Z" clip-rule="evenodd"/>
</svg>
