<svg width="17" height="17" viewBox="0 0 17 17" fill="none" xmlns="http://www.w3.org/2000/svg">
<path fill-rule="evenodd" clip-rule="evenodd" d="M4.07266 0.144751C3.99235 0.184605 3.91946 0.253842 3.87557 0.331956L3.8059 0.455894L3.81737 2.41784L3.82884 4.37978L3.91008 4.70799C4.36007 6.52637 5.67257 7.83749 7.46653 8.26066C7.88108 8.35844 8.66309 8.39401 9.10014 8.33493C11.249 8.04455 12.9236 6.30747 13.1543 4.12972C13.1788 3.8986 13.1875 3.23067 13.181 2.09241C13.1714 0.438577 13.1696 0.396879 13.1067 0.312607C13.0712 0.265157 13.0034 0.197327 12.9559 0.16188C12.8698 0.0976138 12.858 0.0973951 8.53484 0.0894556C4.23798 0.0815473 4.19894 0.0820473 4.07266 0.144751ZM8.62093 0.956399C8.67969 0.973247 8.76399 1.02182 8.80829 1.06433C8.85255 1.10681 9.0491 1.46337 9.24503 1.85663L9.60124 2.57166L10.3997 2.68822C11.2465 2.81185 11.3335 2.83864 11.4385 3.00812C11.5058 3.11686 11.5196 3.35743 11.4649 3.46755C11.4462 3.50509 11.1705 3.78901 10.8521 4.09846L10.2734 4.66111L10.4042 5.4113C10.5595 6.30175 10.5586 6.41297 10.3957 6.57592C10.3015 6.6701 10.2579 6.68954 10.1144 6.70145C9.94752 6.71529 9.93214 6.70898 9.22199 6.3347L8.49939 5.95388L7.7754 6.3347C7.06415 6.70882 7.04839 6.71526 6.88163 6.70145C6.73819 6.68954 6.69458 6.67006 6.6004 6.57592C6.43745 6.41294 6.43664 6.30175 6.592 5.4113L6.7229 4.66111L6.1446 4.09846C5.82652 3.78901 5.5496 3.5029 5.52919 3.46267C5.47392 3.35377 5.48408 3.13021 5.54938 3.01931C5.65413 2.84135 5.73865 2.81472 6.59131 2.69125C7.0297 2.62777 7.39033 2.57382 7.3927 2.57132C7.39511 2.56885 7.55887 2.24329 7.75667 1.84788C7.95447 1.45246 8.15115 1.09656 8.19369 1.05699C8.26208 0.993408 8.3904 0.936331 8.48264 0.928454C8.49993 0.926985 8.56216 0.939551 8.62093 0.956399ZM0.711598 1.15301C0.490041 1.30102 0.492667 1.28001 0.504076 2.81688L0.514297 4.19224L0.599069 4.46674C0.846352 5.26758 1.35645 5.87711 2.06973 6.22407C2.45314 6.41059 2.77082 6.48858 3.2416 6.51174L3.62726 6.53072L3.47287 6.22107C3.38798 6.05078 3.29323 5.84416 3.26232 5.76192C3.23144 5.67972 3.1923 5.60388 3.17536 5.59341C3.15842 5.58294 3.04445 5.55546 2.92211 5.53236C2.4197 5.43746 1.88049 5.03549 1.65465 4.58746C1.4567 4.19474 1.43372 4.02644 1.43372 2.96876V2.02099L2.14484 2.01258L2.85597 2.00417L2.86462 1.54311L2.87325 1.08206H1.84555C0.829097 1.08206 0.816625 1.08284 0.711598 1.15301ZM14.1245 1.55093V2.0198H14.8434H15.5624V2.96817C15.5624 3.80307 15.5552 3.9448 15.502 4.15266C15.4082 4.5196 15.2734 4.75435 15.0033 5.02164C14.679 5.3425 14.3706 5.49529 13.9019 5.56719C13.8009 5.58269 13.7827 5.60051 13.7331 5.73235C13.7026 5.81366 13.6094 6.01705 13.5259 6.18438C13.4425 6.35167 13.3743 6.49799 13.3743 6.50952C13.3743 6.55244 14.1459 6.4913 14.3902 6.42903C15.3413 6.18663 16.0929 5.45169 16.397 4.46674L16.4818 4.19224L16.492 2.81688C16.5034 1.28001 16.5061 1.30102 16.2845 1.15301C16.1795 1.08284 16.167 1.08206 15.1514 1.08206H14.1245V1.55093ZM8.27077 2.91119C8.11311 3.22758 8.03631 3.34824 7.96504 3.39159C7.91024 3.42491 7.72122 3.47171 7.5197 3.50187C7.32715 3.53069 7.12148 3.5627 7.06268 3.57295L6.95578 3.59164L7.30227 3.92432C7.72535 4.33055 7.72541 4.33077 7.62761 4.91117C7.58994 5.13467 7.55937 5.3335 7.55971 5.35304C7.56003 5.37257 7.7326 5.29602 7.94322 5.1829C8.47039 4.89973 8.5295 4.89973 9.05288 5.18255C9.2635 5.2964 9.43608 5.37332 9.43639 5.35351C9.43673 5.33372 9.40616 5.13467 9.36849 4.91117C9.27128 4.33434 9.27138 4.33405 9.68827 3.93286C9.87628 3.75197 10.0243 3.59814 10.0172 3.59105C10.0101 3.58398 9.80958 3.54998 9.57158 3.51553C9.33358 3.48108 9.09664 3.42923 9.04507 3.40031C8.97402 3.36049 8.89831 3.24374 8.73249 2.91828C8.61214 2.68206 8.5064 2.48876 8.49752 2.48873C8.48861 2.4887 8.38658 2.67881 8.27077 2.91119ZM7.24773 10.0029V10.8346H8.46679H9.68586V10.0219C9.68586 9.25401 9.6827 9.20916 9.62844 9.20916C9.59684 9.20916 9.43157 9.23016 9.26115 9.25586C8.73546 9.3351 7.77264 9.30287 7.32744 9.19112L7.24773 9.17112V10.0029ZM5.41957 11.8401C5.24821 11.9749 5.24721 11.9852 5.24721 13.6312V15.1482H4.94451C4.70566 15.1482 4.61455 15.1614 4.51264 15.2107C4.36404 15.2826 4.24695 15.4617 4.24695 15.6171C4.24695 15.7609 4.35982 15.9426 4.49714 16.0197L4.61492 16.0859L8.51793 16.0854L12.4209 16.0849L12.5427 16.0151C12.6097 15.9767 12.6906 15.8963 12.7225 15.8364C12.8411 15.6133 12.7631 15.3454 12.5427 15.219C12.4377 15.1588 12.3749 15.1492 12.0858 15.1487L11.7506 15.1482L11.7419 13.5875C11.7334 12.0588 11.7319 12.0251 11.6677 11.9387C11.6317 11.8902 11.5684 11.8331 11.5271 11.8119C11.469 11.782 10.7763 11.7731 8.47883 11.7728L5.50571 11.7723L5.41957 11.8401ZM10.4354 13.2024C10.5916 13.2809 10.6861 13.4371 10.6861 13.6165C10.6861 13.796 10.5916 13.9522 10.4354 14.0307C10.3356 14.0808 10.1766 14.0853 8.49805 14.0853C6.81946 14.0853 6.66054 14.0808 6.56067 14.0307C6.22606 13.8625 6.22606 13.3705 6.56067 13.2024C6.66054 13.1523 6.81946 13.1478 8.49805 13.1478C10.1766 13.1478 10.3356 13.1523 10.4354 13.2024Z" fill="#642E94"/>
</svg>
