<svg width="12" height="10" viewBox="0 0 12 10" fill="none" xmlns="http://www.w3.org/2000/svg">
<path d="M0.558838 0.999999C0.558838 0.631809 0.857315 0.333332 1.2255 0.333332H10.5588C10.927 0.333332 11.2255 0.631809 11.2255 0.999999C11.2255 1.36819 10.927 1.66667 10.5588 1.66667H1.2255C0.857315 1.66667 0.558838 1.36819 0.558838 0.999999ZM0.558838 3.66667C0.558838 3.29848 0.857315 3 1.2255 3H10.5588C10.927 3 11.2255 3.29848 11.2255 3.66667C11.2255 4.03486 10.927 4.33333 10.5588 4.33333H1.2255C0.857315 4.33333 0.558838 4.03486 0.558838 3.66667ZM0.558838 6.33333C0.558838 5.96514 0.857315 5.66667 1.2255 5.66667H10.5588C10.927 5.66667 11.2255 5.96514 11.2255 6.33333C11.2255 6.70152 10.927 7 10.5588 7H1.2255C0.857315 7 0.558838 6.70152 0.558838 6.33333ZM0.558838 9C0.558838 8.63181 0.857315 8.33333 1.2255 8.33333H10.5588C10.927 8.33333 11.2255 8.63181 11.2255 9C11.2255 9.36819 10.927 9.66667 10.5588 9.66667H1.2255C0.857315 9.66667 0.558838 9.36819 0.558838 9Z" fill="white"/>
</svg>
