<svg width="38" height="13" viewBox="0 0 38 13" fill="none" xmlns="http://www.w3.org/2000/svg">
<path d="M16.371 12.3273H13.3107L15.2248 0.710938H18.2849L16.371 12.3273Z" fill="#00579F"/>
<path d="M27.4634 0.994553C26.8597 0.759513 25.9023 0.5 24.7185 0.5C21.6964 0.5 19.5683 2.08171 19.5552 4.34309C19.5301 6.01153 21.0789 6.93822 22.2373 7.49453C23.4213 8.06299 23.8237 8.43403 23.8237 8.94074C23.8117 9.71895 22.867 10.0777 21.9859 10.0777C20.7641 10.0777 20.1095 9.89272 19.1146 9.45976L18.7116 9.27416L18.2834 11.8818C19.0011 12.2027 20.3235 12.4875 21.6964 12.5C24.9075 12.5 26.998 10.9428 27.0227 8.53291C27.0349 7.21054 26.2171 6.19729 24.454 5.36932C23.3836 4.83781 22.7281 4.47942 22.7281 3.93559C22.7407 3.4412 23.2825 2.93482 24.4908 2.93482C25.4857 2.91002 26.2166 3.14473 26.7704 3.37961L27.0472 3.50296L27.4634 0.994553Z" fill="#00579F"/>
<path d="M31.5318 8.21201C31.7838 7.54466 32.7536 4.96185 32.7536 4.96185C32.7409 4.98666 33.0051 4.28219 33.1562 3.84973L33.3701 4.85066C33.3701 4.85066 33.9496 7.63122 34.0754 8.21201C33.5972 8.21201 32.1362 8.21201 31.5318 8.21201ZM35.3093 0.710938H32.9422C32.2122 0.710938 31.6576 0.920847 31.3427 1.67475L26.7971 12.3271H30.0081C30.0081 12.3271 30.5367 10.8934 30.6504 10.5846C31.0026 10.5846 34.1263 10.5846 34.5795 10.5846C34.6673 10.9924 34.9446 12.3271 34.9446 12.3271H37.7781L35.3093 0.710938Z" fill="#00579F"/>
<path d="M10.7549 0.710938L7.75792 8.63216L7.43042 7.02565C6.87634 5.17193 5.13861 3.15792 3.1994 2.15649L5.94455 12.3149H9.1807L13.9909 0.710938H10.7549Z" fill="#00579F"/>
<path d="M4.97422 0.710938H0.0505542L0.000183105 0.945649C3.84095 1.90962 6.38462 4.23325 7.4297 7.02614L6.35935 1.6874C6.18313 0.945485 5.6416 0.735411 4.97422 0.710938Z" fill="#FAA61A"/>
</svg>
