<svg width="32" height="33" viewBox="0 0 32 33" fill="none" xmlns="http://www.w3.org/2000/svg">
<g clip-path="url(#clip0_227_12771)">
<path d="M32 16.1338C32 20.3773 30.3143 24.4469 27.3137 27.4475C24.3131 30.4481 20.2435 32.1338 16 32.1338C11.7565 32.1338 7.68687 30.4481 4.68629 27.4475C1.68571 24.4469 0 20.3773 0 16.1338C0 11.8903 1.68571 7.82066 4.68629 4.82008C7.68687 1.8195 11.7565 0.133789 16 0.133789C20.2435 0.133789 24.3131 1.8195 27.3137 4.82008C30.3143 7.82066 32 11.8903 32 16.1338Z" fill="#3D96FC"/>
<path d="M15.9996 14.5338L20.9996 19.7338L26.0996 14.6338L28.2996 16.7338L20.9996 24.1338L15.9996 19.0338L10.7996 24.1338L3.59961 16.8338L5.69961 14.7338L10.7996 19.7338L15.8996 14.7338L15.9996 14.5338ZM23.8996 12.1338L23.9996 12.2338L21.6996 14.6338C17.6996 10.8338 14.1996 10.7338 10.1996 14.6338H9.99961L7.69961 12.2338C12.8996 7.23379 18.4996 7.23379 23.6996 12.1338H23.8996Z" fill="white"/>
</g>
<defs>
<clipPath id="clip0_227_12771">
<rect width="32" height="32" fill="white" transform="translate(0 0.133789)"/>
</clipPath>
</defs>
</svg>
