<svg xmlns="http://www.w3.org/2000/svg" width="17" height="17" fill="none" viewBox="0 0 17 17">
  <path fill="#E14680" fill-rule="evenodd" d="M7.265.053c-.232.065-.513.22-.694.383a1.587 1.587 0 0 0-.288 2.032c.078.13.576.674 1.478 1.618.748.783 1.368 1.42 1.38 1.416.01-.005.623-.64 1.36-1.41.826-.864 1.392-1.482 1.475-1.61.183-.282.262-.55.262-.882 0-.516-.244-.962-.703-1.284a1.435 1.435 0 0 0-.897-.29C10.22.03 9.902.159 9.53.474c-.287.243-.501.25-.76.026a2.178 2.178 0 0 0-.649-.398C7.878.01 7.495-.012 7.265.053ZM4.43 3.006c-.805.174-1.454.949-1.454 1.737 0 .376.131.706.412 1.038.27.32.273.519.008.829-.483.564-.56 1.21-.222 1.854.126.242.511.626.757.756.544.288 1.19.254 1.687-.089.117-.08.689-.653 1.517-1.52a64.202 64.202 0 0 0 1.329-1.414 63.4 63.4 0 0 0-1.343-1.422C5.717 3.308 5.595 3.199 5.22 3.072c-.219-.075-.6-.107-.789-.066Zm8.74.02c-.223.06-.455.17-.599.283-.063.05-.631.631-1.263 1.293-.631.663-1.23 1.29-1.332 1.393l-.183.188 1.192 1.14c1.72 1.646 1.744 1.668 2.027 1.809.322.161.616.213.922.163.432-.07.815-.318 1.084-.7.437-.623.372-1.385-.171-2.016-.242-.28-.235-.472.03-.8.294-.366.42-.686.419-1.065a1.5 1.5 0 0 0-.17-.709c-.381-.76-1.215-1.177-1.956-.978ZM8.027 8.03C6.403 9.728 6.34 9.8 6.2 10.078c-.155.31-.211.617-.165.913.131.854.998 1.505 1.818 1.367a2.04 2.04 0 0 0 .876-.424c.285-.244.438-.265.678-.094.627.447.794.518 1.222.517.21 0 .326-.019.49-.077.699-.246 1.24-.964 1.239-1.641-.001-.342-.157-.787-.361-1.03a54.964 54.964 0 0 0-1.167-1.135c-.596-.57-1.217-1.168-1.38-1.329l-.298-.291L8.027 8.03Zm.955 4.89a1.77 1.77 0 0 1-.231.13l-.091.038.018.377c.022.445.073.654.254 1.034a2.66 2.66 0 0 0 1.988 1.484c.111.018.609.032 1.105.033.768 0 .918-.008 1.009-.05.311-.148.346-.6.063-.803-.095-.068-.127-.07-1.114-.087-.993-.017-1.021-.019-1.225-.097a1.759 1.759 0 0 1-1.152-1.662v-.225l-.234-.133a4.511 4.511 0 0 0-.242-.133c-.004 0-.071.042-.148.093Z" clip-rule="evenodd"/>
</svg>
