<svg width="32" height="33" viewBox="0 0 32 33" fill="none" xmlns="http://www.w3.org/2000/svg">
<rect y="0.401733" width="32" height="32" rx="16" fill="#E1E4F3"/>
<path d="M16.199 19.8917C15.9369 19.8895 15.6752 19.8729 15.415 19.8417V22.4277H16.987V19.8427C16.7254 19.8737 16.4624 19.89 16.199 19.8917Z" fill="#FFC107"/>
<path opacity="0.8" d="M21.828 25.8217V22.6537C21.828 22.4667 21.601 22.3157 21.322 22.3157H10.855C10.575 22.3157 10.349 22.4667 10.349 22.6537V25.8217C10.349 26.0087 10.576 26.1607 10.855 26.1607H21.322C21.602 26.1607 21.828 26.0087 21.828 25.8207V25.8217Z" fill="url(#paint0_linear_197_29243)"/>
<path d="M7.938 17.0857C7.308 17.0857 6.706 16.7927 6.261 16.2717C5.816 15.7517 5.567 15.0447 5.567 14.3077C5.567 12.7197 6.712 11.8907 7.819 11.0847C8.836 10.3387 9.821 9.63171 9.821 8.39771C9.822 8.16171 9.771 7.92971 9.675 7.72271C9.58351 7.52228 9.44365 7.34772 9.268 7.21471C9.10541 7.08973 8.90953 7.01556 8.70493 7.00151C8.50034 6.98745 8.29616 7.03414 8.118 7.13571C7.9306 7.24388 7.77424 7.39852 7.664 7.58471C7.547 7.77671 7.474 7.99971 7.451 8.23471C7.428 8.46871 7.456 8.70671 7.533 8.92471C7.61 9.14271 7.733 9.33471 7.89 9.48071C7.91751 9.50548 7.93992 9.53537 7.956 9.56871C7.99051 9.63883 7.99901 9.71891 7.98 9.79471C7.97099 9.83153 7.95541 9.86643 7.934 9.89771C7.91501 9.92678 7.89018 9.95157 7.86108 9.97051C7.83199 9.98944 7.79926 10.0021 7.765 10.0077C7.73164 10.0122 7.6977 10.0094 7.66556 9.99938C7.63342 9.98936 7.60387 9.9724 7.579 9.94971C7.34598 9.73209 7.16897 9.46142 7.063 9.16071C6.95025 8.84606 6.90759 8.51057 6.938 8.17771C6.968 7.84371 7.07 7.52371 7.235 7.24771C7.39092 6.98053 7.61306 6.75804 7.88 6.60171C8.138 6.45371 8.424 6.38571 8.71 6.40371C8.998 6.42071 9.276 6.52371 9.52 6.70171C9.763 6.88071 9.964 7.12871 10.103 7.42271C10.243 7.71671 10.316 8.04771 10.316 8.38471C10.316 9.94871 9.178 10.7657 8.076 11.5597C7.06 12.3137 6.065 13.0247 6.065 14.2787C6.065 14.6647 6.151 15.0437 6.315 15.3777C6.48 15.7117 6.717 15.9887 7.003 16.1817C7.288 16.3747 7.611 16.4757 7.941 16.4747C8.27 16.4747 8.593 16.3717 8.878 16.1787C9.163 15.9847 9.399 15.7067 9.563 15.3717C9.727 15.0367 9.813 14.6577 9.811 14.2717C9.81105 13.891 9.72382 13.5154 9.556 13.1737C9.39945 12.8516 9.16163 12.5759 8.866 12.3737C8.80705 12.3313 8.76576 12.2686 8.75 12.1977C8.73239 12.1237 8.73977 12.046 8.771 11.9767C8.78582 11.9453 8.8067 11.9171 8.83245 11.8938C8.85819 11.8704 8.88828 11.8524 8.921 11.8407C8.95237 11.8305 8.98563 11.8275 9.01834 11.8318C9.05104 11.8361 9.08236 11.8477 9.11 11.8657C9.576 12.1627 9.944 12.6337 10.155 13.2047C10.365 13.7747 10.406 14.4127 10.271 15.0137C10.1484 15.5939 9.8473 16.1212 9.41 16.5217C9.00828 16.8889 8.48224 17.0901 7.938 17.0847V17.0857ZM24.233 17.0857C23.6907 17.0903 23.1668 16.8891 22.767 16.5227C22.3311 16.1232 22.0305 15.5979 21.907 15.0197C21.7713 14.4191 21.8098 13.7922 22.018 13.2127C22.226 12.6417 22.59 12.1687 23.053 11.8687C23.0804 11.8507 23.1116 11.839 23.1441 11.8347C23.1767 11.8304 23.2098 11.8334 23.241 11.8437C23.2739 11.8553 23.3042 11.8734 23.3299 11.897C23.3557 11.9205 23.3765 11.949 23.391 11.9807C23.422 12.0477 23.43 12.1267 23.413 12.2007C23.3981 12.2715 23.3579 12.3344 23.3 12.3777C23.0042 12.5801 22.7664 12.8562 22.61 13.1787C22.4424 13.5212 22.3555 13.8975 22.356 14.2787C22.355 14.6637 22.44 15.0437 22.604 15.3787C22.767 15.7137 23.004 15.9927 23.287 16.1857C23.572 16.3797 23.895 16.4827 24.223 16.4827C24.552 16.4837 24.875 16.3827 25.16 16.1897C25.445 15.9967 25.681 15.7197 25.846 15.3847C26.0121 15.0419 26.0976 14.6656 26.096 14.2847C26.096 13.0287 25.119 12.2977 24.067 11.5627C22.968 10.7687 21.832 9.93371 21.832 8.38471C21.832 8.04771 21.906 7.71671 22.045 7.42271C22.184 7.12871 22.385 6.88071 22.628 6.70271C22.871 6.52471 23.148 6.42271 23.434 6.40471C23.72 6.38671 24.006 6.45471 24.264 6.60271C24.521 6.74971 24.742 6.97171 24.907 7.24671C25.071 7.52271 25.174 7.84271 25.204 8.17671C25.234 8.51171 25.192 8.84971 25.081 9.15971C24.97 9.46971 24.793 9.74171 24.568 9.94971C24.543 9.97286 24.5132 9.99023 24.4807 10.0006C24.4482 10.011 24.4138 10.0141 24.38 10.0097C24.3455 10.004 24.3126 9.99112 24.2834 9.97201C24.2541 9.95291 24.2291 9.92795 24.21 9.89871C24.1695 9.83424 24.1517 9.75806 24.1595 9.6823C24.1673 9.60654 24.2002 9.53558 24.253 9.48071C24.416 9.33971 24.544 9.15071 24.627 8.93371C24.7093 8.71445 24.7428 8.47985 24.725 8.24632C24.7072 8.01279 24.6386 7.78597 24.524 7.58171C24.4163 7.39178 24.2613 7.23297 24.074 7.12071C23.8967 7.01572 23.6922 6.96593 23.4864 6.97768C23.2807 6.98944 23.0832 7.06221 22.919 7.18671C22.7418 7.31973 22.6008 7.49508 22.509 7.69671C22.4107 7.90979 22.3608 8.14204 22.363 8.37671C22.363 9.61271 23.333 10.3197 24.358 11.0667C25.464 11.8607 26.61 12.7037 26.61 14.2927C26.612 14.6597 26.551 15.0237 26.432 15.3627C26.313 15.7027 26.138 16.0117 25.917 16.2707C25.7043 16.5243 25.441 16.7307 25.144 16.8767C24.855 17.0167 24.546 17.0867 24.233 17.0857Z" fill="#FFC107"/>
<path d="M10.236 8.14771V13.7467C10.2239 15.3244 10.8128 16.8475 11.883 18.0067C12.9433 19.1559 14.4089 19.848 15.97 19.9367C16.7733 19.9673 17.5744 19.8332 18.324 19.5427C19.0762 19.2507 19.7614 18.8091 20.338 18.2447C20.9184 17.6773 21.3792 16.9993 21.693 16.2507C22.007 15.5007 22.17 14.6927 22.17 13.8767V8.16471C22.1704 8.07617 22.1359 7.99103 22.074 7.92771C22.0436 7.89673 22.0074 7.87211 21.9674 7.85529C21.9273 7.83846 21.8844 7.82977 21.841 7.82971H10.56C10.4757 7.83086 10.3951 7.86454 10.335 7.92371C10.2747 7.98316 10.239 8.06313 10.235 8.14771H10.236Z" fill="url(#paint1_linear_197_29243)"/>
<path opacity="0.6" d="M16.199 19.0517C16.1691 19.0517 16.1396 19.0456 16.1121 19.0339C16.0846 19.0223 16.0598 19.0052 16.039 18.9837C15.9966 18.9407 15.9728 18.8827 15.9728 18.8222C15.9728 18.7618 15.9966 18.7037 16.039 18.6607C16.0598 18.6394 16.0847 18.6225 16.1122 18.611C16.1397 18.5995 16.1692 18.5936 16.199 18.5937C16.8088 18.5933 17.4123 18.4709 17.974 18.2337C18.5378 17.9951 19.0486 17.6471 19.477 17.2097C19.9078 16.7701 20.2482 16.2503 20.479 15.6797C20.711 15.1077 20.829 14.4957 20.829 13.8767V12.0417C20.8298 11.9809 20.8542 11.9228 20.897 11.8797C20.9178 11.8583 20.9427 11.8413 20.9701 11.8297C20.9976 11.818 21.0272 11.812 21.057 11.812C21.0868 11.812 21.1164 11.818 21.1439 11.8297C21.1713 11.8413 21.1962 11.8583 21.217 11.8797C21.2591 11.9231 21.2825 11.9813 21.282 12.0417V13.8777C21.2834 14.556 21.153 15.2281 20.898 15.8567C20.6441 16.4826 20.2701 17.0526 19.797 17.5347C19.3265 18.014 18.7657 18.3954 18.147 18.6567C17.5305 18.9169 16.8682 19.0512 16.199 19.0517ZM21.057 11.1107C20.9969 11.1104 20.9394 11.0863 20.897 11.0437C20.8539 11.0007 20.8291 10.9426 20.828 10.8817V9.34771C20.8291 9.28681 20.8539 9.22872 20.897 9.18571C20.9178 9.1643 20.9427 9.14728 20.9701 9.13565C20.9976 9.12403 21.0272 9.11804 21.057 9.11804C21.0868 9.11804 21.1164 9.12403 21.1439 9.13565C21.1713 9.14728 21.1962 9.1643 21.217 9.18571C21.2591 9.22907 21.2825 9.28726 21.282 9.34771V10.8897C21.2804 10.9488 21.256 11.0051 21.214 11.0467C21.1721 11.0879 21.1157 11.1109 21.057 11.1107Z" fill="#B4B5D3"/>
<path d="M20.871 24.6658V23.7108C20.8718 23.6088 20.8321 23.5107 20.7607 23.438C20.6893 23.3653 20.5919 23.3238 20.49 23.3228H11.688C11.6374 23.3231 11.5874 23.3335 11.5409 23.3532C11.4943 23.3729 11.4521 23.4016 11.4166 23.4376C11.3812 23.4737 11.3531 23.5163 11.3342 23.5632C11.3152 23.6101 11.3056 23.6602 11.306 23.7108V24.6658C11.306 24.8798 11.476 25.0528 11.688 25.0528H20.49C20.7 25.0528 20.871 24.8798 20.871 24.6658Z" fill="url(#paint2_linear_197_29243)"/>
<path d="M5.62999 11.4537V11.3957C5.63205 11.415 5.63205 11.4345 5.62999 11.4537ZM4.63399 10.1437C4.87099 10.1957 5.08799 10.3157 5.25999 10.4887C5.43099 10.6627 5.54999 10.8827 5.60299 11.1227C5.60291 11.1283 5.60451 11.1338 5.60758 11.1385C5.61065 11.1432 5.61505 11.1468 5.62022 11.149C5.62539 11.1512 5.63108 11.1517 5.63657 11.1506C5.64205 11.1495 5.64708 11.1467 5.65099 11.1427C5.65613 11.1374 5.65899 11.1302 5.65899 11.1227C5.70999 10.8827 5.82799 10.6637 5.99799 10.4907C6.16799 10.3167 6.38399 10.1967 6.61899 10.1437C6.62899 10.1437 6.63699 10.1397 6.64299 10.1337C6.64632 10.1305 6.64896 10.1266 6.65076 10.1223C6.65257 10.118 6.6535 10.1134 6.6535 10.1087C6.6535 10.1041 6.65257 10.0995 6.65076 10.0952C6.64896 10.0909 6.64632 10.087 6.64299 10.0837C6.63663 10.0774 6.628 10.0738 6.61899 10.0737C6.38192 10.0212 6.16517 9.90098 5.99499 9.72775C5.82386 9.55331 5.70593 9.33375 5.65499 9.09475C5.65499 9.0873 5.65213 9.08014 5.64699 9.07475C5.64439 9.07209 5.64127 9.06997 5.63784 9.06853C5.63441 9.06709 5.63072 9.06635 5.62699 9.06635C5.62327 9.06635 5.61958 9.06709 5.61615 9.06853C5.61271 9.06997 5.6096 9.07209 5.60699 9.07475C5.60186 9.08014 5.59899 9.0873 5.59899 9.09475C5.54699 9.33475 5.42899 9.55475 5.25699 9.72775C5.08695 9.90063 4.87063 10.0208 4.63399 10.0737C4.62498 10.0738 4.61635 10.0774 4.60999 10.0837C4.60667 10.087 4.60402 10.0909 4.60222 10.0952C4.60042 10.0995 4.59949 10.1041 4.59949 10.1087C4.59949 10.1134 4.60042 10.118 4.60222 10.1223C4.60402 10.1266 4.60667 10.1305 4.60999 10.1337C4.61599 10.1397 4.62499 10.1437 4.63399 10.1437ZM23.496 20.1737L23.448 20.1277L23.492 20.1777L23.496 20.1727V20.1737ZM21.242 20.1737L21.286 20.1237L21.238 20.1687L21.242 20.1727V20.1737ZM21.487 18.1697C21.6545 18.4257 21.7437 18.7249 21.7437 19.0307C21.7437 19.3366 21.6545 19.6358 21.487 19.8917C21.4821 19.8972 21.4794 19.9044 21.4794 19.9117C21.4794 19.9191 21.4821 19.9262 21.487 19.9317C21.4896 19.9344 21.4927 19.9365 21.4961 19.938C21.4996 19.9394 21.5033 19.9402 21.507 19.9402C21.5107 19.9402 21.5144 19.9394 21.5178 19.938C21.5213 19.9365 21.5244 19.9344 21.527 19.9317C21.7774 19.7625 22.0727 19.672 22.375 19.672C22.6773 19.672 22.9726 19.7625 23.223 19.9317C23.2256 19.9344 23.2287 19.9365 23.2321 19.938C23.2356 19.9394 23.2393 19.9402 23.243 19.9402C23.2467 19.9402 23.2504 19.9394 23.2538 19.938C23.2573 19.9365 23.2604 19.9344 23.263 19.9317C23.2679 19.9262 23.2706 19.9191 23.2706 19.9117C23.2706 19.9044 23.2679 19.8972 23.263 19.8917C23.0955 19.6358 23.0062 19.3366 23.0062 19.0307C23.0062 18.7249 23.0955 18.4257 23.263 18.1697C23.2679 18.1642 23.2706 18.1571 23.2706 18.1497C23.2706 18.1424 23.2679 18.1352 23.263 18.1297C23.2604 18.1271 23.2573 18.125 23.2538 18.1235C23.2504 18.1221 23.2467 18.1213 23.243 18.1213C23.2393 18.1213 23.2356 18.1221 23.2321 18.1235C23.2287 18.125 23.2256 18.1271 23.223 18.1297C22.9725 18.2989 22.6772 18.3893 22.375 18.3893C22.0728 18.3893 21.7774 18.2989 21.527 18.1297C21.5244 18.1271 21.5213 18.125 21.5178 18.1235C21.5144 18.1221 21.5107 18.1213 21.507 18.1213C21.5033 18.1213 21.4996 18.1221 21.4961 18.1235C21.4927 18.125 21.4896 18.1271 21.487 18.1297C21.4821 18.1352 21.4794 18.1424 21.4794 18.1497C21.4794 18.1571 21.4821 18.1642 21.487 18.1697ZM15.862 9.71475C16.0295 9.97066 16.1187 10.2699 16.1187 10.5757C16.1187 10.8816 16.0295 11.1808 15.862 11.4367C15.8596 11.4429 15.8591 11.4496 15.8605 11.456C15.8619 11.4624 15.8652 11.4682 15.87 11.4727C15.8748 11.4771 15.8808 11.48 15.8872 11.4809C15.8936 11.4817 15.9002 11.4807 15.906 11.4777C16.1555 11.3086 16.45 11.2182 16.7515 11.2182C17.0529 11.2182 17.3475 11.3086 17.597 11.4777C17.5996 11.4804 17.6027 11.4825 17.6061 11.484C17.6096 11.4854 17.6133 11.4862 17.617 11.4862C17.6207 11.4862 17.6244 11.4854 17.6278 11.484C17.6313 11.4825 17.6344 11.4804 17.637 11.4777C17.6425 11.4725 17.6457 11.4653 17.646 11.4577C17.646 11.4503 17.6431 11.4431 17.638 11.4377C17.4722 11.181 17.384 10.8819 17.384 10.5762C17.384 10.2706 17.4722 9.97149 17.638 9.71475C17.6431 9.70936 17.646 9.7022 17.646 9.69475C17.646 9.68706 17.6429 9.67968 17.6375 9.67424C17.6321 9.6688 17.6247 9.66575 17.617 9.66575C17.6133 9.6657 17.6096 9.66638 17.6062 9.66775C17.6028 9.66912 17.5996 9.67116 17.597 9.67375C17.3475 9.84301 17.053 9.93349 16.7515 9.93349C16.45 9.93349 16.1555 9.84301 15.906 9.67375C15.9001 9.67096 15.8935 9.67004 15.8871 9.67111C15.8806 9.67219 15.8747 9.6752 15.87 9.67975C15.8652 9.68427 15.8619 9.69011 15.8605 9.69653C15.8591 9.70294 15.8596 9.70963 15.862 9.71575V9.71475ZM10.489 18.3447C10.5522 18.4576 10.5854 18.5849 10.5854 18.7142C10.5854 18.8436 10.5522 18.9709 10.489 19.0837C10.489 19.1117 10.489 19.1367 10.529 19.1237C10.6395 19.0599 10.7649 19.0264 10.8925 19.0264C11.0201 19.0264 11.1455 19.0599 11.256 19.1237C11.285 19.1237 11.313 19.1237 11.296 19.0837C11.2328 18.9709 11.1995 18.8436 11.1995 18.7142C11.1995 18.5849 11.2328 18.4576 11.296 18.3447C11.2999 18.3407 11.3025 18.3356 11.3035 18.3301C11.3045 18.3246 11.304 18.319 11.3019 18.3138C11.2997 18.3086 11.2962 18.3041 11.2916 18.3009C11.287 18.2977 11.2816 18.2959 11.276 18.2957C11.2723 18.2957 11.2686 18.2964 11.2652 18.2977C11.2618 18.2991 11.2586 18.3012 11.256 18.3037C11.1455 18.3677 11.0201 18.4013 10.8925 18.4013C10.7649 18.4013 10.6395 18.3677 10.529 18.3037C10.5236 18.2932 10.5143 18.2852 10.5031 18.2814C10.4919 18.2777 10.4796 18.2785 10.469 18.2837C10.4584 18.2893 10.4503 18.2988 10.4466 18.3102C10.4429 18.3216 10.4437 18.334 10.449 18.3447H10.489Z" fill="#B4B5D3"/>
<defs>
<linearGradient id="paint0_linear_197_29243" x1="18.809" y1="22.5097" x2="18.319" y2="26.6437" gradientUnits="userSpaceOnUse">
<stop stop-color="#F85473"/>
<stop offset="0.22" stop-color="#F2627C"/>
<stop offset="0.46" stop-color="#F58697"/>
<stop offset="0.72" stop-color="#F79CA5"/>
<stop offset="0.98" stop-color="#FABCB9"/>
<stop offset="1" stop-color="#FABEBA"/>
</linearGradient>
<linearGradient id="paint1_linear_197_29243" x1="11.784" y1="11.7437" x2="27.3" y2="25.5917" gradientUnits="userSpaceOnUse">
<stop stop-color="#FFD707"/>
<stop offset="1" stop-color="#F07925"/>
</linearGradient>
<linearGradient id="paint2_linear_197_29243" x1="17.106" y1="23.5478" x2="15.634" y2="33.0908" gradientUnits="userSpaceOnUse">
<stop stop-color="#FFD707"/>
<stop offset="1" stop-color="#F07925"/>
</linearGradient>
</defs>
</svg>
