<svg width="32" height="33" viewBox="0 0 32 33" fill="none" xmlns="http://www.w3.org/2000/svg">
<rect y="0.401733" width="32" height="32" rx="16" fill="#E1E4F3"/>
<g clip-path="url(#clip0_197_29233)">
<path opacity="0.6" d="M26.613 16.1017C26.613 16.1017 24.79 12.2537 20.805 10.5537C20.2871 10.3513 19.7119 10.3513 19.194 10.5537C15.209 12.2537 13.386 16.1007 13.386 16.1007C12.368 18.2467 13.428 20.9607 15.802 21.8907C15.802 21.8907 17.032 22.4577 18.515 21.2027L17.668 22.9027C17.158 23.5107 17.625 24.4017 18.431 24.4017H21.653C22.458 24.4017 22.883 23.5117 22.416 22.9037L21.568 21.2037C23.052 22.3367 24.281 21.8917 24.281 21.8917C26.571 20.9597 27.631 18.2467 26.613 16.1017Z" fill="url(#paint0_linear_197_29233)"/>
<path opacity="0.75" d="M23.447 14.5437C23.447 14.5437 20.843 9.04775 15.15 6.61875C14.41 6.32931 13.588 6.32931 12.848 6.61875C7.15499 9.04875 4.551 14.5437 4.551 14.5437C3.098 17.6097 4.611 21.4847 8.003 22.8157C8.003 22.8157 9.76 23.6257 11.879 21.8317L10.668 24.2617C9.941 25.1287 10.608 26.4017 11.758 26.4017H16.361C17.511 26.4017 18.117 25.1287 17.451 24.2617L16.24 21.8317C18.36 23.4517 20.116 22.8157 20.116 22.8157C23.386 21.4857 24.9 17.6087 23.446 14.5437H23.447Z" fill="url(#paint1_linear_197_29233)"/>
</g>
<defs>
<linearGradient id="paint0_linear_197_29233" x1="27" y1="21.3397" x2="21.326" y2="-3.56728" gradientUnits="userSpaceOnUse">
<stop stop-color="#D67FFA" stop-opacity="0.64"/>
<stop offset="0.599" stop-color="#A13BD5"/>
<stop offset="1" stop-color="#8B2CBE"/>
</linearGradient>
<linearGradient id="paint1_linear_197_29233" x1="20.453" y1="-6.96125" x2="27.442" y2="25.3577" gradientUnits="userSpaceOnUse">
<stop offset="0.271" stop-color="#26BE6C"/>
<stop offset="0.771" stop-color="#77EA77"/>
<stop offset="1" stop-color="#6CEC80"/>
</linearGradient>
<clipPath id="clip0_197_29233">
<rect width="24" height="24" fill="white" transform="translate(4 4.40173)"/>
</clipPath>
</defs>
</svg>
