<svg width="32" height="33" viewBox="0 0 32 33" fill="none" xmlns="http://www.w3.org/2000/svg">
<rect y="0.401733" width="32" height="32" rx="16" fill="#E1E4F3"/>
<g clip-path="url(#clip0_197_29221)">
<path d="M9.3 9.20172C10 9.60172 10.8 9.70172 11.5 9.90172C12.2 10.1017 12.8 10.2017 13.5 10.2017H13.6H13.7C14.4 10.2017 15 10.1017 15.7 9.90172C16.4 9.70172 17.1 9.50172 17.8 9.20172C19.1 8.60172 19.8 7.50172 19.7 6.40172C19.6 5.30172 18.8 4.60172 17.8 4.50172C15.9 4.40172 14.7 6.40172 14 7.50172C13.8 7.70172 13.7 8.00172 13.5 8.10172C13.4 7.90172 13.3 7.70172 13.1 7.50172C12.4 6.40172 11.2 4.50172 9.3 4.50172C8.3 4.60172 7.5 5.30172 7.4 6.40172C7.3 7.50172 8 8.60172 9.3 9.20172ZM14.8 8.10172C15.7 6.80172 16.6 5.60172 17.6 5.70172H17.8C18.3 5.70172 18.5 6.00172 18.6 6.50172C18.7 7.40172 17.6 8.00172 17.3 8.20172C16.7 8.50172 16.1 8.70172 15.4 8.90172C15.1 9.00172 14.7 9.00172 14.4 9.00172C14.6 8.70172 14.6 8.40172 14.8 8.10172ZM8.5 6.40172C8.6 5.90172 8.9 5.60172 9.4 5.60172H9.5C10.6 5.60172 11.5 6.80172 12.3 8.00172C12.5 8.40172 12.7 8.70172 12.8 9.00172C12.5 8.90172 12.1 8.90172 11.8 8.80172C11.1 8.70172 10.5 8.50172 9.8 8.20172C9.5 8.00172 8.4 7.40172 8.5 6.40172Z" fill="url(#paint0_linear_197_29221)"/>
<path d="M20 26.9017H7.00001C5.70001 26.9017 4.60001 25.8017 4.60001 24.5017V16.7017C4.60001 15.9017 5.30001 15.2017 6.10001 15.2017H20.9C21.7 15.2017 22.4 15.9017 22.4 16.7017V24.5017C22.4 25.8017 21.3 26.9017 20 26.9017Z" fill="url(#paint1_linear_197_29221)"/>
<path d="M21.3 16.0017H5.7C4.7 16.0017 4 15.2017 4 14.3017V11.7017C4 10.8017 4.7 10.0017 5.7 10.0017H21.3C22.2 10.0017 23 10.7017 23 11.7017V14.3017C23.1 15.2017 22.3 16.0017 21.3 16.0017Z" fill="url(#paint2_linear_197_29221)"/>
<path d="M12 10.0017H15C15.4 10.0017 15.7 10.3017 15.7 10.7017V26.9017H11.3V10.7017C11.3 10.3017 11.7 10.0017 12 10.0017Z" fill="url(#paint3_linear_197_29221)"/>
<path d="M28 21.4017C28 25.2017 24.9 28.3017 21.1 28.3017C17.3 28.3017 14.2 25.2017 14.2 21.4017C14.2 17.6017 17.3 14.5017 21.1 14.5017C24.9 14.6017 28 17.6017 28 21.4017Z" fill="url(#paint4_linear_197_29221)"/>
<path d="M25.8 21.4018C25.8 24.0018 23.7 26.1018 21.1 26.1018C18.5 26.1018 16.4 24.0018 16.4 21.4018C16.4 18.8018 18.5 16.7018 21.1 16.7018C23.7 16.7018 25.8 18.8018 25.8 21.4018Z" fill="url(#paint5_linear_197_29221)"/>
<path opacity="0.8" d="M22.5 21.3018C23 21.1018 23.3 20.7018 23.3 20.2018C23.3 20.1018 23.3 19.9018 23.2 19.8018C23.2 19.7018 23.1 19.5018 23 19.4018C22.9 19.3018 22.8 19.2018 22.7 19.1018C22.6 19.0018 22.4 19.0018 22.2 18.9018C22.1 18.9018 22 18.9018 21.9 18.9018V18.7018C21.9 18.4018 21.7 18.2018 21.4 18.2018C21.1 18.2018 20.9 18.4018 20.9 18.7018V18.9018H20.3V18.7018C20.3 18.4018 20.1 18.2018 19.8 18.2018C19.5 18.2018 19.3 18.4018 19.3 18.7018V18.8018H19.2C18.9 18.8018 18.7 19.0018 18.7 19.3018C18.7 19.6018 18.9 19.8018 19.2 19.8018H19.3V22.9018H19.2C18.9 22.9018 18.7 23.1018 18.7 23.4018C18.7 23.7018 18.9 23.9018 19.2 23.9018H19.3V24.1018C19.3 24.4018 19.5 24.6018 19.8 24.6018C20.1 24.6018 20.3 24.4018 20.3 24.1018V23.9018H20.9V24.1018C20.9 24.4018 21.1 24.6018 21.4 24.6018C21.7 24.6018 21.9 24.4018 21.9 24.1018V23.8018C22 23.8018 22.1 23.8018 22.2 23.8018C22.4 23.8018 22.6 23.7018 22.7 23.7018C22.9 23.6018 23.1 23.4018 23.3 23.2018C23.5 23.0018 23.5 22.7018 23.5 22.4018C23.5 21.9018 23.2 21.5018 22.5 21.3018ZM22.3 20.3018C22.3 20.4018 22.3 20.5018 22.2 20.6018C22.1 20.7018 22 20.8018 21.9 20.9018C21.8 21.0018 21.6 21.0018 21.3 21.0018H20.4V19.7018H21.2C21.6 19.7018 21.8 19.7018 22 19.8018C22.2 19.9018 22.3 20.1018 22.3 20.3018ZM21.5 23.2018H20.4V21.7018H21.5C21.9 21.7018 22.1 21.8018 22.3 21.9018C22.5 22.0018 22.6 22.2018 22.6 22.4018C22.5 22.9018 22.1 23.2018 21.5 23.2018Z" fill="url(#paint6_linear_197_29221)"/>
</g>
<defs>
<linearGradient id="paint0_linear_197_29221" x1="8.1497" y1="4.28262" x2="19.2799" y2="9.44372" gradientUnits="userSpaceOnUse">
<stop stop-color="#583B60"/>
<stop offset="0.4867" stop-color="#5A3D63" stop-opacity="0.5133"/>
<stop offset="0.797" stop-color="#5F426B" stop-opacity="0.203"/>
<stop offset="1" stop-color="#664976" stop-opacity="0"/>
</linearGradient>
<linearGradient id="paint1_linear_197_29221" x1="13.5" y1="26.8812" x2="13.5" y2="15.2054" gradientUnits="userSpaceOnUse">
<stop stop-color="#5679F5"/>
<stop offset="1" stop-color="#BE35FF" stop-opacity="0.2"/>
</linearGradient>
<linearGradient id="paint2_linear_197_29221" x1="13.5042" y1="15.9896" x2="13.5042" y2="10.0091" gradientUnits="userSpaceOnUse">
<stop stop-color="#5679F5"/>
<stop offset="1" stop-color="#BE35FF" stop-opacity="0.2"/>
</linearGradient>
<linearGradient id="paint3_linear_197_29221" x1="13.5" y1="26.8626" x2="13.5" y2="9.98964" gradientUnits="userSpaceOnUse">
<stop stop-color="#583B60"/>
<stop offset="0.84" stop-color="#664976" stop-opacity="0"/>
<stop offset="1" stop-color="#583B61" stop-opacity="0.9739"/>
</linearGradient>
<linearGradient id="paint4_linear_197_29221" x1="20.0256" y1="16.1143" x2="21.9727" y2="25.7001" gradientUnits="userSpaceOnUse">
<stop stop-color="#FFD707" stop-opacity="0.87"/>
<stop offset="1" stop-color="#FF9534"/>
</linearGradient>
<linearGradient id="paint5_linear_197_29221" x1="19.933" y1="23.0844" x2="26.8745" y2="13.0737" gradientUnits="userSpaceOnUse">
<stop stop-color="#F5D422"/>
<stop offset="1" stop-color="#FFA800"/>
</linearGradient>
<linearGradient id="paint6_linear_197_29221" x1="15.8418" y1="15.1119" x2="26.1317" y2="28.2265" gradientUnits="userSpaceOnUse">
<stop stop-color="#F2D254"/>
<stop offset="0.04" stop-color="#F3CA52"/>
<stop offset="0.25" stop-color="#F7A249"/>
<stop offset="0.45" stop-color="#FB8342"/>
<stop offset="0.65" stop-color="#FD6C3D"/>
<stop offset="0.83" stop-color="#FF5F3A"/>
<stop offset="1" stop-color="#FF5A39"/>
</linearGradient>
<clipPath id="clip0_197_29221">
<rect width="24" height="24" fill="white" transform="translate(4 4.40173)"/>
</clipPath>
</defs>
</svg>
