<svg width="32" height="33" viewBox="0 0 32 33" fill="none" xmlns="http://www.w3.org/2000/svg">
<rect y="0.401733" width="32" height="32" rx="16" fill="#E1E4F3"/>
<g clip-path="url(#clip0_197_29203)">
<path d="M15.9313 21.6073C14.5251 23.8451 12.6591 25.3256 10.8608 23.7436C9.4614 22.5132 10.347 20.7217 11.5775 19.3222C11.8587 19.0098 12.1688 18.7246 12.5036 18.4704C12.9449 18.1428 13.4865 17.979 14.0354 18.0071C14.5843 18.0352 15.1063 18.2536 15.5117 18.6247C15.9172 18.9957 16.1808 19.4964 16.2574 20.0406C16.3339 20.5849 16.2186 21.1388 15.9313 21.6073Z" fill="url(#paint0_linear_197_29203)"/>
<path opacity="0.85" d="M13.031 15.3876L15.6608 10.1888L14.3087 10.2902C9.30588 10.8648 8.77179 16.8276 8.77179 16.8276C8.65687 17.409 9.10982 17.693 9.52222 17.4496C10.0926 16.9233 10.7029 16.4418 11.3476 16.0096C11.8563 15.6814 12.431 15.4691 13.031 15.3876Z" fill="#A9E3E3"/>
<path opacity="0.85" d="M18.7234 19.7887L23.0975 15.9352L23.3341 17.2468C24.044 22.2293 18.4057 24.2507 18.4057 24.2507C17.8716 24.5076 17.4862 24.1493 17.6147 23.6828C17.9817 23.0012 18.2937 22.2913 18.5477 21.56C18.7343 20.9894 18.7943 20.3849 18.7234 19.7887Z" fill="#A9E3E3"/>
<path d="M16.533 20.742C16.6618 20.8476 16.8187 20.9134 16.9844 20.9314C17.15 20.9494 17.3173 20.9188 17.4659 20.8434C20.16 19.4017 22.5335 17.4284 24.4428 15.0428C25.4773 13.7573 26.2004 12.2499 26.5558 10.6385C26.9111 9.02704 26.8891 7.3553 26.4913 5.75384C26.388 5.36898 26.1616 5.02848 25.8466 4.78434C25.5317 4.5402 25.1455 4.40582 24.747 4.40173C23.0966 4.42237 21.4733 4.82425 20.0038 5.57598C18.5344 6.32771 17.2586 7.40895 16.2761 8.73525C14.4454 11.1822 13.1341 13.9774 12.4225 16.9493C12.3898 17.1121 12.4035 17.2809 12.4621 17.4363C12.5206 17.5917 12.6217 17.7275 12.7538 17.8282L16.533 20.742Z" fill="url(#paint1_linear_197_29203)" fill-opacity="0.95"/>
<path opacity="0.9" d="M17.2065 20.1891C17.1685 20.1708 17.1364 20.1423 17.114 20.1071C17.0976 20.0818 17.0863 20.0537 17.081 20.0243C17.0756 19.995 17.0761 19.9651 17.0826 19.9362C17.0891 19.9074 17.1014 19.8803 17.1187 19.8564C17.136 19.8325 17.1581 19.8123 17.1836 19.7971C20.6713 17.7127 23.4815 14.7082 25.3043 11.1149C25.3311 11.0621 25.3784 11.0225 25.4358 11.0047C25.4932 10.9869 25.556 10.9924 25.6104 11.02C25.6648 11.0476 25.7063 11.095 25.7258 11.1519C25.7454 11.2087 25.7413 11.2703 25.7145 11.3231C23.854 14.9893 20.9861 18.0546 17.4272 20.181C17.3951 20.2019 17.3576 20.2137 17.3187 20.2151C17.2798 20.2165 17.241 20.2075 17.2065 20.1891Z" fill="#B4B5D3"/>
<path d="M19.8659 12.5144C19.4765 12.2179 19.1865 11.81 19.0344 11.3448C18.8796 10.8826 18.8653 10.3849 18.9931 9.9145C19.1209 9.44411 19.3852 9.02212 19.7525 8.70176C20.1199 8.38139 20.5739 8.177 21.0573 8.11438C21.5407 8.05176 22.0318 8.1337 22.4687 8.34988C22.7958 8.51191 23.0829 8.74448 23.3093 9.03085C23.5356 9.31721 23.6956 9.65023 23.7778 10.0059C23.8599 10.3616 23.8621 10.731 23.7842 11.0876C23.7063 11.4443 23.5503 11.7792 23.3273 12.0682C23.1293 12.3248 22.8828 12.5399 22.6017 12.7012C22.3206 12.8625 22.0105 12.9668 21.689 13.0083C21.3676 13.0497 21.0412 13.0274 20.7283 12.9427C20.4155 12.8579 20.1225 12.7124 19.8659 12.5144ZM22.3267 9.33692C22.0815 9.14967 21.7866 9.03889 21.4787 9.01845C21.1709 8.99801 20.8638 9.06881 20.596 9.22199C20.3269 9.37452 20.1097 9.60417 19.9723 9.88132C19.835 10.1585 19.7838 10.4704 19.8253 10.7769C19.865 11.0821 19.994 11.3688 20.1961 11.6009C20.3981 11.8331 20.6643 12.0003 20.9611 12.0817C21.2595 12.1614 21.5747 12.1521 21.8678 12.0548C22.161 11.9574 22.4192 11.7765 22.6107 11.5341C22.8553 11.2017 22.9597 10.7866 22.9014 10.3781C22.8512 9.96992 22.6453 9.59695 22.3267 9.33692Z" fill="url(#paint2_linear_197_29203)"/>
<path opacity="0.9" d="M21.3397 12.2778C21.6823 12.2791 22.0175 12.1788 22.303 11.9894C22.5885 11.8001 22.8114 11.5302 22.9434 11.2141C23.0755 10.898 23.1107 10.5498 23.0447 10.2136C22.9787 9.87745 22.8144 9.56843 22.5726 9.32571C22.3308 9.08299 22.0225 8.91749 21.6866 8.85016C21.3507 8.78283 21.0023 8.8167 20.6857 8.9475C20.369 9.07829 20.0983 9.30011 19.9079 9.58487C19.7174 9.86963 19.6157 10.2045 19.6157 10.5471C19.6157 11.0049 19.7971 11.4441 20.1202 11.7685C20.4434 12.0929 20.8818 12.276 21.3397 12.2778Z" fill="url(#paint3_linear_197_29203)"/>
<path d="M21.3496 10.0802C21.5426 10.0802 21.6991 9.9283 21.6991 9.74095C21.6991 9.55361 21.5426 9.40173 21.3496 9.40173C21.1565 9.40173 21 9.55361 21 9.74095C21 9.9283 21.1565 10.0802 21.3496 10.0802Z" fill="#B4B5D3"/>
<path d="M8.92733 24.0479C10.3686 24.0479 11.5369 22.8796 11.5369 21.4383C11.5369 19.9971 10.3686 18.8288 8.92733 18.8288C7.4861 18.8288 6.31775 19.9971 6.31775 21.4383C6.31775 22.8796 7.4861 24.0479 8.92733 24.0479Z" fill="url(#paint4_linear_197_29203)"/>
<path d="M7.73746 24.8456C8.69704 24.8456 9.47493 24.0677 9.47493 23.1082C9.47493 22.1486 8.69704 21.3707 7.73746 21.3707C6.77789 21.3707 6 22.1486 6 23.1082C6 24.0677 6.77789 24.8456 7.73746 24.8456Z" fill="url(#paint5_linear_197_29203)"/>
<path d="M12 28.4017C13.6568 28.4017 15 27.0586 15 25.4017C15 23.7448 13.6568 22.4017 12 22.4017C10.3432 22.4017 9 23.7448 9 25.4017C9 27.0586 10.3432 28.4017 12 28.4017Z" fill="url(#paint6_linear_197_29203)"/>
<path d="M8.6163 27.8744C9.73643 27.8744 10.6445 26.9663 10.6445 25.8462C10.6445 24.7261 9.73643 23.818 8.6163 23.818C7.49618 23.818 6.58813 24.7261 6.58813 25.8462C6.58813 26.9663 7.49618 27.8744 8.6163 27.8744Z" fill="url(#paint7_linear_197_29203)"/>
<path opacity="0.8" d="M10.3335 24.8794C11.2931 24.8794 12.071 24.1015 12.071 23.142C12.071 22.1824 11.2931 21.4045 10.3335 21.4045C9.37396 21.4045 8.59607 22.1824 8.59607 23.142C8.59607 24.1015 9.37396 24.8794 10.3335 24.8794Z" fill="url(#paint8_linear_197_29203)"/>
<path opacity="0.8" d="M12.1183 27.178C12.7605 27.178 13.2811 26.6574 13.2811 26.0152C13.2811 25.373 12.7605 24.8524 12.1183 24.8524C11.4761 24.8524 10.9554 25.373 10.9554 26.0152C10.9554 26.6574 11.4761 27.178 12.1183 27.178Z" fill="url(#paint9_linear_197_29203)"/>
</g>
<defs>
<linearGradient id="paint0_linear_197_29203" x1="12.1789" y1="24.1617" x2="14.0949" y2="18.9359" gradientUnits="userSpaceOnUse">
<stop stop-color="#C3C3FA"/>
<stop offset="1" stop-color="white"/>
</linearGradient>
<linearGradient id="paint1_linear_197_29203" x1="11.7262" y1="13.7922" x2="26.7144" y2="11.9127" gradientUnits="userSpaceOnUse">
<stop stop-color="#F06983"/>
<stop offset="0.22" stop-color="#F3798F"/>
<stop offset="0.46" stop-color="#F58697"/>
<stop offset="0.72" stop-color="#F79CA5"/>
<stop offset="0.98" stop-color="#FABCB9"/>
<stop offset="1" stop-color="#FABEBA"/>
</linearGradient>
<linearGradient id="paint2_linear_197_29203" x1="22.009" y1="12.9606" x2="20.7245" y2="8.14706" gradientUnits="userSpaceOnUse">
<stop stop-color="#6363DB"/>
<stop offset="1" stop-color="#9292F5"/>
</linearGradient>
<linearGradient id="paint3_linear_197_29203" x1="21.5628" y1="12.2643" x2="21.1233" y2="8.82991" gradientUnits="userSpaceOnUse">
<stop stop-color="#6BC7FF"/>
<stop offset="1" stop-color="#C9E9FC"/>
</linearGradient>
<linearGradient id="paint4_linear_197_29203" x1="7.23205" y1="21.9026" x2="11.0137" y2="20.9142" gradientUnits="userSpaceOnUse">
<stop stop-color="#C3C3FA"/>
<stop offset="1" stop-color="white"/>
</linearGradient>
<linearGradient id="paint5_linear_197_29203" x1="8.44726" y1="23.6795" x2="6.90963" y2="22.2291" gradientUnits="userSpaceOnUse">
<stop stop-color="#C3C3FA"/>
<stop offset="1" stop-color="white"/>
</linearGradient>
<linearGradient id="paint6_linear_197_29203" x1="11.8061" y1="28.1788" x2="12.4161" y2="22.4058" gradientUnits="userSpaceOnUse">
<stop stop-color="#C3C3FA"/>
<stop offset="1" stop-color="white"/>
</linearGradient>
<linearGradient id="paint7_linear_197_29203" x1="7.03568" y1="26.8225" x2="10.3086" y2="24.9155" gradientUnits="userSpaceOnUse">
<stop stop-color="#C3C3FA"/>
<stop offset="1" stop-color="white"/>
</linearGradient>
<linearGradient id="paint8_linear_197_29203" x1="9.77065" y1="24.4336" x2="11.2385" y2="21.5937" gradientUnits="userSpaceOnUse">
<stop stop-color="#C3C3FA"/>
<stop offset="0.48" stop-color="white"/>
<stop offset="1" stop-color="white"/>
</linearGradient>
<linearGradient id="paint9_linear_197_29203" x1="11.2347" y1="26.3319" x2="13.1878" y2="25.7098" gradientUnits="userSpaceOnUse">
<stop stop-color="#C3C3FA"/>
<stop offset="1" stop-color="white"/>
</linearGradient>
<clipPath id="clip0_197_29203">
<rect width="24" height="24" fill="white" transform="translate(4 4.40173)"/>
</clipPath>
</defs>
</svg>
