<svg width="32" height="33" viewBox="0 0 32 33" fill="none" xmlns="http://www.w3.org/2000/svg">
<rect y="0.401733" width="32" height="32" rx="16" fill="#E1E4F3"/>
<path opacity="0.4" d="M12.585 18.8277L10.648 22.4117C10.312 22.6307 10.019 22.9217 9.788 23.2657C9.55344 23.6158 9.38719 24.007 9.298 24.4187C9.208 24.8357 9.195 25.2677 9.259 25.6887C9.324 26.1117 9.466 26.5157 9.676 26.8767C9.869 27.2467 10.164 27.5387 10.519 27.7147C10.874 27.8907 11.269 27.9397 11.651 27.8547C11.7212 27.8404 11.787 27.8095 11.843 27.7647C11.9006 27.7184 11.9473 27.66 11.98 27.5937L15.496 20.5887C15.6348 20.3118 15.7041 20.0052 15.698 19.6954C15.692 19.3857 15.6106 19.082 15.461 18.8107C15.3178 18.549 15.1081 18.3296 14.853 18.1747C14.6069 18.0259 14.3235 17.9503 14.036 17.9567L13.946 17.9587C13.67 17.9657 13.401 18.0487 13.163 18.2007C12.9205 18.3576 12.7216 18.5733 12.585 18.8277Z" fill="url(#paint0_linear_197_29215)"/>
<path opacity="0.85" d="M12.577 17.9917C12.294 17.9977 12.017 18.0847 11.774 18.2447C11.531 18.4047 11.331 18.6307 11.192 18.9007L9.152 22.9117C8.78537 23.6611 8.67168 24.5092 8.828 25.3287C8.97407 26.134 9.38859 26.8661 10.004 27.4057C10.0807 27.4723 10.1785 27.5094 10.2801 27.5103C10.3816 27.5112 10.4801 27.4759 10.558 27.4107C10.6123 27.3675 10.6569 27.3133 10.689 27.2517L14.023 20.6077C14.1616 20.3318 14.2313 20.0264 14.226 19.7177C14.2224 19.4092 14.1438 19.1061 13.997 18.8347C13.8561 18.5725 13.6489 18.3518 13.396 18.1947C13.1515 18.0441 12.8692 17.9661 12.582 17.9697L12.577 17.9917Z" fill="url(#paint1_linear_197_29215)"/>
<path opacity="0.85" d="M17.842 7.82974C17.6615 7.88987 17.4996 7.99562 17.372 8.13674L6.96999 15.1487C6.33357 15.5855 5.85518 16.2162 5.60599 16.9467C5.34436 17.6991 5.31544 18.5127 5.52299 19.2817C5.72999 20.0497 6.16299 20.7207 6.75399 21.1917C7.32987 21.6579 8.0523 21.9048 8.79299 21.8887L21.305 21.5117C21.3757 21.5091 21.4452 21.4931 21.51 21.4647L21.527 21.4597C22.89 21.0187 23.174 17.6077 22.156 13.8427C21.138 10.0787 19.205 7.38874 17.842 7.82974Z" fill="url(#paint2_linear_197_29215)"/>
<path opacity="0.75" d="M21.528 21.4627C22.893 21.0207 23.175 17.6107 22.157 13.8467C21.139 10.0817 19.207 7.38773 17.842 7.82973C16.476 8.27173 16.195 11.6817 17.212 15.4467C18.231 19.2117 20.162 21.9047 21.528 21.4627Z" fill="url(#paint3_linear_197_29215)"/>
<path opacity="0.8" d="M19.35 14.8067C18.851 12.9617 17.739 11.6957 16.867 11.9777C16.753 12.0147 16.735 12.0677 16.641 12.1507C16.7188 13.2829 16.9125 14.4041 17.219 15.4967C17.513 16.5963 17.9125 17.665 18.412 18.6877C18.4975 18.6989 18.5845 18.6847 18.662 18.6467C19.544 18.3737 19.848 16.6487 19.35 14.8067Z" fill="url(#paint4_linear_197_29215)"/>
<path d="M17.724 13.9097C17.958 13.8347 18.092 13.5647 18.023 13.3087C17.953 13.0527 17.707 12.9057 17.473 12.9817C17.238 13.0577 17.105 13.3267 17.173 13.5837C17.243 13.8397 17.489 13.9857 17.723 13.9097H17.724Z" fill="#B4B5D3"/>
<path d="M24.5 17.4017L27.5 17.4097M22.5 8.40173L26.87 5.91473L22.5 8.40173ZM24 13.2887L27.5 11.9017L24 13.2887Z" stroke="#FFB319" stroke-linecap="round"/>
<defs>
<linearGradient id="paint0_linear_197_29215" x1="8.802" y1="24.1697" x2="16.409" y2="22.1137" gradientUnits="userSpaceOnUse">
<stop stop-color="#F2D254"/>
<stop offset="0.04" stop-color="#F3CA52"/>
<stop offset="0.25" stop-color="#F7A249"/>
<stop offset="0.45" stop-color="#FB8342"/>
<stop offset="0.65" stop-color="#FD6C3D"/>
<stop offset="0.83" stop-color="#FF5F3A"/>
<stop offset="1" stop-color="#FF5A39"/>
</linearGradient>
<linearGradient id="paint1_linear_197_29215" x1="7.357" y1="28.7957" x2="14.869" y2="18.7887" gradientUnits="userSpaceOnUse">
<stop offset="0.33" stop-color="#9BBFFF"/>
<stop offset="0.4" stop-color="#98C2F6"/>
<stop offset="0.51" stop-color="#8FCBDE"/>
<stop offset="0.65" stop-color="#80D9B6"/>
<stop offset="0.82" stop-color="#6CEC80"/>
<stop offset="0.9" stop-color="#61F761"/>
</linearGradient>
<linearGradient id="paint2_linear_197_29215" x1="4.79899" y1="19.4647" x2="22.522" y2="14.6727" gradientUnits="userSpaceOnUse">
<stop stop-color="#F3748C"/>
<stop offset="0.22" stop-color="#F3798F"/>
<stop offset="0.46" stop-color="#F58697"/>
<stop offset="0.72" stop-color="#F79CA5"/>
<stop offset="0.98" stop-color="#FABCB9"/>
<stop offset="1" stop-color="#FABEBA"/>
</linearGradient>
<linearGradient id="paint3_linear_197_29215" x1="21.794" y1="22.4457" x2="19.802" y2="16.2937" gradientUnits="userSpaceOnUse">
<stop stop-color="#F5CCFF"/>
<stop offset="0.32" stop-color="#CE88EB"/>
<stop offset="0.64" stop-color="#C064EF"/>
<stop offset="0.84" stop-color="#BD76E2"/>
</linearGradient>
<linearGradient id="paint4_linear_197_29215" x1="113.957" y1="67.9017" x2="249.53" y2="168.795" gradientUnits="userSpaceOnUse">
<stop stop-color="#FFDF35"/>
<stop offset="0.83" stop-color="#FF5F3A"/>
<stop offset="1" stop-color="#FF5A39"/>
</linearGradient>
</defs>
</svg>
