<svg width="32" height="33" viewBox="0 0 32 33" fill="none" xmlns="http://www.w3.org/2000/svg">
<rect y="0.401733" width="32" height="32" rx="16" fill="#E1E4F3"/>
<path opacity="0.75" d="M14.7999 21.4018H13.7999C13.6999 21.4018 13.5999 21.3018 13.4999 21.2018C13.3999 21.1018 13.3999 20.9018 13.3999 20.8018V19.4018C13.3999 19.2018 13.3999 19.1018 13.4999 19.0018C13.5999 18.9018 13.6999 18.8018 13.7999 18.8018H15.1999C15.2999 18.8018 15.2999 18.8018 15.3999 18.9018C15.4999 18.9018 15.4999 19.0018 15.5999 19.1018C15.5999 19.2018 15.6999 19.3018 15.6999 19.4018C15.6999 19.5018 15.6999 19.6018 15.6999 19.7018L15.2999 21.1018C15.2999 21.2018 15.1999 21.3018 15.0999 21.4018C14.9999 21.3018 14.8999 21.4018 14.7999 21.4018Z" fill="url(#paint0_linear_197_29237)"/>
<path opacity="0.55" d="M15.2 18.8018H14.8C14.9 18.8018 14.9 18.8018 15 18.9018C15.1 18.9018 15.1 19.0018 15.2 19.1018C15.3 19.2018 15.3 19.3018 15.3 19.4018C15.3 19.5018 15.3 19.6018 15.3 19.7018L14.9 21.1018C14.9 21.2018 14.8 21.3018 14.7 21.4018C14.6 21.5018 14.6 21.5018 14.5 21.5018H14.9C15 21.5018 15.1 21.5018 15.1 21.4018C15.2 21.3018 15.2 21.2018 15.3 21.1018L15.7 19.7018C15.7 19.6018 15.7 19.5018 15.7 19.4018C15.7 19.3018 15.7 19.2018 15.6 19.1018C15.6 19.0018 15.5 18.9018 15.4 18.9018C15.4 18.8018 15.3 18.8018 15.2 18.8018Z" fill="url(#paint1_linear_197_29237)"/>
<path opacity="0.4" d="M7.9999 17.2018L5.9999 20.9018C5.6999 21.1018 5.3999 21.4018 5.0999 21.8018C4.8999 22.2018 4.6999 22.6018 4.5999 23.0018C4.4999 23.4018 4.4999 23.9018 4.5999 24.3018C4.5999 24.6018 4.7999 25.1018 4.9999 25.4018C5.1999 25.8018 5.4999 26.1018 5.8999 26.3018C6.1999 26.5018 6.5999 26.5018 6.9999 26.4018C7.0999 26.4018 7.0999 26.4018 7.1999 26.3018C7.2999 26.3018 7.2999 26.2018 7.2999 26.1018L10.8999 18.9018C10.9999 18.6018 11.0999 18.3018 11.0999 18.0018C11.0999 17.7018 10.9999 17.4018 10.8999 17.1018C10.6999 16.8018 10.4999 16.6018 10.2999 16.4018C9.9999 16.4018 9.6999 16.3018 9.4999 16.3018H9.3999C9.0999 16.3018 8.7999 16.4018 8.5999 16.5018C8.2999 16.7018 8.0999 16.9018 7.9999 17.2018Z" fill="url(#paint2_linear_197_29237)"/>
<path d="M8.0001 16.3018C7.7001 16.3018 7.4001 16.4018 7.2001 16.6018C7.0001 16.8018 6.7001 17.0018 6.6001 17.3018L4.5001 21.4018C4.1001 22.2018 4.0001 23.0018 4.2001 23.9018C4.4001 24.7018 4.8001 25.5018 5.4001 26.0018C5.5001 26.0018 5.5001 26.1018 5.6001 26.1018C5.7001 26.1018 5.7001 26.1018 5.8001 26.1018C5.9001 26.1018 5.9001 26.1018 6.0001 26.0018C6.1001 26.0018 6.1001 25.9018 6.1001 25.8018L9.5001 19.0018C9.6001 18.7018 9.7001 18.4018 9.7001 18.1018C9.7001 17.8018 9.6001 17.5018 9.5001 17.2018C9.4001 16.9018 9.1001 16.7018 8.9001 16.5018C8.5001 16.4018 8.3001 16.3018 8.0001 16.3018Z" fill="url(#paint3_linear_197_29237)"/>
<path d="M23.3999 14.9017H9.4999C8.8999 14.9017 8.3999 14.4017 8.3999 13.8018C8.3999 13.2018 8.8999 12.7018 9.4999 12.7018H23.3999C23.9999 12.7018 24.4999 13.2018 24.4999 13.8018C24.4999 14.4017 23.9999 14.9017 23.3999 14.9017Z" fill="url(#paint4_linear_197_29237)"/>
<path d="M14.1002 11.8018C14.5973 11.8018 15.0002 11.3989 15.0002 10.9018C15.0002 10.4048 14.5973 10.0018 14.1002 10.0018C13.6031 10.0018 13.2002 10.4048 13.2002 10.9018C13.2002 11.3989 13.6031 11.8018 14.1002 11.8018Z" fill="url(#paint5_linear_197_29237)"/>
<path d="M15.4001 19.6017H8.5001C6.9001 19.6017 5.6001 18.3017 5.6001 16.7017V10.6018C5.6001 9.00178 6.9001 7.70178 8.5001 7.70178H15.4001C17.0001 7.70178 18.3001 9.00178 18.3001 10.6018V16.7017C18.3001 18.3017 17.0001 19.6017 15.4001 19.6017Z" fill="url(#paint6_linear_197_29237)"/>
<path opacity="0.75" d="M20.6002 18.1018C20.1002 18.1018 19.7002 17.7018 19.7002 17.2018V10.4018C19.7002 9.90183 20.1002 9.50183 20.6002 9.50183C21.1002 9.50183 21.5002 9.90183 21.5002 10.4018V17.2018C21.6002 17.7018 21.2002 18.1018 20.6002 18.1018Z" fill="url(#paint7_linear_197_29237)"/>
<path opacity="0.75" d="M12.7001 10.9018C12.7001 11.4018 12.3001 11.8018 11.8001 11.8018H5.0001C4.5001 11.8018 4.1001 11.4018 4.1001 10.9018C4.1001 10.4018 4.5001 10.0018 5.0001 10.0018H11.8001C12.3001 10.0018 12.7001 10.4018 12.7001 10.9018Z" fill="url(#paint8_linear_197_29237)"/>
<path d="M25.5 16.3018C26.8807 16.3018 28 15.1826 28 13.8019C28 12.4212 26.8807 11.3019 25.5 11.3019C24.1193 11.3019 23 12.4212 23 13.8019C23 15.1826 24.1193 16.3018 25.5 16.3018Z" fill="url(#paint9_linear_197_29237)"/>
<defs>
<linearGradient id="paint0_linear_197_29237" x1="13.3915" y1="20.0811" x2="15.6538" y2="20.0811" gradientUnits="userSpaceOnUse">
<stop stop-color="#F3748C"/>
<stop offset="0.22" stop-color="#F3798F"/>
<stop offset="0.46" stop-color="#F58697"/>
<stop offset="0.72" stop-color="#F79CA5"/>
<stop offset="0.98" stop-color="#FABCB9"/>
<stop offset="1" stop-color="#FABEBA"/>
</linearGradient>
<linearGradient id="paint1_linear_197_29237" x1="45.0967" y1="20.0792" x2="67.9981" y2="20.0792" gradientUnits="userSpaceOnUse">
<stop stop-color="#F2D254"/>
<stop offset="0.04" stop-color="#F3CA52"/>
<stop offset="0.25" stop-color="#F7A249"/>
<stop offset="0.45" stop-color="#FB8342"/>
<stop offset="0.65" stop-color="#FD6C3D"/>
<stop offset="0.83" stop-color="#FF5F3A"/>
<stop offset="1" stop-color="#FF5A39"/>
</linearGradient>
<linearGradient id="paint2_linear_197_29237" x1="4.0406" y1="22.4664" x2="11.8301" y2="20.3602" gradientUnits="userSpaceOnUse">
<stop stop-color="#F2D254"/>
<stop offset="0.04" stop-color="#F3CA52"/>
<stop offset="0.25" stop-color="#F7A249"/>
<stop offset="0.45" stop-color="#FB8342"/>
<stop offset="0.65" stop-color="#FD6C3D"/>
<stop offset="0.83" stop-color="#FF5F3A"/>
<stop offset="1" stop-color="#FF5A39"/>
</linearGradient>
<linearGradient id="paint3_linear_197_29237" x1="2.1411" y1="27.0425" x2="9.8329" y2="16.7963" gradientUnits="userSpaceOnUse">
<stop stop-color="#5679F5"/>
<stop offset="1" stop-color="#BE35FF" stop-opacity="0.2"/>
</linearGradient>
<linearGradient id="paint4_linear_197_29237" x1="16.5043" y1="12.7212" x2="16.0546" y2="17.9864" gradientUnits="userSpaceOnUse">
<stop stop-color="#D67FFA" stop-opacity="0.64"/>
<stop offset="0.599" stop-color="#A13BD5"/>
<stop offset="1" stop-color="#8B2CBE"/>
</linearGradient>
<linearGradient id="paint5_linear_197_29237" x1="13.5036" y1="11.6624" x2="15.1086" y2="9.77053" gradientUnits="userSpaceOnUse">
<stop offset="0.1235" stop-color="#FBE25C"/>
<stop offset="0.4397" stop-color="#FCDE58"/>
<stop offset="0.7511" stop-color="#FDD24D"/>
<stop offset="1" stop-color="#FFC33F"/>
</linearGradient>
<linearGradient id="paint6_linear_197_29237" x1="6.8536" y1="19.7048" x2="19.9875" y2="4.22288" gradientUnits="userSpaceOnUse">
<stop stop-color="#5679F5"/>
<stop offset="1" stop-color="#BE35FF" stop-opacity="0.2"/>
</linearGradient>
<linearGradient id="paint7_linear_197_29237" x1="18.2395" y1="16.6339" x2="24.4197" y2="9.34883" gradientUnits="userSpaceOnUse">
<stop offset="0.1235" stop-color="#FBE25C"/>
<stop offset="0.4397" stop-color="#FCDE58"/>
<stop offset="0.7511" stop-color="#FDD24D"/>
<stop offset="1" stop-color="#FFC33F"/>
</linearGradient>
<linearGradient id="paint8_linear_197_29237" x1="11.1963" y1="13.3382" x2="3.9112" y2="7.15803" gradientUnits="userSpaceOnUse">
<stop offset="0.1235" stop-color="#FBE25C"/>
<stop offset="0.4397" stop-color="#FCDE58"/>
<stop offset="0.7511" stop-color="#FDD24D"/>
<stop offset="1" stop-color="#FFC33F"/>
</linearGradient>
<linearGradient id="paint9_linear_197_29237" x1="25.6313" y1="12.2088" x2="24.9668" y2="19.9877" gradientUnits="userSpaceOnUse">
<stop stop-color="#F5D422"/>
<stop offset="1" stop-color="#FFA800"/>
</linearGradient>
</defs>
</svg>
