<svg width="32" height="33" viewBox="0 0 32 33" fill="none" xmlns="http://www.w3.org/2000/svg">
<rect y="0.401733" width="32" height="32" rx="16" fill="#E1E4F3"/>
<path opacity="0.9" d="M16 21.0748V14.5118C16 13.9598 15.631 13.5128 15.176 13.5128H14.921C14.466 13.5128 14.097 13.9598 14.097 14.5128V21.0758C14.097 21.6278 14.467 22.0758 14.921 22.0758H15.176C15.631 22.0758 16 21.6278 16 21.0758V21.0748Z" fill="#A9E3E3"/>
<path opacity="0.75" d="M21.566 17.5607H19.736C19.091 17.5607 18.569 18.1367 18.569 18.8477C18.569 19.5587 19.091 20.1357 19.735 20.1357H21.565C22.21 20.1357 22.732 19.5587 22.732 18.8477C22.732 18.1377 22.21 17.5607 21.566 17.5607Z" fill="url(#paint0_linear_197_29247)"/>
<path opacity="0.85" d="M23.232 20.1717H8.768C8.033 20.1717 7.438 20.6447 7.438 21.2287V23.8707C7.438 24.4547 8.033 24.9277 8.768 24.9277H23.232C23.967 24.9277 24.562 24.4547 24.562 23.8707V21.2287C24.562 20.6447 23.967 20.1707 23.232 20.1707V20.1717Z" fill="url(#paint1_linear_197_29247)"/>
<path opacity="0.85" d="M14.898 15.6078C15.5105 15.6205 16.1195 15.5109 16.6891 15.2853C17.2588 15.0597 17.7776 14.7227 18.2154 14.294C18.6531 13.8653 19.0008 13.3536 19.2383 12.7888C19.4757 12.224 19.5979 11.6174 19.5979 11.0048C19.5979 10.3921 19.4757 9.78556 19.2383 9.22074C19.0008 8.65593 18.6531 8.14418 18.2154 7.71549C17.7776 7.28679 17.2588 6.94978 16.6891 6.72419C16.1195 6.49861 15.5105 6.38899 14.898 6.40176C14.2854 6.38899 13.6765 6.49861 13.1069 6.72419C12.5372 6.94978 12.0183 7.28679 11.5806 7.71549C11.1429 8.14418 10.7952 8.65593 10.5577 9.22074C10.3203 9.78556 10.198 10.3921 10.198 11.0048C10.198 11.6174 10.3203 12.224 10.5577 12.7888C10.7952 13.3536 11.1429 13.8653 11.5806 14.294C12.0183 14.7227 12.5372 15.0597 13.1069 15.2853C13.6765 15.5109 14.2854 15.6205 14.898 15.6078Z" fill="url(#paint2_linear_197_29247)"/>
<path d="M16.842 10.0027C16.9684 10.0069 17.0943 9.98565 17.2122 9.9402C17.3302 9.89475 17.4378 9.82604 17.5287 9.73817C17.6196 9.65029 17.6919 9.54503 17.7413 9.42866C17.7907 9.31229 17.8161 9.18717 17.8162 9.06075C17.8163 8.93433 17.7909 8.80918 17.7417 8.69276C17.6924 8.57633 17.6202 8.471 17.5294 8.38303C17.4386 8.29505 17.3311 8.22623 17.2132 8.18066C17.0952 8.13508 16.9694 8.11368 16.843 8.11773C16.5984 8.1257 16.3664 8.22849 16.1961 8.40438C16.0259 8.58026 15.9307 8.81545 15.9307 9.06023C15.9307 9.30502 16.0259 9.54021 16.1961 9.71609C16.3664 9.89197 16.5984 9.99476 16.843 10.0027H16.842Z" fill="#B4B5D3"/>
<defs>
<linearGradient id="paint0_linear_197_29247" x1="17.939" y1="18.5597" x2="22.537" y2="18.9157" gradientUnits="userSpaceOnUse">
<stop stop-color="#FF5A39"/>
<stop offset="0.17" stop-color="#FF5F3A"/>
<stop offset="0.35" stop-color="#FD6C3D"/>
<stop offset="0.55" stop-color="#FB8342"/>
<stop offset="0.75" stop-color="#F7A249"/>
<stop offset="0.96" stop-color="#F3CA52"/>
<stop offset="1" stop-color="#F2D254"/>
</linearGradient>
<linearGradient id="paint1_linear_197_29247" x1="6.637" y1="22.3417" x2="25.354" y2="22.3417" gradientUnits="userSpaceOnUse">
<stop stop-color="#F3748C"/>
<stop offset="0.22" stop-color="#F3798F"/>
<stop offset="0.46" stop-color="#F58697"/>
<stop offset="0.72" stop-color="#F79CA5"/>
<stop offset="0.98" stop-color="#FABCB9"/>
<stop offset="1" stop-color="#FABEBA"/>
</linearGradient>
<linearGradient id="paint2_linear_197_29247" x1="14.898" y1="6.40176" x2="14.898" y2="15.6128" gradientUnits="userSpaceOnUse">
<stop stop-color="#D3B3DB"/>
<stop offset="0.32" stop-color="#BA95C9"/>
<stop offset="0.64" stop-color="#A67DBB"/>
<stop offset="0.84" stop-color="#9F74B6"/>
</linearGradient>
</defs>
</svg>
