<svg width="32" height="33" viewBox="0 0 32 33" fill="none" xmlns="http://www.w3.org/2000/svg">
<rect y="0.401733" width="32" height="32" rx="16" fill="#E1E4F3"/>
<g clip-path="url(#clip0_197_29207)">
<path opacity="0.55" fill-rule="evenodd" clip-rule="evenodd" d="M8.481 9.39374H20.03C21.218 9.39374 22.18 10.3787 22.18 11.5937V25.9177C22.18 27.0907 21.218 28.0407 20.03 28.0407H8.48C7.292 28.0407 6.33 27.0907 6.33 25.9177V11.5947C6.33 10.3787 7.292 9.39374 8.48 9.39374H8.481Z" fill="url(#paint0_linear_197_29207)"/>
<path opacity="0.8" d="M26.316 23.3207H23.913V18.7547H26.316C27.2 18.7547 27.914 19.4687 27.914 20.3527V21.7227C27.914 22.6067 27.2 23.3207 26.316 23.3207Z" fill="url(#paint1_linear_197_29207)"/>
<path opacity="0.85" d="M26.119 20.8857C25.9777 20.8855 25.8423 20.8292 25.7424 20.7293C25.6425 20.6294 25.5863 20.494 25.586 20.3527V13.0117C25.586 12.7177 25.826 12.4787 26.119 12.4787C26.412 12.4787 26.651 12.7187 26.651 13.0117V20.3527C26.6517 20.4228 26.6384 20.4924 26.6119 20.5573C26.5854 20.6222 26.5462 20.6811 26.4967 20.7307C26.4472 20.7804 26.3883 20.8196 26.3234 20.8462C26.2586 20.8728 26.1891 20.8863 26.119 20.8857Z" fill="url(#paint2_linear_197_29207)"/>
<path opacity="0.8" d="M22.832 12.5907H5.798C4.914 12.5907 4.2 13.3037 4.2 14.1887V24.3037C4.2 25.1877 4.914 25.9017 5.798 25.9017H22.832C23.716 25.9017 24.43 25.1877 24.43 24.3037V14.1887C24.43 13.3037 23.716 12.5907 22.832 12.5907Z" fill="url(#paint3_linear_197_29207)"/>
<path d="M9.56501 23.2457H7.24701C7.06056 23.2457 6.88175 23.1717 6.74991 23.0398C6.61807 22.908 6.54401 22.7292 6.54401 22.5427V15.9577C6.54401 15.5677 6.85901 15.2537 7.24701 15.2537H9.56501C9.95401 15.2537 10.268 15.5687 10.268 15.9577V22.5477C10.2669 22.7334 10.1924 22.9111 10.0606 23.0419C9.92888 23.1727 9.75067 23.246 9.56501 23.2457Z" fill="url(#paint4_linear_197_29207)"/>
<path d="M15.213 23.2457H12.895C12.7086 23.2457 12.5297 23.1717 12.3979 23.0398C12.2661 22.908 12.192 22.7292 12.192 22.5427V15.9577C12.192 15.5677 12.506 15.2537 12.895 15.2537H15.213C15.601 15.2537 15.916 15.5687 15.916 15.9577V22.5477C15.9142 22.7333 15.8392 22.9107 15.7074 23.0414C15.5756 23.1721 15.3976 23.2455 15.212 23.2457H15.213Z" fill="url(#paint5_linear_197_29207)"/>
<path d="M20.54 23.2457H18.223C18.1306 23.2459 18.0391 23.2278 17.9537 23.1925C17.8683 23.1572 17.7906 23.1055 17.7253 23.0402C17.6599 22.9749 17.608 22.8974 17.5726 22.812C17.5372 22.7266 17.519 22.6351 17.519 22.5427V15.9577C17.519 15.5677 17.834 15.2537 18.223 15.2537H20.54C20.93 15.2537 21.244 15.5687 21.244 15.9577V22.5477C21.2429 22.7336 21.1682 22.9114 21.0363 23.0423C20.9043 23.1731 20.7258 23.2463 20.54 23.2457Z" fill="url(#paint6_linear_197_29207)"/>
<path d="M8.25 21.2057C8.11331 21.2052 7.98197 21.1526 7.88275 21.0585C7.78353 20.9645 7.72389 20.8362 7.716 20.6997C7.69 20.1347 7.881 19.5647 8.089 19.1117H7.556C7.4149 19.1112 7.27974 19.0548 7.18005 18.955C7.08037 18.8551 7.02427 18.7198 7.024 18.5787C7.024 18.2857 7.264 18.0457 7.556 18.0457H9.006C9.203 18.0457 9.389 18.1577 9.48 18.3337C9.5239 18.421 9.54354 18.5185 9.53685 18.6159C9.53017 18.7134 9.49741 18.8073 9.442 18.8877C9.251 19.1597 8.761 20.0067 8.787 20.6517C8.79063 20.7214 8.78037 20.7912 8.75683 20.8569C8.73328 20.9226 8.69691 20.983 8.64984 21.0345C8.60276 21.0861 8.54591 21.1277 8.4826 21.1571C8.41928 21.1865 8.35076 21.203 8.281 21.2057H8.249H8.25Z" fill="url(#paint7_linear_197_29207)"/>
<path d="M13.971 21.2057C13.8345 21.2049 13.7034 21.1522 13.6044 21.0582C13.5054 20.9642 13.4459 20.836 13.438 20.6997C13.412 20.1397 13.604 19.5647 13.811 19.1117H13.28C13.1387 19.1115 13.0033 19.0552 12.9034 18.9553C12.8035 18.8554 12.7473 18.72 12.747 18.5787C12.747 18.2857 12.987 18.0457 13.28 18.0457H14.729C14.926 18.0457 15.112 18.1577 15.203 18.3337C15.247 18.4209 15.2668 18.5183 15.2603 18.6158C15.2538 18.7133 15.2212 18.8072 15.166 18.8877C14.974 19.1597 14.478 20.0067 14.51 20.6517C14.5136 20.7214 14.5034 20.7912 14.4798 20.8569C14.4563 20.9226 14.4199 20.983 14.3728 21.0345C14.3258 21.0861 14.2689 21.1277 14.2056 21.1571C14.1423 21.1865 14.0737 21.203 14.004 21.2057H13.972H13.971Z" fill="url(#paint8_linear_197_29207)"/>
<path d="M19.224 21.2057C19.0875 21.2049 18.9564 21.1522 18.8574 21.0582C18.7584 20.9642 18.6989 20.836 18.691 20.6997C18.665 20.1347 18.857 19.5647 19.064 19.1117H18.532C18.3907 19.1115 18.2553 19.0552 18.1554 18.9553C18.0555 18.8554 17.9993 18.72 17.999 18.5787C17.999 18.2857 18.239 18.0457 18.532 18.0457H19.975C20.172 18.0457 20.359 18.1577 20.45 18.3337C20.4939 18.421 20.5135 18.5185 20.5068 18.6159C20.5002 18.7134 20.4674 18.8073 20.412 18.8877C20.221 19.1597 19.73 20.0067 19.757 20.6517C19.7606 20.7214 19.7504 20.7912 19.7268 20.8569C19.7033 20.9226 19.6669 20.983 19.6198 21.0345C19.5728 21.0861 19.5159 21.1277 19.4526 21.1571C19.3893 21.1865 19.3207 21.203 19.251 21.2057H19.224Z" fill="url(#paint9_linear_197_29207)"/>
<path opacity="0.9" d="M15.075 6.68573L16.13 8.65173L18.325 9.05173C18.4198 9.06908 18.5081 9.11179 18.5805 9.17534C18.653 9.23888 18.7068 9.32087 18.7364 9.41259C18.7659 9.50431 18.7701 9.60233 18.7483 9.69621C18.7266 9.79009 18.6798 9.87632 18.613 9.94573L17.067 11.5617L17.366 13.7717C17.3788 13.8674 17.3656 13.9649 17.3276 14.0537C17.2896 14.1425 17.2284 14.2193 17.1503 14.2762C17.0723 14.3331 16.9803 14.3678 16.8841 14.3767C16.7879 14.3856 16.6912 14.3683 16.604 14.3267L14.595 13.3567L12.587 14.3267C12.4999 14.3682 12.4032 14.3855 12.3072 14.3766C12.2111 14.3678 12.1192 14.3331 12.0412 14.2764C11.9632 14.2197 11.9019 14.1429 11.8638 14.0543C11.8258 13.9656 11.8124 13.8684 11.825 13.7727L12.123 11.5617L10.578 9.94673C10.5116 9.87707 10.4651 9.79078 10.4436 9.69695C10.4221 9.60312 10.4264 9.50522 10.4558 9.41359C10.4853 9.32195 10.539 9.23997 10.6112 9.17628C10.6834 9.1126 10.7714 9.06957 10.866 9.05173L13.061 8.65173L14.116 6.68673C14.334 6.30773 14.872 6.30773 15.075 6.68673V6.68573Z" fill="url(#paint10_linear_197_29207)"/>
<path opacity="0.75" d="M26.119 13.3037C26.5993 13.3037 27.0599 13.1129 27.3996 12.7733C27.7392 12.4337 27.93 11.973 27.93 11.4927C27.93 11.0124 27.7392 10.5518 27.3996 10.2122C27.0599 9.87253 26.5993 9.68173 26.119 9.68173C25.6387 9.68173 25.1781 9.87253 24.8384 10.2122C24.4988 10.5518 24.308 11.0124 24.308 11.4927C24.308 11.973 24.4988 12.4337 24.8384 12.7733C25.1781 13.1129 25.6387 13.3037 26.119 13.3037Z" fill="url(#paint11_linear_197_29207)"/>
<path opacity="0.9" d="M10.048 4.93673L10.641 5.48173L11.437 5.35773C11.588 5.33373 11.707 5.48773 11.642 5.62773L11.306 6.36273L11.671 7.08173C11.6867 7.11295 11.6937 7.14784 11.6912 7.18271C11.6887 7.21758 11.6769 7.25113 11.6569 7.27982C11.6369 7.3085 11.6096 7.33126 11.5777 7.34568C11.5459 7.36009 11.5107 7.36564 11.476 7.36173L10.676 7.26873L10.106 7.83773C10.0813 7.86224 10.0503 7.87959 10.0165 7.88795C9.98271 7.89631 9.94727 7.89537 9.91395 7.88522C9.88064 7.87507 9.85069 7.85609 9.82728 7.8303C9.80387 7.80451 9.78788 7.77287 9.781 7.73873L9.62 6.94873L8.901 6.58273C8.86988 6.56695 8.84361 6.54304 8.825 6.51352C8.80639 6.48401 8.79613 6.45 8.79531 6.41512C8.79449 6.38024 8.80314 6.34579 8.82034 6.31543C8.83754 6.28508 8.86265 6.25995 8.893 6.24273L9.594 5.84573L9.721 5.04973C9.72715 5.01499 9.74248 4.98253 9.76538 4.95571C9.78829 4.92888 9.81795 4.90866 9.85129 4.89714C9.88463 4.88561 9.92045 4.88321 9.95503 4.89017C9.98961 4.89713 10.0217 4.9132 10.048 4.93673Z" fill="url(#paint12_linear_197_29207)"/>
<path opacity="0.9" d="M20.97 6.62274L20.903 7.17274L21.291 7.56674C21.3077 7.58382 21.3195 7.60512 21.325 7.62837C21.3305 7.65161 21.3297 7.67592 21.3225 7.69871C21.3153 7.72149 21.3021 7.7419 21.2842 7.75776C21.2663 7.77362 21.2445 7.78432 21.221 7.78874L20.677 7.89574L20.422 8.38574C20.4109 8.40698 20.3942 8.42482 20.3738 8.43737C20.3533 8.44991 20.3299 8.4567 20.3059 8.457C20.2819 8.45731 20.2583 8.45113 20.2375 8.43911C20.2168 8.42709 20.1997 8.40969 20.188 8.38874L19.92 7.90574L19.375 7.81574C19.3513 7.81174 19.3291 7.80139 19.3108 7.78579C19.2925 7.7702 19.2788 7.74993 19.2711 7.72716C19.2634 7.70439 19.2621 7.67996 19.2671 7.65646C19.2722 7.63297 19.2836 7.61129 19.3 7.59374L19.676 7.18874L19.594 6.64074C19.5907 6.6172 19.5937 6.59321 19.6028 6.57125C19.6119 6.5493 19.6267 6.53018 19.6457 6.51588C19.6647 6.50159 19.6872 6.49265 19.7108 6.48998C19.7344 6.48732 19.7583 6.49103 19.78 6.50074L20.282 6.73374L20.776 6.48574C20.875 6.44074 20.984 6.51774 20.971 6.62274H20.97Z" fill="url(#paint13_linear_197_29207)"/>
</g>
<defs>
<linearGradient id="paint0_linear_197_29207" x1="26.948" y1="34.4017" x2="9.989" y2="2.90774" gradientUnits="userSpaceOnUse">
<stop stop-color="#A776BB" stop-opacity="0"/>
<stop offset="1" stop-color="#794496"/>
</linearGradient>
<linearGradient id="paint1_linear_197_29207" x1="24.115" y1="19.9547" x2="28.095" y2="21.1897" gradientUnits="userSpaceOnUse">
<stop stop-color="#F85473"/>
<stop offset="0.22" stop-color="#F2627C"/>
<stop offset="0.46" stop-color="#F58697"/>
<stop offset="0.72" stop-color="#F79CA5"/>
<stop offset="0.98" stop-color="#FABCB9"/>
<stop offset="1" stop-color="#FABEBA"/>
</linearGradient>
<linearGradient id="paint2_linear_197_29207" x1="26.199" y1="20.7467" x2="22.023" y2="13.4877" gradientUnits="userSpaceOnUse">
<stop stop-color="#D3B3DB"/>
<stop offset="0.32" stop-color="#A776BB"/>
<stop offset="0.599" stop-color="#9059AC"/>
<stop offset="0.84" stop-color="#794496"/>
</linearGradient>
<linearGradient id="paint3_linear_197_29207" x1="2.602" y1="12.5907" x2="19.621" y2="29.2237" gradientUnits="userSpaceOnUse">
<stop stop-color="#F2627C"/>
<stop offset="0.297" stop-color="#F58697"/>
<stop offset="0.625" stop-color="#F79CA5"/>
<stop offset="1" stop-color="#FABCB9"/>
</linearGradient>
<linearGradient id="paint4_linear_197_29207" x1="6.33101" y1="15.2537" x2="12.751" y2="26.7087" gradientUnits="userSpaceOnUse">
<stop stop-color="white"/>
<stop offset="1" stop-color="white" stop-opacity="0"/>
</linearGradient>
<linearGradient id="paint5_linear_197_29207" x1="11.979" y1="15.2537" x2="18.399" y2="26.7087" gradientUnits="userSpaceOnUse">
<stop stop-color="white"/>
<stop offset="1" stop-color="white" stop-opacity="0"/>
</linearGradient>
<linearGradient id="paint6_linear_197_29207" x1="17.306" y1="15.2537" x2="23.726" y2="26.7087" gradientUnits="userSpaceOnUse">
<stop stop-color="white"/>
<stop offset="1" stop-color="white" stop-opacity="0"/>
</linearGradient>
<linearGradient id="paint7_linear_197_29207" x1="8.281" y1="18.0457" x2="8.281" y2="21.2057" gradientUnits="userSpaceOnUse">
<stop stop-color="#D8338C"/>
<stop offset="1" stop-color="#D8338C" stop-opacity="0"/>
</linearGradient>
<linearGradient id="paint8_linear_197_29207" x1="14.003" y1="18.0457" x2="14.003" y2="21.2057" gradientUnits="userSpaceOnUse">
<stop stop-color="#D8338C"/>
<stop offset="1" stop-color="#D8338C" stop-opacity="0"/>
</linearGradient>
<linearGradient id="paint9_linear_197_29207" x1="19.254" y1="18.0457" x2="19.254" y2="21.2057" gradientUnits="userSpaceOnUse">
<stop stop-color="#D8338C"/>
<stop offset="1" stop-color="#D8338C" stop-opacity="0"/>
</linearGradient>
<linearGradient id="paint10_linear_197_29207" x1="13.578" y1="8.00173" x2="29.033" y2="21.5487" gradientUnits="userSpaceOnUse">
<stop stop-color="#FFE600"/>
<stop offset="1" stop-color="#FF6B00"/>
</linearGradient>
<linearGradient id="paint11_linear_197_29207" x1="27.287" y1="7.26073" x2="28.553" y2="13.1147" gradientUnits="userSpaceOnUse">
<stop offset="0.271" stop-color="#26BE6C"/>
<stop offset="0.771" stop-color="#77EA77"/>
<stop offset="1" stop-color="#6CEC80"/>
</linearGradient>
<linearGradient id="paint12_linear_197_29207" x1="8.774" y1="4.74573" x2="11.94" y2="7.34673" gradientUnits="userSpaceOnUse">
<stop stop-color="#FFCB00"/>
<stop offset="1" stop-color="#FB8342" stop-opacity="0"/>
</linearGradient>
<linearGradient id="paint13_linear_197_29207" x1="20.568" y1="5.83674" x2="20.381" y2="8.64174" gradientUnits="userSpaceOnUse">
<stop stop-color="#FFCB00"/>
<stop offset="1" stop-color="#FB8342" stop-opacity="0"/>
</linearGradient>
<clipPath id="clip0_197_29207">
<rect width="24" height="24" fill="white" transform="translate(4 4.40173)"/>
</clipPath>
</defs>
</svg>
