<svg width="32" height="33" viewBox="0 0 32 33" fill="none" xmlns="http://www.w3.org/2000/svg">
<rect y="0.401733" width="32" height="32" rx="16" fill="#E1E4F3"/>
<g clip-path="url(#clip0_197_29229)">
<path d="M5.82401 14.9377C5.82401 13.0812 6.5615 11.3007 7.87426 9.98797C9.18701 8.67521 10.9675 7.93771 12.824 7.93771H19.108C20.9645 7.93771 22.745 8.67521 24.0578 9.98797C25.3705 11.3007 26.108 13.0812 26.108 14.9377V19.7007C26.108 21.5572 25.3705 23.3377 24.0578 24.6505C22.745 25.9632 20.9645 26.7007 19.108 26.7007H12.825C10.9685 26.7007 9.18801 25.9632 7.87526 24.6505C6.5625 23.3377 5.82501 21.5572 5.82501 19.7007V14.9377H5.82401Z" fill="url(#paint0_linear_197_29229)"/>
<path d="M6 13.0517C6 11.7256 6.52678 10.4539 7.46447 9.51619C8.40215 8.57851 9.67392 8.05173 11 8.05173H21C22.3261 8.05173 23.5979 8.57851 24.5355 9.51619C25.4732 10.4539 26 11.7256 26 13.0517V17.0517C26 18.3778 25.4732 19.6496 24.5355 20.5873C23.5979 21.5249 22.3261 22.0517 21 22.0517H11C9.67392 22.0517 8.40215 21.5249 7.46447 20.5873C6.52678 19.6496 6 18.3778 6 17.0517V13.0517Z" fill="url(#paint1_linear_197_29229)"/>
<path d="M22.264 7.93771V11.8517L19.576 20.1447L15.978 25.6087L12.467 20.6867L9.692 7.93671H22.264V7.93771Z" fill="url(#paint2_linear_197_29229)"/>
<path d="M21.544 7.93771H22.305C22.555 8.59471 24.352 10.0917 26.132 11.6927V15.4827C25.7908 15.6568 25.4379 15.8072 25.076 15.9327C25.23 16.0857 25.352 16.2707 25.43 16.4797C25.521 16.7208 25.5483 16.9813 25.5093 17.236C25.4702 17.4907 25.3661 17.731 25.207 17.9337L19.257 26.6767H17.912L21.544 7.93671V7.93771Z" fill="url(#paint3_linear_197_29229)"/>
<path d="M10.73 7.93771H9.59901C9.34901 8.64771 7.60401 10.3847 5.82401 12.1147V16.2117C6.12901 16.3807 6.48101 16.5487 6.87901 16.6987C6.61335 16.9902 6.45548 17.3639 6.43164 17.7576C6.40781 18.1513 6.51945 18.5413 6.74801 18.8627L12.7 26.6767H14.045L10.73 7.93671V7.93771Z" fill="url(#paint4_linear_197_29229)"/>
<path d="M21.571 7.93771C21.571 7.93771 23.065 10.4867 26.424 12.9787C26.678 13.1677 26.68 13.5487 26.426 13.7387C25.683 14.2967 24.074 15.2087 21.571 15.1187C21.571 15.1187 22.354 15.9007 24.034 16.2847C24.1158 16.3038 24.1915 16.3431 24.2542 16.3989C24.3169 16.4547 24.3647 16.5253 24.3932 16.6043C24.4218 16.6833 24.4301 16.7682 24.4175 16.8512C24.4049 16.9342 24.3717 17.0128 24.321 17.0797L17.912 26.6767H15.991L21.571 7.93671V7.93771Z" fill="url(#paint5_linear_197_29229)"/>
<path d="M10.66 7.93771C10.66 7.93771 9.212 10.8117 6.006 13.5057C5.94871 13.5576 5.90288 13.6209 5.87146 13.6915C5.84004 13.7621 5.82371 13.8385 5.82352 13.9158C5.82333 13.9931 5.83929 14.0695 5.87037 14.1403C5.90145 14.2111 5.94696 14.2746 6.004 14.3267C6.714 14.9307 8.249 15.9157 10.638 15.8187C10.638 15.8187 9.891 16.6647 8.287 17.0787C7.949 17.1667 7.804 17.6247 8.014 17.9387L14.143 26.6767H15.977L10.659 7.93671L10.66 7.93771Z" fill="url(#paint6_linear_197_29229)"/>
<path opacity="0.9" d="M16.994 7.81672C19.568 9.96672 22.004 9.61572 20.599 6.80372C22.004 3.99272 19.568 3.64172 16.994 5.79172V7.81672Z" fill="url(#paint7_linear_197_29229)"/>
<path opacity="0.9" d="M15.16 7.81672C12.586 9.96672 10.15 9.61572 11.555 6.80372C10.149 3.99272 12.585 3.64172 15.16 5.79172V7.81672Z" fill="url(#paint8_linear_197_29229)"/>
<path opacity="0.9" d="M15.747 5.36871H16.575C17.281 5.36871 17.854 6.01871 17.854 6.81871C17.854 7.62071 17.281 8.26971 16.574 8.26971H15.747C15.041 8.26971 14.469 7.61971 14.469 6.81971C14.469 6.01771 15.041 5.36871 15.747 5.36871Z" fill="url(#paint9_linear_197_29229)"/>
<path d="M16.123 12.7077C16.0491 12.7109 15.9754 12.699 15.9062 12.673C15.837 12.6469 15.7739 12.607 15.7205 12.5559C15.6671 12.5047 15.6246 12.4433 15.5956 12.3753C15.5666 12.3073 15.5516 12.2341 15.5516 12.1602C15.5516 12.0863 15.5666 12.0131 15.5956 11.9451C15.6246 11.8771 15.6671 11.8157 15.7205 11.7645C15.7739 11.7134 15.837 11.6736 15.9062 11.6475C15.9754 11.6214 16.0491 11.6096 16.123 11.6127C16.2642 11.6187 16.3975 11.6791 16.4953 11.7811C16.593 11.8831 16.6476 12.0189 16.6476 12.1602C16.6476 12.3015 16.593 12.4373 16.4953 12.5393C16.3975 12.6414 16.2642 12.7017 16.123 12.7077ZM16.123 15.6137C16.0491 15.6169 15.9754 15.605 15.9062 15.579C15.837 15.5529 15.7739 15.513 15.7205 15.4619C15.6671 15.4107 15.6246 15.3493 15.5956 15.2813C15.5666 15.2133 15.5516 15.1401 15.5516 15.0662C15.5516 14.9923 15.5666 14.9191 15.5956 14.8511C15.6246 14.7831 15.6671 14.7217 15.7205 14.6705C15.7739 14.6194 15.837 14.5796 15.9062 14.5535C15.9754 14.5274 16.0491 14.5156 16.123 14.5187C16.2642 14.5247 16.3975 14.5851 16.4953 14.6871C16.593 14.7891 16.6476 14.9249 16.6476 15.0662C16.6476 15.2075 16.593 15.3433 16.4953 15.4453C16.3975 15.5474 16.2642 15.6077 16.123 15.6137ZM16.123 18.5197C16.0491 18.5229 15.9754 18.511 15.9062 18.485C15.837 18.4589 15.7739 18.419 15.7205 18.3679C15.6671 18.3167 15.6246 18.2553 15.5956 18.1873C15.5666 18.1193 15.5516 18.0461 15.5516 17.9722C15.5516 17.8983 15.5666 17.8251 15.5956 17.7571C15.6246 17.6891 15.6671 17.6277 15.7205 17.5765C15.7739 17.5254 15.837 17.4856 15.9062 17.4595C15.9754 17.4334 16.0491 17.4216 16.123 17.4247C16.2642 17.4307 16.3975 17.4911 16.4953 17.5931C16.593 17.6951 16.6476 17.8309 16.6476 17.9722C16.6476 18.1135 16.593 18.2493 16.4953 18.3513C16.3975 18.4534 16.2642 18.5137 16.123 18.5197Z" fill="#39444D"/>
</g>
<defs>
<linearGradient id="paint0_linear_197_29229" x1="-3.11099" y1="27.0407" x2="24.829" y2="7.21371" gradientUnits="userSpaceOnUse">
<stop stop-color="#676C7C"/>
<stop offset="1" stop-color="#676C7C" stop-opacity="0.7"/>
</linearGradient>
<linearGradient id="paint1_linear_197_29229" x1="-2.81" y1="22.3047" x2="19.231" y2="1.63773" gradientUnits="userSpaceOnUse">
<stop stop-color="#676C7C"/>
<stop offset="1" stop-color="#676C7C" stop-opacity="0.7"/>
</linearGradient>
<linearGradient id="paint2_linear_197_29229" x1="9.692" y1="6.50971" x2="37.253" y2="21.6467" gradientUnits="userSpaceOnUse">
<stop stop-color="#F9F3FF"/>
<stop offset="1" stop-color="white" stop-opacity="0.2"/>
</linearGradient>
<linearGradient id="paint3_linear_197_29229" x1="12.352" y1="21.0157" x2="39.67" y2="0.465706" gradientUnits="userSpaceOnUse">
<stop stop-color="#1C1F2B" stop-opacity="0.9"/>
<stop offset="1" stop-color="#181C2B" stop-opacity="0"/>
</linearGradient>
<linearGradient id="paint4_linear_197_29229" x1="0.264006" y1="22.1937" x2="31.092" y2="1.08171" gradientUnits="userSpaceOnUse">
<stop stop-color="#1C1F2B" stop-opacity="0.7"/>
<stop offset="1" stop-color="#181C2B" stop-opacity="0"/>
</linearGradient>
<linearGradient id="paint5_linear_197_29229" x1="26.616" y1="19.5647" x2="7.003" y2="14.6587" gradientUnits="userSpaceOnUse">
<stop stop-color="#676C7C"/>
<stop offset="1" stop-color="#676C7C" stop-opacity="0.2"/>
</linearGradient>
<linearGradient id="paint6_linear_197_29229" x1="15.978" y1="20.6257" x2="-2.989" y2="16.4357" gradientUnits="userSpaceOnUse">
<stop stop-color="#676C7C"/>
<stop offset="1" stop-color="#676C7C"/>
</linearGradient>
<linearGradient id="paint7_linear_197_29229" x1="20.986" y1="5.07672" x2="17.496" y2="6.67372" gradientUnits="userSpaceOnUse">
<stop stop-color="#DB1E42"/>
<stop offset="1" stop-color="#F33D5E" stop-opacity="0.6"/>
</linearGradient>
<linearGradient id="paint8_linear_197_29229" x1="15.136" y1="5.07672" x2="11.645" y2="6.67372" gradientUnits="userSpaceOnUse">
<stop stop-color="#DB1E42"/>
<stop offset="1" stop-color="#F33D5E" stop-opacity="0.6"/>
</linearGradient>
<linearGradient id="paint9_linear_197_29229" x1="17.833" y1="5.77671" x2="15.306" y2="7.38971" gradientUnits="userSpaceOnUse">
<stop stop-color="#DB1E42"/>
<stop offset="1" stop-color="#FF91A4"/>
</linearGradient>
<clipPath id="clip0_197_29229">
<rect width="24" height="24" fill="white" transform="translate(4 4.40173)"/>
</clipPath>
</defs>
</svg>
