<svg xmlns="http://www.w3.org/2000/svg" width="25" height="25" fill="none" viewBox="0 0 25 25">
  <path fill="#55657E" d="M9.455 13.473 5.961 17.56a.666.666 0 0 1-.821.259c-.286-.123-.416-.107-.529.005-.147.148-.112.358.203.673l.971.971c.317.317.524.352.673.203.12-.12.137-.245.025-.512a.666.666 0 0 1 .23-.794l-.001-.002 4.092-3.541-1.349-1.349Zm.426-.497 1.418 1.417 1.162-1.005 1.88-1.626 5.34-5.359c.233-.233.225-.632-.034-.891l-.923-.923c-.259-.26-.657-.266-.89-.033l-5.319 5.339-2.634 3.08Zm-2.038 6.136c.1.555-.05 1.071-.462 1.483-.754.754-1.764.582-2.534-.188l-.972-.971c-.769-.77-.94-1.783-.187-2.535.413-.413.935-.556 1.5-.447 5.142-6.013 6.37-7.449 6.404-7.482l5.32-5.34c.748-.751 1.973-.73 2.734.031l.923.924c.761.761.785 1.988.036 2.74l-5.375 5.391-7.387 6.394Zm-.818-8.48a2.285 2.285 0 1 1 0-4.57 2.285 2.285 0 0 1 0 4.57Zm0-.653a1.632 1.632 0 1 0 0-3.264 1.632 1.632 0 0 0 0 3.264Z"/>
</svg>
