<svg xmlns="http://www.w3.org/2000/svg" width="25" height="25" fill="none" viewBox="0 0 25 25">
  <path fill="#55657E" fill-rule="evenodd" d="M4.566 10.984a7.78 7.78 0 0 0-.077 1.097c0 2.042.793 3.898 2.089 5.278.948-3.592 3.24-6.674 6.335-8.723-.331-.333-.678-.65-1.04-.947a6.395 6.395 0 0 1-3.18.856 5.783 5.783 0 0 0-4.127 2.439Zm.32-1.35a6.42 6.42 0 0 1 4.4-1.765 5.75 5.75 0 0 0 2.035-.61 13.316 13.316 0 0 0-3.17-1.744 7.736 7.736 0 0 0-3.266 4.118Zm9.029-5.077a7.74 7.74 0 0 0-5.036.56 14.03 14.03 0 0 1 3.039 1.786 5.8 5.8 0 0 0 1.997-2.346Zm.629.17a6.441 6.441 0 0 1-2.106 2.596c.358.303.702.624 1.032.962a16.005 16.005 0 0 1 4.098-1.748 7.71 7.71 0 0 0-3.025-1.81Zm-2.713 15.06c.406-.771.694-2.523.694-4.492v-.706a5.454 5.454 0 0 1 1.938-4.112 14.42 14.42 0 0 0-1.1-1.367c-3.116 2.029-5.396 5.142-6.252 8.765a7.683 7.683 0 0 0 4.72 1.911Zm.704 0a7.682 7.682 0 0 0 4.721-1.877 15.851 15.851 0 0 0-2.43-6.898 4.81 4.81 0 0 0-1.659 3.64v.643c0 1.849-.239 3.516-.632 4.493Zm7.134-9.656a4.813 4.813 0 0 0-1.68-.3 4.8 4.8 0 0 0-2.65.792 16.45 16.45 0 0 1 2.496 6.73 7.688 7.688 0 0 0 2.082-5.272c0-.674-.086-1.327-.248-1.95Zm-.237-.75a7.707 7.707 0 0 0-1.362-2.31 15.379 15.379 0 0 0-4.152 1.694c.376.42.73.863 1.06 1.326a5.471 5.471 0 0 1 4.454-.711Zm-7.229 11.7a9 9 0 1 1 0-18 9 9 0 0 1 0 18Z" clip-rule="evenodd"/>
</svg>
