<svg xmlns="http://www.w3.org/2000/svg" width="25" height="25" fill="none" viewBox="0 0 25 25">
  <path fill="#fff" fill-rule="evenodd" d="M8.483 16.115c.996.49 2.092.76 3.227.785l1.898-2.174a7.732 7.732 0 0 0-.861-3.685l-3.754-.874a7.72 7.72 0 0 0-1.777 2.771l1.267 3.177Zm-.198.619L7.017 17.79a7.686 7.686 0 0 0 5.186 2.004c.383 0 .76-.028 1.128-.082l-1.626-2.17a8.32 8.32 0 0 1-3.42-.81Zm-3.781-4.168H6.67a8.367 8.367 0 0 1 1.945-2.93V7.297a7.692 7.692 0 0 0-2.302-.199 7.684 7.684 0 0 0-1.81 5.468Zm12.883 2.026a7.726 7.726 0 0 0 1.585-2.36l-1.024-3.495a7.66 7.66 0 0 0-2.8-.804l-1.741 2.99c.521 1.07.808 2.24.842 3.432l3.138.237Zm.373.536v2.304a7.687 7.687 0 0 0 2.14-4.816l-.366-.063a8.372 8.372 0 0 1-1.774 2.575Zm.442-7.898a7.71 7.71 0 0 0-4.593-2.736c-.26.304-.495.626-.703.965l2.106 1.819a8.31 8.31 0 0 1 2.977.764l.213-.812Zm-5.936-1.955c.18-.306.379-.6.596-.881A7.687 7.687 0 0 0 6.94 6.44a8.38 8.38 0 0 1 1.797.225.32.32 0 0 1 .083-.048l3.447-1.342Zm-.063 15.806a9 9 0 1 1 0-18 9 9 0 0 1 0 18Z" clip-rule="evenodd"/>
</svg>
