<svg xmlns="http://www.w3.org/2000/svg" width="25" height="25" fill="none" viewBox="0 0 25 25">
  <path fill="#55657E" d="m15.527 9.312 1.958 1.174.636-1.218-1.955-1.173-.639 1.217Zm-.305.583-2.824 5.377c-.287.547-.925.81-1.514.624l-3.993-1.26a1.819 1.819 0 0 0-2.364 1.72l-.01 1.37v.014a1.82 1.82 0 0 0 1.82 1.816l5.503-.005c.56 0 1.075-.312 1.335-.81l4.005-7.671-1.958-1.175Zm1.25-2.383 1.954 1.173 1.325-2.538a1.21 1.21 0 0 0-.468-1.609l-.038-.02a1.063 1.063 0 0 0-1.435.446l-1.338 2.548ZM5.311 7.89v1.32c0 .934 1.383 1.716 3.286 1.716 1.904 0 3.287-.782 3.287-1.716V7.78c-.692.548-1.873.845-3.305.845-1.458 0-2.6-.244-3.268-.736Zm.003-1.234c.001.802 1.212 1.313 3.265 1.313 1.87 0 3.162-.548 3.301-1.32-.073-.899-1.432-1.638-3.283-1.638-1.855 0-3.215.743-3.283 1.645Zm3.283 4.928c-2.218 0-3.943-.976-3.943-2.373V6.727c0-1.397 1.725-2.373 3.943-2.373 2.219 0 3.944.976 3.944 2.373V9.21c0 1.397-1.725 2.373-3.944 2.373Zm8.05-7.23a2.378 2.378 0 0 1 3.21-1c.042.022.042.022.083.046a2.525 2.525 0 0 1 .976 3.355L14.34 19.35a2.822 2.822 0 0 1-2.5 1.516l-5.503.004a3.132 3.132 0 0 1-3.134-3.13v-.024l.01-1.37a3.132 3.132 0 0 1 4.074-2.964l3.962 1.25 5.397-10.279Z"/>
</svg>
