<svg xmlns="http://www.w3.org/2000/svg" width="25" height="25" fill="none" viewBox="0 0 25 25">
  <path fill="#55657E" d="m16.62 11.557 1.531-1.53-1.53-1.531-1.531 1.53 1.53 1.531Zm.473.473 1.058 1.058a5.563 5.563 0 0 0 1.104-1.958l-.632-.631-1.53 1.53ZM19.5 8.678c-.102-.824-.397-1.588-.882-2.18l-1.525 1.526 1.53 1.53.877-.876Zm.034.91-.438.439.349.349c.048-.262.078-.526.09-.788Zm-3.386 2.442-1.53-1.531-1.531 1.53 1.53 1.531 1.531-1.53Zm.472.472-1.53 1.53.649.65a5.662 5.662 0 0 0 1.94-1.122l-1.059-1.058Zm-3.377 2.433.902-.902-1.53-1.531-1.527 1.526c.596.495 1.347.798 2.155.907Zm.902.042c.281-.01.565-.043.847-.098l-.375-.374-.472.472Zm-1.058-6.953 1.53 1.53 1.531-1.53-1.53-1.531-1.531 1.53Zm-.473-.472 1.531-1.531-.63-.631a5.562 5.562 0 0 0-1.959 1.104l1.059 1.058Zm3.352-2.407-.877.876 1.531 1.53 1.526-1.525c-.592-.485-1.355-.78-2.18-.881Zm-.91-.035a5.8 5.8 0 0 0-.788.09l.35.349.438-.439Zm-2.441 3.386-1.531 1.53 1.53 1.531 1.531-1.53-1.53-1.531Zm-.473-.472-1.058-1.059a5.663 5.663 0 0 0-1.121 1.94l.649.65 1.53-1.531ZM9.71 11.4c.109.808.412 1.559.907 2.155l1.526-1.526-1.53-1.531-.903.902Zm-.042-.902.472-.472-.374-.375a5.587 5.587 0 0 0-.098.847Zm-.808 2.744c-.904 2.466-1.634 4.037-2.222 4.759l-.045.05-1.417 1.417 1.442-1.44c.381-.345 1.062-.72 2.023-1.15.413-.184.874-.376 1.373-.574a56 56 0 0 1 1.38-.524 5.124 5.124 0 0 1-1.497-1.033 5.128 5.128 0 0 1-1.037-1.505Zm-.531-2.509a7.022 7.022 0 0 1 2.04-4.956c2.51-2.51 6.776-2.667 8.97-.472 2.195 2.194 2.037 6.46-.472 8.97a7.023 7.023 0 0 1-4.956 2.04A33.308 33.308 0 0 0 9.185 18.1c-.837.374-1.429.7-1.65.898l-1.887 1.888a.668.668 0 0 1-.945 0l-.944-.944a.668.668 0 0 1 0-.944l1.863-1.863c.598-.757 1.518-2.911 2.698-6.378a.507.507 0 0 1 .008-.022ZM5.045 7.012c.122-.518.385-.996.772-1.383a2.887 2.887 0 0 1 1.303-.751 1.673 1.673 0 0 0-1.147-1.073 2.887 2.887 0 0 1-.74 1.265 2.9 2.9 0 0 1-1.312.754 1.672 1.672 0 0 0 1.124 1.188Zm.673.065a1.67 1.67 0 0 0 1.486-1.53 2.22 2.22 0 0 0-.915.554 2.22 2.22 0 0 0-.571.976ZM3.895 5.135a2.236 2.236 0 0 0 1.39-1.367 1.67 1.67 0 0 0-1.39 1.367Zm1.645 2.62a2.337 2.337 0 1 1 0-4.674 2.337 2.337 0 0 1 0 4.673Z"/>
</svg>
