<svg width="194" height="144" viewBox="0 0 194 144" fill="none" xmlns="http://www.w3.org/2000/svg">
<path d="M189.951 96.3941L183.522 111.32C175.973 128.965 154.937 141.538 125.106 143.4C76.8441 146.392 23.4611 120.171 6.11137 84.9511C-0.519039 71.4867 -0.946806 58.6276 3.75864 47.7099L10.1877 32.7837C5.4823 43.7014 5.91007 56.5605 12.5405 70.0249C29.8902 105.222 83.2732 131.488 131.536 128.473C161.353 126.623 182.352 114.038 189.951 96.3941Z" fill="url(#paint0_linear_227_12568)"/>
<path d="M68.6048 0.716122C116.867 -2.27597 170.25 23.9334 187.6 59.1647C204.95 94.3959 179.812 125.47 131.537 128.474C83.2621 131.477 29.8918 105.222 12.542 70.0253C-4.80776 34.8282 20.3425 3.70821 68.6048 0.716122Z" fill="#198CFF"/>
<path d="M183.22 59.4273C166.713 25.909 116.098 1.05867 70.1755 3.9023C24.2533 6.74593 0.398904 36.2329 16.9309 69.7511C33.4629 103.269 84.0528 128.12 129.975 125.276C175.897 122.432 199.739 92.9455 183.22 59.4273Z" fill="url(#paint1_linear_227_12568)"/>
<path d="M187.612 59.1646C187.222 58.3766 186.819 57.6 186.354 56.8806C185.372 55.0762 184.299 53.2984 183.133 51.5473C182.806 51.0449 182.466 50.5424 182.114 50.0513C180.73 48.0756 179.232 46.1228 177.622 44.227L177.006 43.5075L175.747 42.1028C173.621 39.7157 171.362 37.4287 168.979 35.2507C168.01 34.3714 167.028 33.5035 166.022 32.6584L164.5 31.3793L162.939 30.1345C153.414 22.7236 142.782 16.572 131.36 11.8622C130.366 11.4511 129.36 11.0399 128.353 10.6517L127.334 10.2519C124.642 9.22412 121.903 8.26484 119.118 7.37406L117.03 6.73454C103.258 2.4911 88.7962 0.386892 74.2531 0.510518C72.3533 0.510518 70.4787 0.613303 68.5663 0.727505C54.3493 1.60686 42.1453 4.93013 32.4325 10.0692C31.1743 10.7202 30.042 11.3825 28.9097 12.0792C28.1548 12.5474 27.4125 13.027 26.6953 13.5181C25.9782 14.0092 25.2736 14.5117 24.5817 15.0256C23.5626 15.7907 22.5686 16.5901 21.625 17.4124L20.7066 18.2347C15.987 22.4972 12.3239 27.6248 9.96205 33.275C9.9272 33.3454 9.89777 33.4179 9.87398 33.492C9.76075 33.7547 9.6601 34.0174 9.55945 34.28C9.52026 34.3696 9.48665 34.4611 9.45879 34.5541C9.33298 34.8967 9.20717 35.2279 9.09393 35.5705L8.75424 36.6212C8.74841 36.6705 8.74841 36.7203 8.75424 36.7696C8.65358 37.0551 8.57809 37.3406 8.50261 37.6261C8.50261 37.7175 8.50261 37.7974 8.42712 37.8774C8.33905 38.2086 8.26356 38.5283 8.17549 38.8481C8.1 39.145 8.03709 39.4419 7.97419 39.7274C7.78547 40.5269 7.64707 41.3377 7.52126 42.16V42.2285C7.52126 42.5482 7.43319 42.868 7.39544 43.1878C7.39544 43.3362 7.39544 43.4961 7.39544 43.6446C7.39544 43.8616 7.39544 44.0785 7.39544 44.307C7.38344 44.459 7.38344 44.6117 7.39544 44.7638C7.39544 45.015 7.39544 45.2548 7.33254 45.5061V45.666C7.33254 45.9971 7.33254 46.3283 7.33254 46.6481V46.8194C7.22901 50.5822 7.61756 54.3429 8.49003 58.0226C8.641 58.6621 8.80456 59.3017 8.9807 59.9412C9.182 60.6835 9.40847 61.4144 9.64751 62.1567C9.88656 62.899 10.113 63.55 10.3772 64.2466C10.4527 64.475 10.5408 64.7148 10.6414 64.9432C10.9057 65.6399 11.195 66.3479 11.497 67.0446C11.5976 67.2844 11.6983 67.5242 11.8115 67.7526C12.0128 68.2323 12.2267 68.7005 12.4532 69.1687C12.5664 69.4085 12.6796 69.6369 12.8055 69.8768C13.4471 71.1787 14.0636 72.4691 14.8688 73.7482C15.1708 74.2621 15.4727 74.776 15.7872 75.2785C16.5547 76.5462 17.3851 77.8024 18.3035 79.0358C18.8194 79.7781 19.3604 80.5204 19.914 81.2513C20.6437 82.222 21.4111 83.1927 22.2038 84.152C22.5938 84.6316 22.9964 85.1113 23.4619 85.5795L24.7201 86.9842C26.1921 88.6287 27.7522 90.2275 29.3752 91.7921L30.7843 93.1283L32.2186 94.4416C41.3426 102.485 51.7409 109.245 63.0682 114.495C64.666 115.249 66.2765 115.969 67.9121 116.665C75.2979 119.928 82.9854 122.596 90.8857 124.637C92.7478 125.093 94.6601 125.516 96.5096 125.893H96.5725H96.7361C108.142 128.25 119.861 129.111 131.536 128.451L133.537 128.302L134.795 128.188H135.298L136.091 128.12L136.707 128.051H136.858H136.959C137.45 128.051 137.94 127.948 138.418 127.88C138.884 127.88 139.349 127.766 139.815 127.697L140.519 127.594L141.929 127.377L142.759 127.252L143.338 127.149H143.463L144.722 126.921H144.885C145.061 126.921 145.237 126.921 145.401 126.818C145.647 126.784 145.89 126.739 146.131 126.681H146.206L146.848 126.544L148.207 126.247L149.603 125.916L151.037 125.55H151.113H151.302L152.56 125.219H152.711L153.78 124.911L154.12 124.808L154.309 124.751L156.007 124.225L156.8 123.963L157.366 123.769L157.932 123.575L158.335 123.426L158.662 123.312C158.813 123.264 158.96 123.207 159.102 123.141C159.354 123.061 159.593 122.958 159.844 122.866L161.455 122.227L162.222 121.907L163.254 121.45L164.009 121.108L165.015 120.64C165.368 120.48 165.72 120.297 166.072 120.126L166.236 120.046L166.739 119.783L167.028 119.635L167.683 119.292L168.513 118.835C169.268 118.424 170.01 117.99 170.727 117.556L171.407 117.133L171.784 116.894L172.313 116.551L172.451 116.46L173.143 116.003L173.256 115.923L174.087 115.341L174.2 115.272L174.904 114.758L174.992 114.69L175.232 114.518L175.596 114.244L175.848 114.05L176.238 113.742C176.291 113.703 176.342 113.661 176.389 113.616C176.428 113.596 176.462 113.569 176.49 113.536L177.219 112.942L178.012 112.269L178.704 111.663L178.767 111.595L179.459 110.967C179.698 110.75 179.924 110.544 180.138 110.327L180.428 110.042C180.805 109.676 181.157 109.311 181.51 108.9L182.025 108.351L182.29 108.054L182.73 107.563C182.817 107.478 182.897 107.386 182.969 107.289C183.12 107.129 183.246 106.97 183.384 106.81C183.523 106.65 183.837 106.261 184.064 105.987C184.29 105.713 184.378 105.565 184.542 105.359L184.68 105.177C184.844 104.971 184.982 104.777 185.121 104.583C185.259 104.389 185.498 104.08 185.662 103.829C185.989 103.384 186.278 102.938 186.58 102.481L186.693 102.299L186.781 102.15C186.895 101.979 187.008 101.808 187.108 101.625C187.143 101.584 187.169 101.538 187.184 101.488C187.297 101.328 187.385 101.168 187.486 100.997L187.675 100.677C187.8 100.46 187.926 100.232 188.039 100.015C188.153 99.7977 188.19 99.752 188.253 99.6149C188.48 99.1886 188.694 98.766 188.895 98.3473C189.008 98.1417 189.096 97.9362 189.197 97.7306C189.298 97.525 189.31 97.4908 189.36 97.3652L189.436 97.2167C189.511 97.0454 189.587 96.8741 189.65 96.7028C189.713 96.5315 189.851 96.246 189.939 96.0176C194.645 84.94 194.104 72.3435 187.612 59.1646ZM129.964 125.276C117.764 125.952 105.522 124.9 93.6788 122.158L93.402 122.101C85.2267 120.23 77.2649 117.66 69.6231 114.427H69.5099C45.8694 104.377 26.104 88.4117 16.9322 69.7511C0.425338 36.2443 24.2671 6.75736 70.2019 3.90232C116.137 1.04727 166.739 25.909 183.246 59.4273C199.753 92.9455 175.886 122.421 129.964 125.276Z" fill="url(#paint2_linear_227_12568)"/>
<path d="M176.717 59.8394L171.986 60.1363C172.464 61.2098 173.005 62.2833 173.433 63.3568L178.252 63.2654C177.799 62.1234 177.22 60.9814 176.717 59.8394Z" fill="#198CFF"/>
<path d="M173.77 64.3505L173.946 64.8073L178.79 64.8187L178.614 64.3276L173.77 64.3505Z" fill="#198CFF"/>
<path d="M174.284 65.7314L174.624 66.805L179.518 66.942L179.153 65.8L174.284 65.7314Z" fill="#198CFF"/>
<path d="M176.25 74.5137L176.363 75.5757L181.37 76.2952L181.257 75.176L176.25 74.5137Z" fill="#198CFF"/>
<path d="M176.402 76.3296L176.44 77.3688L181.46 78.2025L181.435 77.0947L176.402 76.3296Z" fill="#198CFF"/>
<path d="M174.927 67.7754L175.041 68.1294L179.96 68.3693L179.847 67.981L174.927 67.7754Z" fill="#198CFF"/>
<path d="M176.022 83.4668L175.946 83.8893L180.928 85.1684L181.016 84.7116L176.022 83.4668Z" fill="#198CFF"/>
<path d="M175.77 84.7466L175.556 85.7401L180.526 87.1334L180.74 86.0713L175.77 84.7466Z" fill="#198CFF"/>
<path d="M175.316 86.6191L175.216 86.9389L180.173 88.4121L180.261 88.0695L175.316 86.6191Z" fill="#198CFF"/>
<path d="M175.267 69.1011C175.656 70.608 175.954 72.1329 176.161 73.6692L181.193 74.263C180.973 72.6434 180.662 71.0349 180.262 69.4437L175.305 69.1468L175.267 69.1011Z" fill="#198CFF"/>
<path d="M176.464 78.3169L176.363 80.4982C176.363 81.2291 176.212 81.9371 176.136 82.6566L181.169 83.7986C181.257 83.0334 181.383 82.2797 181.421 81.5146L181.521 79.2305L176.489 78.3283L176.464 78.3169Z" fill="#198CFF"/>
<path d="M175.219 86.9512C174.954 87.9256 174.63 88.8863 174.251 89.8291L179.132 91.485C179.533 90.4813 179.877 89.4598 180.164 88.4244L175.219 86.9512Z" fill="#198CFF"/>
<path d="M173.898 90.6963L173.721 91.0846L178.565 92.8319L178.754 92.4093L173.898 90.6963Z" fill="#198CFF"/>
<path d="M173.352 91.8843C173.214 92.1926 173.063 92.501 172.899 92.7979L177.693 94.6594C177.869 94.3396 178.02 94.0084 178.171 93.6887L173.352 91.8843Z" fill="#198CFF"/>
<path d="M168.725 99.0327L168.02 99.8321L172.487 102.15L173.241 101.294L168.725 99.0327Z" fill="#198CFF"/>
<path d="M167.514 100.403L166.76 101.18L171.151 103.578L171.956 102.756L167.514 100.403Z" fill="#198CFF"/>
<path d="M172.461 93.6084L172.298 93.9053L177.041 95.8353L177.217 95.5156L172.461 93.6084Z" fill="#198CFF"/>
<path d="M161.781 105.52L161.379 105.805L165.405 108.5C165.556 108.397 165.707 108.306 165.832 108.203L161.781 105.52Z" fill="#198CFF"/>
<path d="M160.562 106.354L159.618 107.004L163.543 109.791L164.55 109.094L160.562 106.354Z" fill="#198CFF"/>
<path d="M158.713 107.575L158.373 107.781L162.21 110.613L162.575 110.396L158.713 107.575Z" fill="#198CFF"/>
<path d="M171.83 94.7168L170.635 96.5555L169.302 98.3256L173.856 100.553L175.278 98.6568L176.548 96.6925L171.83 94.7168Z" fill="#198CFF"/>
<path d="M166.069 101.888C164.94 102.966 163.747 103.987 162.496 104.948L166.597 107.598C167.924 106.576 169.184 105.486 170.372 104.332L166.031 101.888H166.069Z" fill="#198CFF"/>
<path d="M158.369 107.781C157.866 108.09 157.362 108.398 156.847 108.695L155.249 109.551L158.872 112.498L160.583 111.596C161.137 111.287 161.665 110.945 162.206 110.625L158.432 107.781H158.369Z" fill="#198CFF"/>
<path d="M154.245 110.054L153.779 110.282L157.314 113.286L157.818 113.046L154.245 110.054Z" fill="#198CFF"/>
<path d="M152.808 110.739C152.431 110.911 152.078 111.093 151.688 111.253L155.073 114.359C155.488 114.188 155.878 113.994 156.331 113.811L152.808 110.739Z" fill="#198CFF"/>
<path d="M142.832 114.325L141.523 114.656L144.241 117.945L145.637 117.602L142.832 114.325Z" fill="#198CFF"/>
<path d="M140.579 114.896C140.139 115.01 139.711 115.124 139.246 115.204L141.762 118.528C142.242 118.445 142.717 118.339 143.184 118.208L140.529 114.896H140.579Z" fill="#198CFF"/>
<path d="M150.622 111.686L150.232 111.846L153.529 114.952L153.944 114.781L150.622 111.686Z" fill="#198CFF"/>
<path d="M131.007 116.563L130.403 116.643L132.391 120.069L133.033 119.99L131.007 116.563Z" fill="#198CFF"/>
<path d="M129.169 116.769L127.71 116.894L129.534 120.332L131.082 120.206L129.169 116.769Z" fill="#198CFF"/>
<path d="M126.402 116.998L125.911 117.032L127.609 120.492L128.125 120.446L126.402 116.998Z" fill="#198CFF"/>
<path d="M149.173 112.28L146.581 113.194C145.726 113.502 144.807 113.731 143.927 114.016L146.795 117.271C147.751 116.974 148.72 116.711 149.638 116.392L152.394 115.409L149.173 112.28Z" fill="#198CFF"/>
<path d="M138.026 115.5L136.591 115.797L135.119 116.037C134.138 116.186 133.169 116.368 132.15 116.471L134.251 119.897C135.333 119.783 136.365 119.589 137.422 119.429L138.982 119.178L140.517 118.858L138.001 115.512L138.026 115.5Z" fill="#198CFF"/>
<path d="M121.457 117.202L122.866 120.628C124.464 120.628 126.024 120.513 127.609 120.456L125.911 117.03C124.413 117.03 122.954 117.179 121.457 117.19V117.202Z" fill="#198CFF"/>
<path d="M119.42 117.214L120.703 120.674H121.382L120.061 117.214H119.42Z" fill="#198CFF"/>
<path d="M116.601 117.168L117.696 120.629L119.319 120.674L118.124 117.214L116.601 117.168Z" fill="#198CFF"/>
<path d="M103.893 116.072L104.145 119.464L105.806 119.681L105.453 116.277L103.893 116.072Z" fill="#198CFF"/>
<path d="M101.214 115.649L101.302 119.007L102.963 119.281L102.786 115.912L101.214 115.649Z" fill="#198CFF"/>
<path d="M114.714 117.112L115.695 120.572L116.223 120.584L115.229 117.123L114.714 117.112Z" fill="#198CFF"/>
<path d="M91.2972 113.559L90.7184 116.78L91.4105 116.962L91.9515 113.73L91.2972 113.559Z" fill="#198CFF"/>
<path d="M88.4176 112.806L87.6501 115.97L89.2983 116.404L89.9651 113.206L88.4176 112.806Z" fill="#198CFF"/>
<path d="M86.5181 112.235L85.6248 115.364L86.1658 115.535L87.0339 112.383L86.5181 112.235Z" fill="#198CFF"/>
<path d="M106.773 116.46L107.214 119.886C109.554 120.149 111.894 120.378 114.196 120.503L113.316 117.077C111.152 116.963 108.962 116.746 106.773 116.506V116.46Z" fill="#198CFF"/>
<path d="M93.1979 114.038L92.7576 117.281C93.9276 117.544 95.0851 117.841 96.2677 118.081L99.7905 118.766V115.42L96.4816 114.769C95.387 114.563 94.2925 114.278 93.1853 114.038H93.1979Z" fill="#198CFF"/>
<path d="M81.9406 110.784L80.6824 113.822C82.3054 114.359 83.9159 114.907 85.5641 115.375L86.4573 112.246C84.9098 111.801 83.4 111.287 81.8777 110.784H81.9406Z" fill="#198CFF"/>
<path d="M79.9007 110.054L78.5671 113.046L79.2591 113.297L80.5424 110.294L79.9007 110.054Z" fill="#198CFF"/>
<path d="M77.1062 109.026L75.5964 111.949C76.1249 112.166 76.6533 112.361 77.1943 112.555L78.5782 109.597C78.075 109.414 77.5717 109.231 77.081 109.026H77.1062Z" fill="#198CFF"/>
<path d="M65.2428 103.67L62.9656 106.239L64.4502 106.993L66.652 104.378L65.2428 103.67Z" fill="#198CFF"/>
<path d="M62.8907 102.414L60.45 104.892L61.8968 105.691L64.2495 103.156L62.8907 102.414Z" fill="#198CFF"/>
<path d="M75.2964 108.295L73.6482 111.162L74.1766 111.379L75.7745 108.49L75.2964 108.295Z" fill="#198CFF"/>
<path d="M54.5234 97.3438L51.5291 99.5136L52.1078 99.9019L55.0645 97.7206C54.8757 97.6064 54.6996 97.4808 54.5234 97.3552V97.3438Z" fill="#198CFF"/>
<path d="M52.2311 95.7549L49.0857 97.8105L50.4067 98.7127L53.4766 96.6114L52.2311 95.7549Z" fill="#198CFF"/>
<path d="M50.7614 94.6699L47.5154 96.657L47.9306 96.9654L51.1514 94.9668L50.7614 94.6699Z" fill="#198CFF"/>
<path d="M67.8477 104.983L65.7214 107.632L68.9423 109.163L72.2261 110.59L73.9498 107.747L70.8673 106.41L67.8477 104.983Z" fill="#198CFF"/>
<path d="M56.0966 98.3706L53.2029 100.655C55.1153 101.899 57.1157 103.087 59.1413 104.229L61.6576 101.785C59.7075 100.655 57.8832 99.5126 56.0966 98.3706Z" fill="#198CFF"/>
<path d="M47.2653 91.9756L43.8054 93.8028L45.6297 95.2646C46.2336 95.7443 46.8879 96.2011 47.5043 96.6807L50.7503 94.6936C50.159 94.2482 49.4922 93.8257 48.9764 93.3689L47.2653 91.9984V91.9756Z" fill="#198CFF"/>
<path d="M45.7652 90.7188L42.1922 92.4432L42.6954 92.8658L46.2307 91.1185L45.7652 90.7188Z" fill="#198CFF"/>
<path d="M43.7426 88.9712L40.0437 90.5814C40.4211 90.924 40.8112 91.2438 41.2012 91.5864L44.8371 89.9191L43.7426 88.9712Z" fill="#198CFF"/>
<path d="M35.9313 80.8071L31.7166 81.8806L32.6098 82.9656L36.7743 81.835L35.9313 80.8071Z" fill="#198CFF"/>
<path d="M34.5437 79.0596L30.2283 80.0075C30.5051 80.3843 30.7944 80.7383 31.0964 81.1495L35.3615 80.1331C35.0722 79.8019 34.7954 79.4479 34.5437 79.1053V79.0596Z" fill="#198CFF"/>
<path d="M42.4821 87.7842L38.6952 89.3031L39.06 89.6457L42.8344 88.104L42.4821 87.7842Z" fill="#198CFF"/>
<path d="M30.002 72.3555L25.3845 72.858L25.6739 73.3376L30.2662 72.8123L30.002 72.3555Z" fill="#198CFF"/>
<path d="M28.9075 70.3682L24.2146 70.745L24.8185 71.887L29.4611 71.4417L28.9075 70.3682Z" fill="#198CFF"/>
<path d="M28.2022 69.0557L23.4841 69.3412L23.6729 69.7181L28.3909 69.4097L28.2022 69.0557Z" fill="#198CFF"/>
<path d="M37.5416 82.7017L33.4275 83.9008C34.1195 84.6431 34.7737 85.4197 35.5034 86.1848L37.7051 88.4689L41.555 86.95L39.4917 84.8601C38.7997 84.1634 38.2335 83.444 37.5416 82.7359V82.7017Z" fill="#198CFF"/>
<path d="M30.772 73.6685L26.2175 74.2624C26.6705 75.0732 27.2492 75.8612 27.765 76.6492L28.5703 77.7912L29.4384 78.9333L33.8042 78.0539L32.9864 76.9119L32.2315 75.7699C31.7408 75.0276 31.2124 74.2853 30.772 73.4858V73.6685Z" fill="#198CFF"/>
<path d="M21.9646 65.9146C22.4175 67.0566 22.9963 68.1986 23.4995 69.3407L28.2302 69.0438C27.7521 67.9703 27.2111 66.8967 26.7833 65.8232L21.9646 65.9032V65.9146Z" fill="#198CFF"/>
<path d="M21.3474 64.3613L21.5361 64.8524L26.38 64.8295L26.2038 64.3728L21.3474 64.3613Z" fill="#198CFF"/>
<path d="M20.6316 62.2373L20.9839 63.3793L25.8655 63.4478L25.5258 62.3743L20.6316 62.2373Z" fill="#198CFF"/>
<path d="M18.7693 52.8843L18.8951 54.0035L23.8899 54.6544L23.7893 53.6038L18.7693 52.8843Z" fill="#198CFF"/>
<path d="M18.6921 50.9658L18.7173 52.0736L23.7373 52.8502L23.7122 51.8109L18.6921 50.9658Z" fill="#198CFF"/>
<path d="M20.1785 60.8213L20.2917 61.1982L25.2236 61.4037L25.1104 61.0383L20.1785 60.8213Z" fill="#198CFF"/>
<path d="M19.2176 44.0107L19.1169 44.4676L24.1243 45.7124L24.1998 45.2898L19.2176 44.0107Z" fill="#198CFF"/>
<path d="M19.6208 42.0459L19.3943 43.0966L24.3765 44.4327L24.5778 43.4392L19.6208 42.0459Z" fill="#198CFF"/>
<path d="M19.9744 40.7559L19.8738 41.1099L24.8308 42.5603L24.9188 42.2291L19.9744 40.7559Z" fill="#198CFF"/>
<path d="M18.9799 54.9741C19.1996 56.5901 19.5103 58.1949 19.9109 59.782L24.8554 60.079C24.4789 58.5896 24.1849 57.0841 23.9747 55.568L18.9421 54.9741H18.9799Z" fill="#198CFF"/>
<path d="M19.0063 45.3349C18.9183 46.1115 18.7924 46.8652 18.7547 47.619L18.6541 49.903L23.6866 50.8052L23.7872 48.6239C23.7872 47.9045 23.9382 47.1964 24.0137 46.477L18.9812 45.2778L19.0063 45.3349Z" fill="#198CFF"/>
<path d="M21.0051 37.6953C20.6043 38.7029 20.26 39.7282 19.9734 40.7674L24.9179 42.2291C25.1569 41.2584 25.5343 40.3106 25.874 39.3627L21.0051 37.6953Z" fill="#198CFF"/>
<path d="M21.582 36.3472L21.3933 36.7697L26.2372 38.4827L26.4259 38.0944L21.582 36.3472Z" fill="#198CFF"/>
<path d="M22.4427 34.5317C22.2666 34.8401 22.1156 35.1713 21.9646 35.5024L26.7833 37.3068C26.9137 36.9905 27.065 36.6816 27.2363 36.3818L22.4427 34.5317Z" fill="#198CFF"/>
<path d="M27.6503 27.0288L26.908 27.8853L31.4247 30.1465L32.1293 29.3357L27.6503 27.0288Z" fill="#198CFF"/>
<path d="M28.9953 25.5898L28.1775 26.4121L32.6187 28.7647L33.3861 27.9995L28.9953 25.5898Z" fill="#198CFF"/>
<path d="M23.0939 33.333L22.9177 33.6528L27.6862 35.5714L27.8497 35.2744L23.0939 33.333Z" fill="#198CFF"/>
<path d="M34.7187 20.7134C34.5803 20.8162 34.4293 20.9075 34.3035 21.0217L38.317 23.6712C38.4428 23.5684 38.5937 23.4885 38.7196 23.3857L34.7187 20.7134Z" fill="#198CFF"/>
<path d="M36.6088 19.3774L35.6023 20.0741L39.5781 22.8263L40.5343 22.164L36.6088 19.3774Z" fill="#198CFF"/>
<path d="M37.9418 18.5659L37.5769 18.7829L41.4268 21.6037L41.7665 21.3981L37.9418 18.5659Z" fill="#198CFF"/>
<path d="M26.2782 28.6279L24.8565 30.5237L23.5984 32.488L28.3164 34.4637L29.499 32.625L30.8452 30.8435L26.2782 28.6279Z" fill="#198CFF"/>
<path d="M33.5261 21.5815C32.1991 22.6068 30.9388 23.7012 29.7517 24.8591L34.0923 27.3031C35.2186 26.2187 36.4116 25.1931 37.6655 24.231L33.5513 21.5815H33.5261Z" fill="#198CFF"/>
<path d="M41.2626 16.6821L39.5515 17.5957C38.9979 17.9041 38.4695 18.2467 37.9285 18.5665L41.7659 21.4101C42.2691 21.1017 42.7724 20.782 43.2882 20.4965L44.8861 19.64L41.2626 16.6821Z" fill="#198CFF"/>
<path d="M42.836 15.894L42.3328 16.1339L45.8933 19.1145L46.3714 18.8976L42.836 15.894Z" fill="#198CFF"/>
<path d="M45.0592 14.8671C44.6441 15.0384 44.254 15.2325 43.864 15.4152L47.3239 18.4302C47.7013 18.2589 48.0662 18.0761 48.4562 17.9163L45.0592 14.8442V14.8671Z" fill="#198CFF"/>
<path d="M55.8964 11.2227L54.5125 11.5767L57.3182 14.8543L58.6267 14.5231L55.8964 11.2227Z" fill="#198CFF"/>
<path d="M58.3113 10.6514C57.8332 10.7427 57.3677 10.8569 56.9022 10.9825L59.5569 14.283C59.9972 14.1688 60.4376 14.066 60.8905 13.9746L58.3742 10.6514H58.3113Z" fill="#198CFF"/>
<path d="M46.6093 14.2266L46.1941 14.3979L49.5281 17.4927L49.9182 17.3329L46.6093 14.2266Z" fill="#198CFF"/>
<path d="M67.7556 9.10986L67.1013 9.18981L69.127 12.6159L69.7434 12.5359L67.7556 9.10986Z" fill="#198CFF"/>
<path d="M70.6156 8.84863L69.0681 8.97426L70.9805 12.4117L72.4399 12.2861L70.6156 8.84863Z" fill="#198CFF"/>
<path d="M72.5399 8.68848L72.0115 8.73416L73.7477 12.1831L74.2384 12.1374L72.5399 8.68848Z" fill="#198CFF"/>
<path d="M53.3406 11.9199C52.3845 12.2168 51.4031 12.4681 50.4973 12.7993L47.7419 13.77L50.9628 16.9105L53.5545 15.9969C54.4101 15.6886 55.3285 15.4487 56.2092 15.1747L53.3406 11.9199Z" fill="#198CFF"/>
<path d="M65.8845 9.34999C64.7899 9.45278 63.7582 9.64692 62.7139 9.81823L61.1413 10.0695L59.6189 10.3892L62.1352 13.7354L63.5695 13.4384L65.0415 13.1986C66.0229 13.0387 66.9917 12.856 68.0108 12.7532L65.9096 9.32715L65.8845 9.34999Z" fill="#198CFF"/>
<path d="M72.5251 8.69913L74.2362 12.1252C75.7208 12.0681 77.1803 11.9653 78.6775 11.9539L77.2684 8.52783C75.6705 8.52783 74.1104 8.65346 72.5251 8.71056V8.69913Z" fill="#198CFF"/>
<path d="M78.7654 8.50507L80.0864 11.9654H80.7281L79.4448 8.49365L78.7654 8.50507Z" fill="#198CFF"/>
<path d="M80.8318 8.50537L82.0144 11.9657L83.5368 12.0114L82.4422 8.55105L80.8318 8.50537Z" fill="#198CFF"/>
<path d="M94.3435 9.49951L94.6957 12.9027L96.2431 13.1083L96.0041 9.71649L94.3435 9.49951Z" fill="#198CFF"/>
<path d="M97.1853 9.89893L97.3614 13.2679L98.9216 13.5306L98.8461 10.173L97.1853 9.89893Z" fill="#198CFF"/>
<path d="M83.9285 8.59766L84.9223 12.058H85.4256L84.4569 8.60908L83.9285 8.59766Z" fill="#198CFF"/>
<path d="M108.737 12.2163L108.196 15.4368L108.863 15.6195L109.442 12.399L108.737 12.2163Z" fill="#198CFF"/>
<path d="M110.849 12.7764L110.182 15.9626L111.717 16.3737L112.485 13.2103L110.849 12.7764Z" fill="#198CFF"/>
<path d="M113.972 13.645L113.117 16.7856L113.633 16.9455L114.513 13.8163L113.972 13.645Z" fill="#198CFF"/>
<path d="M85.9382 8.69948L86.8189 12.1255C88.9829 12.2283 91.172 12.4567 93.3612 12.6966L92.9082 9.27049C90.5807 9.01925 88.2406 8.77943 85.9382 8.65381V8.69948Z" fill="#198CFF"/>
<path d="M100.344 10.4351V13.7812L103.653 14.4207C104.748 14.6377 105.843 14.9118 106.937 15.163L107.39 11.9083C106.233 11.657 105.062 11.3487 103.88 11.1203L100.357 10.4351H100.344Z" fill="#198CFF"/>
<path d="M114.511 13.8608L113.618 16.99C115.165 17.4239 116.675 17.9493 118.185 18.4403L119.443 15.414C117.82 14.8772 116.21 14.272 114.562 13.8608H114.511Z" fill="#198CFF"/>
<path d="M120.889 15.8828L119.606 18.8863L120.248 19.1147L121.581 16.1341L120.889 15.8828Z" fill="#198CFF"/>
<path d="M122.953 16.6362L121.531 19.5712C122.034 19.754 122.525 19.9253 123.016 20.1422L124.538 17.2872L122.953 16.6933V16.6362Z" fill="#198CFF"/>
<path d="M135.698 22.1753L133.496 24.8019L134.892 25.51L137.182 22.9404L135.698 22.1753Z" fill="#198CFF"/>
<path d="M138.254 23.4771L135.888 26.0123L137.247 26.7661L139.7 24.2765L138.254 23.4771Z" fill="#198CFF"/>
<path d="M125.961 17.8008L124.376 20.6901L124.854 20.8842L126.49 18.0063L125.961 17.8008Z" fill="#198CFF"/>
<path d="M148.031 29.3022L145.074 31.4835C145.263 31.5977 145.439 31.7233 145.602 31.8375L148.609 29.6791C148.408 29.5535 148.232 29.4164 148.031 29.3022Z" fill="#198CFF"/>
<path d="M149.742 30.4551L146.673 32.5678L147.906 33.4129L151.064 31.3687L149.742 30.4551Z" fill="#198CFF"/>
<path d="M152.207 32.2139L148.999 34.2124L149.389 34.5093L152.635 32.5222L152.207 32.2139Z" fill="#198CFF"/>
<path d="M127.912 18.5894L126.201 21.433L129.271 22.7691L132.303 24.1967L134.417 21.5358L131.208 20.0169L127.912 18.5894Z" fill="#198CFF"/>
<path d="M141.01 25.0068L138.494 27.4508C140.381 28.5357 142.268 29.6435 144.055 30.8197L146.936 28.5928C145.024 27.348 143.036 26.1603 141.023 25.0068H141.01Z" fill="#198CFF"/>
<path d="M152.633 32.5337L149.375 34.5094C149.979 34.9548 150.633 35.3887 151.161 35.8341L152.872 37.2045L156.332 35.4002L154.521 33.9498C153.904 33.4701 153.262 33.0019 152.633 32.5337Z" fill="#198CFF"/>
<path d="M157.451 36.3125L153.916 38.0598L154.381 38.4595L157.954 36.735L157.451 36.3125Z" fill="#198CFF"/>
<path d="M158.936 37.603L155.325 39.2704C155.69 39.5787 156.067 39.8871 156.407 40.2068L160.106 38.5966C159.741 38.2654 159.338 37.9342 158.961 37.603H158.936Z" fill="#198CFF"/>
<path d="M167.531 46.2031L163.379 47.3451L164.209 48.3615L168.436 47.2995L167.531 46.2031Z" fill="#198CFF"/>
<path d="M169.075 48.1221L164.809 49.1385C165.099 49.4697 165.376 49.8123 165.627 50.1663L169.93 49.207C169.666 48.8415 169.377 48.4761 169.075 48.1221Z" fill="#198CFF"/>
<path d="M161.088 39.5225L157.313 41.0756L157.666 41.3954L161.453 39.8651L161.088 39.5225Z" fill="#198CFF"/>
<path d="M174.474 55.8296L169.869 56.3663L170.146 56.8232L174.763 56.3207L174.474 55.8296Z" fill="#198CFF"/>
<path d="M175.32 57.2915L170.677 57.7369L171.244 58.799L175.924 58.4221L175.32 57.2915Z" fill="#198CFF"/>
<path d="M176.476 59.4619L171.758 59.7703L171.934 60.1243L176.664 59.8388L176.476 59.4619Z" fill="#198CFF"/>
<path d="M162.434 40.8013L158.584 42.2745L160.647 44.353C161.339 45.0496 161.905 45.7805 162.597 46.4771L166.711 45.3351C166.019 44.5814 165.365 43.8162 164.635 43.051L162.434 40.8241V40.8013Z" fill="#198CFF"/>
<path d="M170.69 50.1777L166.337 51.0685L167.154 52.2105L167.897 53.3525C168.4 54.0949 168.928 54.8257 169.356 55.5795L173.923 54.9856C173.458 54.1862 172.892 53.3982 172.363 52.6102L171.571 51.4682L170.69 50.3262V50.1777Z" fill="#198CFF"/>
<path d="M83.7626 16.4194H82.8568C80.7054 16.4194 78.5539 16.4194 76.4151 16.5907H76.3019H75.4337L76.0628 17.8584H76.9309H77.0568C79.1369 17.7366 81.2338 17.6795 83.3475 17.6871H84.2407L83.7626 16.4194ZM70.8164 17.1161L69.9734 17.2303C67.8975 17.5158 65.8845 17.8926 63.9343 18.3723L63.1417 18.5436L64.0979 19.777L64.8905 19.6057C66.7903 19.1717 68.753 18.8291 70.7786 18.5322L71.6216 18.4294L70.8164 17.1161ZM97.3254 17.5729L96.3944 17.4358C94.1297 17.1161 91.8567 16.8686 89.5753 16.6935L88.6568 16.625L88.9336 17.904L89.852 17.9726C92.0748 18.1401 94.2891 18.3799 96.495 18.692L97.4261 18.8291L97.3254 17.5729ZM58.9898 19.5714L58.235 19.8112C56.4357 20.409 54.6719 21.0914 52.9508 21.8554L52.2714 22.1524L53.5295 23.2944L54.2215 22.986C55.8983 22.2681 57.616 21.6314 59.3673 21.0789L60.1096 20.839L58.9898 19.5714ZM110.083 20.2452C107.835 19.6209 105.562 19.0727 103.264 18.6007L102.333 18.4065L102.245 19.6285L103.176 19.8226C105.407 20.2795 107.621 20.8124 109.819 21.4215L110.737 21.6727L111.001 20.5307L110.083 20.2452ZM48.7486 23.8654L48.1321 24.2194C46.6179 25.0546 45.1678 25.9817 43.7915 26.9945L43.2379 27.3942L44.7477 28.3878L45.2887 27.9881C46.6332 27.0108 48.0406 26.107 49.5035 25.2815L50.1325 24.9275L48.7486 23.8654ZM123.382 24.8475C121.234 23.9415 119.045 23.1155 116.814 22.3693L115.921 22.0496L115.468 23.1916L116.374 23.4999C118.525 24.2308 120.664 25.0417 122.765 25.9096L123.646 26.275L124.262 25.213L123.382 24.8475ZM40.4826 29.6783L40.0045 30.1237C38.8538 31.2009 37.7821 32.3453 36.7962 33.5497L36.3936 34.0408L38.0795 34.8744L38.4696 34.3834C39.4302 33.1985 40.4768 32.073 41.6023 31.0144L42.0804 30.5576L40.4826 29.6783ZM135.787 30.9116C133.824 29.7696 131.798 28.719 129.735 27.7026L128.892 27.2914L128.1 28.2736L128.905 28.7076C130.918 29.6897 132.88 30.7404 134.805 31.8367L135.598 32.2935L136.554 31.3913L135.787 30.9116ZM34.5442 36.8273L34.2422 37.3526C33.4748 38.6479 32.8105 39.9913 32.2543 41.3725L32.0279 41.9435L33.8396 42.5602L34.0661 42.0007C34.5999 40.6553 35.239 39.3462 35.9784 38.0835L36.3056 37.5468L34.5442 36.8273ZM146.884 38.2777C145.206 36.9529 143.432 35.6777 141.562 34.4519L140.807 33.9494L139.712 34.7488L140.467 35.2513C142.254 36.4504 143.977 37.6838 145.638 38.9743L146.33 39.5111L147.588 38.8144L146.884 38.2777ZM31.0591 45.027L30.9333 45.6208C30.5993 47.0818 30.3806 48.5626 30.2791 50.0519V50.6686L32.1411 51.0569V50.4402C32.2405 48.9935 32.4507 47.5549 32.7702 46.1348L32.9086 45.5409L31.0591 45.027ZM156.118 46.6487C154.751 45.1717 153.279 43.7594 151.702 42.4118L151.073 41.8408L149.702 42.4346L150.318 43.0056C151.811 44.3532 153.233 45.7465 154.583 47.1854L155.137 47.7793L156.634 47.2996L156.118 46.6487ZM32.8205 59.4279C32.4845 57.9202 32.2575 56.3943 32.1411 54.8598V54.2431L30.2791 53.969V54.5971C30.4051 56.166 30.6404 57.7261 30.9836 59.268L31.122 59.9075L32.9463 60.0446L32.8205 59.4279ZM163.189 55.7163C162.183 54.1517 161.113 52.6214 159.931 51.1482L159.452 50.5315L157.842 50.8627L158.32 51.4794C159.452 52.9412 160.505 54.4334 161.478 55.9561L161.868 56.5842L163.567 56.3444L163.189 55.7163ZM36.0665 68.6782C35.33 67.1899 34.6873 65.6647 34.1415 64.1101L33.9025 63.4706H32.0279L32.2543 64.1101C32.8445 65.6644 33.5248 67.1892 34.2925 68.6782L34.6071 69.3292L36.3559 69.215L36.0665 68.6782ZM167.907 65.2522C167.339 63.6471 166.671 62.0724 165.907 60.5356V60.4214L165.58 59.7819L163.831 59.8961L164.158 60.5356V60.6498C164.896 62.1405 165.546 63.6653 166.108 65.2179L166.334 65.8574H168.134L167.907 65.2522ZM41.791 77.6545C40.6587 76.1927 39.6061 74.7233 38.6331 73.2463L38.2431 72.6068L36.5572 72.8466L36.9598 73.4633C37.9411 75.0393 39.0357 76.5696 40.1932 78.0313L40.6713 78.6366L42.2691 78.2826L41.791 77.6545ZM169.895 74.6167C169.779 73.0476 169.548 71.4872 169.203 69.9459L169.065 69.3063L167.228 69.1693L167.366 69.8088C167.697 71.3168 167.92 72.8427 168.033 74.3769V74.9936L169.895 75.2677V74.6167ZM49.7551 86.1854C48.2579 84.8378 46.8362 83.4331 45.5151 82.0056L44.949 81.4117L43.4644 81.8914L44.018 82.4852C45.3893 83.9584 46.8362 85.386 48.3837 86.7792L49.0002 87.3502L50.3842 86.7564L49.7551 86.1854ZM168.083 78.1912V78.7965C167.975 80.2436 167.756 81.6822 167.429 83.1019L167.303 83.6958L169.14 84.2097L169.279 83.6158C169.611 82.1541 169.833 80.6737 169.945 79.1848V78.5795L168.083 78.1912ZM59.707 93.894C57.9036 92.6911 56.1758 91.4463 54.5234 90.1596L53.8315 89.6228L52.5733 90.3309L53.2527 90.8562C54.9638 92.1924 56.7378 93.46 58.5747 94.6934L59.3295 95.1959L60.4241 94.3965L59.707 93.894ZM166.372 86.6764L166.146 87.236C165.577 88.5829 164.904 89.8918 164.133 91.1531L163.818 91.6785L165.58 92.4094L165.882 91.884C166.649 90.5848 167.313 89.2376 167.869 87.8527L168.096 87.3045L166.372 86.6764ZM71.1309 100.472C69.1053 99.4785 67.1426 98.4392 65.2176 97.3315L64.425 96.8747L63.4688 97.7768L64.274 98.2337C66.2367 99.3681 68.2581 100.442 70.3383 101.454L71.1686 101.854L71.9613 100.883L71.1309 100.472ZM162.019 94.3165L161.629 94.8076C160.67 96.015 159.619 97.1598 158.484 98.2337L158.006 98.6905L159.616 99.6041L160.081 99.1587C161.24 98.0845 162.316 96.9398 163.302 95.7326L163.705 95.2416L162.019 94.3165ZM83.6872 105.737C81.5232 104.975 79.3927 104.168 77.2958 103.316L76.4151 102.95L75.7986 104.012L76.6793 104.366C78.8349 105.257 81.0199 106.087 83.2342 106.856L84.1401 107.164L84.593 106.022L83.6872 105.737ZM155.401 100.883L154.848 101.283C153.504 102.257 152.096 103.157 150.633 103.978L150.004 104.332L151.388 105.406L152.004 105.052C153.511 104.211 154.961 103.288 156.345 102.288L156.898 101.888L155.401 100.883ZM96.9354 109.357C94.7085 108.9 92.4816 108.363 90.2798 107.758L89.3614 107.507L89.0972 108.649L90.0156 108.9C92.2677 109.517 94.5575 110.042 96.8473 110.545L97.7783 110.75L97.8664 109.517L96.9354 109.357ZM146.519 105.954L145.827 106.239C144.151 106.963 142.433 107.604 140.681 108.158L139.926 108.386L141.046 109.528L141.788 109.288C143.591 108.721 145.36 108.065 147.085 107.324L147.764 107.027L146.519 105.954ZM111.127 111.276L110.196 111.207C107.982 111.036 105.768 110.796 103.553 110.476L102.635 110.35L102.735 111.607L103.654 111.732C105.931 112.052 108.196 112.303 110.486 112.486L111.404 112.555L111.127 111.276ZM135.963 109.471L135.17 109.654C133.283 110.065 131.32 110.419 129.295 110.705L128.439 110.819L129.244 112.075L130.087 111.961C132.163 111.675 134.189 111.31 136.139 110.819L136.932 110.636L135.963 109.471ZM123.998 111.264H123.117C121.016 111.39 118.903 111.447 116.827 111.424H115.921L116.323 112.76H117.217C119.406 112.76 121.582 112.76 123.746 112.577H124.627L123.998 111.264Z" fill="#AAC7FD"/>
<path d="M145.413 73.7952L144.633 72.2078C141.928 66.7033 135.512 61.8611 127.736 59.3829C128.442 58.1296 128.81 56.7421 128.81 55.3345C128.81 53.9269 128.442 52.5394 127.736 51.286L127.044 49.9042C123.27 42.1956 111.569 36.4626 101.013 37.1136L99.1134 37.2278L93.4644 25.7505L81.8895 26.4699L87.5385 37.9472L81.7511 38.3127L76.0894 26.8925L64.5145 27.612L70.1636 39.0322L50.2849 40.2655L54.7262 49.2875L67.4837 48.4995L85.2361 84.5302L74.3658 85.204L76.7814 94.3402L96.8236 93.0954L102.309 104.241L113.884 103.522L108.399 92.3759L114.186 92.0219L119.672 103.157L131.259 102.437L125.773 91.3024L131.511 90.9483C143.488 90.2289 149.716 82.5202 145.413 73.7952ZM130.907 89.6921L123.358 90.1489L128.906 101.295L120.816 101.798L115.331 90.6514L106.046 91.2339L111.531 102.369L103.454 102.871L97.9685 91.7363L78.2283 92.9583L76.5046 86.4031L87.6392 85.7065L68.6286 47.1062L55.934 47.8942L52.7509 41.4304L72.6421 40.197L66.9301 28.7083L74.9948 28.2058L80.6565 39.6831L89.9416 39.1121L84.2925 27.6348L92.3698 27.1323L98.0189 38.6096L101.667 38.3812C111.255 37.7874 121.873 42.9493 125.321 49.9955L126 51.3774C126.697 52.6022 127.027 53.972 126.956 55.3492C126.885 56.7263 126.417 58.0623 125.597 59.2231L125.119 59.8626L126.377 60.2052C133.926 62.3636 140.343 67.0002 142.947 72.2992L143.74 73.8866C147.627 81.9264 141.89 89.0069 130.907 89.6921ZM120.842 67.9938C117.771 66.4498 114.281 65.7254 110.776 65.9039L94.0305 66.9431L102.838 84.9185L119.583 83.8793C126.377 83.4567 129.913 79.0828 127.472 74.1264C126.042 71.4676 123.703 69.3002 120.804 67.9481L120.842 67.9938ZM119.068 82.6002L104.033 83.5252L96.4839 68.0966L111.481 67.1715C114.47 67.0285 117.443 67.6498 120.062 68.9645C122.568 70.1037 124.599 71.9513 125.849 74.2292C127.887 78.4432 124.855 82.1891 119.03 82.5545L119.068 82.6002ZM111.116 50.8863C109.978 48.8081 108.129 47.1211 105.845 46.0784C103.455 44.8823 100.744 44.3166 98.0189 44.4453L83.4621 45.3475L90.3945 59.4058L104.951 58.5036C110.223 58.1267 112.978 54.7121 111.078 50.8406L111.116 50.8863ZM91.5143 58.0239L85.8526 46.5124L98.6479 45.7244C100.853 45.6033 103.052 46.0381 105.002 46.9806C106.87 47.8325 108.384 49.2108 109.317 50.9092C110.877 54.0726 108.612 56.8819 104.284 57.1446L91.5143 58.0239ZM127.585 74.1264C126.127 71.474 123.761 69.3222 120.842 67.9938C117.771 66.4498 114.281 65.7254 110.776 65.9039L94.0305 66.9431L102.838 84.9185L119.583 83.8793C126.453 83.411 129.988 79.0371 127.547 74.0807L127.585 74.1264ZM119.068 82.6002L104.033 83.5252L96.4839 68.0966L111.481 67.1715C114.47 67.0285 117.443 67.6498 120.062 68.9645C122.568 70.1037 124.599 71.9513 125.849 74.2292C127.887 78.4432 124.855 82.1891 119.03 82.5545L119.068 82.6002ZM111.116 50.8863C109.978 48.8081 108.129 47.1211 105.845 46.0784C103.455 44.8823 100.744 44.3166 98.0189 44.4453L83.4621 45.3475L90.3945 59.4058L104.951 58.5036C110.223 58.1267 112.978 54.7121 111.078 50.8406L111.116 50.8863ZM91.5143 58.0239L85.8526 46.5124L98.6479 45.7244C100.853 45.6033 103.052 46.0381 105.002 46.9806C106.87 47.8325 108.384 49.2108 109.317 50.9092C110.877 54.0726 108.612 56.8819 104.284 57.1446L91.5143 58.0239ZM111.116 50.8863C109.978 48.8081 108.129 47.1211 105.845 46.0784C103.455 44.8823 100.744 44.3166 98.0189 44.4453L83.4621 45.3475L90.3945 59.4058L104.951 58.5036C110.223 58.1267 112.978 54.7121 111.078 50.8406L111.116 50.8863ZM104.31 57.2245L91.5143 58.0239L85.8526 46.5124L98.6479 45.7244C100.853 45.6033 103.052 46.0381 105.002 46.9806C106.87 47.8325 108.384 49.2108 109.317 50.9092C110.89 54.1068 108.625 56.9162 104.272 57.1788L104.31 57.2245ZM127.585 74.1264C126.127 71.474 123.761 69.3222 120.842 67.9938C117.771 66.4498 114.281 65.7254 110.776 65.9039L94.0305 66.9431L102.838 84.9185L119.583 83.8793C126.453 83.411 129.988 79.0371 127.547 74.0807L127.585 74.1264ZM119.068 82.6002L104.033 83.5252L96.4839 68.0966L111.481 67.1715C114.47 67.0285 117.443 67.6498 120.062 68.9645C122.568 70.1037 124.599 71.9513 125.849 74.2292C127.887 78.4432 124.855 82.1891 119.03 82.5545L119.068 82.6002Z" fill="#AAC7FD"/>
<defs>
<linearGradient id="paint0_linear_227_12568" x1="10.54" y1="74.7415" x2="194.901" y2="145.226" gradientUnits="userSpaceOnUse">
<stop offset="0.01" stop-color="#162644"/>
<stop offset="0.32" stop-color="#1B3056"/>
<stop offset="0.75" stop-color="#13213B"/>
</linearGradient>
<linearGradient id="paint1_linear_227_12568" x1="100.073" y1="3.68066" x2="100.073" y2="125.498" gradientUnits="userSpaceOnUse">
<stop offset="0.249558" stop-color="#1A024E"/>
<stop offset="0.94749" stop-color="#312F34" stop-opacity="0.75"/>
</linearGradient>
<linearGradient id="paint2_linear_227_12568" x1="56.5762" y1="0.818867" x2="143.922" y2="156.259" gradientUnits="userSpaceOnUse">
<stop offset="0.03" stop-color="#2237F6"/>
<stop offset="1" stop-color="#5B99F6"/>
</linearGradient>
</defs>
</svg>
