<svg width="542" height="143" viewBox="0 0 542 143" fill="none" xmlns="http://www.w3.org/2000/svg">
<g clip-path="url(#clip0_227_12462)">
<rect x="-146" y="-124.337" width="836" height="360" rx="24" fill="#1B164F" fill-opacity="0.63"/>
<g style="mix-blend-mode:overlay" filter="url(#filter0_f_227_12462)">
<ellipse rx="405.962" ry="394.171" transform="matrix(-0.488284 -0.872685 0.853875 -0.520478 41.0002 -86.8982)" fill="url(#paint0_radial_227_12462)"/>
</g>
<g opacity="0.3" filter="url(#filter1_f_227_12462)">
<path fill-rule="evenodd" clip-rule="evenodd" d="M273.771 -13.0132C273.558 -12.3278 272.808 -11.9345 272.122 -12.1478C271.391 -12.3748 271.003 -13.1122 271.218 -13.8063C271.445 -14.5356 272.183 -14.9229 272.913 -14.6959C273.6 -14.4826 273.994 -13.7337 273.771 -13.0132ZM449.823 146.563L447.378 147.846L444.922 149.165L444.537 149.845L441.84 155.077L442.584 149.238L442.687 148.47L441.411 145.992L440.124 143.55L439.432 143.2L434.179 140.507L440.033 141.267L440.801 141.371L443.246 140.088L445.691 138.805L446.04 138.114L448.751 132.838L447.994 138.721L447.926 139.499L449.213 141.942L450.5 144.384L451.192 144.734L456.445 147.427L450.591 146.667L449.823 146.563ZM243.599 78.491L241.638 79.5198L239.634 80.5349L239.367 81.1166L237.162 85.3549L237.791 80.627L237.856 79.9825L236.824 78.0238L235.793 76.0652L235.224 75.7535L230.964 73.5915L235.699 74.2246L236.344 74.2903L238.304 73.2614L240.265 72.2326L240.576 71.6646L242.737 67.4126L242.152 72.1542L242.042 72.7851L243.118 74.7574L244.15 76.716L244.675 77.0141L248.935 79.176L244.2 78.5429L243.599 78.491ZM278.703 45.2128C278.539 45.74 278.009 46.0184 277.481 45.8543C276.997 45.7039 276.718 45.1739 276.882 44.6467C277.045 44.1195 277.576 43.8411 278.06 43.9915C278.588 44.1556 278.867 44.6856 278.703 45.2128ZM249.279 7.26029C249.053 7.98959 248.315 8.37692 247.619 8.16087C246.889 7.93388 246.5 7.1965 246.727 6.4672C246.94 5.78185 247.69 5.38848 248.411 5.61273C249.107 5.82878 249.492 6.57493 249.279 7.26029ZM364.008 119.675C363.707 120.642 362.693 121.174 361.725 120.873C360.748 120.57 360.22 119.567 360.523 118.592C360.823 117.626 361.829 117.09 362.806 117.394C363.783 117.697 364.311 118.7 364.008 119.675ZM337.265 285.144C337.115 285.628 336.571 285.95 336.043 285.786C335.515 285.622 335.249 285.048 335.399 284.565C335.563 284.037 336.094 283.759 336.622 283.923C337.147 284.096 337.426 284.626 337.265 285.144ZM406.125 297.774C405.898 298.504 405.152 298.888 404.465 298.675C403.735 298.448 403.346 297.711 403.573 296.981C403.786 296.296 404.535 295.903 405.257 296.127C405.952 296.343 406.341 297.08 406.125 297.774ZM372.328 281.192C372.189 281.64 371.716 281.889 371.267 281.749C370.818 281.61 370.569 281.137 370.709 280.689C370.848 280.241 371.321 279.993 371.77 280.132C372.218 280.272 372.465 280.753 372.328 281.192ZM403.028 175.101C402.853 175.663 402.265 175.972 401.702 175.797C401.174 175.633 400.864 175.045 401.039 174.483C401.203 173.956 401.788 173.656 402.316 173.82C402.888 173.998 403.192 174.574 403.028 175.101ZM343.682 129.71C343.508 130.272 342.906 130.625 342.343 130.45C341.735 130.261 341.437 129.638 341.614 129.067C341.789 128.505 342.391 128.152 342.998 128.341C343.567 128.528 343.857 129.148 343.682 129.71ZM245.014 129.901C244.738 130.788 243.781 131.29 242.892 131.014C242.003 130.738 241.499 129.782 241.775 128.894C242.064 127.963 243.022 127.46 243.91 127.737C244.799 128.013 245.303 128.969 245.014 129.901ZM214.569 121.413C214.206 122.582 212.984 123.223 211.848 122.87C210.669 122.504 210.034 121.285 210.397 120.117C210.75 118.983 211.972 118.342 213.142 118.706C214.278 119.058 214.921 120.28 214.569 121.413ZM478.396 124.148C478.145 124.956 477.245 125.428 476.436 125.176C475.582 124.911 475.152 124.026 475.404 123.218C475.668 122.365 476.533 121.882 477.378 122.145C478.185 122.405 478.658 123.304 478.396 124.148ZM466.892 78.467C466.752 78.9152 466.279 79.1633 465.831 79.0238C465.382 78.8843 465.133 78.412 465.272 77.9638C465.422 77.4806 465.884 77.2676 466.333 77.4071C466.782 77.5465 467.042 77.9838 466.892 78.467ZM498.09 73.9403C497.713 75.1528 496.4 75.8049 495.186 75.4275C493.971 75.0501 493.295 73.78 493.672 72.5674C494.048 71.3548 495.326 70.6919 496.54 71.0693C497.757 71.4379 498.466 72.7277 498.09 73.9403ZM435.447 1.95322C435.308 2.40134 434.835 2.64947 434.387 2.50999C433.938 2.37052 433.689 1.89814 433.828 1.45002C433.967 1.0019 434.44 0.75377 434.889 0.893245C435.338 1.03272 435.587 1.5051 435.447 1.95322ZM445.366 43.7302C445.129 44.4946 444.333 44.9122 443.558 44.6715C442.784 44.4309 442.33 43.625 442.567 42.8605C442.805 42.0961 443.645 41.6922 444.41 41.9301C445.188 42.162 445.606 42.957 445.366 43.7302ZM462.519 24.5872C462.38 25.0353 461.907 25.2834 461.458 25.1439C461.009 25.0045 460.761 24.5321 460.9 24.0839C461.039 23.6358 461.512 23.3877 461.961 23.5272C462.401 23.6639 462.656 24.1478 462.519 24.5872ZM467.73 187.942C467.58 188.425 467.036 188.748 466.508 188.584C466.024 188.433 465.714 187.846 465.865 187.362C466.028 186.835 466.603 186.57 467.087 186.721C467.615 186.885 467.894 187.415 467.73 187.942ZM495.474 142.886C495.173 143.852 494.167 144.388 493.191 144.084C492.258 143.794 491.686 142.778 491.989 141.803C492.289 140.836 493.339 140.315 494.272 140.605C495.24 140.905 495.774 141.919 495.474 142.886ZM446.283 176.71C446.095 177.317 445.403 177.68 444.796 177.491C444.145 177.289 443.78 176.597 443.969 175.991C444.168 175.35 444.86 174.987 445.511 175.189C446.121 175.369 446.485 176.06 446.283 176.71ZM357.54 155.955C357.275 156.808 356.424 157.247 355.579 156.984C354.77 156.732 354.285 155.869 354.548 155.025C354.799 154.217 355.698 153.745 356.508 153.997C357.353 154.259 357.791 155.147 357.54 155.955ZM418.233 98.7171C417.755 100.255 416.109 101.111 414.569 100.633C413.029 100.154 412.204 98.5203 412.68 96.9914C413.157 95.4538 414.76 94.5835 416.3 95.062C417.84 95.5406 418.711 97.1794 418.233 98.7171ZM445.841 101.582C445.614 102.312 444.876 102.699 444.181 102.483C443.45 102.256 443.062 101.519 443.288 100.789C443.501 100.104 444.251 99.7107 444.973 99.9349C445.659 100.148 446.054 100.897 445.841 101.582ZM419.32 131.275C419.082 132.039 418.243 132.443 417.477 132.205C416.711 131.967 416.284 131.17 416.521 130.405C416.759 129.641 417.554 129.223 418.329 129.464C419.095 129.702 419.557 130.51 419.32 131.275ZM242.214 158.196C241.976 158.961 241.137 159.364 240.371 159.127C239.641 158.9 239.178 158.091 239.415 157.326C239.653 156.562 240.506 156.114 241.237 156.341C242.011 156.582 242.454 157.423 242.214 158.196ZM212.368 188.715C211.928 190.129 210.441 190.91 209.024 190.47C207.607 190.029 206.824 188.543 207.263 187.128C207.689 185.758 209.19 184.933 210.607 185.373C212.021 185.822 212.794 187.344 212.368 188.715ZM261.026 186.106C260.75 186.994 259.793 187.496 258.904 187.22C258.015 186.944 257.511 185.987 257.787 185.1C258.063 184.212 259.02 183.71 259.909 183.986C260.798 184.263 261.302 185.219 261.026 186.106ZM276.548 127.116C276.322 127.846 275.584 128.233 274.889 128.017C274.158 127.79 273.77 127.053 273.996 126.323C274.209 125.638 274.95 125.242 275.68 125.469C276.376 125.685 276.764 126.422 276.548 127.116ZM258.373 50.544C257.971 51.8357 256.588 52.5619 255.294 52.1599C254.035 51.7688 253.316 50.389 253.717 49.0973C254.108 47.8408 255.489 47.1234 256.738 47.5117C258.041 47.9165 258.76 49.2963 258.373 50.544Z" fill="#A3FBFF"/>
</g>
<path fill-rule="evenodd" clip-rule="evenodd" d="M531.046 149.761C531.643 149.761 532.14 150.273 532.14 150.888C532.14 151.542 531.65 152.046 531.046 152.046C530.411 152.046 529.922 151.542 529.922 150.888C529.922 150.273 530.419 149.761 531.046 149.761ZM614.285 -34.4547L615.907 -32.7843L617.558 -31.114L618.193 -30.9722L623.011 -30.0976L618.193 -29.2231L617.558 -29.1128L615.907 -27.4425L614.285 -25.7721L614.178 -25.1182L613.337 -20.1466L612.496 -25.1182L612.389 -25.7721L610.767 -27.4425L609.146 -29.1128L608.511 -29.2231L603.655 -30.0976L608.511 -30.9722L609.146 -31.114L610.767 -32.7843L612.389 -34.4547L612.496 -35.1086L613.337 -40.0802L614.178 -35.1086L614.285 -34.4547ZM611.119 151.179L612.419 152.519L613.719 153.897L614.247 153.968L618.155 154.693L614.247 155.379L613.719 155.489L612.419 156.828L611.119 158.168L611.012 158.711L610.347 162.738L609.681 158.711L609.574 158.168L608.274 156.828L606.974 155.489L606.446 155.379L602.538 154.693L606.446 153.968L606.974 153.897L608.274 152.519L609.574 151.179L609.681 150.675L610.347 146.649L611.012 150.675L611.119 151.179ZM576.046 130.962C576.505 130.962 576.857 131.325 576.857 131.797C576.857 132.231 576.505 132.593 576.046 132.593C575.587 132.593 575.235 132.231 575.235 131.797C575.235 131.325 575.587 130.962 576.046 130.962ZM553.179 164.613C553.814 164.613 554.303 165.117 554.303 165.739C554.303 166.393 553.814 166.898 553.179 166.898C552.582 166.898 552.085 166.385 552.085 165.739C552.085 165.117 552.582 164.613 553.179 164.613ZM614.109 42.4273C614.951 42.4273 615.624 43.1207 615.624 43.9873C615.624 44.8619 614.958 45.5473 614.109 45.5473C613.268 45.5473 612.595 44.8619 612.595 43.9873C612.595 43.1128 613.26 42.4273 614.109 42.4273ZM752.046 22.2811C752.466 22.2811 752.856 22.6435 752.856 23.1162C752.856 23.5889 752.466 23.9514 752.046 23.9514C751.587 23.9514 751.235 23.5889 751.235 23.1162C751.243 22.6435 751.594 22.2811 752.046 22.2811ZM745.086 -37.1414C745.721 -37.1414 746.21 -36.6292 746.21 -36.0147C746.21 -35.3607 745.721 -34.8565 745.086 -34.8565C744.49 -34.8565 743.993 -35.3686 743.993 -36.0147C743.993 -36.6371 744.482 -37.1414 745.086 -37.1414ZM740.26 -5.34225C740.65 -5.34225 740.964 -5.01922 740.964 -4.61739C740.964 -4.21557 740.65 -3.89254 740.26 -3.89254C739.87 -3.89254 739.557 -4.21557 739.557 -4.61739C739.557 -5.01922 739.878 -5.34225 740.26 -5.34225ZM648.479 -3.49072C648.968 -3.49072 649.358 -3.08889 649.358 -2.58464C649.358 -2.11191 648.968 -1.71009 648.479 -1.71009C648.02 -1.71009 647.637 -2.11191 647.637 -2.58464C647.637 -3.09677 648.02 -3.49072 648.479 -3.49072ZM627.088 56.4753C627.577 56.4753 628.005 56.8772 628.005 57.3814C628.005 57.925 627.585 58.3269 627.088 58.3269C626.598 58.3269 626.17 57.925 626.17 57.3814C626.178 56.8693 626.598 56.4753 627.088 56.4753ZM651.576 136.982C652.348 136.982 652.983 137.636 652.983 138.431C652.983 139.227 652.348 139.881 651.576 139.881C650.765 139.881 650.131 139.227 650.131 138.431C650.131 137.636 650.765 136.982 651.576 136.982ZM652.348 163.99C653.366 163.99 654.176 164.825 654.176 165.842C654.176 166.898 653.366 167.725 652.348 167.725C651.362 167.725 650.551 166.89 650.551 165.842C650.551 164.825 651.362 163.99 652.348 163.99ZM589.445 -52.0954C590.149 -52.0954 590.745 -51.4809 590.745 -50.756C590.745 -49.9918 590.149 -49.4166 589.445 -49.4166C588.703 -49.4166 588.107 -49.9997 588.107 -50.756C588.114 -51.4809 588.711 -52.0954 589.445 -52.0954ZM556.024 -31.114C556.414 -31.114 556.728 -30.791 556.728 -30.3892C556.728 -29.9873 556.414 -29.6643 556.024 -29.6643C555.603 -29.6643 555.32 -29.9873 555.32 -30.3892C555.32 -30.791 555.603 -31.114 556.024 -31.114ZM544.736 -55.4361C545.791 -55.4361 546.632 -54.53 546.632 -53.4427C546.632 -52.3554 545.791 -51.4809 544.736 -51.4809C543.68 -51.4809 542.839 -52.3554 542.839 -53.4427C542.831 -54.53 543.68 -55.4361 544.736 -55.4361ZM503.047 13.9688C503.437 13.9688 503.751 14.2919 503.751 14.6937C503.751 15.0955 503.437 15.4186 503.047 15.4186C502.657 15.4186 502.344 15.0955 502.344 14.6937C502.344 14.2919 502.657 13.9688 503.047 13.9688ZM533.761 -4.7277C534.426 -4.7277 534.954 -4.18406 534.954 -3.49072C534.954 -2.79738 534.426 -2.22221 533.761 -2.22221C533.096 -2.22221 532.568 -2.80526 532.568 -3.49072C532.56 -4.18406 533.088 -4.7277 533.761 -4.7277ZM514.336 -13.8751C514.726 -13.8751 515.039 -13.552 515.039 -13.1502C515.039 -12.7484 514.726 -12.4254 514.336 -12.4254C513.946 -12.4254 513.632 -12.7484 513.632 -13.1502C513.632 -13.5442 513.953 -13.8751 514.336 -13.8751ZM642.712 -59.5725C643.133 -59.5725 643.523 -59.2101 643.523 -58.7373C643.523 -58.304 643.133 -57.9022 642.712 -57.9022C642.253 -57.9022 641.902 -58.304 641.902 -58.7373C641.902 -59.2101 642.253 -59.5725 642.712 -59.5725ZM600.106 -70.792C600.947 -70.792 601.62 -70.1065 601.62 -69.232C601.62 -68.3968 600.955 -67.672 600.106 -67.672C599.265 -67.672 598.592 -68.3968 598.592 -69.232C598.592 -70.0987 599.265 -70.792 600.106 -70.792ZM639.087 -39.2135C639.615 -39.2135 640.074 -38.7408 640.074 -38.1971C640.074 -37.6141 639.615 -37.1414 639.087 -37.1414C638.529 -37.1414 638.07 -37.6141 638.07 -38.1971C638.062 -38.7408 638.521 -39.2135 639.087 -39.2135ZM644.502 38.5036C645.244 38.5036 645.802 39.0867 645.802 39.843C645.802 40.5679 645.236 41.1825 644.502 41.1825C643.798 41.1825 643.202 40.5679 643.202 39.843C643.202 39.0867 643.798 38.5036 644.502 38.5036ZM584.099 3.4742C585.438 3.4742 586.524 4.60088 586.524 5.97968C586.524 7.35848 585.43 8.44577 584.099 8.44577C582.761 8.44577 581.675 7.35848 581.675 5.97968C581.675 4.60088 582.761 3.4742 584.099 3.4742ZM579.564 -19.7921C580.199 -19.7921 580.688 -19.2878 580.688 -18.6654C580.688 -18.0115 580.199 -17.5072 579.564 -17.5072C578.967 -17.5072 578.47 -18.0193 578.47 -18.6654C578.47 -19.28 578.967 -19.7921 579.564 -19.7921ZM609.674 -5.67316C610.339 -5.67316 610.867 -5.09013 610.867 -4.40467C610.867 -3.71921 610.339 -3.16768 609.674 -3.16768C609.008 -3.16768 608.48 -3.71133 608.48 -4.40467C608.48 -5.09013 609.008 -5.67316 609.674 -5.67316ZM674.726 132.089C675.391 132.089 675.919 132.672 675.919 133.357C675.919 134.011 675.391 134.594 674.726 134.594C674.061 134.594 673.495 134.011 673.495 133.357C673.495 132.664 674.053 132.089 674.726 132.089ZM706.312 148.713C707.543 148.713 708.529 149.73 708.529 150.998C708.529 152.267 707.543 153.283 706.312 153.283C705.119 153.283 704.094 152.267 704.094 150.998C704.101 149.73 705.119 148.713 706.312 148.713ZM692.24 109.65C693.012 109.65 693.647 110.304 693.647 111.1C693.647 111.895 693.012 112.549 692.24 112.549C691.467 112.549 690.832 111.895 690.832 111.1C690.832 110.304 691.467 109.65 692.24 109.65ZM641.588 111.943C642.223 111.943 642.712 112.447 642.712 113.069C642.712 113.723 642.223 114.227 641.588 114.227C640.991 114.227 640.494 113.723 640.494 113.069C640.494 112.447 640.984 111.943 641.588 111.943ZM585.292 146.208C586.416 146.208 587.334 147.153 587.334 148.311C587.334 149.438 586.416 150.376 585.292 150.376C584.199 150.376 583.288 149.43 583.288 148.311C583.288 147.145 584.206 146.208 585.292 146.208Z" fill="#A3FBFF"/>
<g opacity="0.4" filter="url(#filter2_f_227_12462)">
<path fill-rule="evenodd" clip-rule="evenodd" d="M661.36 -104.182C662.106 -104.182 662.72 -103.549 662.72 -102.823C662.72 -102.043 662.106 -101.411 661.36 -101.411C660.603 -101.411 660.04 -102.043 660.04 -102.823C660.04 -103.549 660.603 -104.182 661.36 -104.182ZM611.545 164.101C613.242 164.101 614.603 165.513 614.603 167.262C614.603 169.011 613.242 170.423 611.545 170.423C609.857 170.423 608.487 169.011 608.487 167.262C608.487 165.513 609.847 164.101 611.545 164.101ZM485.612 -57.5819L487.023 -56.128L488.434 -54.6741L488.997 -54.5793L493.231 -53.7996L488.997 -53.02L488.434 -52.9251L487.023 -51.4607L485.612 -50.0067L485.52 -49.4273L484.763 -45.0549L484.006 -49.4273L483.914 -50.0067L482.503 -51.4607L481.091 -52.9146L480.529 -53.0094L476.295 -53.7891L480.529 -54.5687L481.091 -54.6635L482.503 -56.1175L483.914 -57.5714L484.006 -58.1509L484.763 -62.5232L485.52 -58.1509L485.612 -57.5819Z" fill="#FF8F05"/>
</g>
<path fill-rule="evenodd" clip-rule="evenodd" d="M124.986 231.93C125.473 231.586 126.174 231.717 126.529 232.218C126.907 232.752 126.799 233.446 126.306 233.795C125.788 234.162 125.097 234.033 124.719 233.5C124.364 232.998 124.474 232.293 124.986 231.93ZM86.4744 33.4839L88.7629 33.9102L91.0763 34.3189L91.6763 34.0678L96.114 31.9975L92.687 35.4954L92.2327 35.9522L91.8496 38.27L91.4915 40.5701L91.782 41.1657L93.9682 45.7093L90.4088 42.1379L89.9436 41.6661L87.6551 41.2397L85.3667 40.8134L84.7849 41.0901L80.316 43.1826L83.7742 39.6626L84.2103 39.18L84.5684 36.8799L84.9265 34.5798L84.636 33.9842L82.4498 29.4406L86.0092 33.012L86.4744 33.4839ZM191.157 186.819L192.992 187.161L194.85 187.535L195.321 187.288L198.93 185.621L196.136 188.439L195.769 188.834L195.482 190.678L195.195 192.522L195.422 193.028L197.205 196.698L194.336 193.797L193.934 193.415L192.099 193.073L190.264 192.731L189.77 192.946L186.184 194.645L188.955 191.795L189.344 191.432L189.609 189.556L189.896 187.711L189.692 187.238L187.909 183.568L190.778 186.469L191.157 186.819ZM150.85 190.585C151.224 190.32 151.721 190.412 151.994 190.798C152.244 191.152 152.167 191.651 151.792 191.916C151.418 192.181 150.921 192.089 150.671 191.735C150.398 191.349 150.475 190.85 150.85 190.585ZM151.631 231.262C152.149 230.896 152.84 231.024 153.2 231.532C153.578 232.066 153.47 232.76 152.952 233.127C152.465 233.472 151.763 233.341 151.39 232.814C151.03 232.306 151.145 231.607 151.631 231.262ZM130.756 96.3328C131.443 95.8467 132.393 96.0237 132.894 96.731C133.399 97.4448 133.252 98.3887 132.559 98.8792C131.873 99.3653 130.927 99.1948 130.422 98.481C129.916 97.7672 130.063 96.8233 130.756 96.3328ZM231.692 0.185366C232.035 -0.0576873 232.563 0.0127093 232.836 0.39853C233.109 0.784351 233 1.30554 232.657 1.54859C232.283 1.81375 231.786 1.72124 231.513 1.33542C231.246 0.945182 231.324 0.446097 231.692 0.185366ZM191.675 -44.2908C192.193 -44.6576 192.889 -44.5224 193.244 -44.0209C193.622 -43.4872 193.514 -42.7928 192.996 -42.426C192.509 -42.0813 191.807 -42.212 191.434 -42.7393C191.074 -43.2473 191.182 -43.9417 191.675 -44.2908ZM206.111 -15.5494C206.43 -15.7748 206.872 -15.6923 207.105 -15.3644C207.337 -15.0364 207.268 -14.5916 206.949 -14.3662C206.631 -14.1408 206.188 -14.2233 205.956 -14.5512C205.724 -14.8792 205.799 -15.3284 206.111 -15.5494ZM132.274 38.9968C132.673 38.7139 133.224 38.8165 133.515 39.2281C133.788 39.6139 133.702 40.1672 133.303 40.45C132.928 40.7152 132.384 40.6082 132.111 40.2224C131.815 39.8044 131.899 39.2619 132.274 38.9968ZM149.466 100.299C149.866 100.016 150.447 100.096 150.739 100.508C151.053 100.952 150.942 101.523 150.536 101.81C150.136 102.093 149.555 102.012 149.241 101.568C148.951 101.146 149.067 100.582 149.466 100.299ZM215.972 151.854C216.602 151.407 217.498 151.574 217.958 152.224C218.418 152.873 218.278 153.774 217.647 154.22C216.986 154.688 216.09 154.521 215.63 153.872C215.17 153.223 215.31 152.322 215.972 151.854ZM232.209 173.45C233.039 172.863 234.183 173.076 234.771 173.905C235.381 174.767 235.197 175.911 234.367 176.498C233.562 177.069 232.418 176.855 231.812 176C231.225 175.171 231.404 174.021 232.209 173.45ZM56.0076 33.4399C56.5818 33.0334 57.4238 33.1902 57.8426 33.7818C58.2842 34.4056 58.1297 35.2197 57.5555 35.6263C56.95 36.0549 56.1263 35.9238 55.6892 35.3065C55.2766 34.7105 55.4083 33.8642 56.0076 33.4399ZM40.8548 69.8759C41.1731 69.6506 41.6157 69.733 41.8479 70.061C42.0801 70.3889 42.0108 70.8337 41.6925 71.0591C41.3492 71.3022 40.9316 71.202 40.6994 70.8741C40.4672 70.5462 40.5115 70.119 40.8548 69.8759ZM17.5877 56.5482C18.4491 55.9384 19.6592 56.1918 20.2875 57.0791C20.9158 57.9665 20.7345 59.1664 19.8732 59.7763C19.0118 60.3861 17.8198 60.1585 17.1916 59.2711C16.5571 58.3881 16.7263 57.1581 17.5877 56.5482ZM23.6686 137.282C23.9869 137.057 24.4295 137.139 24.6617 137.467C24.8939 137.795 24.8246 138.24 24.5063 138.465C24.1879 138.691 23.7454 138.608 23.5132 138.28C23.281 137.953 23.3502 137.508 23.6686 137.282ZM37.932 104.276C38.475 103.891 39.2199 104.03 39.6205 104.596C40.0211 105.162 39.9228 105.936 39.3798 106.32C38.8367 106.705 38.0692 106.534 37.6731 105.974C37.2662 105.413 37.3827 104.664 37.932 104.276ZM16.7922 108.035C17.1105 107.809 17.5531 107.892 17.7852 108.22C18.0174 108.548 17.9482 108.992 17.6299 109.218C17.3115 109.443 16.8689 109.361 16.6368 109.033C16.4091 108.711 16.4801 108.256 16.7922 108.035ZM95.1611 -3.44231C95.5044 -3.68537 96.0322 -3.61495 96.3053 -3.22913C96.5557 -2.87546 96.4696 -2.32213 96.1263 -2.07908C95.7518 -1.81392 95.2325 -1.93859 94.9821 -2.29226C94.7089 -2.67808 94.7866 -3.17716 95.1611 -3.44231ZM53.905 12.0203C54.5916 11.5342 55.537 11.7048 56.0423 12.4186C56.5249 13.1002 56.4007 14.0762 55.7079 14.5668C55.0213 15.0529 54.0532 14.8502 53.5706 14.1686C53.0698 13.4612 53.2184 12.5065 53.905 12.0203ZM103.967 15.2684C104.397 14.9635 105.045 15.0841 105.359 15.5278C105.696 16.0037 105.595 16.6547 105.164 16.9596C104.708 17.2822 104.061 17.1615 103.724 16.6857C103.403 16.2464 103.505 15.5954 103.967 15.2684ZM153.294 75.5685C153.899 75.1398 154.692 75.2931 155.129 75.9104C155.548 76.502 155.441 77.3306 154.842 77.7548C154.268 78.1614 153.426 78.0045 153.007 77.4129C152.57 76.7956 152.72 75.9751 153.294 75.5685ZM83.7548 81.8822C84.8472 81.1088 86.3845 81.4008 87.1813 82.5262C87.978 83.6515 87.7137 85.1708 86.6276 85.9397C85.5353 86.7131 84.0207 86.4532 83.224 85.3279C82.4272 84.2026 82.6625 82.6556 83.7548 81.8822ZM66.6093 65.514C67.1274 65.1472 67.8182 65.2759 68.1779 65.7839C68.5558 66.3176 68.4477 67.012 67.9296 67.3788C67.4427 67.7235 66.7411 67.5928 66.3678 67.0655C66.0126 66.5639 66.1224 65.8587 66.6093 65.514ZM99.3417 59.6387C99.8847 59.2542 100.652 59.4251 101.048 59.9846C101.444 60.544 101.332 61.2991 100.789 61.6835C100.246 62.068 99.5016 61.9292 99.101 61.3634C98.7049 60.8039 98.7987 60.0232 99.3417 59.6387ZM232.039 134.483C232.582 134.099 233.349 134.27 233.745 134.829C234.123 135.363 234.029 136.144 233.486 136.528C232.943 136.913 232.145 136.764 231.767 136.23C231.366 135.664 231.489 134.872 232.039 134.483ZM267.423 129.8C268.428 129.089 269.821 129.348 270.554 130.383C271.287 131.419 271.069 132.818 270.064 133.53C269.09 134.219 267.667 133.982 266.934 132.946C266.207 131.907 266.45 130.489 267.423 129.8ZM233.366 106.05C233.997 105.603 234.893 105.77 235.352 106.42C235.812 107.069 235.672 107.97 235.042 108.416C234.411 108.862 233.515 108.696 233.055 108.046C232.596 107.397 232.736 106.496 233.366 106.05ZM193.352 137.189C193.87 136.823 194.561 136.951 194.92 137.459C195.298 137.993 195.19 138.687 194.672 139.054C194.185 139.399 193.488 139.275 193.11 138.741C192.75 138.233 192.859 137.539 193.352 137.189ZM167.206 197.685C168.123 197.035 169.418 197.277 170.088 198.222C170.739 199.141 170.531 200.437 169.614 201.087C168.721 201.718 167.432 201.473 166.786 200.56C166.112 199.608 166.319 198.312 167.206 197.685Z" fill="#A3FBFF"/>
<g opacity="0.5">
<path d="M435.843 103.13L438.379 114.308C440.304 122.775 434.06 131.435 419.899 137.406C396.155 147.413 359.016 146.135 337.099 134.578C328.261 129.913 323.225 124.279 321.925 118.547L319.384 107.377C320.689 113.1 325.712 118.738 334.558 123.407C356.471 134.972 393.614 136.242 417.358 126.235C431.523 120.256 437.763 111.604 435.843 103.13Z" fill="url(#paint1_linear_227_12462)"/>
<path d="M420.679 87.1032C442.588 98.6752 441.103 116.228 417.363 126.228C393.623 136.227 356.476 134.964 334.535 123.386C312.594 111.808 314.126 94.2776 337.906 84.2888C361.687 74.3001 398.756 75.5342 420.679 87.1032Z" fill="#4358C8"/>
<path d="M418.503 88.0024C397.636 76.9848 362.435 75.7916 339.818 85.3501C317.202 94.9086 315.824 111.507 336.682 122.52C357.541 133.533 392.788 134.703 415.373 125.184C437.958 115.666 439.371 99.0201 418.503 88.0024Z" fill="#14172B"/>
<path d="M420.33 106.64C420.732 101.493 417.009 96.2113 409.039 92.0137C407.218 91.0564 405.336 90.2193 403.411 89.5103C387.221 83.4641 364.055 83.4463 348.624 89.9452C331.283 97.2035 330.208 110.052 346.202 118.502C362.195 126.951 389.3 127.869 406.629 120.567C415.322 116.893 419.926 111.861 420.33 106.64ZM405.85 120.152C388.967 127.293 362.61 126.345 347.043 118.144C331.476 109.944 332.53 97.4586 349.374 90.3731C364.889 83.8417 388.439 84.0779 404.25 90.5425C405.592 91.0898 406.909 91.7028 408.194 92.3782C415.455 96.2053 419.11 100.977 419.2 105.687C419.327 111.06 414.827 116.367 405.85 120.152Z" fill="#4358C8"/>
<path fill-rule="evenodd" clip-rule="evenodd" d="M408.527 86.2078C410.796 87.0315 413.016 88.0052 415.166 89.1196L415.122 89.1163L414.729 89.2853L412.823 90.1032L410.803 90.967C408.896 89.9877 406.93 89.1278 404.923 88.3946L406.585 87.353L408.198 86.4087L408.527 86.2078ZM415.971 89.9294L416.382 89.7695L416.386 89.7621C416.459 89.8025 416.531 89.8427 416.604 89.8827L416.604 89.8828C416.996 90.0995 417.38 90.3121 417.738 90.5449L417.317 90.7002L415.287 91.4468L413.129 92.2422C412.761 91.9668 412.339 91.7571 411.925 91.5519L414.01 90.7199L415.971 89.9294ZM404.197 84.7552L404.197 84.7552C403.804 84.6338 403.409 84.5119 403 84.4076L402.727 84.6358L401.438 85.6856L400.082 86.8041C400.469 86.9039 400.842 87.0201 401.214 87.1359C401.369 87.184 401.523 87.2322 401.678 87.279L403.134 86.1911L404.516 85.1598L404.808 84.9408C404.604 84.8807 404.401 84.818 404.197 84.7552ZM400.892 83.8597C401.069 83.8943 401.247 83.929 401.4 84.005L401.139 84.2303L399.938 85.3136L398.666 86.4462C398.525 86.4048 398.376 86.3702 398.228 86.3358L398.228 86.3358L398.228 86.3358L398.228 86.3358L398.228 86.3358L398.228 86.3358L398.228 86.3358L398.228 86.3357C398.135 86.314 398.042 86.2925 397.952 86.2693L399.174 85.1215L400.345 84.0319L400.6 83.7946C400.694 83.821 400.793 83.8403 400.892 83.8597ZM398.845 83.344L398.836 83.342L398.856 83.3215L398.845 83.344ZM398.836 83.342C396.909 82.917 394.961 82.5099 392.935 82.1937L392.933 82.1969L392.278 82.0913L392.116 82.3472L391.374 83.5189L390.599 84.7579L391.183 84.8515L392.002 83.6157L392.775 82.4503L392.895 82.2735L392.801 82.4633L392.043 83.6453L391.227 84.8737C393.012 85.1529 394.743 85.5174 396.449 85.8878L397.581 84.7139L398.623 83.5605L398.836 83.342ZM390.438 81.8229L389.407 81.6848L388.391 81.5632L388.274 81.8223L387.724 83.0236L387.153 84.2894L388.062 84.3953L388.964 84.5162L389.651 83.2706L390.299 82.0804L390.438 81.8229ZM385.725 81.2844L386.61 81.3692L386.511 81.6374L386.059 82.8498L385.589 84.1192L384.801 84.0455L385.23 82.7654L385.639 81.5498L385.725 81.2844ZM372.187 80.9018L373.239 80.8824L373.289 81.15L373.501 82.3843L373.736 83.6863L372.808 83.711L371.885 83.7477L371.541 82.457L371.215 81.2221L371.143 80.9528L372.187 80.9018ZM369.653 81.0257L367.58 81.1639L367.697 81.4364L368.202 82.6574L368.734 83.9385L370.57 83.814L370.143 82.529L369.747 81.2966L369.653 81.0257ZM351.44 83.8307L353.272 83.3683L353.544 83.6057L354.777 84.7213L356.075 85.8883L354.462 86.3009L353.051 85.1528L351.724 84.0652L351.44 83.8307ZM349.912 84.2568L349.151 84.4761L349.452 84.7002L350.898 85.7539L352.429 86.8682L353.109 86.6739L351.617 85.5508L350.2 84.4837L349.912 84.2568ZM342.643 86.7905C344.217 86.1343 345.821 85.5309 347.536 84.9821L347.566 85.0154L347.893 85.2335L349.42 86.2622L351.036 87.344C349.552 87.8204 348.131 88.3753 346.711 88.9303L346.711 88.9303L346.711 88.9303L346.711 88.9303L346.711 88.9303L344.844 87.9387L343.029 86.982L342.643 86.7905ZM346.675 88.913L344.805 87.9288L343.026 86.9903L342.653 86.7959L342.146 87.0107L342.528 87.2097L344.323 88.1378L346.232 89.1131L346.675 88.913ZM343.042 88.706L345.014 89.6472L343.741 90.2751L341.693 89.371L339.751 88.5096L339.339 88.324L340.776 87.619L341.184 87.8121L343.042 88.706ZM412.577 123.704L412.211 123.505L410.442 122.571L408.572 121.587L409.015 121.387L410.92 122.37L412.719 123.29L413.101 123.489L412.59 123.711L412.583 123.708L412.576 123.704L412.577 123.704ZM412.576 123.704C411.009 124.357 409.411 124.958 407.704 125.504L407.386 125.291L405.849 124.257L404.233 123.176C405.718 122.699 407.138 122.144 408.558 121.589L408.558 121.589L410.434 122.585L412.204 123.519L412.576 123.704ZM402.136 123.825L402.813 123.638L404.344 124.753L405.794 125.799L406.095 126.023L405.334 126.242L405.042 126.023L403.625 124.956L402.136 123.825ZM400.778 124.205L399.165 124.618L400.464 125.785L401.7 126.893L401.972 127.13L403.804 126.668L403.516 126.441L402.189 125.353L400.778 124.205ZM384.685 126.689L386.512 126.56L387.044 127.842L387.558 129.067L387.666 129.335L385.594 129.473L385.499 129.202L385.099 127.977L384.685 126.689ZM383.36 126.751L382.434 126.795L381.509 126.812L381.745 128.114L381.957 129.349L382.007 129.616L383.059 129.597L384.103 129.546L384.03 129.277L383.701 128.049L383.36 126.751ZM397.097 125.076L397.661 124.954L398.869 126.142L400.024 127.275L400.27 127.518L399.632 127.65L399.396 127.411L398.279 126.269L397.097 125.076ZM370.445 126.454L369.657 126.38L369.183 127.657L368.731 128.869L368.636 129.13L369.521 129.215L369.607 128.95L370.016 127.734L370.445 126.454ZM367.183 126.104L368.101 126.215L367.521 127.476L366.971 128.677L366.854 128.936L365.834 128.822L364.807 128.677L364.946 128.419L365.591 127.236L366.281 125.983L367.183 126.104ZM364.657 125.747L364.061 125.657L362.298 128.309L362.975 128.421L363.131 128.153L363.872 126.982L364.657 125.747ZM388.072 126.419C390.594 126.159 393.141 125.827 395.562 125.377L395.574 125.354L396.653 126.571L397.687 127.719L397.906 127.968C395.166 128.483 392.326 128.875 389.428 129.154L389.304 128.897L388.711 127.669L388.072 126.419ZM379.823 126.842C377.187 126.869 374.554 126.775 371.939 126.578L371.598 127.865L371.268 129.083L371.201 129.357C374.148 129.579 377.133 129.679 380.101 129.649L380.062 129.406L379.938 128.178L379.808 126.872L379.823 126.842ZM364.047 125.651L364.052 125.652L364.067 125.622L364.047 125.651ZM364.047 125.651C362.264 125.372 360.54 125.02 358.826 124.645L357.713 125.781L356.636 126.89L356.399 127.136C358.333 127.554 360.292 127.967 362.313 128.279L364.047 125.651ZM357.051 124.209L357.051 124.209C356.888 124.168 356.722 124.128 356.556 124.078L355.29 125.222L354.079 126.301L353.815 126.534C354.076 126.608 354.354 126.671 354.631 126.734L354.874 126.5L356.04 125.417L357.266 124.262L357.208 124.247C357.169 124.238 357.129 124.228 357.089 124.218L357.053 124.209L357.053 124.209L357.052 124.209L357.052 124.209L357.052 124.209L357.051 124.209ZM354.195 123.418L354.195 123.418L354.195 123.418L354.195 123.418L354.195 123.418L354.195 123.418L354.195 123.418L354.195 123.418L354.195 123.418L354.195 123.418L354.195 123.418L354.195 123.418L354.195 123.418L354.195 123.418L354.195 123.418L354.195 123.418L354.195 123.418L354.195 123.418L354.195 123.418L354.195 123.418L354.195 123.418L354.195 123.418L354.196 123.418L354.196 123.418L354.196 123.418L354.196 123.418L354.196 123.418L354.196 123.418L354.196 123.418L354.196 123.418L354.196 123.418L354.196 123.418L354.196 123.418L354.196 123.418L354.196 123.418L354.196 123.418L354.196 123.418L354.196 123.418L354.196 123.418L354.196 123.418L354.196 123.419L354.196 123.419L354.196 123.419L354.196 123.419L354.196 123.419L354.196 123.419L354.196 123.419L354.196 123.419L354.196 123.419L354.196 123.419L354.197 123.419L354.197 123.419L354.197 123.419C354.512 123.517 354.828 123.616 355.162 123.703L355.18 123.713L353.815 124.827L352.523 125.884L352.253 126.105C351.844 126 351.45 125.878 351.056 125.757L351.056 125.757C350.852 125.694 350.649 125.631 350.445 125.571L350.737 125.352L352.101 124.312L353.556 123.224C353.773 123.287 353.984 123.352 354.195 123.418ZM342.11 118.254L339.952 119.049L337.922 119.796L337.501 119.951C337.859 120.184 338.244 120.396 338.635 120.613L338.637 120.614C338.709 120.654 338.781 120.694 338.853 120.734L339.264 120.574L341.225 119.783L343.31 118.951L343.31 118.951C342.896 118.746 342.474 118.537 342.11 118.254ZM337.913 117.758L340.19 117.021L340.187 117.029C340.324 117.118 340.453 117.212 340.582 117.307L340.582 117.307C340.803 117.469 341.024 117.631 341.279 117.758L339.075 118.53L336.989 119.25L336.56 119.4C336.282 119.233 336.026 119.059 335.771 118.884L335.771 118.884C335.621 118.782 335.472 118.68 335.318 118.579L335.766 118.438L337.913 117.758ZM352.154 122.771L351.633 122.596L350.06 123.645L348.569 124.641L348.25 124.846L348.829 125.04L349.136 124.838L350.598 123.828L352.154 122.771ZM332.138 112.363L334.722 111.956L335.013 112.315L332.431 112.742L329.993 113.156L329.473 113.234L329.147 112.829L329.68 112.748L332.138 112.363ZM333.682 110.386L331.031 110.675L328.516 110.967L327.969 111.031C327.998 111.079 328.027 111.127 328.056 111.175L328.057 111.177C328.222 111.45 328.389 111.728 328.624 112.019L329.153 111.945L331.618 111.592L334.24 111.222C334.04 110.949 333.864 110.664 333.712 110.372L333.682 110.386ZM330.436 109.568L333.122 109.324L333.257 109.606L330.582 109.874L328.032 110.12L327.489 110.177L327.332 109.847L327.834 109.8L327.321 109.842C326.863 108.874 326.526 107.88 326.317 106.88L326.886 106.864L329.491 106.785L332.213 106.698C332.406 107.583 332.708 108.461 333.111 109.318L330.425 109.562L328.069 109.779L330.436 109.568ZM350.269 122.089C348.261 121.357 346.296 120.494 344.393 119.509L342.382 120.377L340.476 121.195L340.074 121.359C342.224 122.473 344.442 123.449 346.709 124.279L347.038 124.078L348.651 123.133L350.313 122.092L350.269 122.089ZM333.039 113.463L335.56 112.997L335.584 112.971C336.682 114.194 337.924 115.318 339.282 116.318L336.94 117.022L334.733 117.663L334.279 117.792C332.743 116.661 331.341 115.388 330.103 114.003L330.63 113.91L333.039 113.463ZM329.297 105.513L332.039 105.502C332.045 105.549 332.049 105.595 332.052 105.64L332.052 105.64L332.052 105.64L332.052 105.64C332.058 105.719 332.064 105.797 332.082 105.877L329.338 105.915L326.734 105.948L326.156 105.96C326.132 105.816 326.119 105.673 326.117 105.53L326.688 105.534L329.297 105.513ZM332.029 103.864L329.287 103.782L326.673 103.698L326.096 103.682L326.072 104.678L326.643 104.681L329.261 104.711L332.003 104.747L332.029 103.864ZM332.487 96.3172L335.052 96.8247L334.418 97.6396L331.815 97.1874L329.34 96.7525L328.791 96.6577L329.515 95.7292L330.047 95.8344L332.487 96.3172ZM336.303 95.4584L333.805 94.8626L331.437 94.3037L330.926 94.1806C330.686 94.4011 330.483 94.6287 330.278 94.8573C330.213 94.9304 330.147 95.0036 330.08 95.0768L330.596 95.1924L333.007 95.7081L335.554 96.253C335.626 96.1748 335.695 96.0961 335.765 96.0176L335.765 96.0176C335.933 95.8262 336.101 95.6361 336.303 95.4584ZM329.425 102.627L332.155 102.778L332.115 103.066L329.374 102.938L326.769 102.811L326.196 102.789L326.246 102.458L326.818 102.481L329.425 102.627ZM342.7 90.8309L340.58 89.9565L338.579 89.1218L338.159 88.9511L337.587 89.2737L338.019 89.4414L340.045 90.2507L342.194 91.1118L342.7 90.8309ZM331.304 97.9412L333.926 98.356C333.207 99.4746 332.671 100.695 332.33 101.987L329.6 101.79L327.003 101.602L326.438 101.564C326.818 100.101 327.43 98.7221 328.255 97.4639L328.798 97.5466L331.304 97.9412ZM341.257 91.6643L341.23 91.6543L341.275 91.6269L341.257 91.6643ZM341.23 91.6543L339.045 90.8375L336.969 90.0594L336.556 89.8543C334.836 90.8838 333.239 92.0508 331.779 93.3439L332.286 93.4745L334.619 94.0813L337.054 94.7113C338.333 93.5813 339.729 92.5591 341.23 91.6543ZM355.6 82.853L354.972 82.9891L355.218 83.2323L356.364 84.3608L357.581 85.5529C357.641 85.5393 357.701 85.525 357.762 85.5105L357.762 85.5104C357.884 85.4811 358.009 85.4513 358.136 85.427L356.963 84.2382L355.846 83.0963L355.6 82.853ZM365.817 81.3253C362.919 81.6043 360.075 82.0037 357.338 82.5119L357.562 82.7535L358.592 83.9085L359.671 85.1253C362.093 84.6753 364.64 84.3432 367.175 84.0802L366.526 82.8253L365.933 81.5978L365.813 81.3328L365.817 81.3253ZM375.13 80.8516C378.099 80.8224 381.08 80.9299 384.031 81.1438L384.049 81.1529L383.981 81.4274L383.643 82.6404L383.293 83.9225C380.686 83.7301 378.044 83.6321 375.409 83.6588L375.284 82.3649L375.155 81.1251L375.13 80.8516ZM418.671 91.1288L418.232 91.2749L416.147 91.9942L413.943 92.7669C414.163 92.9029 414.367 93.0428 414.57 93.1826L414.57 93.1826C414.723 93.2875 414.875 93.3924 415.035 93.4957L417.313 92.7595L419.459 92.0795L419.907 91.938C419.75 91.8356 419.598 91.7313 419.446 91.6272L419.446 91.6271C419.195 91.4553 418.944 91.2837 418.675 91.1213L418.671 91.1288ZM406.417 85.4593L406.996 85.6534L406.686 85.8634L405.186 86.8549L403.609 87.9105L403.101 87.7333L404.647 86.6715L406.106 85.6693L406.417 85.4593ZM425.772 97.2647L425.248 97.3503L422.805 97.7521L420.232 98.1831L420.523 98.5423L423.107 98.1353L425.565 97.7501L426.098 97.6691L425.772 97.2647ZM426.135 98.5573L426.664 98.4838L426.692 98.4974C426.87 98.7452 427.02 98.9955 427.17 99.2449C427.213 99.3174 427.256 99.3899 427.301 99.4622L426.753 99.5266L424.238 99.8183L421.576 100.13C421.421 99.8395 421.244 99.5554 421.048 99.2801L423.67 98.9109L426.135 98.5573ZM427.753 100.33L427.21 100.387L424.66 100.634L421.989 100.894L422.12 101.183L422.12 101.183C422.527 102.04 422.828 102.918 423.018 103.803L425.75 103.721L428.345 103.637L428.927 103.618C428.707 102.619 428.366 101.627 427.91 100.66L422.393 101.158L427.914 100.653L427.753 100.33ZM420.964 92.7147L420.507 92.8517L418.303 93.4847L415.961 94.189C417.324 95.1864 418.565 96.3134 419.656 97.5432L422.18 97.0698L424.598 96.6272L425.116 96.5296C423.882 95.1409 422.479 93.8678 420.94 92.7401L420.964 92.7147ZM429.074 104.541L428.496 104.552L425.903 104.563L423.159 104.601C423.178 104.681 423.183 104.759 423.189 104.838L423.189 104.838L423.189 104.838L423.189 104.838L423.189 104.838C423.193 104.883 423.196 104.929 423.202 104.976L425.944 104.965L428.553 104.945L429.124 104.948C429.122 104.806 429.109 104.662 429.086 104.518L429.074 104.541ZM428.591 105.813L429.18 105.826L429.146 106.817L428.57 106.801L425.955 106.717L423.214 106.635L423.249 105.757L425.982 105.787L428.591 105.813ZM426.45 113.849L425.905 113.747L423.427 113.32L420.836 112.864L420.19 113.682L422.758 114.182L425.198 114.665L425.73 114.77L426.45 113.849ZM424.654 115.281L425.169 115.396C425.102 115.469 425.037 115.543 424.972 115.616C424.767 115.844 424.563 116.072 424.324 116.292L423.812 116.169L421.445 115.61L418.943 115.022C419.146 114.841 419.313 114.651 419.48 114.461L419.48 114.461C419.551 114.38 419.622 114.3 419.696 114.22L422.242 114.765L424.654 115.281ZM429.045 107.717L428.477 107.687L425.871 107.561L423.13 107.432L423.086 107.728L425.82 107.871L428.427 108.017L428.996 108.048L429.045 107.717ZM417.237 121.062L417.669 121.23L417.078 121.543L416.668 121.377L414.663 120.55L412.547 119.668L413.062 119.392L415.202 120.248L417.237 121.062ZM415.897 122.171L415.49 121.997L413.548 121.136L411.5 120.232L410.23 120.852L412.202 121.793L414.06 122.687L414.468 122.88L415.897 122.171ZM428.794 108.937L428.229 108.9L425.631 108.712L422.901 108.514C422.56 109.809 422.022 111.032 421.302 112.153L423.952 112.535L426.458 112.929L427.001 113.012C427.819 111.75 428.427 110.37 428.809 108.907L428.794 108.937ZM423.003 117.009L423.51 117.14C422.058 118.434 420.464 119.601 418.746 120.626L418.31 120.466L416.225 119.683L414.023 118.861C415.535 117.945 416.943 116.912 418.235 115.772L420.679 116.407L423.003 117.009Z" fill="#198CFF"/>
<path d="M406.643 93.3059C406.676 93.2385 406.594 93.151 406.478 93.0842C406.32 93.0131 406.148 92.9867 405.989 93.0093L358.444 97.2621C358.304 97.2731 358.174 97.314 358.065 97.3816C358.025 97.3972 357.995 97.4245 357.977 97.4595C357.96 97.4945 357.957 97.5354 357.968 97.5763L365.192 110.315C365.225 110.364 365.273 110.404 365.33 110.43C365.398 110.476 365.472 110.513 365.55 110.54L391.57 115.351C391.722 115.376 391.874 115.376 392.017 115.35C392.14 115.325 392.244 115.266 392.318 115.182L406.593 93.3372C406.613 93.3313 406.63 93.3205 406.643 93.3059ZM404.065 93.725L384.347 102.034L360.618 97.6127L404.065 93.725ZM359.373 97.9749L383.385 102.425L366.044 109.683L359.373 97.9749ZM366.859 110.163L384.201 102.904L390.963 114.659L366.859 110.163ZM391.82 114.085L385.157 102.455L404.873 94.1262L391.82 114.085Z" fill="#198CFF"/>
<path d="M389.248 116.132C389.18 116.085 389.105 116.048 389.027 116.022L363.302 111.263L356.143 98.6686C356.101 98.6331 356.05 98.6078 355.996 98.5956C355.849 98.5217 355.686 98.4866 355.531 98.4953C355.419 98.4871 355.31 98.5031 355.215 98.5421C355.12 98.5811 355.041 98.6417 354.985 98.7189L348.3 117.312C348.259 117.395 348.316 117.488 348.445 117.552C348.599 117.626 348.768 117.657 348.927 117.642L388.859 116.592C389.139 116.582 389.358 116.485 389.39 116.352C389.422 116.218 389.354 116.194 389.248 116.132ZM355.697 100.052L362.137 111.394L349.743 116.619L355.697 100.052ZM350.522 117.081L362.916 111.856L386.08 116.146L350.522 117.081Z" fill="#198CFF"/>
<path style="mix-blend-mode:multiply" opacity="0.6" d="M420.815 87.1065C442.755 98.6846 441.263 116.252 417.506 126.262C393.749 136.272 356.568 135.011 334.651 123.407C312.734 111.804 314.177 94.3134 337.906 84.2898C361.635 74.2662 398.868 75.5629 420.815 87.1065Z" fill="url(#paint2_linear_227_12462)"/>
</g>
</g>
<defs>
<filter id="filter0_f_227_12462" x="-369.669" y="-516.358" width="821.339" height="858.92" filterUnits="userSpaceOnUse" color-interpolation-filters="sRGB">
<feFlood flood-opacity="0" result="BackgroundImageFix"/>
<feBlend mode="normal" in="SourceGraphic" in2="BackgroundImageFix" result="shape"/>
<feGaussianBlur stdDeviation="10" result="effect1_foregroundBlur_227_12462"/>
</filter>
<filter id="filter1_f_227_12462" x="206.141" y="-15.7607" width="293.05" height="315.494" filterUnits="userSpaceOnUse" color-interpolation-filters="sRGB">
<feFlood flood-opacity="0" result="BackgroundImageFix"/>
<feBlend mode="normal" in="SourceGraphic" in2="BackgroundImageFix" result="shape"/>
<feGaussianBlur stdDeviation="0.5" result="effect1_foregroundBlur_227_12462"/>
</filter>
<filter id="filter2_f_227_12462" x="472.295" y="-108.182" width="194.425" height="282.604" filterUnits="userSpaceOnUse" color-interpolation-filters="sRGB">
<feFlood flood-opacity="0" result="BackgroundImageFix"/>
<feBlend mode="normal" in="SourceGraphic" in2="BackgroundImageFix" result="shape"/>
<feGaussianBlur stdDeviation="2" result="effect1_foregroundBlur_227_12462"/>
</filter>
<radialGradient id="paint0_radial_227_12462" cx="0" cy="0" r="1" gradientUnits="userSpaceOnUse" gradientTransform="translate(405.962 394.171) rotate(177.959) scale(354.264 341.956)">
<stop stop-color="#198CFF"/>
<stop offset="1" stop-color="#198CFF" stop-opacity="0"/>
</radialGradient>
<linearGradient id="paint1_linear_227_12462" x1="335.04" y1="124.421" x2="440.031" y2="103.839" gradientUnits="userSpaceOnUse">
<stop stop-color="#0C0B37"/>
<stop offset="0.32" stop-color="#004959"/>
<stop offset="0.41" stop-color="#004155"/>
<stop offset="0.75" stop-color="#00042A"/>
</linearGradient>
<linearGradient id="paint2_linear_227_12462" x1="320.363" y1="109.766" x2="430.577" y2="79.0602" gradientUnits="userSpaceOnUse">
<stop stop-color="white"/>
<stop offset="0.4" stop-color="#94A8B8"/>
<stop offset="0.81" stop-color="#2A5271"/>
<stop offset="1" stop-color="#002F55"/>
</linearGradient>
<clipPath id="clip0_227_12462">
<rect y="0.481445" width="542" height="142" rx="12" fill="white"/>
</clipPath>
</defs>
</svg>
