<svg xmlns="http://www.w3.org/2000/svg" width="173" height="25" fill="none" viewBox="0 0 173 25">
  <path fill="#fff" d="M63.953 5.913c1.212 0 2.24.117 3.08.352.84.234 1.521.59 2.038 1.074a4.172 4.172 0 0 1 1.124 1.823c.23.73.342 1.593.342 2.584 0 .987-.119 1.85-.353 2.584-.235.733-.614 1.339-1.139 1.815-.524.477-1.205.832-2.038 1.067-.837.235-1.856.352-3.058.352H59.95V5.914h4.003Zm0 9.967c.93 0 1.692-.071 2.295-.215.599-.144 1.075-.382 1.425-.707.35-.33.591-.753.721-1.275.13-.522.198-1.165.198-1.933 0-.734-.067-1.362-.198-1.884a2.633 2.633 0 0 0-.721-1.29c-.35-.34-.826-.586-1.425-.741-.603-.155-1.365-.235-2.295-.235h-2.065v8.265l2.065.015Zm17.253-1.736h-7.012c.152.602.457 1.082.907 1.45.454.366.983.548 1.581.548a2.56 2.56 0 0 0 1.261-.318 2.4 2.4 0 0 0 .92-.9l1.67.798a4.446 4.446 0 0 1-1.56 1.517c-.654.39-1.42.582-2.294.582a4.447 4.447 0 0 1-1.845-.374 4.622 4.622 0 0 1-1.418-.984 4.434 4.434 0 0 1-.918-1.4 4.223 4.223 0 0 1-.008-3.241 4.47 4.47 0 0 1 .908-1.4 4.544 4.544 0 0 1 1.424-.998 4.429 4.429 0 0 1 1.853-.383c.677 0 1.294.13 1.853.383a4.67 4.67 0 0 1 1.424.998c.395.412.7.878.919 1.4a4.09 4.09 0 0 1 .327 1.6v.722h.008Zm-2.046-1.532c-.164-.601-.473-1.063-.926-1.392a2.57 2.57 0 0 0-1.548-.491c-.591 0-1.108.162-1.559.491-.446.33-.747.79-.9 1.392h4.933Zm7.897-4.649c-.163.178-.245.477-.245.9v.45h2.656v1.669h-2.656v4.8h2.113v1.8H82.86v-1.8h1.998v-4.8h-2.195V9.314h2.195v-.45c0-1.078.242-1.843.729-2.293.487-.45 1.287-.673 2.4-.673h1.967v1.8h-1.968c-.457 0-.766.088-.93.265Zm8.192 7.865h2.247v1.732H91.12v-1.732h2.18V11.06h-1.887V9.314h3.836v6.514Zm-1.95-9.915h1.95v1.899h-1.95V5.913Zm11.915 5.05h5.669v6.597h-1.949v-1.282h-.033c-.621 1.01-1.816 1.517-3.571 1.517-.897 0-1.719-.137-2.467-.409a5.387 5.387 0 0 1-1.927-1.184 5.418 5.418 0 0 1-1.253-1.891c-.302-.745-.45-1.593-.45-2.55 0-.911.167-1.74.498-2.493a5.885 5.885 0 0 1 1.362-1.933 6.055 6.055 0 0 1 2.008-1.248 6.783 6.783 0 0 1 2.459-.442c.982 0 1.823.143 2.522.435.7.287 1.328.71 1.886 1.267l-1.328 1.116a3.978 3.978 0 0 0-1.409-.859 5.083 5.083 0 0 0-1.671-.276c-.602 0-1.164.09-1.696.276a3.955 3.955 0 0 0-1.395.825 3.814 3.814 0 0 0-.941 1.384c-.231.556-.342 1.207-.342 1.948 0 .734.115 1.373.342 1.918.23.545.543.999.941 1.358.398.36.863.632 1.395.81a5.283 5.283 0 0 0 1.696.264c.819 0 1.503-.128 2.05-.382.547-.257.993-.65 1.343-1.184v-2.05h-3.735v-1.532h-.004Zm18.105 4.917v1.684h-3.456v-.95h-.033c-.219.356-.562.643-1.034.866-.469.224-1.031.333-1.689.333-.677 0-1.291-.124-1.834-.374a4.32 4.32 0 0 1-2.277-2.383 4.428 4.428 0 0 1-.312-1.642c0-.533.104-1.06.312-1.585.209-.522.503-.987.886-1.4a4.436 4.436 0 0 1 1.391-.998 4.307 4.307 0 0 1 2.686-.284c.283.068.547.155.785.265a2.8 2.8 0 0 1 .64.4c.186.156.327.319.427.485h.049v-.983h1.819v6.566h1.64Zm-6.208.25c.361 0 .699-.064 1.015-.193a2.546 2.546 0 0 0 1.41-1.407 2.83 2.83 0 0 0 .212-1.116 2.83 2.83 0 0 0-.212-1.116 2.527 2.527 0 0 0-.58-.85 2.51 2.51 0 0 0-.845-.534 2.779 2.779 0 0 0-1-.182c-.361 0-.692.06-.994.182a2.2 2.2 0 0 0-.784.533 2.507 2.507 0 0 0-.525.851 3.14 3.14 0 0 0-.19 1.116c0 .401.064.768.19 1.1.127.334.301.621.525.86.223.238.487.423.784.56.302.128.633.196.994.196Zm21.352-6.06c.569.674.852 1.699.852 3.076v4.414h-1.934v-4.13c0-.969-.145-1.657-.436-2.066-.29-.412-.784-.616-1.484-.616-.666 0-1.198.215-1.596.65-.398.435-.599 1.124-.599 2.066v4.1h-1.934V13.43c0-.935-.13-1.616-.394-2.043-.264-.428-.744-.643-1.444-.643a2.283 2.283 0 0 0-1.718.768c-.22.246-.391.54-.517.893-.127.351-.19.748-.19 1.191v3.964h-1.916V9.314h1.853v1.415h.052c.175-.443.509-.832 1.008-1.165.498-.333 1.105-.5 1.826-.5 1.462 0 2.452.628 2.965 1.884h.067a2.53 2.53 0 0 1 .395-.726c.174-.227.39-.428.647-.602a3.23 3.23 0 0 1 .885-.408 3.907 3.907 0 0 1 1.105-.151h.033c1.079.003 1.905.34 2.474 1.01Zm11.863 4.074h-7.012c.152.602.458 1.082.911 1.45a2.44 2.44 0 0 0 1.581.548 2.56 2.56 0 0 0 1.261-.318c.384-.212.689-.51.919-.9l1.67.798a4.468 4.468 0 0 1-1.554 1.517c-.655.39-1.421.582-2.296.582a4.45 4.45 0 0 1-1.845-.374 4.45 4.45 0 0 1-2.336-2.383 4.232 4.232 0 0 1-.007-3.242c.212-.522.517-.987.911-1.4a4.542 4.542 0 0 1 1.425-.998 4.426 4.426 0 0 1 1.852-.383 4.43 4.43 0 0 1 1.853.383c.558.257 1.034.59 1.425.998.394.412.699.878.918 1.4a4.08 4.08 0 0 1 .328 1.6v.722h-.004Zm-2.05-1.532c-.163-.601-.472-1.063-.926-1.392a2.57 2.57 0 0 0-1.547-.491c-.592 0-1.109.162-1.559.491-.446.33-.748.79-.9 1.392h4.932Zm5.424 3.166v1.782h-1.819v-1.782h1.819Zm5.803.05h2.247v1.732h-6.376v-1.732h2.18V11.06h-1.886V9.314h3.835v6.514Zm-1.949-9.915h1.949v1.899h-1.949V5.913Zm10.438 11.915a4.543 4.543 0 0 1-1.852-.366 4.342 4.342 0 0 1-2.333-2.391 4.357 4.357 0 0 1-.32-1.642c0-.533.108-1.063.32-1.592a4.4 4.4 0 0 1 .908-1.407 4.6 4.6 0 0 1 1.417-1c.551-.253 1.172-.381 1.86-.381a4.43 4.43 0 0 1 1.853.382c.558.257 1.03.59 1.424.999.395.408.696.877.912 1.4a4.248 4.248 0 0 1-.008 3.257 4.38 4.38 0 0 1-.919 1.399 4.48 4.48 0 0 1-3.262 1.342Zm0-7.08c-.361 0-.696.06-1.008.18-.313.122-.58.3-.811.534a2.628 2.628 0 0 0-.551.851 2.916 2.916 0 0 0-.204 1.116c0 .401.067.768.204 1.101.138.333.32.62.551.859a2.486 2.486 0 0 0 1.819.76c.361 0 .696-.064 1.008-.193.313-.129.58-.31.811-.548.231-.239.413-.526.551-.86.137-.332.204-.703.204-1.115 0-.412-.067-.783-.204-1.116a2.596 2.596 0 0 0-.558-.851 2.376 2.376 0 0 0-.819-.533 2.647 2.647 0 0 0-.993-.186Z"/>
  <path fill="#fff" fill-rule="evenodd" d="M47.291 16.123s-1.332-9.03-1.432-9.136l-5.353-5.636c-.115-.12-10.107-.953-10.107-.953a.353.353 0 0 0-.09 0l-9.89.643c-.845.05-.86 1.305-.02 1.38l5.555.587c.587.053.837.783.405 1.195L25.273 5.24a.664.664 0 0 1-.398.185l-13.708 1.1c-.845.088-.804 1.351.044 1.382l12.232.336c.383.015.68.348.654.738l-.063.98a.686.686 0 0 1-.632.643L1.305 11.829c-.863.057-.84 1.354.023 1.38l21.761.428c.383.012.659.738.659.738-.008.11.215.692.215.692.19.435-.1.93-.565.969l-12.138.801c-.845.072-.83 1.332.018 1.381l13.94.662a.68.68 0 0 1 .583.413l.763 1.758.03.016-5.625.461c-.845.053-.856 1.309-.015 1.38l11.595 1.124c.041.004 8.46-.945 8.57-1.063-.01 0 6.202-6.635 6.172-6.846Z" clip-rule="evenodd"/>
  <path fill="#2F56A2" fill-rule="evenodd" d="m38.977 13.531-4.795 2.16-2.053-4.694 4.423-2.932 2.425 5.466Z" clip-rule="evenodd"/>
  <path fill="#2F56A2" fill-rule="evenodd" d="m39.007 4.025-2.455 4.04L31.41 3.44l7.596.586Z" clip-rule="evenodd"/>
  <path fill="#4480C2" fill-rule="evenodd" d="m34.182 15.691 5.405 4.63-6.465.689 1.06-5.319Z" clip-rule="evenodd"/>
  <path fill="#4795D1" fill-rule="evenodd" d="m39.587 20.321-5.405-4.63 4.795-2.16 5.282 1.914-4.672 4.876Z" clip-rule="evenodd"/>
  <path fill="#5BC3ED" fill-rule="evenodd" d="m44.26 15.445-5.283-1.914-2.425-5.466 6.722.45.985 6.93Z" clip-rule="evenodd"/>
  <path fill="#4480C2" fill-rule="evenodd" d="m43.274 8.515-6.722-.45 2.455-4.04 4.267 4.49Z" clip-rule="evenodd"/>
  <path fill="#554897" fill-rule="evenodd" d="m31.41 3.439 5.142 4.626-4.423 2.932-5.026-3.45 4.308-4.108Z" clip-rule="evenodd"/>
  <path fill="#954D98" fill-rule="evenodd" d="m27.103 7.547 5.026 3.45-5.45 3.023.424-6.473Z" clip-rule="evenodd"/>
  <path fill="#554897" fill-rule="evenodd" d="m26.679 14.02 5.45-3.023 2.053 4.694-5.401 3.178-2.102-4.85Z" clip-rule="evenodd"/>
  <path fill="#2F56A2" fill-rule="evenodd" d="m28.78 18.869 5.402-3.178-1.06 5.319-4.341-2.141Z" clip-rule="evenodd"/>
</svg>
