<svg xmlns="http://www.w3.org/2000/svg" width="358" height="249" fill="none" viewBox="0 0 358 249">
  <path stroke="#42E8E0" stroke-dasharray="20 20" d="M204.068-52.875c2.203-1.026 4.791-.294 5.711 1.878l-.458.194c.323.763.425 1.765.134 3.01l-.005.023-.003.023a157.68 157.68 0 0 1-1.765 10.23l.488.107c-1.389 6.755-3.187 13.468-5.235 20.138l-.475-.152c-2.026 6.598-4.298 13.155-6.662 19.673l.468.176c-1.655 4.562-3.355 9.103-5.046 13.621-.734 1.96-1.466 3.917-2.193 5.869l-.466-.18a874.107 874.107 0 0 0-3.578 9.767l-.163.456.447.183a239.4 239.4 0 0 1 12.248 5.432l.21-.454c8.047 3.846 15.902 8.176 23.477 13.065l-.266.423a189.653 189.653 0 0 1 11.014 7.668h.001a180.62 180.62 0 0 1 7.895 6.252l.316-.386a185.588 185.588 0 0 1 14.76 13.803l-.356.348a176.075 176.075 0 0 1 13.112 15.326l.394-.304c4.087 5.384 7.853 11.022 11.191 16.865l-.43.249a136.77 136.77 0 0 1 4.685 8.938l.155.324.353-.04c4.827-.546 9.637-1.086 14.44-1.608l-.058-.5c9.651-1.049 19.269-2.028 28.925-2.845l.045.5c4.816-.407 9.641-.775 14.484-1.092l.562-.036-.11-.559c-.176-.887-.348-1.779-.522-2.676l-.227-1.173-.488.093c-.496-2.553-1.01-5.128-1.617-7.676l.483-.114a84.367 84.367 0 0 0-.996-3.813 150.418 150.418 0 0 0-3.029-10.022l-.47.16a145.56 145.56 0 0 0-8.117-19.224l.442-.227a140.888 140.888 0 0 0-10.866-17.89l-.403.29a137.677 137.677 0 0 0-13.362-15.987l.353-.35a137.987 137.987 0 0 0-7.546-7.187l.001-.024-.495-.058c.034-.309.279-.625.58-.67l.076.497.002.001c.003 0 .019.006.047.03l.006.004a144.712 144.712 0 0 1 8.039 6.932l.336-.368a151.07 151.07 0 0 1 14.551 15.574l-.384.316a157.382 157.382 0 0 1 12.243 17.392l.424-.26a162.569 162.569 0 0 1 9.862 18.938l-.455.2a163.204 163.204 0 0 1 3.969 9.88 182.68 182.68 0 0 1 1.442 4.327l.474-.151c.906 2.833 1.769 5.76 2.59 8.782l-.48.129c.394 1.451.778 2.925 1.152 4.42l.1.396.403-.014c3.66-.122 7.308-.222 10.951-.288l-.013-.502c7.314-.132 14.608-.129 21.928.087l-.01.502c3.639.108 7.284.268 10.942.492h.01c1.209.048 2.151.613 2.822 1.466l.389-.31c1.471 1.87 1.716 4.925.549 7.068l-.437-.244c-.522.958-1.346 1.7-2.5 2.018l-.002.001c-3.4.957-6.797 1.846-10.191 2.678l.121.488c-6.888 1.687-13.764 3.134-20.637 4.425l-.095-.494c-3.461.65-6.922 1.26-10.384 1.841l-.459.077.049.467c.409 3.944.647 7.917.681 11.872h.497c.069 8.077-.713 16.088-2.629 23.644l-.482-.128c-.978 3.854-2.252 7.587-3.86 11.145-.263.581-.721 1.011-1.279 1.282l.219.453c-1.345.652-3.108.463-4.071-.585l.364-.34c-.356-.386-.589-.934-.568-1.68l.001-.011c.018-3.415.198-6.829.453-10.245l-.496-.042c.215-2.884.482-5.766.75-8.648.367-3.952.733-7.903.964-11.856l.497.033c.2-3.43.299-6.867.206-10.31a9.73 9.73 0 0 0 .008-.834l-.497.012c-.009-.273-.026-.541-.042-.81a23.985 23.985 0 0 1-.042-.81l.497-.011a8.487 8.487 0 0 1 .008-.765l.037-.625-.612.094c-4.346.664-8.693 1.27-13.045 1.832l.067.498c-8.714 1.124-17.444 2.07-26.208 2.941l-.053-.5c-4.364.434-8.738.85-13.124 1.261l-.58.054.148.57a100.62 100.62 0 0 1 1.47 6.534l.488-.091a92.367 92.367 0 0 1 1.564 13.354l-.497.017c.093 2.224.1 4.453.013 6.68-.024.52-.226.997-.54 1.391l.389.317c-.819 1.026-2.236 1.512-3.236.947l.24-.438c-.314-.177-.611-.524-.77-1.159l-.001-.007-.003-.007a447.466 447.466 0 0 0-1.962-6.764l-.477.142a308.514 308.514 0 0 0-4.317-13.39l.469-.163a239.705 239.705 0 0 0-2.42-6.622l-.148-.388-.405.071a9.89 9.89 0 0 1-.552.079l.062.499c-.19.023-.385.043-.581.063-.195.021-.391.041-.581.064l-.063-.499c-.198.024-.396.05-.585.083l-9.209.868.05.5a22782 22782 0 0 0-18.456 1.751l-.051-.501c-6.148.586-12.3 1.174-18.454 1.765l.051.5c-6.15.59-12.302 1.183-18.453 1.778l-.052-.5c-6.151.596-12.302 1.194-18.452 1.794l.052.5c-6.152.601-12.303 1.204-18.45 1.81l-.052-.5-9.224.911-.283.028-.118.261a.959.959 0 0 0-.079.33l.496.041c-.004.054-.003.11-.002.166.001.056.003.112-.001.166l-.463-.039-.031-.002.004-.01-.004.01-.003-.001v.007l-.216.477.507.189c2.786 1.043 5.576 2.079 8.367 3.11l.168-.471a2767.96 2767.96 0 0 0 16.764 6.128l-.165.472a3946.885 3946.885 0 0 0 16.798 6.037l.163-.473c5.602 2 11.208 3.992 16.815 5.981l-.162.474 8.411 2.981c2.744.976 5.493 1.938 8.244 2.89l.158-.475a2034.957 2034.957 0 0 0 16.533 5.622l-.154.477 4.574 1.536c3.995 1.342 7.987 2.683 11.975 4.035l.155-.476a1259.39 1259.39 0 0 1 16.505 5.706l-.161.474a696.676 696.676 0 0 1 16.383 6.023l.173-.47a477.877 477.877 0 0 1 16.207 6.532l-.19.462a390.828 390.828 0 0 1 7.994 3.506l.011.005c1.167.495 1.884 1.312 2.25 2.25l.463-.181c.876 2.248-.031 5.142-1.994 6.555l-.291-.409c-.837.602-1.883.902-3.086.693h-.006c-2.927-.473-5.842-.99-8.748-1.549l-.089.494a343.807 343.807 0 0 1-17.387-3.83l.114-.488a441.444 441.444 0 0 1-17.183-4.622l-.134.482a621.487 621.487 0 0 1-17.04-5.22l.148-.478a1059.067 1059.067 0 0 1-16.914-5.607l-.155.476c-5.51-1.873-11.01-3.776-16.508-5.679l-.352-.121.158-.475a4925.85 4925.85 0 0 0-8.427-2.911 1807.89 1807.89 0 0 1-7.918-2.774l-.161.474a1830.21 1830.21 0 0 1-15.805-5.659l.165-.472a1783.987 1783.987 0 0 1-15.75-5.805l-.17.471a1784.185 1784.185 0 0 1-15.702-5.952l.174-.469a1807.62 1807.62 0 0 1-7.829-3.03l-.449-.175-.186.446a28.049 28.049 0 0 1-2.226 4.264l.419.273c-1.759 2.767-3.962 5.212-6.454 7.293l-.319-.388a34.53 34.53 0 0 1-3.898 2.814l-.383.238.201.41c1.602 3.269 3.204 6.537 4.804 9.805l.445-.22c3.202 6.541 6.397 13.08 9.584 19.622l-.446.218a7720.769 7720.769 0 0 1 9.536 19.644l.447-.218c3.168 6.553 6.326 13.11 9.469 19.677l-.447.216c3.142 6.562 6.27 13.133 9.383 19.716l.448-.214a3719.98 3719.98 0 0 1 9.279 19.768l-.45.211c1.536 3.298 3.067 6.599 4.594 9.904l.206.447.446-.195a106.18 106.18 0 0 0 5.222-2.462l-.225-.45a119.592 119.592 0 0 0 9.989-5.684l.267.427a145.382 145.382 0 0 0 4.814-3.18l.005-.003c3.371-2.379 6.514-4.947 9.497-7.654l-.334-.375c6.01-5.454 11.38-11.482 16.674-17.677l.378.33c1.259-1.473 2.505-2.945 3.753-4.419 1.364-1.612 2.731-3.227 4.122-4.852h.001c.584-.686 1.22-1.019 1.821-1.117l-.082-.496c1.67-.27 3.309.94 3.832 2.671l-.476.143c.2.663.214 1.419-.048 2.2a65.15 65.15 0 0 1-3.862 8.94l.44.237c-3.012 5.765-6.839 11.094-11.257 15.979l-.369-.34c-4.309 4.764-9.186 9.107-14.422 13.02l.298.405c-5.218 3.9-10.788 7.373-16.505 10.412l-.234-.445a142.466 142.466 0 0 1-8.741 4.268l-.458.205.211.462 1.897 4.152.452-.207 3.794 8.305-.451.207 1.896 4.15a.676.676 0 0 1 .007.589l.45.216c-.281.606-1.047.999-1.726.873l.086-.494a.79.79 0 0 1-.513-.334 638.371 638.371 0 0 0-2.323-4.005l-.428.252c-.78-1.335-1.566-2.673-2.351-4.01-.786-1.338-1.571-2.676-2.351-4.011l.428-.252a771.604 771.604 0 0 1-2.331-4.019l-.22-.384-.404.17a142.378 142.378 0 0 1-4.301 1.727l.18.469a129.47 129.47 0 0 1-8.797 3.016l-.146-.481c-1.501.453-2.989.87-4.459 1.249l-.003.001a139.314 139.314 0 0 1-8.912 2.056l.099.493a146.204 146.204 0 0 1-18.196 2.387l-.037-.501c-6.105.419-12.215.468-18.312.19l-.018.502a182.151 182.151 0 0 1-18.301-1.785l.068-.497a208.33 208.33 0 0 1-18.026-3.501l-.111.488a240.794 240.794 0 0 1-17.739-4.986l.148-.478a268.293 268.293 0 0 1-8.71-2.972h-.002a255.872 255.872 0 0 1-8.928-3.373l-.18.467a252.254 252.254 0 0 1-17.501-7.767l.214-.451a240.167 240.167 0 0 1-16.825-9.088l-.25.432a223.346 223.346 0 0 1-16.066-10.476l.286-.409a202.99 202.99 0 0 1-15.037-11.86l-.323.379A182.988 182.988 0 0 1-4.462 257.7l.362-.343a163.593 163.593 0 0 1-12.236-14.76l-.4.297a148.988 148.988 0 0 1-10.367-16.214l.434-.241a138.27 138.27 0 0 1-8.076-17.396l-.465.178a134.348 134.348 0 0 1-5.563-18.427l.486-.108a134.576 134.576 0 0 1-1.771-9.421.4.4 0 0 1 .088-.304l-.381-.327c.319-.38.937-.476 1.327-.209l-.277.415a.261.261 0 0 1 .078.083c.02.035.04.089.048.17l.003.026.005.025a128.314 128.314 0 0 0 2.11 8.882l.479-.131a127.16 127.16 0 0 0 6.06 17.113l-.455.199a132.447 132.447 0 0 0 8.432 16.155l.423-.262a142.863 142.863 0 0 0 10.45 14.835l-.386.315a159.903 159.903 0 0 0 12.188 13.503l.347-.357c4.282 4.242 8.8 8.265 13.508 12.073l-.31.391c4.698 3.8 9.583 7.385 14.611 10.762l.273-.418a229.345 229.345 0 0 0 15.406 9.472l-.24.438a254.53 254.53 0 0 0 16.09 8.302l.209-.455a274.755 274.755 0 0 0 16.575 7.164l-.178.467c2.819 1.111 5.64 2.17 8.456 3.179 2.757.995 5.543 1.95 8.355 2.859l.149-.478a239.384 239.384 0 0 0 16.948 4.81l-.113.488a211.015 211.015 0 0 0 17.297 3.472l.072-.497a183.712 183.712 0 0 0 17.479 1.904l-.025.501c5.87.35 11.752.398 17.618.104l-.028-.502c5.84-.292 11.663-.926 17.44-1.94l.089.495c2.885-.507 5.76-1.109 8.619-1.81h.001l-.122-.488a98.752 98.752 0 0 0 4.432-1.158l12.976-363.406Zm0 0 .211.456c-.832.388-1.614 1.06-2.201 2.049a165.395 165.395 0 0 0-4.82 9.075l-.446-.227c-3.023 6.128-5.726 12.47-8.222 18.93l.464.185c-2.47 6.393-4.737 12.905-6.909 19.444l-.472-.163c-1.619 4.872-3.185 9.757-4.743 14.616-.54 1.687-1.08 3.37-1.62 5.049l.473.159a1009.708 1009.708 0 0 1-3.21 9.827l-.156.47-.468-.156a248.188 248.188 0 0 0-10.354-3.194l.131-.483a277.53 277.53 0 0 0-21.086-5.104l-.094.493a323.959 323.959 0 0 0-21.352-3.556l.061-.498a382.131 382.131 0 0 0-21.552-2.235l-.033.5a432.883 432.883 0 0 0-10.797-.681h-.012l-.013-.002h-.01l-.003.002-.003.002-.308-.396c-.216.17-.303.5-.196.716l.349-.173.01-.12h.003l117.378-64.985ZM217.274 54.62c-6.849-4.83-13.973-9.143-21.318-12.998l.227-.445a211.45 211.45 0 0 0-11.244-5.478l-.487-.22-.181.504a7934.77 7934.77 0 0 1-3.543 9.804l.468.176a8927.783 8927.783 0 0 1-7.126 19.596l-.467-.177c-2.386 6.535-4.775 13.06-7.166 19.58l.467.177a24336.31 24336.31 0 0 1-7.191 19.571l-.466-.178-3.599 9.784-.004.01-.003.01c-.271.84-.554 1.676-.845 2.509l.469.17a185.676 185.676 0 0 1-1.838 4.99l-.465-.184c-.315.827-.634 1.653-.953 2.48l-.153.398.365.219c.429.257.853.527 1.271.808l.274-.417c.84.565 1.658 1.177 2.455 1.837l-.314.387c.386.319.766.649 1.141.991l.018.016.02.015c.4.299.791.622 1.17.966l.331-.373a20.336 20.336 0 0 1 2.146 2.28l-.384.316c.323.399.631.808.924 1.224l.17.243.292-.031c3.093-.337 6.186-.674 9.279-1.013l-.057-.5c6.182-.677 12.367-1.359 18.554-2.045l.059.499c6.182-.685 12.367-1.375 18.552-2.067l-.058-.5c6.182-.692 12.365-1.387 18.55-2.084l.059.499c6.182-.697 12.365-1.397 18.549-2.097l-.059-.499 18.547-2.105.06.499 9.274-1.053.704-.08-.32-.642a205.417 205.417 0 0 0-4.352-8.268l-.433.243a184.849 184.849 0 0 0-9.846-15.814l.406-.286a168.036 168.036 0 0 0-11.495-14.713l-.372.33a161.214 161.214 0 0 0-13.038-13.26l.331-.373a162.96 162.96 0 0 0-7.086-6.06m-10.269-7.17 10.269 7.17m-10.269-7.17.283-.412a177.498 177.498 0 0 1 9.986 7.582m-10.269-7.17 10.269 7.17m0 0c.001 0 .002 0 .003.002l-.312.389.309-.391ZM97.398 13.188a406.936 406.936 0 0 0-10.707-1.078L33.505 164.968l.044.501c-4.99.405-9.977.799-14.96 1.186l-.041-.5c-4.99.387-9.977.768-14.962 1.144l.041.501c-4.99.376-9.977.748-14.965 1.118l-.04-.501-7.482.555c-4.63.331-9.37.786-14.157 1.246l.05.5-.076.007c-9.351.898-18.911 1.815-28.258 1.879l-.007-.502c-4.79.033-9.519-.16-14.13-.694l-.007-.001a2.727 2.727 0 0 1-1.877-1.001l-.381.319c-1.066-1.292-1.244-3.365-.4-4.866l.433.25a3.003 3.003 0 0 1 1.65-1.387c4.41-1.505 8.997-2.686 13.684-3.65l-.103-.492c9.136-1.879 18.63-2.933 27.92-3.964l.272-.03c4.796-.533 9.536-1.061 14.142-1.696l.07.498h.001l7.433-1.004-.07-.498c4.956-.669 9.913-1.335 14.871-1.995l.07.498c4.955-.659 9.913-1.312 14.874-1.955l-.067-.498c4.957-.642 9.918-1.273 14.885-1.889l.064.498c2.48-.308 4.962-.612 7.445-.911 4.4-.528 8.812-1.051 13.229-1.571l-.062-.499c4.407-.519 8.82-1.036 13.233-1.552a16290.7 16290.7 0 0 0 13.232-1.552l.062.499c4.417-.52 8.83-1.043 13.23-1.571l1.9-.228-1.776-.735a2557.385 2557.385 0 0 1-9.79-4.076l-.187.463a1850.636 1850.636 0 0 1-19.522-8.302l.193-.462a1402.686 1402.686 0 0 1-19.406-8.557l-.2.458a1124.1 1124.1 0 0 1-19.269-8.89l.208-.455a931.844 931.844 0 0 1-19.073-9.288l-.22.45a792.388 792.388 0 0 1-18.852-9.767l.23-.444a684.023 684.023 0 0 1-18.555-10.304l-.244.436a601.39 601.39 0 0 1-18.224-10.926l.26-.426a549.818 549.818 0 0 1-8.945-5.704c-.57-.408-.816-.887-.87-1.354l-.494.054c-.151-1.314.857-2.708 2.18-3.221l.182.469c.537-.209 1.115-.24 1.67-.026l.006.002c3.456 1.283 6.904 2.585 10.347 3.905l.173-.47a1226.26 1226.26 0 0 1 20.591 8.116l-.181.466A1611.02 1611.02 0 0 1-5.015 81.01l.188-.464c6.802 2.858 13.59 5.755 20.368 8.679l-.192.461a4198.49 4198.49 0 0 1 20.303 8.828l.195-.46c5.155 2.255 10.307 4.517 15.46 6.779l4.819 2.115-.196.461c6.76 2.966 13.52 5.929 20.289 8.874l.194-.461a3017.396 3017.396 0 0 0 20.33 8.768l-.19.463c3.395 1.448 6.794 2.888 10.196 4.318l1.266.533-.638-1.227a6661.89 6661.89 0 0 0-3.605-6.925l-.44.232a6539.573 6539.573 0 0 0-7.237-13.835l.44-.232a7869.31 7869.31 0 0 0-7.268-13.82l-.439.233c-2.431-4.612-4.863-9.216-7.291-13.806l.439-.233-3.653-6.9v-.001c-1.96-3.672-3.919-7.344-5.876-11.018l-.438.235A5051.868 5051.868 0 0 1 60.313 40.54l.439-.233A2941.15 2941.15 0 0 1 54.96 29.25a568.623 568.623 0 0 0-3.672-7.067c-.517-.984-1.036-1.97-1.552-2.957l-.44.231c-3.487-6.673-6.902-13.47-9.398-20.534l.468-.165c-1.25-3.536-2.265-7.134-2.942-10.813-.202-1.165.057-2.27.625-3.232l-.428-.26c1.242-2.105 3.802-3.518 6.172-3.434l-.014.502c1.115.04 2.16.44 2.972 1.29l.01.008c2.857 2.838 5.432 6.002 7.804 9.383l.405-.288c4.642 6.616 8.493 14.034 12.146 21.417l-.445.221c.657 1.327 1.308 2.656 1.957 3.979a678.295 678.295 0 0 0 3.504 7.075c1.8 3.54 3.605 7.096 5.412 10.662l.443-.227 5.408 10.67 5.403 10.66-.442.225c1.808 3.565 3.613 7.122 5.412 10.662l3.566 6.995.442-.227 7.133 13.989-.442.227 3.566 6.994 3.566 6.994.442-.227 7.133 13.989-.443.227 3.567 6.995.207.406.419-.165a6.76 6.76 0 0 0 .531-.244l-.225-.449.288-.148c.21-.109.434-.224.676-.337l.212.456c.15-.07.305-.138.467-.202a28.46 28.46 0 0 1 3.46-1.12l-.125-.487a27.666 27.666 0 0 1 7.335-.85l-.005.503c1.204.021 2.415.119 3.634.291l.397.056.136-.379c.219-.609.443-1.231.672-1.862l-.468-.176c.44-1.214.896-2.462 1.357-3.722l.467.177.68-1.86.002-.005c1.197-3.375 2.392-6.755 3.586-10.137l-.469-.172a8682.66 8682.66 0 0 0 7.129-20.288l.47.17c2.368-6.764 4.731-13.534 7.088-20.303l-.47-.17c2.359-6.775 4.712-13.548 7.06-20.313l.47.17 3.524-10.16.029-.085-.001-.09-.001-.077c0-.053.003-.098.006-.138l-.496-.047a1.6 1.6 0 0 1 .054-.298l.014.005.08-.218.444.19.016-.038.085-.192.222-.49-.502-.192a245.15 245.15 0 0 0-10.179-3.619l-.152.478a273.046 273.046 0 0 0-20.708-5.94l.114-.488a316.596 316.596 0 0 0-21.105-4.408l-.081.495a365.541 365.541 0 0 0-21.296-3.055l.052-.5Zm-10.716-.96.01-.117a.153.153 0 0 1 .08.072l-.09.044Z" opacity=".2"/>
</svg>
